<svg xmlns="http://www.w3.org/2000/svg" viewBox="0 0 488.4 150.458"><defs><style>.a{fill:#fff;}</style></defs><title>_xbox</title>
<path fill="#ffffff" d="M257,204.6h-11.64l-25.386,35.045L194.589,204.6h-11.64L214.155,247.7l-34.3,47.3h11.64l28.482-39.131L248.457,295H260.1l-34.3-47.3Zm122.719-2.229c-25.138,0-42.6,19.442-42.6,47.3s17.461,47.3,42.6,47.3c24.891,0,42.351-19.442,42.351-47.3S404.859,202.374,379.721,202.374Zm0,84.95c-18.947,0-32.444-15.479-32.444-37.645s13.374-37.645,32.444-37.645,32.2,15.479,32.2,37.645C412.165,271.845,398.791,287.324,379.721,287.324ZM459.1,247.7,490.3,204.6h-11.64l-25.386,35.045L427.892,204.6h-11.64L447.458,247.7l-34.3,47.3H424.8l28.482-39.131L481.76,295H493.4ZM325.11,251.041a20.051,20.051,0,0,0-5.82-3.715,20.732,20.732,0,0,0,10.65-18.2c0-5.82-1.981-24.643-28.977-24.643H264.8v39.008H252.791c-1.486,1.981-5.077,6.935-6.439,9.04H264.8v42.351h36.159c19.69,0,31.7-10.154,31.7-26.5A22.178,22.178,0,0,0,325.11,251.041Zm-50.276-37.15h26.129c7.182,0,18.947,1.858,18.947,14.365,0,9.535-6.935,15.108-18.947,15.108H274.834Zm26.253,71.576H274.957v-32.94h26.129c10.03,0,21.919,2.724,21.919,15.727C322.757,283.238,309.259,285.467,301.086,285.467ZM58.744,215.253l.124-.124c0-.124,0-.124-.124-.124-25.138-25.386-31.7-19.442-31.7-19.69h0a76.259,76.259,0,0,0-6.935,99.191.611.611,0,0,0,.371.124c.124,0,.124-.124.124-.371C15.03,276.3,43.884,233.209,58.744,215.253Zm72.443-20.185c.124,0-6.563-5.82-31.7,19.69l-.124.124a.121.121,0,0,0,.124.124c14.984,17.956,43.713,61.05,38.141,78.882,0,.124,0,.371.124.371s.371,0,.371-.124a76.092,76.092,0,0,0-6.935-99.067ZM40.664,185.038c12.755-3.22,32.94,7.43,38.265,10.65h.248c1.981-1.238,23.9-13.869,38.141-10.65.124,0,.371,0,.371-.124s0-.371-.124-.371c-11.393-6.811-23.528-11.021-38.636-11.021-14.984,0-27.243,4.21-38.636,11.021-.124,0-.124.124-.124.371C40.293,185.038,40.416,185.038,40.664,185.038ZM79.3,233.952l-.124-.124a.121.121,0,0,0-.124.124C56.886,251.041,18.993,293.516,30.51,305.28h0a73.278,73.278,0,0,0,48.79,18.7,72.3,72.3,0,0,0,48.79-18.7C139.483,293.268,101.466,251.041,79.3,233.952Z" transform="translate(-5 -173.521)"/>
</svg>