<svg xmlns="http://www.w3.org/2000/svg" viewBox="0 0 244.5 180">
  <g fill="white">
	<path d="M41.5 103.9H45c.4 0 .7-.3.7-.7v-.7c0-3.7 0-7.4.1-11.1 0-.5.2-1.1.4-1.6.4-.9 1.2-1.4 2.2-1.3s1.7.6 1.9 1.6c.1.7.2 1.4.2 2V103c0 .7.2.9.9.9h2.5c1.4 0 1.4 0 1.4-1.4 0-3.6 0-7.2.1-10.7 0-.6.1-1.2.3-1.8.4-1.1 1.4-1.6 2.6-1.5 1 .1 1.5.7 1.7 1.9.1.6.1 1.1.1 1.7v10.8c0 .8.2 1 1 1h2.8c1 0 1.1-.1 1.1-1.1V90.1c0-.6 0-1.3-.1-1.9-.1-1.3-.6-2.4-1.7-3.2-2.6-2.1-6.6-1.3-8.1 1.7-.1.1-.2.3-.3.5-.9-2.1-2.3-3.4-4.7-3.4-2.3 0-3.8 1.2-4.8 3.3v-2s-.2-.9-.9-.9h-2.7s-1.1.1-1.1 1.1v17.9c.2.4.4.7.9.7z"/>
	<path d="M37.7 100.2c-.8-1-1.2-2.2-1.1-3.5v-7.6s-1.4-4.3-3.8-5.1c-2.4-.8-4.7-.7-7.1.1-2.1.8-3.6 2.3-4.1 4.5-.2.8 0 1 .8 1.1l2.8.3c.6.1.8-.1 1-.7.4-1.4 1.5-2.2 3-2.1 1.2 0 2.1.7 2.3 1.8.1.7.1 1.4.1 2.2-1 .1-1.9.2-2.7.3-1.2.2-2.5.4-3.7.8-3.2 1.1-4.8 4.1-4.1 7.4.4 2 1.5 3.5 3.6 3.9 2.4.6 4.6.2 6.6-1.4.4-.3.7-.6 1-.9.6.7 1.2 1.4 1.8 2s.9.5 1.4 0l2.1-1.8c.7-.4.8-.5.1-1.3zM31 98.7c-.3.5-.6.9-1 1.2-.7.6-1.6.7-2.4.4-.9-.4-1.2-1.2-1.3-2-.2-1.9.7-3.2 2.5-3.6.9-.2 1.8-.3 2.9-.5-.2 1.7 0 3.2-.7 4.5z"/>
	<path d="M75.2 91.8c-1.3.2-2.6.5-3.8 1.1-2.5 1.3-3.8 4.1-3.2 7 .5 2.3 1.9 3.8 4.1 4.1 2.4.4 4.6-.1 6.4-1.9l.5-.5c.6.7 1.2 1.4 1.9 2.1.5.5.8.4 1.3 0l2.2-1.9c.8-.7.9-.8.2-1.7-.8-1-1.1-2.1-1.1-3.4v-7.6c0-2.6-1.4-4.3-3.8-5.1-2.4-.8-4.7-.7-7.1.1-2.1.8-3.6 2.3-4.1 4.5-.2.8 0 1 .8 1.1l2.8.3c.6.1.8-.1 1-.7.4-1.4 1.5-2.2 3-2.1 1.2.1 2.1.7 2.2 1.8.1.7.1 1.4.1 2.1-.2 0-.4.1-.5.1-.9.4-1.9.5-2.9.6zm2.9 6.9c-.3.5-.6.9-1.1 1.3-.7.6-1.6.7-2.4.3-.9-.4-1.2-1.2-1.3-2-.2-1.9.7-3.1 2.5-3.6.9-.2 1.8-.3 2.8-.5.1 1.6.3 3.1-.5 4.5z"/>
	<path d="M136.9 87.8c-.3-2.1-1.8-3.5-3.7-3.9-2.4-.4-4.2.3-5.4 2.2-.3.4-.5.9-.7 1.3h-.1V85c0-.6-.2-.8-.8-.8h-3.1c-.6 0-.8.2-.8.8v18.1c0 .6.2.8.8.8h2.5c1.5 0 1.5 0 1.5-1.6 0-3.4 0-6.9.1-10.3 0-1 .2-1.9.8-2.7.5-.8 1.3-1.1 2.2-1 .9.2 1.4.8 1.6 1.6.1.6.2 1.3.2 1.9v11.1c0 .7.2.9.9.9h3.1c.8 0 1-.2 1-1V91.7c.2-1.2.1-2.6-.1-3.9z"/>
	<path d="M111.3 83.8c-3 .1-5.2 1.6-6.6 4.3-.8 1.5-1.1 3.1-1.2 4.7-.2 2.9.2 5.6 1.8 8.1 2.7 4.2 8.6 4.6 11.9.9 1.9-2.2 2.6-4.8 2.6-7 0-2.8-.4-4.9-1.5-6.9-1.5-2.8-3.9-4.2-7-4.1zm2.8 14.1c-.1.5-.4 1.1-.7 1.5-.9 1.4-2.9 1.3-3.7-.1-.6-1-.8-2-.9-3.1-.1-.8-.1-1.7-.1-2.5h-.1c.2-1.3.3-2.7.5-4 .1-.4.3-.8.5-1.1.5-.9 1.3-1.2 2.3-1.1.9.1 1.6.6 1.8 1.4.3 1 .5 2 .6 3 .2 2.1.3 4.1-.2 6z"/>
	<path d="M92.4 109.3c-.2 0-.5.1-.7.2-3.4 1.4-7 2.5-10.6 3.3-6.6 1.4-13.3 1.7-20 .9-8-1-15.6-3.5-22.7-7.5-.2-.1-.3-.2-.5-.2s-.5.1-.6.2 0 .4 0 .6c0 .1.2.2.3.3 8.8 7.7 19.1 11.4 31 11.5 1.2-.1 2.7-.1 4.1-.3 1.4-.2 2.9-.4 4.3-.7 5.2-1 10.1-2.8 14.5-5.7.5-.3 1-.7 1.5-1.1.3-.3.5-.6.2-1 .1-.4-.3-.6-.8-.5z"/>
	<path d="M202.3 75.3v-.6h-3v9.4c-1.3-.1-2.5-.2-3.7-.2-3 .1-5.5 1.3-7.3 3.7-2.1 2.7-2.6 5.8-2.1 9 .4 2.5 1.6 4.7 3.8 6 3.9 2.4 7.9 2.1 12 .4.3-.1.3-.4.3-.7v-27zm-3.3 26.1c-2.8.7-5.5.5-7.8-1.5-1.3-1.1-1.9-2.7-2-4.4-.2-2.2.1-4.4 1.5-6.2 1.7-2.2 4.1-3 6.8-2.7 1.8.2 1.8.2 1.8 2v12.2c0 .3 0 .5-.3.6z"/>
	<path d="M100.9 98.8c-.7-.3-1.4-.7-2.2-.8-1.4-.3-2.9-.5-4.3-.7.1-.1.2-.2.3-.4 1.8-2.5 3.5-5 5.3-7.6 1.7-2.4 1.3-1.5 1.3-4.3v-.1c0-.6-.2-.8-.8-.8H89c-.6 0-.8.2-.8.9v2.2c0 .8.2 1 1 1H95c-.2.3-.3.4-.4.6-2.1 3.1-4.3 6.1-6.4 9.2-.3.4-.5 1-.6 1.5-.1 1-.1 2.1-.1 3.2 0 .6.5.8 1 .6 4-1.9 8.1-1.9 12.1 0 .7.3 1.1.1 1.1-.7v-2.5c0-.6-.2-1-.8-1.3z"/>
	<path d="M156.6 84.4h-3.4c-.3 0-.7.1-.9.3-1.9 1.7-3.7 3.5-5.5 5.3l-1.2 1.2h-.1V74.8h-3V104h3V93.9c.2.2.3.4.4.5 2.5 3.1 5.1 6.2 7.6 9.3.3.3.5.4.9.4h3.3c-3.3-3.9-6.5-7.7-9.7-11.6 2.9-2.8 5.7-5.4 8.6-8.1z"/>
	<path d="M228.3 86.9c-.7-1-1.5-1.8-2.6-2.3-3.2-1.5-7.6-.9-9.9 3.3-1.4 2.5-1.6 5.3-1.2 8.1.3 2.2 1.1 4.2 2.7 5.8 2.5 2.5 5.6 2.9 9 2.1 1.2-.3 2.4-.8 3.4-1.5-.3-.7-.6-1.4-.9-2-.9.4-1.8.8-2.6 1-3.5 1-6.5-.3-7.8-3.4-.5-1.1-.7-2.2-.6-3.4h12.4c.1-2.5-.5-5.7-1.9-7.7zm-1.5 5.2h-9.1c-.5-3.2 2.5-6.2 5.5-5.5.9.2 1.6.6 2.1 1.3 1 1 1.6 2.8 1.5 4.2z"/>
	<path d="M182.5 88.7c-.6-3.4-3.2-5.2-6.7-4.7-2 .3-3.6 1.2-5.2 2.3-.2.1-.3.2-.5.4-.2-.8-.3-1.6-.4-2.3h-2.4v19.4h3V90.3c0-.5.1-.8.5-1.1 1.4-1.1 2.9-2.1 4.7-2.5 2.2-.4 3.6.5 4.1 2.6.1.6.2 1.1.2 1.7v12.7h3V90.5c-.1-.5-.1-1.2-.3-1.8z"/>
	<path d="M211.7 101.6h-.7c-.7 0-1-.3-1.2-1-.1-.5-.1-1-.1-1.5V74.7h-3v25.8c0 .4 0 .8.1 1.2.2 1.3.9 2.2 2.1 2.5 1.2.3 2.4.2 3.5-.4.1-.1.2-.3.2-.4l-.3-1.8c-.2-.1-.4 0-.6 0z"/>
	<path d="M159.8 103.9h2.9V84.4h-2.9v19.5z"/>
	<path d="M97.6 105c-1.6-.4-3.2-.4-4.8-.2-1.7.2-3.4.7-4.8 1.7-.2.2-.3.5-.5.7.3.1.6.2.8.2 1.4-.1 2.9-.3 4.4-.4.7.1 1.6.1 2.4.3.7.1.9.5.9 1.2v.7c-.3 1.9-1 3.8-1.7 5.6-.1.3-.5.8-.1 1.1.4.3.8-.2 1.1-.5 2.4-2.4 3.5-5.4 3.7-8.7.1-1.1-.2-1.4-1.4-1.7z"/>
	<path d="M161.3 76.1c-1.2 0-2.1 1-2.1 2.1s.9 2.1 2.1 2.1c1.2 0 2.1-1 2.1-2.1-.1-1.2-1-2.1-2.1-2.1z"/>
	</g>
</svg>