<?xml version="1.0" encoding="utf-8"?>
<!-- Generator: Adobe Illustrator 21.1.0, SVG Export Plug-In . SVG Version: 6.00 Build 0)  -->
<svg version="1.1" id="_branding" xmlns="http://www.w3.org/2000/svg" xmlns:xlink="http://www.w3.org/1999/xlink" x="0px" y="0px"
	 viewBox="0 0 1920 1080" style="enable-background:new 0 0 1920 1080;" xml:space="preserve">
<title>Branding</title>
<g>
	<path d="M45.7,99.4c1.2,0,2.4,0,3.5,0c0.4,0,0.7-0.3,0.7-0.7c0-0.2,0-0.5,0-0.7c0-3.7,0-7.4,0.1-11.1c0-0.5,0.2-1.1,0.4-1.6
		c0.4-0.9,1.2-1.4,2.2-1.3c1,0.1,1.7,0.6,1.9,1.6c0.1,0.7,0.2,1.4,0.2,2c0,3.6,0,7.3,0,10.9c0,0.7,0.2,0.9,0.9,0.9
		c0.8,0,1.7,0,2.5,0c1.4,0,1.4,0,1.4-1.4c0-3.6,0-7.2,0.1-10.7c0-0.6,0.1-1.2,0.3-1.8c0.4-1.1,1.4-1.6,2.6-1.5
		c1,0.1,1.5,0.7,1.7,1.9c0.1,0.6,0.1,1.1,0.1,1.7c0,3.6,0,7.2,0,10.8c0,0.8,0.2,1,1,1c0.9,0,1.9,0,2.8,0c1,0,1.1-0.1,1.1-1.1
		c0-4.2,0-8.5,0-12.7c0-0.6,0-1.3-0.1-1.9c-0.1-1.3-0.6-2.4-1.7-3.2c-2.6-2.1-6.6-1.3-8.1,1.7c-0.1,0.1-0.2,0.3-0.3,0.5
		c-0.9-2.1-2.3-3.4-4.7-3.4c-2.3,0-3.8,1.2-4.8,3.3c0-0.7,0-1.3,0-2c0-0.7-0.2-0.9-0.9-0.9c-0.9,0-1.8,0-2.7,0
		c-0.9,0-1.1,0.1-1.1,1.1c0,5.6,0,11.2,0,16.8c0,0.4,0,0.7,0,1.1C45,99.1,45.2,99.4,45.7,99.4z"/>
	<path d="M41.9,95.7c-0.8-1-1.2-2.2-1.1-3.5c0-2.5,0-5,0-7.6c0-2.6-1.4-4.3-3.8-5.1c-2.4-0.8-4.7-0.7-7.1,0.1
		c-2.1,0.8-3.6,2.3-4.1,4.5c-0.2,0.8,0,1,0.8,1.1c0.9,0.1,1.9,0.2,2.8,0.3c0.6,0.1,0.8-0.1,1-0.7c0.4-1.4,1.5-2.2,3-2.1
		c1.2,0,2.1,0.7,2.3,1.8c0.1,0.7,0.1,1.4,0.1,2.2c-1,0.1-1.9,0.2-2.7,0.3c-1.2,0.2-2.5,0.4-3.7,0.8c-3.2,1.1-4.8,4.1-4.1,7.4
		c0.4,2,1.5,3.5,3.6,3.9c2.4,0.6,4.6,0.2,6.6-1.4c0.4-0.3,0.7-0.6,1-0.9c0.6,0.7,1.2,1.4,1.8,2c0.6,0.6,0.9,0.5,1.4,0
		c0.7-0.6,1.4-1.2,2.1-1.8C42.5,96.6,42.6,96.5,41.9,95.7z M35.2,94.2c-0.3,0.5-0.6,0.9-1,1.2c-0.7,0.6-1.6,0.7-2.4,0.4
		c-0.9-0.4-1.2-1.2-1.3-2c-0.2-1.9,0.7-3.2,2.5-3.6c0.9-0.2,1.8-0.3,2.9-0.5C35.7,91.4,35.9,92.9,35.2,94.2z"/>
	<path d="M79.4,87.3c-1.3,0.2-2.6,0.5-3.8,1.1c-2.5,1.3-3.8,4.1-3.2,7c0.5,2.3,1.9,3.8,4.1,4.1c2.4,0.4,4.6-0.1,6.4-1.9
		c0.2-0.2,0.4-0.4,0.5-0.5c0.6,0.7,1.2,1.4,1.9,2.1c0.5,0.5,0.8,0.4,1.3,0c0.7-0.6,1.4-1.2,2.2-1.9c0.8-0.7,0.9-0.8,0.2-1.7
		c-0.8-1-1.1-2.1-1.1-3.4c0-2.5,0-5.1,0-7.6c0-2.6-1.4-4.3-3.8-5.1c-2.4-0.8-4.7-0.7-7.1,0.1c-2.1,0.8-3.6,2.3-4.1,4.5
		c-0.2,0.8,0,1,0.8,1.1c0.9,0.1,1.9,0.2,2.8,0.3c0.6,0.1,0.8-0.1,1-0.7c0.4-1.4,1.5-2.2,3-2.1c1.2,0.1,2.1,0.7,2.2,1.8
		c0.1,0.7,0.1,1.4,0.1,2.1c-0.2,0-0.4,0.1-0.5,0.1C81.4,87.1,80.4,87.2,79.4,87.3z M82.3,94.2c-0.3,0.5-0.6,0.9-1.1,1.3
		c-0.7,0.6-1.6,0.7-2.4,0.3c-0.9-0.4-1.2-1.2-1.3-2c-0.2-1.9,0.7-3.1,2.5-3.6c0.9-0.2,1.8-0.3,2.8-0.5
		C82.9,91.3,83.1,92.8,82.3,94.2z"/>
	<path d="M141.1,83.3c-0.3-2.1-1.8-3.5-3.7-3.9c-2.4-0.4-4.2,0.3-5.4,2.2c-0.3,0.4-0.5,0.9-0.7,1.3c0,0-0.1,0-0.1,0
		c0-0.8,0-1.6,0-2.4c0-0.6-0.2-0.8-0.8-0.8c-1,0-2.1,0-3.1,0c-0.6,0-0.8,0.2-0.8,0.8c0,6,0,12.1,0,18.1c0,0.6,0.2,0.8,0.8,0.8
		c0.8,0,1.7,0,2.5,0c1.5,0,1.5,0,1.5-1.6c0-3.4,0-6.9,0.1-10.3c0-1,0.2-1.9,0.8-2.7c0.5-0.8,1.3-1.1,2.2-1c0.9,0.2,1.4,0.8,1.6,1.6
		c0.1,0.6,0.2,1.3,0.2,1.9c0,3.7,0,7.4,0,11.1c0,0.7,0.2,0.9,0.9,0.9c1,0,2,0,3.1,0c0.8,0,1-0.2,1-1c0-3.7,0-7.4,0-11.1
		C141.4,86,141.3,84.6,141.1,83.3z"/>
	<path d="M115.5,79.3c-3,0.1-5.2,1.6-6.6,4.3c-0.8,1.5-1.1,3.1-1.2,4.7c-0.2,2.9,0.2,5.6,1.8,8.1c2.7,4.2,8.6,4.6,11.9,0.9
		c1.9-2.2,2.6-4.8,2.6-7c0-2.8-0.4-4.9-1.5-6.9C121,80.6,118.6,79.2,115.5,79.3z M118.3,93.4c-0.1,0.5-0.4,1.1-0.7,1.5
		c-0.9,1.4-2.9,1.3-3.7-0.1c-0.6-1-0.8-2-0.9-3.1c-0.1-0.8-0.1-1.7-0.1-2.5c0,0-0.1,0-0.1,0c0.2-1.3,0.3-2.7,0.5-4
		c0.1-0.4,0.3-0.8,0.5-1.1c0.5-0.9,1.3-1.2,2.3-1.1c0.9,0.1,1.6,0.6,1.8,1.4c0.3,1,0.5,2,0.6,3C118.7,89.5,118.8,91.5,118.3,93.4z"
		/>
	<path d="M96.6,104.8c-0.2,0-0.5,0.1-0.7,0.2c-3.4,1.4-7,2.5-10.6,3.3c-6.6,1.4-13.3,1.7-20,0.9c-8-1-15.6-3.5-22.7-7.5
		c-0.2-0.1-0.3-0.2-0.5-0.2c-0.2,0-0.5,0.1-0.6,0.2c-0.1,0.1,0,0.4,0,0.6c0,0.1,0.2,0.2,0.3,0.3c8.8,7.7,19.1,11.4,31,11.5
		c1.2-0.1,2.7-0.1,4.1-0.3c1.4-0.2,2.9-0.4,4.3-0.7c5.2-1,10.1-2.8,14.5-5.7c0.5-0.3,1-0.7,1.5-1.1c0.3-0.3,0.5-0.6,0.2-1
		C97.5,104.9,97.1,104.7,96.6,104.8z"/>
	<path d="M206.5,70.8c0-0.2,0-0.4,0-0.6c-1,0-2,0-3,0c0,3.2,0,6.3,0,9.4c-1.3-0.1-2.5-0.2-3.7-0.2c-3,0.1-5.5,1.3-7.3,3.7
		c-2.1,2.7-2.6,5.8-2.1,9c0.4,2.5,1.6,4.7,3.8,6c3.9,2.4,7.9,2.1,12,0.4c0.3-0.1,0.3-0.4,0.3-0.7C206.5,88.9,206.5,79.8,206.5,70.8z
		 M203.2,96.9c-2.8,0.7-5.5,0.5-7.8-1.5c-1.3-1.1-1.9-2.7-2-4.4c-0.2-2.2,0.1-4.4,1.5-6.2c1.7-2.2,4.1-3,6.8-2.7
		c1.8,0.2,1.8,0.2,1.8,2c0,1.9,0,3.7,0,5.6c0,2.2,0,4.4,0,6.6C203.5,96.6,203.5,96.8,203.2,96.9z"/>
	<path d="M105.1,94.3c-0.7-0.3-1.4-0.7-2.2-0.8c-1.4-0.3-2.9-0.5-4.3-0.7c0.1-0.1,0.2-0.2,0.3-0.4c1.8-2.5,3.5-5,5.3-7.6
		c1.7-2.4,1.3-1.5,1.3-4.3c0,0,0-0.1,0-0.1c0-0.6-0.2-0.8-0.8-0.8c-3.8,0-7.7,0-11.5,0c-0.6,0-0.8,0.2-0.8,0.9c0,0.7,0,1.4,0,2.2
		c0,0.8,0.2,1,1,1c1.7,0,3.5,0,5.2,0c0.2,0,0.4,0,0.6,0c-0.2,0.3-0.3,0.4-0.4,0.6c-2.1,3.1-4.3,6.1-6.4,9.2c-0.3,0.4-0.5,1-0.6,1.5
		c-0.1,1-0.1,2.1-0.1,3.2c0,0.6,0.5,0.8,1,0.6c4-1.9,8.1-1.9,12.1,0c0.7,0.3,1.1,0.1,1.1-0.7c0-0.8,0-1.7,0-2.5
		C105.9,95,105.7,94.6,105.1,94.3z"/>
	<path d="M160.8,79.9c-1.2,0-2.3,0-3.4,0c-0.3,0-0.7,0.1-0.9,0.3c-1.9,1.7-3.7,3.5-5.5,5.3c-0.4,0.4-0.8,0.8-1.2,1.2
		c0,0-0.1,0-0.1,0c0-5.5,0-10.9,0-16.4c-1,0-2,0-3,0c0,9.7,0,19.5,0,29.2c1,0,2,0,3,0c0-3.3,0-6.7,0-10.1c0.2,0.2,0.3,0.4,0.4,0.5
		c2.5,3.1,5.1,6.2,7.6,9.3c0.3,0.3,0.5,0.4,0.9,0.4c0.8,0,1.5,0,2.3,0c0.3,0,0.6,0,1,0c-3.3-3.9-6.5-7.7-9.7-11.6
		C155.1,85.2,157.9,82.6,160.8,79.9z"/>
	<path d="M232.5,82.4c-0.7-1-1.5-1.8-2.6-2.3c-3.2-1.5-7.6-0.9-9.9,3.3c-1.4,2.5-1.6,5.3-1.2,8.1c0.3,2.2,1.1,4.2,2.7,5.8
		c2.5,2.5,5.6,2.9,9,2.1c1.2-0.3,2.4-0.8,3.4-1.5c-0.3-0.7-0.6-1.4-0.9-2c-0.9,0.4-1.8,0.8-2.6,1c-3.5,1-6.5-0.3-7.8-3.4
		c-0.5-1.1-0.7-2.2-0.6-3.4c4.2,0,8.3,0,12.4,0C234.5,87.6,233.9,84.4,232.5,82.4z M231,87.6c-3.1,0-6.1,0-9.1,0
		c-0.5-3.2,2.5-6.2,5.5-5.5c0.9,0.2,1.6,0.6,2.1,1.3C230.5,84.4,231.1,86.2,231,87.6z"/>
	<path d="M186.7,84.2c-0.6-3.4-3.2-5.2-6.7-4.7c-2,0.3-3.6,1.2-5.2,2.3c-0.2,0.1-0.3,0.2-0.5,0.4c-0.2-0.8-0.3-1.6-0.4-2.3
		c-0.8,0-1.6,0-2.4,0c0,6.5,0,13,0,19.4c1,0,2,0,3,0c0-0.3,0-0.5,0-0.7c0-4.3,0-8.6,0-12.8c0-0.5,0.1-0.8,0.5-1.1
		c1.4-1.1,2.9-2.1,4.7-2.5c2.2-0.4,3.6,0.5,4.1,2.6c0.1,0.6,0.2,1.1,0.2,1.7c0,4,0,8,0,12.1c0,0.2,0,0.4,0,0.6c1,0,2,0,3,0
		c0-0.2,0-0.3,0-0.4c0-4.3,0-8.5,0-12.8C186.9,85.5,186.9,84.8,186.7,84.2z"/>
	<path d="M215.9,97.1c-0.2,0-0.5,0-0.7,0c-0.7,0-1-0.3-1.2-1c-0.1-0.5-0.1-1-0.1-1.5c0-7.9,0-15.8,0-23.7c0-0.2,0-0.4,0-0.7
		c-1,0-2,0-3,0c0,0.2,0,0.4,0,0.6c0,8.4,0,16.8,0,25.2c0,0.4,0,0.8,0.1,1.2c0.2,1.3,0.9,2.2,2.1,2.5c1.2,0.3,2.4,0.2,3.5-0.4
		c0.1-0.1,0.2-0.3,0.2-0.4c-0.1-0.6-0.2-1.2-0.3-1.8C216.3,97,216.1,97.1,215.9,97.1z"/>
	<path d="M164,99.4c1,0,2,0,2.9,0c0-6.5,0-13,0-19.5c-1,0-1.9,0-2.9,0C164,86.4,164,92.9,164,99.4z"/>
	<path d="M101.8,100.5c-1.6-0.4-3.2-0.4-4.8-0.2c-1.7,0.2-3.4,0.7-4.8,1.7c-0.2,0.2-0.3,0.5-0.5,0.7c0.3,0.1,0.6,0.2,0.8,0.2
		c1.4-0.1,2.9-0.3,4.4-0.4c0.7,0.1,1.6,0.1,2.4,0.3c0.7,0.1,0.9,0.5,0.9,1.2c0,0.2,0,0.5,0,0.7c-0.3,1.9-1,3.8-1.7,5.6
		c-0.1,0.3-0.5,0.8-0.1,1.1c0.4,0.3,0.8-0.2,1.1-0.5c2.4-2.4,3.5-5.4,3.7-8.7C103.3,101.1,103,100.8,101.8,100.5z"/>
	<path d="M165.5,71.6c-1.2,0-2.1,1-2.1,2.1c0,1.1,0.9,2.1,2.1,2.1c1.2,0,2.1-1,2.1-2.1C167.5,72.5,166.6,71.6,165.5,71.6z"/>
</g>
</svg>
