<?xml version="1.0" encoding="utf-8"?>
<!-- Generator: Adobe Illustrator 21.1.0, SVG Export Plug-In . SVG Version: 6.00 Build 0)  -->
<svg version="1.1" id="Layer_1" xmlns="http://www.w3.org/2000/svg" xmlns:xlink="http://www.w3.org/1999/xlink" x="0px" y="0px"
	 viewBox="0 0 244.5 180" style="enable-background:new 0 0 244.5 180;" xml:space="preserve">
<style type="text/css">
	.st0{fill:#FFFFFF;}
</style>
<g>
	<path class="st0" d="M41.5,103.9c1.2,0,2.4,0,3.5,0c0.4,0,0.7-0.3,0.7-0.7c0-0.2,0-0.5,0-0.7c0-3.7,0-7.4,0.1-11.1
		c0-0.5,0.2-1.1,0.4-1.6c0.4-0.9,1.2-1.4,2.2-1.3s1.7,0.6,1.9,1.6c0.1,0.7,0.2,1.4,0.2,2c0,3.6,0,7.3,0,10.9c0,0.7,0.2,0.9,0.9,0.9
		c0.8,0,1.7,0,2.5,0c1.4,0,1.4,0,1.4-1.4c0-3.6,0-7.2,0.1-10.7c0-0.6,0.1-1.2,0.3-1.8c0.4-1.1,1.4-1.6,2.6-1.5
		c1,0.1,1.5,0.7,1.7,1.9c0.1,0.6,0.1,1.1,0.1,1.7c0,3.6,0,7.2,0,10.8c0,0.8,0.2,1,1,1c0.9,0,1.9,0,2.8,0c1,0,1.1-0.1,1.1-1.1
		c0-4.2,0-8.5,0-12.7c0-0.6,0-1.3-0.1-1.9c-0.1-1.3-0.6-2.4-1.7-3.2c-2.6-2.1-6.6-1.3-8.1,1.7c-0.1,0.1-0.2,0.3-0.3,0.5
		c-0.9-2.1-2.3-3.4-4.7-3.4c-2.3,0-3.8,1.2-4.8,3.3c0-0.7,0-1.3,0-2s-0.2-0.9-0.9-0.9c-0.9,0-1.8,0-2.7,0s-1.1,0.1-1.1,1.1
		c0,5.6,0,11.2,0,16.8c0,0.4,0,0.7,0,1.1C40.8,103.6,41,103.9,41.5,103.9z"/>
	<path class="st0" d="M37.7,100.2c-0.8-1-1.2-2.2-1.1-3.5c0-2.5,0-5,0-7.6s-1.4-4.3-3.8-5.1c-2.4-0.8-4.7-0.7-7.1,0.1
		c-2.1,0.8-3.6,2.3-4.1,4.5c-0.2,0.8,0,1,0.8,1.1c0.9,0.1,1.9,0.2,2.8,0.3c0.6,0.1,0.8-0.1,1-0.7c0.4-1.4,1.5-2.2,3-2.1
		c1.2,0,2.1,0.7,2.3,1.8c0.1,0.7,0.1,1.4,0.1,2.2c-1,0.1-1.9,0.2-2.7,0.3c-1.2,0.2-2.5,0.4-3.7,0.8c-3.2,1.1-4.8,4.1-4.1,7.4
		c0.4,2,1.5,3.5,3.6,3.9c2.4,0.6,4.6,0.2,6.6-1.4c0.4-0.3,0.7-0.6,1-0.9c0.6,0.7,1.2,1.4,1.8,2s0.9,0.5,1.4,0
		c0.7-0.6,1.4-1.2,2.1-1.8C38.3,101.1,38.4,101,37.7,100.2z M31,98.7c-0.3,0.5-0.6,0.9-1,1.2c-0.7,0.6-1.6,0.7-2.4,0.4
		c-0.9-0.4-1.2-1.2-1.3-2c-0.2-1.9,0.7-3.2,2.5-3.6c0.9-0.2,1.8-0.3,2.9-0.5C31.5,95.9,31.7,97.4,31,98.7z"/>
	<path class="st0" d="M75.2,91.8c-1.3,0.2-2.6,0.5-3.8,1.1c-2.5,1.3-3.8,4.1-3.2,7c0.5,2.3,1.9,3.8,4.1,4.1c2.4,0.4,4.6-0.1,6.4-1.9
		c0.2-0.2,0.4-0.4,0.5-0.5c0.6,0.7,1.2,1.4,1.9,2.1c0.5,0.5,0.8,0.4,1.3,0c0.7-0.6,1.4-1.2,2.2-1.9c0.8-0.7,0.9-0.8,0.2-1.7
		c-0.8-1-1.1-2.1-1.1-3.4c0-2.5,0-5.1,0-7.6c0-2.6-1.4-4.3-3.8-5.1c-2.4-0.8-4.7-0.7-7.1,0.1c-2.1,0.8-3.6,2.3-4.1,4.5
		c-0.2,0.8,0,1,0.8,1.1c0.9,0.1,1.9,0.2,2.8,0.3c0.6,0.1,0.8-0.1,1-0.7c0.4-1.4,1.5-2.2,3-2.1c1.2,0.1,2.1,0.7,2.2,1.8
		c0.1,0.7,0.1,1.4,0.1,2.1c-0.2,0-0.4,0.1-0.5,0.1C77.2,91.6,76.2,91.7,75.2,91.8z M78.1,98.7c-0.3,0.5-0.6,0.9-1.1,1.3
		c-0.7,0.6-1.6,0.7-2.4,0.3c-0.9-0.4-1.2-1.2-1.3-2c-0.2-1.9,0.7-3.1,2.5-3.6c0.9-0.2,1.8-0.3,2.8-0.5
		C78.7,95.8,78.9,97.3,78.1,98.7z"/>
	<path class="st0" d="M136.9,87.8c-0.3-2.1-1.8-3.5-3.7-3.9c-2.4-0.4-4.2,0.3-5.4,2.2c-0.3,0.4-0.5,0.9-0.7,1.3H127
		c0-0.8,0-1.6,0-2.4c0-0.6-0.2-0.8-0.8-0.8c-1,0-2.1,0-3.1,0c-0.6,0-0.8,0.2-0.8,0.8c0,6,0,12.1,0,18.1c0,0.6,0.2,0.8,0.8,0.8
		c0.8,0,1.7,0,2.5,0c1.5,0,1.5,0,1.5-1.6c0-3.4,0-6.9,0.1-10.3c0-1,0.2-1.9,0.8-2.7c0.5-0.8,1.3-1.1,2.2-1c0.9,0.2,1.4,0.8,1.6,1.6
		c0.1,0.6,0.2,1.3,0.2,1.9c0,3.7,0,7.4,0,11.1c0,0.7,0.2,0.9,0.9,0.9c1,0,2,0,3.1,0c0.8,0,1-0.2,1-1c0-3.7,0-7.4,0-11.1
		C137.2,90.5,137.1,89.1,136.9,87.8z"/>
	<path class="st0" d="M111.3,83.8c-3,0.1-5.2,1.6-6.6,4.3c-0.8,1.5-1.1,3.1-1.2,4.7c-0.2,2.9,0.2,5.6,1.8,8.1
		c2.7,4.2,8.6,4.6,11.9,0.9c1.9-2.2,2.6-4.8,2.6-7c0-2.8-0.4-4.9-1.5-6.9C116.8,85.1,114.4,83.7,111.3,83.8z M114.1,97.9
		c-0.1,0.5-0.4,1.1-0.7,1.5c-0.9,1.4-2.9,1.3-3.7-0.1c-0.6-1-0.8-2-0.9-3.1c-0.1-0.8-0.1-1.7-0.1-2.5h-0.1c0.2-1.3,0.3-2.7,0.5-4
		c0.1-0.4,0.3-0.8,0.5-1.1c0.5-0.9,1.3-1.2,2.3-1.1c0.9,0.1,1.6,0.6,1.8,1.4c0.3,1,0.5,2,0.6,3C114.5,94,114.6,96,114.1,97.9z"/>
	<path class="st0" d="M92.4,109.3c-0.2,0-0.5,0.1-0.7,0.2c-3.4,1.4-7,2.5-10.6,3.3c-6.6,1.4-13.3,1.7-20,0.9c-8-1-15.6-3.5-22.7-7.5
		c-0.2-0.1-0.3-0.2-0.5-0.2s-0.5,0.1-0.6,0.2s0,0.4,0,0.6c0,0.1,0.2,0.2,0.3,0.3c8.8,7.7,19.1,11.4,31,11.5c1.2-0.1,2.7-0.1,4.1-0.3
		c1.4-0.2,2.9-0.4,4.3-0.7c5.2-1,10.1-2.8,14.5-5.7c0.5-0.3,1-0.7,1.5-1.1c0.3-0.3,0.5-0.6,0.2-1C93.3,109.4,92.9,109.2,92.4,109.3z
		"/>
	<path class="st0" d="M202.3,75.3c0-0.2,0-0.4,0-0.6c-1,0-2,0-3,0c0,3.2,0,6.3,0,9.4c-1.3-0.1-2.5-0.2-3.7-0.2
		c-3,0.1-5.5,1.3-7.3,3.7c-2.1,2.7-2.6,5.8-2.1,9c0.4,2.5,1.6,4.7,3.8,6c3.9,2.4,7.9,2.1,12,0.4c0.3-0.1,0.3-0.4,0.3-0.7
		C202.3,93.4,202.3,84.3,202.3,75.3z M199,101.4c-2.8,0.7-5.5,0.5-7.8-1.5c-1.3-1.1-1.9-2.7-2-4.4c-0.2-2.2,0.1-4.4,1.5-6.2
		c1.7-2.2,4.1-3,6.8-2.7c1.8,0.2,1.8,0.2,1.8,2c0,1.9,0,3.7,0,5.6c0,2.2,0,4.4,0,6.6C199.3,101.1,199.3,101.3,199,101.4z"/>
	<path class="st0" d="M100.9,98.8c-0.7-0.3-1.4-0.7-2.2-0.8c-1.4-0.3-2.9-0.5-4.3-0.7c0.1-0.1,0.2-0.2,0.3-0.4
		c1.8-2.5,3.5-5,5.3-7.6c1.7-2.4,1.3-1.5,1.3-4.3v-0.1c0-0.6-0.2-0.8-0.8-0.8c-3.8,0-7.7,0-11.5,0c-0.6,0-0.8,0.2-0.8,0.9
		c0,0.7,0,1.4,0,2.2c0,0.8,0.2,1,1,1c1.7,0,3.5,0,5.2,0c0.2,0,0.4,0,0.6,0c-0.2,0.3-0.3,0.4-0.4,0.6c-2.1,3.1-4.3,6.1-6.4,9.2
		c-0.3,0.4-0.5,1-0.6,1.5c-0.1,1-0.1,2.1-0.1,3.2c0,0.6,0.5,0.8,1,0.6c4-1.9,8.1-1.9,12.1,0c0.7,0.3,1.1,0.1,1.1-0.7
		c0-0.8,0-1.7,0-2.5C101.7,99.5,101.5,99.1,100.9,98.8z"/>
	<path class="st0" d="M156.6,84.4c-1.2,0-2.3,0-3.4,0c-0.3,0-0.7,0.1-0.9,0.3c-1.9,1.7-3.7,3.5-5.5,5.3c-0.4,0.4-0.8,0.8-1.2,1.2
		h-0.1c0-5.5,0-10.9,0-16.4c-1,0-2,0-3,0c0,9.7,0,19.5,0,29.2c1,0,2,0,3,0c0-3.3,0-6.7,0-10.1c0.2,0.2,0.3,0.4,0.4,0.5
		c2.5,3.1,5.1,6.2,7.6,9.3c0.3,0.3,0.5,0.4,0.9,0.4c0.8,0,1.5,0,2.3,0c0.3,0,0.6,0,1,0c-3.3-3.9-6.5-7.7-9.7-11.6
		C150.9,89.7,153.7,87.1,156.6,84.4z"/>
	<path class="st0" d="M228.3,86.9c-0.7-1-1.5-1.8-2.6-2.3c-3.2-1.5-7.6-0.9-9.9,3.3c-1.4,2.5-1.6,5.3-1.2,8.1
		c0.3,2.2,1.1,4.2,2.7,5.8c2.5,2.5,5.6,2.9,9,2.1c1.2-0.3,2.4-0.8,3.4-1.5c-0.3-0.7-0.6-1.4-0.9-2c-0.9,0.4-1.8,0.8-2.6,1
		c-3.5,1-6.5-0.3-7.8-3.4c-0.5-1.1-0.7-2.2-0.6-3.4c4.2,0,8.3,0,12.4,0C230.3,92.1,229.7,88.9,228.3,86.9z M226.8,92.1
		c-3.1,0-6.1,0-9.1,0c-0.5-3.2,2.5-6.2,5.5-5.5c0.9,0.2,1.6,0.6,2.1,1.3C226.3,88.9,226.9,90.7,226.8,92.1z"/>
	<path class="st0" d="M182.5,88.7c-0.6-3.4-3.2-5.2-6.7-4.7c-2,0.3-3.6,1.2-5.2,2.3c-0.2,0.1-0.3,0.2-0.5,0.4
		c-0.2-0.8-0.3-1.6-0.4-2.3c-0.8,0-1.6,0-2.4,0c0,6.5,0,13,0,19.4c1,0,2,0,3,0c0-0.3,0-0.5,0-0.7c0-4.3,0-8.6,0-12.8
		c0-0.5,0.1-0.8,0.5-1.1c1.4-1.1,2.9-2.1,4.7-2.5c2.2-0.4,3.6,0.5,4.1,2.6c0.1,0.6,0.2,1.1,0.2,1.7c0,4,0,8,0,12.1
		c0,0.2,0,0.4,0,0.6c1,0,2,0,3,0c0-0.2,0-0.3,0-0.4c0-4.3,0-8.5,0-12.8C182.7,90,182.7,89.3,182.5,88.7z"/>
	<path class="st0" d="M211.7,101.6c-0.2,0-0.5,0-0.7,0c-0.7,0-1-0.3-1.2-1c-0.1-0.5-0.1-1-0.1-1.5c0-7.9,0-15.8,0-23.7
		c0-0.2,0-0.4,0-0.7c-1,0-2,0-3,0c0,0.2,0,0.4,0,0.6c0,8.4,0,16.8,0,25.2c0,0.4,0,0.8,0.1,1.2c0.2,1.3,0.9,2.2,2.1,2.5
		c1.2,0.3,2.4,0.2,3.5-0.4c0.1-0.1,0.2-0.3,0.2-0.4c-0.1-0.6-0.2-1.2-0.3-1.8C212.1,101.5,211.9,101.6,211.7,101.6z"/>
	<path class="st0" d="M159.8,103.9c1,0,2,0,2.9,0c0-6.5,0-13,0-19.5c-1,0-1.9,0-2.9,0C159.8,90.9,159.8,97.4,159.8,103.9z"/>
	<path class="st0" d="M97.6,105c-1.6-0.4-3.2-0.4-4.8-0.2c-1.7,0.2-3.4,0.7-4.8,1.7c-0.2,0.2-0.3,0.5-0.5,0.7
		c0.3,0.1,0.6,0.2,0.8,0.2c1.4-0.1,2.9-0.3,4.4-0.4c0.7,0.1,1.6,0.1,2.4,0.3c0.7,0.1,0.9,0.5,0.9,1.2c0,0.2,0,0.5,0,0.7
		c-0.3,1.9-1,3.8-1.7,5.6c-0.1,0.3-0.5,0.8-0.1,1.1c0.4,0.3,0.8-0.2,1.1-0.5c2.4-2.4,3.5-5.4,3.7-8.7
		C99.1,105.6,98.8,105.3,97.6,105z"/>
	<path class="st0" d="M161.3,76.1c-1.2,0-2.1,1-2.1,2.1s0.9,2.1,2.1,2.1c1.2,0,2.1-1,2.1-2.1C163.3,77,162.4,76.1,161.3,76.1z"/>
</g>
</svg>
