<?xml version="1.0" encoding="utf-8"?>
<!-- Generator: Adobe Illustrator 21.1.0, SVG Export Plug-In . SVG Version: 6.00 Build 0)  -->
<svg version="1.1" id="Layer_1" xmlns="http://www.w3.org/2000/svg" xmlns:xlink="http://www.w3.org/1999/xlink" x="0px" y="0px"
	 viewBox="0 0 244.5 180" style="enable-background:new 0 0 244.5 180;" xml:space="preserve">
<style type="text/css">
	.st0{fill:#FFFFFF;}
</style>
<path class="st0" d="M40.9,88.7c2.3-1.3,3.7-3.7,3.7-6.4c0.1-1.9-0.6-3.8-1.9-5.2c-2.4-2.6-4.8-3.1-10.2-3.1h-9.8v31.7h10.1
	c5.4,0,7.5-0.3,10.4-2.7c1.9-1.8,2.9-4.3,2.9-6.9C46.3,92.8,44.1,89.7,40.9,88.7z M30.5,81.2h2.9c1.2,0,3.4,0,3.4,2.4
	c0,2.5-2.3,2.5-3.4,2.5h-2.9V81.2z M34.3,98.6h-3.8v-5.7h3.8c1.3,0,4,0,4,2.7C38.3,98.6,35.3,98.6,34.3,98.6z"/>
<path class="st0" d="M120.1,93.8L120.1,93.8L107.7,74h-7.1v31.3L88.2,74.1h-6.4l-11.9,29.8L62.8,95c6-1,7.9-6.4,7.9-10
	c0.1-3.3-1.4-6.5-3.9-8.7C64.7,74.7,62.6,74,57,74H47v31.7h7.8V95.5h0.1l7.3,10.3h15.6l1.7-4.6h11l1.5,4.6h8.8v-0.1h7.6l-0.2-19.2
	h0.1l12.3,19.2h7V74h-7.8L120.1,93.8z M57.7,90h-2.9v-8.8h3c3.1,0,5.2,1.4,5.2,4.3C63,87,62.5,90,57.7,90z M81.7,94.7l3.2-10.8H85
	l3.3,10.8H81.7z"/>
<path class="st0" d="M139.8,74h-10.5v31.7h11.1c12,0,16.3-7.2,16.3-15.9c0.1-3.5-0.9-7-2.9-9.9C149.7,74,143.4,74,139.8,74z
	 M140.9,98.6h-3.4V81.1h3.5c3.6,0,5.3,1.5,6.2,2.9c1,1.8,1.5,3.8,1.5,5.9C148.7,94.4,146.9,98.6,140.9,98.6z"/>
<path class="st0" d="M158.1,74h8.1v31.7h-8.1V74z"/>
<path class="st0" d="M187.9,93.8l-0.1,0.1L175.5,74h-7v31.7h7.8l-0.2-19.2h0.1l12.2,19.2h7V74h-7.8L187.9,93.8z"/>
<path class="st0" d="M211.2,87.7v6.5h9.5c-0.9,3.1-3.6,5.1-7.6,5.1s-8.7-2.9-8.7-9.5c-0.2-4.8,3.5-8.9,8.3-9.2c0.1,0,0.3,0,0.4,0
	c2.9,0,5.6,1.5,7,4.1h9.1c-1.8-6.1-8.3-11.2-15.9-11.2c-9.4,0-17,6.8-17,16.3c0,9.1,7.3,16.6,16.5,16.6c0.1,0,0.2,0,0.3,0
	c8.8,0,16.9-6.4,16.9-17v-1.7H211.2z"/>
</svg>
