<svg xmlns="http://www.w3.org/2000/svg" id="_branding"><title>Branding</title>
  <path d="M40.7 90.2c2.6-1.5 3.7-4 3.7-6.4 0-1.8-.5-3.7-1.9-5.2-2.4-2.6-4.8-3.1-10.2-3.1h-9.8v31.7h10.1c5.4 0 7.5-.3 10.4-2.7 1.9-1.6 2.9-4.4 2.9-6.9 0-1.4-.1-5.6-5.2-7.4zm-10.4-7.5h2.9c1.2 0 3.4 0 3.4 2.4 0 2.5-2.3 2.5-3.4 2.5h-2.9v-4.9zm3.8 17.4h-3.8v-5.7h3.8c1.3 0 4 0 4 2.7 0 3-3 3-4 3z" />
  <path d="M119.9 95.3l-.1.1-12.3-19.9h-7.1v31.3L88 75.6h-6.4l-11.9 29.8-7.1-8.9c6-1 7.9-6.4 7.9-10 0-3.3-1.3-6.6-3.9-8.7-2.1-1.6-4.2-2.3-9.8-2.3h-10v31.7h7.8V97h.1l7.3 10.3h15.6l1.7-4.6h11l1.5 4.6h8.8v-.1h7.6L108 88h.1l12.3 19.2h7V75.5h-7.8l.3 19.8zm-62.4-3.8h-2.9v-8.8h3c3.1 0 5.2 1.4 5.2 4.3 0 1.5-.5 4.5-5.3 4.5zm24 4.7l3.2-10.8h.1l3.3 10.8h-6.6z" />
  <path d="M139.6 75.5h-10.5v31.7h11.1c12 0 16.3-7.2 16.3-15.9 0-3.5-.7-6.9-2.9-9.9-4.1-5.9-10.4-5.9-14-5.9zm1.1 24.6h-3.4V82.6h3.5c3.6 0 5.3 1.5 6.2 2.9 1.1 1.8 1.5 4.1 1.5 5.9 0 4.5-1.8 8.7-7.8 8.7z" />
  <path d="M157.9 75.5h8.1v31.7h-8.1z" />
  <path d="M187.7 95.3l-.1.1-12.3-19.9h-7v31.7h7.8l-.2-19.2h.1l12.2 19.2h7V75.5h-7.8" />
  <path d="M211 89.2v6.5h9.5c-.9 3.1-3.6 5.1-7.6 5.1s-8.7-2.9-8.7-9.5c0-6.2 4.7-9.2 8.7-9.2 3.4 0 5.8 1.9 7 4.1h9.1c-1.8-6.1-8.3-11.2-15.9-11.2-9.4 0-17 6.8-17 16.3 0 9.1 7.2 16.6 16.8 16.6 8.8 0 16.9-6.4 16.9-17v-1.7H211z" />
</svg>