<svg xmlns="http://www.w3.org/2000/svg" viewBox="0 0 207.3 32.9">
  <path d="M18.2 15.2a7.23 7.23 0 0 0 3.7-6.4A7.47 7.47 0 0 0 20 3.6C17.6 1 15.2.5 9.8.5H0v31.7h10.1c5.4 0 7.5-.3 10.4-2.7a9.28 9.28 0 0 0 2.9-6.9 7.25 7.25 0 0 0-5.2-7.4zM7.8 7.7h2.9c1.2 0 3.4 0 3.4 2.4 0 2.5-2.3 2.5-3.4 2.5H7.8zm3.8 17.4H7.8v-5.7h3.8c1.3 0 4 0 4 2.7 0 3-3 3-4 3z"/>
  <path d="M97.4 20.3l-.1.1L85 .5h-7.1v31.3L65.5.6h-6.4L47.2 30.4l-7.1-8.9c6-1 7.9-6.4 7.9-10a11.12 11.12 0 0 0-3.9-8.7C42 1.2 39.9.5 34.3.5h-10v31.7h7.8V22h.1l7.3 10.3h15.6l1.7-4.6h11l1.5 4.6h8.8v-.1h7.6L85.5 13h.1l12.3 19.2h7V.5h-7.8zM35 16.5h-2.9V7.7h3c3.1 0 5.2 1.4 5.2 4.3 0 1.5-.5 4.5-5.3 4.5zm24 4.7l3.2-10.8h.1l3.3 10.8z"/>
  <path d="M117.1.5h-10.5v31.7h11.1c12 0 16.3-7.2 16.3-15.9a16.17 16.17 0 0 0-2.9-9.9C127 .5 120.7.5 117.1.5zm1.1 24.6h-3.4V7.6h3.5c3.6 0 5.3 1.5 6.2 2.9a11.77 11.77 0 0 1 1.5 5.9c0 4.5-1.8 8.7-7.8 8.7z"/>
  <path d="M135.4.5h8.1v31.7h-8.1z"/>
  <path d="M165.2 20.3l-.1.1L152.8.5h-7v31.7h7.8l-.2-19.2h.1l12.2 19.2h7V.5h-7.8"/>
  <path d="M188.5 14.2v6.5h9.5c-.9 3.1-3.6 5.1-7.6 5.1s-8.7-2.9-8.7-9.5a8.75 8.75 0 0 1 8.7-9.2 7.82 7.82 0 0 1 7 4.1h9.1C204.7 5.1 198.2 0 190.6 0c-9.4 0-17 6.8-17 16.3a16.54 16.54 0 0 0 16.8 16.6c8.8 0 16.9-6.4 16.9-17v-1.7z"/>
</svg>