<svg id="_branding"><title>Branding</title>
<path class="st0" d="M40.7,90.2c2.6-1.5,3.7-4,3.7-6.4c0-1.8-0.5-3.7-1.9-5.2c-2.4-2.6-4.8-3.1-10.2-3.1h-9.8v31.7h10.1
	c5.4,0,7.5-0.3,10.4-2.7c1.9-1.6,2.9-4.4,2.9-6.9C45.9,96.2,45.8,92,40.7,90.2z M30.3,82.7h2.9c1.2,0,3.4,0,3.4,2.4
	c0,2.5-2.3,2.5-3.4,2.5h-2.9V82.7z M34.1,100.1h-3.8v-5.7h3.8c1.3,0,4,0,4,2.7C38.1,100.1,35.1,100.1,34.1,100.1z"/>
<path class="st0" d="M119.9,95.3l-0.1,0.1l-12.3-19.9h-7h-0.1v31.3L88,75.6h-6.4l-11.9,29.8l-7.1-8.9c6-1,7.9-6.4,7.9-10
	c0-3.3-1.3-6.6-3.9-8.7c-2.1-1.6-4.2-2.3-9.8-2.3h-10v31.7h7.8V97h0.1l7.3,10.3h6.9h2.3h6.4l1.7-4.6h11l1.5,4.6h8.8l0-0.1h7.6
	L108,88h0.1l12.3,19.2h7V75.5h-7.8L119.9,95.3z M57.5,91.5h-2.9v-8.8h3c3.1,0,5.2,1.4,5.2,4.3C62.8,88.5,62.3,91.5,57.5,91.5z
	 M81.5,96.2l3.2-10.8h0.1l3.3,10.8H81.5z"/>
<path class="st0" d="M139.6,75.5h-10.5h0v31.7h11.1c12,0,16.3-7.2,16.3-15.9c0-3.5-0.7-6.9-2.9-9.9
	C149.5,75.5,143.2,75.5,139.6,75.5z M140.7,100.1h-3.4V82.6h3.5c3.6,0,5.3,1.5,6.2,2.9c1.1,1.8,1.5,4.1,1.5,5.9
	C148.5,95.9,146.7,100.1,140.7,100.1z"/>
<rect x="157.9" y="75.5" class="st0" width="8.1" height="31.7"/>
<polygon class="st0" points="187.7,95.3 187.6,95.4 175.3,75.5 168.3,75.5 168.3,107.2 176.1,107.2 175.9,88 176,88 188.2,107.2 
	195.2,107.2 195.2,75.5 187.4,75.5 	"/>
<path class="st0" d="M211,89.2v6.5h9.5c-0.9,3.1-3.6,5.1-7.6,5.1s-8.7-2.9-8.7-9.5c0-6.2,4.7-9.2,8.7-9.2c3.4,0,5.8,1.9,7,4.1h9.1
	c-1.8-6.1-8.3-11.2-15.9-11.2c-9.4,0-17,6.8-17,16.3c0,9.1,7.2,16.6,16.8,16.6c8.8,0,16.9-6.4,16.9-17c0-0.7,0-1.1,0-1.7H211z"/>
</svg>