<svg xmlns="http://www.w3.org/2000/svg" viewBox="0 0 385.4 286.1"><title>joeleby_logo</title><polygon points="348 149.1 327.6 203.8 307.3 149.1 269.6 149.1 310.6 236.2 310.6 286.1 344.6 286.1 344.6 236.2 385.4 149.1 348 149.1"/><path d="M284.2,229.3a31.616,31.616,0,0,0-6.6-9.2c-3-3-7.3-5.5-12.8-7.5a30.177,30.177,0,0,0,12.1-12.2,33.309,33.309,0,0,0,3.8-15.3,40.253,40.253,0,0,0-1.8-11.8,26.4,26.4,0,0,0-6.4-10.7,42.967,42.967,0,0,0-7.7-6.7,33.468,33.468,0,0,0-9.2-4.1,70.953,70.953,0,0,0-11.6-2.1c-4.3-.4-9.3-.7-15.1-.7H186.6V286h43.6c5.8,0,10.7-.3,14.9-.6a61.107,61.107,0,0,0,11.3-1.7,34.6,34.6,0,0,0,9.3-3.6,68.062,68.062,0,0,0,9-6.3,31.342,31.342,0,0,0,9.4-13.3,44.982,44.982,0,0,0,3.1-16.4c0-1.5-.2-3.6-.5-6.3A24.326,24.326,0,0,0,284.2,229.3Zm-63.6-49.2h12c1.4,0,2.9,0,4.6.1a15.29,15.29,0,0,1,4.8,1.1,9.079,9.079,0,0,1,3.8,3,10.2,10.2,0,0,1,1.6,6,10.484,10.484,0,0,1-1.7,6.3,9.508,9.508,0,0,1-4,3.2,15.391,15.391,0,0,1-4.8,1.2c-1.7.1-3.1.1-4.3.1h-12Zm31.2,69.5a14.121,14.121,0,0,1-4.9,3.9,16.047,16.047,0,0,1-5.7,1.5c-2,.1-3.5.2-4.6.2h-16v-25h16c1.3,0,3,.1,5,.3a18.218,18.218,0,0,1,5.7,1.3,11.405,11.405,0,0,1,4.7,3.5c1.3,1.6,1.9,3.9,1.9,6.8Q253.9,247.05,251.8,249.6Z"/><polygon points="104.6 286.1 180.6 286.1 180.6 255.1 137.6 255.1 137.6 232.1 178.6 232.1 178.6 201.1 137.6 201.1 137.6 180.1 180.6 180.1 180.6 149.1 104.6 149.1 104.6 286.1"/><polygon points="384.6 108.1 344.6 108.1 344.6 3.1 309.6 3.1 309.6 139.1 384.6 139.1 384.6 108.1"/><path d="M109.4,120.1A74.646,74.646,0,0,0,132,135.7a71.66,71.66,0,0,0,29.3,5.9,72.64,72.64,0,0,0,29.1-5.7,70.05,70.05,0,0,0,22.8-15.4,68.453,68.453,0,0,0,15.1-22.6c.8-1.8,1.3-3.7,2.3-5.6v46.8h75v-31h-42v-23h41v-31h-41v-21h42V3.1h-75V49.3c-1-1.9-1.5-3.8-2.3-5.6a70.842,70.842,0,0,0-15-22.6A73.237,73.237,0,0,0,190.4,5.7,72.357,72.357,0,0,0,161.5,0,71.76,71.76,0,0,0,136,4.2a70.366,70.366,0,0,0-32.8,24.9A71.142,71.142,0,0,0,95,43.3c-.8,2-1.3,4.1-2.3,6.1V3.1h-35V93.6c0,1.6.1,3.4,0,5.3a20.548,20.548,0,0,1-1,5.6,8.86,8.86,0,0,1-9.2,6.3,8.383,8.383,0,0,1-5.5-1.6,8.521,8.521,0,0,1-3-4,20.9,20.9,0,0,1-1.4-5.2c-.2-1.8-.4-3.2-.6-5.2H0c0,8,1.1,14.2,3.2,19.5a42.1,42.1,0,0,0,8,13.1,37.58,37.58,0,0,0,10.5,8,50.227,50.227,0,0,0,10.8,4.1,49.629,49.629,0,0,0,8.7,1.5c2.5.1,4,.2,4.6.2a54.573,54.573,0,0,0,21-4.4,42.68,42.68,0,0,0,17.5-13.4,33.011,33.011,0,0,0,3.8-5.9,46.024,46.024,0,0,0,2.7-7.5,64.957,64.957,0,0,0,1.6-10.5c.2-2.3.3-4.8.4-7.6a57.15,57.15,0,0,0,2.1,5.8A65.539,65.539,0,0,0,109.4,120.1Zm17.5-63.9A41.177,41.177,0,0,1,134,43.4a34.456,34.456,0,0,1,11.7-9.2,35.847,35.847,0,0,1,16-3.5,33.733,33.733,0,0,1,27.9,13.6,44.218,44.218,0,0,1,6.8,13.1,45.225,45.225,0,0,1,2.3,13.7,44.113,44.113,0,0,1-2.3,13.6,42.015,42.015,0,0,1-6.8,12.9,35.9,35.9,0,0,1-11.4,9.7,33.308,33.308,0,0,1-16.1,3.8,34.521,34.521,0,0,1-15.7-3.4,38.96,38.96,0,0,1-11.8-9,39.414,39.414,0,0,1-7.5-12.9,45.364,45.364,0,0,1-2.6-15.2A44.4,44.4,0,0,1,126.9,56.2Z"/></svg>