<?xml version="1.0" encoding="utf-8"?>
<svg version="1.1" xmlns="http://www.w3.org/2000/svg" viewBox="0 0 1400 720">
	<g>
	<path fill="white" d="M458.5,357h49c0-16.4,0-32.8,0-49.2h-49V357z M512.4,357c16.4,0,32.6,0,49,0c0-16.4,0-32.8,0-49.2h-49C512.4,324.2,512.4,340.6,512.4,357z M940.5,354.6v-8.7c-3.5,0-7,0-10.5,0c0-4.5,0-8.9,0-13.4c-3.5,1-7,2.2-10.5,3.2c-0.2,3.3,0,6.7,0,10c-5.2,0-10.4,0-15.6,0c0-2.7-0.2-5.4,0.2-8c0.3-2,1.5-4.2,3.5-5c2.5-1,5.4-0.3,7.9,0.7c0-3,0-6,0-9.2c-5-1.3-10.9-1.2-15.4,1.8c-2.8,1.8-5,4.9-6,8.2c-1.2,3.7-0.5,7.5-0.7,11.4c-2.5,0-4.9,0-7.4,0c0,2.8,0,5.7,0,8.5c2.5,0,4.9,0,7.4,0c0,12,0,23.9,0,36h10.5c0-12,0-23.9,0-36c5.2,0,10.4,0,15.6,0c0,7.7,0,15.2,0,22.9c0,3.5,0.7,7.4,3,10.2c2,2.5,5.2,3.7,8.4,3.8c3.3,0.2,6.7-0.2,9.7-1.5v-8.7c-2.3,1.5-5.5,2.2-8,0.8c-1.5-0.8-2.2-2.7-2.3-4.2c-0.3-2.7-0.2-5.5-0.2-8.2c0-5,0-9.9,0-14.9C933.4,354.6,937,354.5,940.5,354.6z M673.4,327c-3,0.3-5.5,3-5.4,6c-0.2,2.8,2.2,5.4,4.9,5.9c2.7,0.5,5.7-0.5,7-3c1.2-2.2,1-5-0.7-6.9C677.7,327.5,675.4,326.9,673.4,327z M644.1,328.5c-6.2,15.4-12.4,30.6-18.6,45.9c-1.3-3-2.5-6.2-3.7-9.2c-4.9-12.2-9.7-24.4-14.4-36.6h-15.4c0,20.8,0,41.5,0,62.1c3.3,0,6.7,0,10,0c0-9.2,0-18.6,0-27.8c0-6.7,0-13.4,0-20.1c0.2,0.3,0.3,0.7,0.5,1c6.4,15.7,12.6,31.3,18.9,47c2.5,0,5,0,7.5,0c6-15.7,12.4-31.3,18.4-46.9c0.2-0.3,0.3-0.7,0.5-1c0,0.7,0,1.3,0,2c0,15.2,0,30.6,0,45.9c3.5,0,7.2,0,10.7,0c0-20.8,0-41.5,0-62.1C654,328.4,649.1,328.4,644.1,328.5z M709,353.8c4.4-0.5,8.7,1.2,12,3.7c0-3.3,0-6.9,0-10.2c-1-0.5-2-1-3-1.3c-5.2-1.5-10.5-1.5-15.7,0c-4.7,1.3-9,4.2-11.7,8.4c-3.3,4.9-4.5,10.7-4.2,16.6c0.3,5.5,2.3,11,6.4,14.9c3.7,3.5,8.7,5.5,13.7,5.9c5,0.2,10.2-0.5,14.4-3c0-3.2,0-6.4,0-9.7c-2.8,2-6,3.5-9.5,3.8c-3.5,0.3-7.2-0.5-9.9-3c-2.5-2.2-4-5.5-4.4-8.9c-0.5-4.2,0.2-8.9,2.8-12.4C702.3,355.8,705.7,354.1,709,353.8z M827.9,366.4c-3.2-1.8-6.7-2.7-9.7-4.7c-1.7-1.2-2.2-3.5-1.5-5.5c0.8-1.8,3-2.7,5-2.8c3.8-0.2,7.9,1,11,3.3c0-3.3,0-6.5,0-9.9c-4.7-1.8-9.7-2.3-14.7-1.5c-4.2,0.7-8.2,2.8-10.5,6.5c-2,3-2.3,7-1.5,10.7c0.5,2.3,2,4.5,4,6c2.7,2.2,6,3.3,9.2,4.7c1.7,0.8,3.3,1.5,4.7,3c1.3,1.8,0.8,5-1.3,6c-2.2,1.2-4.9,1-7.4,0.7c-3.5-0.7-6.7-2.2-9.5-4.2c0,3.5,0,6.9,0,10.4c3.3,1.5,7,2.2,10.7,2.5c5.2,0.2,10.9-0.8,14.7-4.5c4-3.7,5-10,2.7-15.1C832.7,369.5,830.4,367.7,827.9,366.4z M744.8,346.8c-2.7,1.5-4.4,4.2-5.5,7c0-2.5,0-5,0-7.7c-3.5,0-7,0-10.4,0c0,14.9,0,29.6,0,44.5h10.4c0-7,0-14.2,0-21.3c-0.2-3,0.2-6.2,1.5-9c1.2-2.7,3.7-5,6.7-5.4c2.5-0.3,5,0.3,7.2,1.7c0-3.5,0-7,0-10.7C751.5,344.8,747.9,344.9,744.8,346.8z M668.9,346.1c0,14.9,0,29.6,0,44.5h10.5c0-14.9,0-29.6,0-44.5C675.9,345.9,672.4,346.1,668.9,346.1z M789.4,346.9c-4.7-2.2-10-2.5-15.2-1.8c-5.4,0.7-10.5,3.2-13.9,7.5c-3,3.8-4.5,8.7-4.9,13.6c-0.5,5.7,0.5,11.9,3.8,16.6c2.8,4.2,7.4,7,12.2,8c4,0.8,8.4,0.8,12.4,0c4.7-1,9.2-3.7,12.2-7.5c2.8-3.7,4.4-8.4,4.7-12.9c0.3-4.7-0.2-9.7-2.2-14.1C796.7,352.3,793.4,349,789.4,346.9z M788.4,376.9c-1,2.3-2.8,4.2-5.2,5.2c-2.7,1-5.9,1.2-8.7,0.3c-2.8-0.8-5.4-2.8-6.7-5.5c-1.7-3.3-2-7.4-1.7-11.2c0.3-3.3,1.5-6.9,4-9.4c1.8-1.8,4.4-2.7,7-2.8c3.2-0.2,6.5,0.7,8.9,3c2.5,2.3,3.3,5.9,3.7,9.2C790,369.7,789.9,373.6,788.4,376.9z M874.4,347.3c-4.9-2.5-10.4-2.8-15.7-2.2c-4.2,0.5-8.4,2.2-11.7,5c-4,3.5-6.4,8.5-7,13.7c-0.7,5.2-0.5,10.5,1.7,15.4c2,4.7,6,8.5,10.7,10.5c4.7,1.8,9.9,2,14.9,1.3c5-0.8,9.9-3.5,13.1-7.7c3.3-4.2,4.9-9.7,4.9-15.2c0-3.7-0.3-7.2-1.7-10.7C881.7,353.3,878.6,349.5,874.4,347.3z M873.9,372.9c-0.3,2.3-1.2,4.7-2.7,6.5c-1.5,1.8-3.8,3-6.2,3.3c-2.5,0.3-5.2,0.2-7.5-0.8c-2.5-1.2-4.5-3.3-5.5-5.9c-1.3-3-1.5-6.4-1.3-9.7c0.2-3.2,1.2-6.4,3.2-8.9c1.8-2.3,4.9-3.5,7.7-3.7c3-0.2,6.2,0.5,8.5,2.5c2.2,1.8,3.3,4.4,3.8,7C874.4,366.4,874.4,369.7,873.9,372.9z M458.5,411.2h49c0-16.4,0-32.8,0-49.2c-16.4,0-32.6,0-49,0C458.5,362,458.5,411.2,458.5,411.2z M512.4,411.2h49V362c-16.4,0-32.6,0-49,0C512.4,378.4,512.4,394.8,512.4,411.2z"/>
</g></svg>
