<svg xmlns="http://www.w3.org/2000/svg" viewBox="0 0 482.1 103.4">
	<path fill="#ffffff" transform="translate(-8.95 -197.95)" d="M8.95,247.15h49v-49.2h-49Zm53.9,0h49v-49.2h-49Zm428.1-2.4v-8.7h-10.5v-13.4c-3.5,1-7,2.2-10.5,3.2-.2,3.3,0,6.7,0,10h-15.6a53.12,53.12,0,0,1,.2-8,6.357,6.357,0,0,1,3.5-5c2.5-1,5.4-.3,7.9.7v-9.2c-5-1.3-10.9-1.2-15.4,1.8a15.153,15.153,0,0,0-6,8.2c-1.2,3.7-.5,7.5-.7,11.4h-7.4v8.5h7.4v36h10.5v-36h15.6v22.9c0,3.5.7,7.4,3,10.2a11.069,11.069,0,0,0,8.4,3.8,21.3,21.3,0,0,0,9.7-1.5v-8.7c-2.3,1.5-5.5,2.2-8,.8a5.179,5.179,0,0,1-2.3-4.2,74.837,74.837,0,0,1-.2-8.2v-14.9C483.85,244.75,487.45,244.65,490.95,244.75Zm-267.1-27.6a6.055,6.055,0,0,0-5.4,6c-.2,2.8,2.2,5.4,4.9,5.9a6.463,6.463,0,0,0,7-3,6.046,6.046,0,0,0-.7-6.9A7.8,7.8,0,0,0,223.85,217.15Zm-29.3,1.5c-6.2,15.4-12.4,30.6-18.6,45.9-1.3-3-2.5-6.2-3.7-9.2q-7.35-18.3-14.4-36.6h-15.4v62.1h10v-47.9c.2.3.3.7.5,1,6.4,15.7,12.6,31.3,18.9,47h7.5c6-15.7,12.4-31.3,18.4-46.9.2-.3.3-.7.5-1v47.9h10.7v-62.1C204.45,218.55,199.55,218.55,194.55,218.65Zm64.9,25.3a17.069,17.069,0,0,1,12,3.7v-10.2a19.444,19.444,0,0,0-3-1.3,27.95,27.95,0,0,0-15.7,0,20.293,20.293,0,0,0-11.7,8.4,26.865,26.865,0,0,0-4.2,16.6,22.033,22.033,0,0,0,6.4,14.9,22.694,22.694,0,0,0,13.7,5.9c5,.2,10.2-.5,14.4-3v-9.7a19.327,19.327,0,0,1-9.5,3.8,12.8,12.8,0,0,1-9.9-3,14.06,14.06,0,0,1-4.4-8.9c-.5-4.2.2-8.9,2.8-12.4A13.894,13.894,0,0,1,259.45,243.95Zm118.9,12.6c-3.2-1.8-6.7-2.7-9.7-4.7a4.761,4.761,0,0,1-1.5-5.5c.8-1.8,3-2.7,5-2.8a17.423,17.423,0,0,1,11,3.3v-9.9a28.3,28.3,0,0,0-14.7-1.5,14.981,14.981,0,0,0-10.5,6.5c-2,3-2.3,7-1.5,10.7a10.56,10.56,0,0,0,4,6c2.7,2.2,6,3.3,9.2,4.7a13.928,13.928,0,0,1,4.7,3c1.3,1.8.8,5-1.3,6-2.2,1.2-4.9,1-7.4.7a24.706,24.706,0,0,1-9.5-4.2v10.4a32.187,32.187,0,0,0,10.7,2.5c5.2.2,10.9-.8,14.7-4.5,4-3.7,5-10,2.7-15.1A12.366,12.366,0,0,0,378.35,256.55Zm-83.1-19.6a13.2,13.2,0,0,0-5.5,7v-7.7h-10.4v44.5h10.4v-21.3a18.631,18.631,0,0,1,1.5-9,9,9,0,0,1,6.7-5.4,10.908,10.908,0,0,1,7.2,1.7v-10.7A11.552,11.552,0,0,0,295.25,236.95Zm-75.9-.7v44.5h10.5v-44.5C226.35,236.05,222.85,236.25,219.35,236.25Zm120.5.8c-4.7-2.2-10-2.5-15.2-1.8a20.965,20.965,0,0,0-13.9,7.5,25.238,25.238,0,0,0-4.9,13.6c-.5,5.7.5,11.9,3.8,16.6a19.512,19.512,0,0,0,12.2,8,32.334,32.334,0,0,0,12.4,0,21.485,21.485,0,0,0,12.2-7.5,24.448,24.448,0,0,0,4.7-12.9,29.71,29.71,0,0,0-2.2-14.1A20.2,20.2,0,0,0,339.85,237.05Zm-1,30a9.8,9.8,0,0,1-5.2,5.2,13.635,13.635,0,0,1-8.7.3,10.8,10.8,0,0,1-6.7-5.5c-1.7-3.3-2-7.4-1.7-11.2a15.319,15.319,0,0,1,4-9.4,10.453,10.453,0,0,1,7-2.8,11.7,11.7,0,0,1,8.9,3c2.5,2.3,3.3,5.9,3.7,9.2C340.45,259.85,340.35,263.75,338.85,267.05Zm86-29.6c-4.9-2.5-10.4-2.8-15.7-2.2a22.322,22.322,0,0,0-11.7,5,21.468,21.468,0,0,0-7,13.7c-.7,5.2-.5,10.5,1.7,15.4a20.336,20.336,0,0,0,10.7,10.5,30.1,30.1,0,0,0,14.9,1.3,20.745,20.745,0,0,0,13.1-7.7,24.679,24.679,0,0,0,4.9-15.2,27.935,27.935,0,0,0-1.7-10.7A21.438,21.438,0,0,0,424.85,237.45Zm-.5,25.6a12.946,12.946,0,0,1-2.7,6.5,9.739,9.739,0,0,1-6.2,3.3,14.679,14.679,0,0,1-7.5-.8,10.954,10.954,0,0,1-5.5-5.9,21.2,21.2,0,0,1-1.3-9.7,15.805,15.805,0,0,1,3.2-8.9,10.9,10.9,0,0,1,7.7-3.7,11.769,11.769,0,0,1,8.5,2.5,11.624,11.624,0,0,1,3.8,7A31.551,31.551,0,0,1,424.35,263.05ZM8.95,301.35h49v-49.2h-49Zm53.9,0h49v-49.2h-49Z"/>
</svg>