<svg xmlns="http://www.w3.org/2000/svg" viewBox="0 0 459.603 484.9">
	<defs><style>.a{fill:#fff;}</style></defs>
	<title>mls</title>
<path fill="#ffffff" d="M113.021,332.234l-3.783-8.511,2.6-2.364,8.984,8.748-1.655,1.419-7.093-6.856h0l4.256,9.457-1.182,1.182-9.457-4.256h0l7.093,6.856-1.655,1.419-8.984-8.748,2.6-2.6Zm-11.585,1.891L98.6,336.962l7.329,7.329-1.655,1.655-7.329-7.329-2.837,2.837-1.418-1.182,7.329-7.093Z" transform="translate(-19.398 -8.1)"/>
<polygon fill="#ffffff" points="176.37 182.754 182.044 199.776 167.15 189.137 152.728 199.776 158.402 182.754 143.744 172.115 161.712 172.115 167.15 155.092 173.06 172.115 191.028 172.115 176.37 182.754"/>
<polygon fill="#ffffff" points="91.968 182.754 106.626 172.115 88.658 172.115 82.984 155.092 77.546 172.115 59.105 172.115 73.763 182.754 68.326 199.776 82.984 189.137 97.642 199.776 91.968 182.754"/>
<polygon fill="#ffffff" points="130.741 227.674 125.067 210.651 119.629 227.674 101.425 227.674 116.319 238.076 110.409 255.335 125.067 244.696 139.725 255.335 134.287 238.076 148.945 227.674 130.741 227.674"/>
<path fill="#ffffff" d="M95.29,124.183,78.74,86.828h-.473v49.885c0,.946-.473,1.182-1.182,1.182H62.191c-.946,0-1.182-.473-1.182-1.182V50.419a1.1,1.1,0,0,1,1.182-1.182h15.84a2.483,2.483,0,0,1,2.128,1.182l22.7,50.594h.709l22.224-50.594c.473-.946.946-1.182,2.128-1.182h15.6c.946,0,1.182.473,1.182,1.182v86.057c0,.946-.473,1.182-1.182,1.182H128.625c-.946,0-1.182-.473-1.182-1.182V86.592h-.473l-16.549,37.355a2.384,2.384,0,0,1-2.6,1.655H98.6c-1.891.236-2.837-.236-3.31-1.418" transform="translate(-19.398 -8.1)"/>
<path fill="#ffffff" d="M157.469,137.9H216.1c.946,0,1.182-.473,1.182-1.182V122.291c0-.946-.473-1.182-1.182-1.182H176.619a.866.866,0,0,1-.946-.946V50.419c0-.946-.473-1.182-1.182-1.182H157.7c-.946,0-1.182.473-1.182,1.182v86.057c-.236.946.237,1.419.946,1.419" transform="translate(-19.398 -8.1)"/>
<path fill="#ffffff" d="M265.986,84.464l-4.728-.709c-10.166-1.419-13.949-4.728-13.949-9.693,0-5.438,4.019-9.457,11.821-9.457,7.329,0,13.949,2.364,20.805,6.856.709.473,1.182.236,1.891-.473l8.038-11.821c.709-.946.473-1.419-.236-1.891-7.329-5.674-18.441-9.457-30.5-9.457-19.387,0-31.681,10.875-31.681,27.188,0,15.84,10.166,24.115,28.371,26.479l4.728.709c10.639,1.419,13.712,4.728,13.712,9.93,0,6.147-5.2,10.639-14.658,10.639s-17.5-4.492-23.406-9.22a1.232,1.232,0,0,0-1.891.236l-9.93,11.348c-.709.946-.473,1.655.236,2.128,7.093,6.62,20.569,12.057,34.517,12.057,23.169,0,35.227-11.821,35.227-27.9-.236-16.077-9.929-24.351-28.37-26.952" transform="translate(-19.398 -8.1)"/>
<path fill="#ffffff" d="M442.356,285.895a290.228,290.228,0,0,1-44.211,82.038A296.976,296.976,0,0,1,331,431.767a287.532,287.532,0,0,1-81.8,39.482,300.676,300.676,0,0,1-81.8-39.482,296.586,296.586,0,0,1-53.9-47.757L458.669,43.09V190.854a291.886,291.886,0,0,1-16.313,95.041M100.018,368.17A289.248,289.248,0,0,1,39.967,191.09V28.669H444.011L100.018,368.17h0M479,18.266V8.1H19.4V191.09A309.931,309.931,0,0,0,83.705,380.463c.709.946,1.182,1.655,1.891,2.6L25.309,442.642l14.422,14.422,58.869-58.4A319.523,319.523,0,0,0,245.89,492.054l3.073.946,3.073-.946a312.084,312.084,0,0,0,90.786-43.5A315.626,315.626,0,0,0,461.979,292.515,308.96,308.96,0,0,0,479,190.854c0-.946,0-172.588,0-172.588" transform="translate(-19.398 -8.1)"/>
</svg>