<?xml version="1.0" encoding="utf-8"?>
<!-- Generator: Adobe Illustrator 19.1.0, SVG Export Plug-In . SVG Version: 6.00 Build 0)  -->
<svg version="1.1" id="Layer_1" xmlns="http://www.w3.org/2000/svg" xmlns:xlink="http://www.w3.org/1999/xlink" x="0px" y="0px"
	 viewBox="0 0 1400 720" style="enable-background:new 0 0 1400 720;" xml:space="preserve">
<style type="text/css">
	.st0{fill:#FFFFFF;}
</style>
<path class="st0" d="M642.4,394.2l-1.6-3.6l1.1-1l3.8,3.7l-0.7,0.6l-3-2.9l0,0l1.8,4l-0.5,0.5l-4-1.8l0,0l3,2.9l-0.7,0.6l-3.8-3.7
	l1.1-1.1L642.4,394.2z M637.5,395l-1.2,1.2l3.1,3.1l-0.7,0.7l-3.1-3.1l-1.2,1.2l-0.6-0.5l3.1-3L637.5,395z"/>
<polygon class="st0" points="677.4,334.4 679.8,341.6 673.5,337.1 667.4,341.6 669.8,334.4 663.6,329.9 671.2,329.9 673.5,322.7 
	676,329.9 683.6,329.9 "/>
<polygon class="st0" points="641.7,334.4 647.9,329.9 640.3,329.9 637.9,322.7 635.6,329.9 627.8,329.9 634,334.4 631.7,341.6 
	637.9,337.1 644.1,341.6 "/>
<polygon class="st0" points="658.1,353.4 655.7,346.2 653.4,353.4 645.7,353.4 652,357.8 649.5,365.1 655.7,360.6 661.9,365.1 
	659.6,357.8 665.8,353.4 "/>
<g>
	<path class="st0" d="M634.9,306.2l-7-15.8h-0.2v21.1c0,0.4-0.2,0.5-0.5,0.5h-6.3c-0.4,0-0.5-0.2-0.5-0.5V275c0-0.4,0.3-0.5,0.5-0.5
		h6.7c0.4,0,0.7,0.2,0.9,0.5l9.6,21.4h0.3l9.4-21.4c0.2-0.4,0.4-0.5,0.9-0.5h6.6c0.4,0,0.5,0.2,0.5,0.5v36.4c0,0.4-0.2,0.5-0.5,0.5
		H649c-0.4,0-0.5-0.2-0.5-0.5v-21.1h-0.2l-7,15.8c-0.2,0.5-0.5,0.7-1.1,0.7h-3.9C635.5,306.9,635.1,306.7,634.9,306.2"/>
	<path class="st0" d="M661.2,312H686c0.4,0,0.5-0.2,0.5-0.5v-6.1c0-0.4-0.2-0.5-0.5-0.5h-16.7c-0.2,0-0.4-0.1-0.4-0.4V275
		c0-0.4-0.2-0.5-0.5-0.5h-7.1c-0.4,0-0.5,0.2-0.5,0.5v36.4C660.7,311.8,660.9,312,661.2,312"/>
	<path class="st0" d="M707.1,289.4l-2-0.3c-4.3-0.6-5.9-2-5.9-4.1c0-2.3,1.7-4,5-4c3.1,0,5.9,1,8.8,2.9c0.3,0.2,0.5,0.1,0.8-0.2
		l3.4-5c0.3-0.4,0.2-0.6-0.1-0.8c-3.1-2.4-7.8-4-12.9-4c-8.2,0-13.4,4.6-13.4,11.5c0,6.7,4.3,10.2,12,11.2l2,0.3
		c4.5,0.6,5.8,2,5.8,4.2c0,2.6-2.2,4.5-6.2,4.5c-4,0-7.4-1.9-9.9-3.9c-0.3-0.2-0.6-0.2-0.8,0.1l-4.2,4.8c-0.3,0.4-0.2,0.7,0.1,0.9
		c3,2.8,8.7,5.1,14.6,5.1c9.8,0,14.9-5,14.9-11.8C719,294,714.9,290.5,707.1,289.4"/>
	<path class="st0" d="M781.7,374.6c-4.3,12.5-10.6,24.1-18.7,34.7c-8,10.4-17.5,19.5-28.4,27c-10.6,7.4-22.3,13-34.6,16.7
		c-12.3-3.8-24-9.4-34.6-16.7c-8.5-5.8-16-12.6-22.8-20.2l146-144.2c0,20.2,0,62.2,0,62.5C788.5,348.3,786.2,361.8,781.7,374.6
		 M636.9,409.4c-8.1-10.5-14.4-22.2-18.7-34.7c-4.5-12.9-6.7-26.5-6.7-40.2c0-0.4,0-53.1,0-68.7h170.9L636.9,409.4L636.9,409.4
		 M797.2,261.4v-4.3H602.8v4.3c0,0,0,72.6,0,73.1c0,14.8,2.4,29.2,7.2,43c4.6,13.3,11.3,25.8,20,37.1c0.3,0.4,0.5,0.7,0.8,1.1
		l-25.5,25.2l6.1,6.1l24.9-24.7c7.1,7.9,15.1,15,23.9,21.1c11.8,8.1,24.7,14.3,38.4,18.4l1.3,0.4l1.3-0.4
		c13.7-4,26.6-10.2,38.4-18.4c11.6-8,21.9-17.7,30.4-28.9c8.6-11.2,15.4-23.8,20-37.1c4.8-13.8,7.2-28.3,7.2-43
		C797.2,334,797.2,261.4,797.2,261.4"/>
</g>
</svg>
