<?xml version="1.0" encoding="utf-8"?>
<!-- Generator: Adobe Illustrator 19.1.0, SVG Export Plug-In . SVG Version: 6.00 Build 0)  -->
<svg version="1.1" id="Layer_1" xmlns="http://www.w3.org/2000/svg" xmlns:xlink="http://www.w3.org/1999/xlink" x="0px" y="0px"
	 viewBox="0 0 1400 720" style="enable-background:new 0 0 1400 720;" xml:space="preserve">
<style type="text/css">
	.st0{fill:#FFFFFF;}
</style>
<g>
	<g>
		<path class="st0" d="M581.8,368.1l-18.7-30.4h-13.5v43.5H563v-30.4l18.8,30.4h13.4v-43.5h-13.4V368.1z M688.2,352.2v-4.3h-7v-5.8
			h-13.1v5.8h-7.1v4.3h7.1v29h13.1v-29H688.2z M602.6,381.2h13v-29h-13V381.2z M602.6,346.5h13.1v-9h-13.1V346.5z M831.3,350.3
			c-10.5,0-19.1,7.3-19.1,16.2s8.6,16.2,19.1,16.2c10.5,0,19.1-7.3,19.1-16.2C850.3,357.5,841.8,350.3,831.3,350.3z M836.5,372.6
			c0,4.7-2.7,6.5-5.3,6.5c-2.6,0-5.3-1.9-5.3-6.5c0-1.8,0-6.2,0-6.2s0-4.3,0-6c0-4.5,2.7-6.5,5.3-6.5c2.6,0,5.3,1.9,5.3,6.5
			c0,1.8,0,4.9,0,6.1C836.5,366.6,836.5,370.9,836.5,372.6z M795.1,353.6c-2.1-1.2-4.3-2.3-7.4-2.6c-9.4-0.8-16.6,7.5-16.6,15.2
			c0,10.1,7.8,13.8,9,14.4c4.4,2.1,10,2.1,15.1-1c0,0.3,0,1.7,0,1.7h12.9v-43.5h-12.9C795.1,337.7,795.1,347,795.1,353.6z
			 M795.2,366.5c0,0,0,3.2,0,5.2c0,4.4-3.1,5.6-5.1,5.6c-2.1,0-5.1-1.2-5.1-5.6c0-1.6,0-5.2,0-5.2s0-3.6,0-5.2c0-4.4,3-5.6,5.1-5.6
			c2.1,0,5.1,1.2,5.1,5.6C795.2,362.9,795.2,366.5,795.2,366.5z M646.2,350.9c-4.3,0.1-7.9,1.9-10.4,4.4c0-0.8,0-3,0-3h-13v29h13
			c0,0,0-17.8,0-19c0-2.5,2.6-5.3,6.2-5.3c3.5,0,6,2.9,6,5.3c0,1.8,0,19,0,19h13c0,0,0-13.8,0-15.7
			C661,353.9,651.2,350.8,646.2,350.9z M752.2,350.9c-4.3,0.1-7.9,1.9-10.4,4.4c0-0.8,0-3,0-3h-13v29h13c0,0,0-17.8,0-19
			c0-2.5,2.6-5.3,6.2-5.3c3.5,0,6,2.9,6,5.3c0,1.8,0,19,0,19h13c0,0,0-13.8,0-15.7C767,353.9,757.1,350.8,752.2,350.9z M724.9,366.9
			c0-9-8.7-16.4-19.2-16.4c-10.6,0-19.2,7.3-19.2,16.2s8.6,16.2,19.2,16.2c8.8,0,16.2-5.1,18.4-11.8h-13c0,0,0,0.1,0,1.8
			c0,5.3-3.5,6.5-5.5,6.5s-5.5-1.2-5.5-6.5c0-1.6,0-6,0-6L724.9,366.9z M701.2,356.6c1-1.8,2.9-2.6,4.5-2.6s3.5,0.9,4.5,2.6
			c0.8,1.4,0.9,3.1,0.9,5.7h-10.9C700.4,359.7,700.4,358.1,701.2,356.6z M852.2,337.9c-3.6,0-6.6,3-6.6,6.8s3,6.8,6.6,6.8
			c3.6,0,6.6-3,6.6-6.8S855.8,337.9,852.2,337.9z M852.2,350.1c-3,0-5.5-2.5-5.5-5.5c0-3,2.5-5.5,5.5-5.5c3,0,5.5,2.5,5.5,5.5
			C857.5,347.7,855.2,350.1,852.2,350.1z M855.5,343c0-1.4-1-2.1-3.1-2.1h-2.9v7.4h1.8v-3h0.9l1.4,3h1.9l-1.7-3.4
			C854.9,344.7,855.5,344,855.5,343z M852.1,344.2h-0.9V342h0.8c1,0,1.6,0.4,1.6,1.2C853.6,343.9,853.1,344.2,852.1,344.2z
			 M837.7,313.3H561.3c-29.2-0.1-48.8,21-48.8,46.4s19.6,46.1,49,46.2h276.2c29.4,0,49-20.9,49-46.2
			C886.5,334.3,866.9,313.1,837.7,313.3z M837.5,394.4H561.4c-23.2,0.1-37.5-15.6-37.5-34.9c0-19.2,14.3-34.8,37.5-34.9h276
			c23.2,0,37.5,15.6,37.5,34.9S860.8,394.4,837.5,394.4z"/>
	</g>
</g>
</svg>
