<svg xmlns="http://www.w3.org/2000/svg" viewBox="0 0 485 120.021"><defs><style>.a{fill:#fff;}</style></defs><title>nintendo</title>
<path fill="#ffffff" d="M96.82,260.028l-24.237-39.4h-17.5v56.38H72.453v-39.4l24.367,39.4h17.368v-56.38H96.82Zm137.9-20.608v-5.573h-9.073V226.33H208.673v7.517h-9.2v5.573h9.2v37.587h16.979V239.42ZM123.778,277.007h16.849V239.42H123.778Zm0-44.975h16.979V220.367H123.778ZM420.2,236.957c-13.609,0-24.755,9.462-24.755,21s11.146,21,24.755,21,24.755-9.462,24.755-21C444.822,246.289,433.805,236.957,420.2,236.957Zm6.74,28.9c0,6.092-3.5,8.425-6.869,8.425s-6.869-2.463-6.869-8.425V250.048c0-5.832,3.5-8.425,6.869-8.425s6.869,2.463,6.869,8.425V265.86Zm-53.659-24.626a22.716,22.716,0,0,0-9.591-3.37c-12.183-1.037-21.515,9.721-21.515,19.7a20.168,20.168,0,0,0,11.665,18.664,20.445,20.445,0,0,0,19.571-1.3v2.2h16.72v-56.38h-16.72C373.277,220.627,373.277,232.68,373.277,241.235Zm.13,16.72v6.74c0,5.7-4.018,7.258-6.61,7.258-2.722,0-6.61-1.555-6.61-7.258V251.215c0-5.7,3.888-7.258,6.61-7.258s6.61,1.555,6.61,7.258ZM180.288,237.735a19.589,19.589,0,0,0-13.479,5.7V239.55H149.96v37.587h16.849V252.511c0-3.24,3.37-6.869,8.036-6.869,4.536,0,7.777,3.759,7.777,6.869v24.626h16.849V256.788C199.471,241.623,186.769,237.606,180.288,237.735Zm137.386,0a19.589,19.589,0,0,0-13.479,5.7V239.55H287.346v37.587H304.2V252.511c0-3.24,3.37-6.869,8.036-6.869,4.536,0,7.777,3.759,7.777,6.869v24.626h16.849V256.788C336.857,241.623,324.026,237.606,317.675,237.735Zm-35.383,20.738c0-11.665-11.276-21.256-24.885-21.256-13.739,0-24.885,9.462-24.885,21s11.146,21,24.885,21c11.406,0,21-6.61,23.848-15.294H264.405v2.333c0,6.869-4.536,8.425-7.129,8.425s-7.129-1.555-7.129-8.425v-7.777Zm-30.718-13.35a6.713,6.713,0,0,1,5.832-3.37,7,7,0,0,1,5.832,3.37c1.037,1.815,1.167,4.018,1.167,7.388H250.278C250.537,249.141,250.537,247.067,251.574,245.123Zm195.711-24.237a8.817,8.817,0,1,0,8.554,8.813A8.688,8.688,0,0,0,447.285,220.886Zm0,15.812a7.129,7.129,0,1,1,7.129-7.129A7.277,7.277,0,0,1,447.285,236.7Zm4.277-9.2c0-1.815-1.3-2.722-4.018-2.722h-3.759v9.591h2.333v-3.888h1.167l1.815,3.888h2.463l-2.2-4.407A2.4,2.4,0,0,0,451.562,227.5Zm-4.407,1.555h-1.167V226.2h1.037c1.3,0,2.074.518,2.074,1.555C449.1,228.662,448.451,229.051,447.155,229.051ZM428.491,189H70.25C32.4,188.872,7,216.22,7,249.141s25.4,59.75,63.509,59.88H428.491c38.105,0,63.509-27.088,63.509-59.88C491.741,216.22,466.337,188.743,428.491,189Zm-.259,105.114H70.379c-30.069.13-48.6-20.219-48.6-45.234,0-24.885,18.534-45.1,48.6-45.234H428.1c30.069,0,48.6,20.219,48.6,45.234S458.431,294.115,428.232,294.115Z"/>
</svg>