<?xml version="1.0" encoding="utf-8"?>
<!-- Generator: Adobe Illustrator 19.1.0, SVG Export Plug-In . SVG Version: 6.00 Build 0)  -->
<svg version="1.1" id="Layer_1" xmlns="http://www.w3.org/2000/svg" xmlns:xlink="http://www.w3.org/1999/xlink" x="0px" y="0px"
	 viewBox="0 0 1400 720" style="enable-background:new 0 0 1400 720;" xml:space="preserve">
<style type="text/css">
	.st0{fill:#FFFFFF;}
</style>
<g id="logo_k">
	<path class="st0" d="M543.9,348.9c-1.7-0.8-3.7-1-5.9-0.7c0.2,0.7,1,3.5,1,3.5s3.4,10.7,3.7,11.9c3-2.9,4.4-5.5,4.4-8.7
		c0-0.8,0-1.7-0.2-2.5C546.6,350.4,544.8,349.4,543.9,348.9z"/>
	<path class="st0" d="M673.9,349.1c-0.7,0.7-7.4,7.2-7.7,7.5c0.5,0.2,7.7,3,8.4,3.2c-0.5-2.5-0.7-5-0.7-7.5
		C673.8,351.3,673.9,350.3,673.9,349.1z"/>
	<path class="st0" d="M705.8,342.4c-1.7,1.8-2.5,4-2.5,6.4c0,1.3,0.5,2.7,1,4c0.8-1,10.6-12.1,11.4-12.9
		C712.2,338.9,708.3,339.7,705.8,342.4z"/>
	<path class="st0" d="M892.4,342.2V342V342.2L892.4,342.2z"/>
	<path class="st0" d="M643.4,392.2l0.3,0.2c0-0.2,0-0.2,0-0.3L643.4,392.2z"/>
	<path class="st0" d="M786.3,304L786.3,304C786.5,304,786.5,304,786.3,304z"/>
	<path class="st0" d="M754.8,308.8l0.2-0.2C754.8,308.8,754.8,308.8,754.8,308.8z"/>
	<path class="st0" d="M587.5,417.5L587.5,417.5L587.5,417.5z"/>
	<path class="st0" d="M941.5,332.5C941.5,332.3,941.5,332.3,941.5,332.5l-37.6-9.2h-0.2l-5.5,3.2c-0.5-2.5-1-4.5-1-4.5
		c0-0.2,0-0.2-0.2-0.2l-44-9.7h-0.2l-8.1,4.5l0.3,22.1c-4.5-0.2-9.4,0.7-13.9,2.3c-3,1.2-5.9,2.7-8.7,4.7
		c-0.2-0.7-6.5-41.6-6.5-41.6c0-0.2-0.2-0.2-0.2-0.2h-29.4l-0.2,0.2l-7.9,4.5v0.2c-9.1,0-23.5,0-23.5,0l-0.2,0.2l-7.9,4.5l-1.7,9.9
		c-6.9-6.5-15.9-10.2-26-10.6c1.2-0.7,25.5-13.8,25.5-13.8s0.2,0,0.2-0.2l0,0c0,0,0,0,0-0.2l-18.3-27.2l-0.2-0.2h-0.2l-7.9,4.4
		l-33.2,37.9l5.9,6.9c-0.2,0-0.2,0.2-0.3,0.2l-5.9,3c-4.7-4.2-27.2-24.2-27.2-24.2h-0.2l-8.1,4.5l-1.3,2.5c0-3.4,0.2-6.2,0.2-6.2
		v-0.2h-0.2L604,314.4l-8.1,4.5l1.2,23.7l7.5-2l0.5,5.2c-6.5-0.8-13.4,0-20,2.7c-2.7,1.2-5.2,2.5-7.5,4.2c0.7-2.7,0.8-5.4,0.8-8.1
		c0-4.5-0.8-8.7-2.5-12.6c-3.2-7.5-9.1-13.9-16.3-18c-4.9-3.4-10.9-5.4-17.3-6c-15.3-2.7-33.7,0-51.8,7.7c-6.7,2.9-12.9,6-18.5,9.6
		l-7,4.5l-6.5,7l21.5,36.6l8.1-3.5l34.7,78.7l33.1-10.6l8.2-5.2c0.2,0,0.2-0.2,0.2-0.2l0,0c0,0-3.5-13.6-6.7-25.8
		c2.5,4.7,6,8.1,6,8.1c3.5,3.4,7.7,5.9,12.6,7.2c9.2,2.7,19.6,1,28.5-4.7c2-1.2,4.5-3.2,6.5-4.9l1.2,12.2l31-4.5l8.4-4.2
		c0.2,0,0.2-0.2,0.2-0.2s0-11.4,0-19.5l56.9,28.2l8.1-4.2h0.2l0.2-0.2c0,0,0-18.3,0-26.8c6.5-1,12.2-3.5,17.8-6.9
		c0.2,0,0.2-0.2,0.3-0.2l-2.5,14.9l35.2,5.7l6.5-3.5l5.5,10.9l5.7-2.7l0.8,6.7l39.9,7l7.9-4.2h0.2v-0.2l0,0c0,0-0.8-5.9-1.5-9.7
		c2.7-0.3,5.5-0.7,7.9-1.5c1-0.3,2.3-0.8,3.9-1.5l-1.5,14.1l26.5,3.9l0.2,10.7l27.5,8.7l8.2-4.2c0.2,0,0.2,0,0.3-0.2L941.5,332.5
		C941.7,332.5,941.7,332.5,941.5,332.5z M725.1,284c0.3,0.3,9.1,12.2,9.4,12.8c-0.5,0.2-26.8,13.3-27.2,13.4
		c-0.2-0.3-1.5-2.3-1.7-2.7C705.6,307.3,724.8,284.5,725.1,284z M542.4,384.5l-0.2,0.2l0,0c0,0,10.9,41.6,10.9,41.9
		c-0.3,0.2-17.1,5.5-17.4,5.5c-0.2-0.3-36.4-81.4-36.4-81.4s0-0.2-0.2-0.2H499l-5.9,2.9c0,0-2.7,1.3-3,1.5
		c-0.2-0.3-12.8-21.6-13.1-22c5.2-3.2,10.9-6.2,16.9-8.9c16.4-7,33.1-9.6,46.6-7.2c5.4,0.7,10.1,2.2,13.8,4.7
		c6,3.4,10.4,8.1,12.9,14.1c1.2,2.9,1.8,6,1.8,9.2C569.4,358.7,559.2,374.3,542.4,384.5z M617.9,394.7l-0.2,0.2
		c-2.2,3-4.7,5.7-7.7,7.7c-2.2,1.7-4.5,3-7,4.2c-7.9,3.4-15.9,3.4-22.6,0.2c-5.9-2.9-10.2-8.1-12.1-14.6c-4-14.1,5-30.9,20.1-37.2
		c5.7-2.5,11.7-3,17.1-2c3.2,0.7,6,1.8,8.6,3.5c0,0,0.2,0,0.2,0.2c4.4,3,7.4,7.2,8.7,12.4l0.5,1.8c0.5,2,0.7,4.2,0.5,6.2
		C623.9,383.2,621.8,389.5,617.9,394.7z M708.2,406.8c-0.7-0.3-64.3-32.2-64.3-32.2h-0.2l-0.2,0.2c0,0,0,8.7,0,17.3
		c0,0.2,0,0.2,0,0.3c0,8.1,0,15.9,0,16.1c-0.3,0-15.9,2.2-16.3,2.2c0-0.3-1.2-13.8-1.2-13.8c3.7-6.2,5.5-13.1,5.5-19.8
		c0-3-0.3-6.2-1.2-9.1c-1.5-5.2-4.2-9.9-8.1-13.6l0,0c0-0.5-2.3-28.4-2.3-28.4s0-0.2-0.2-0.2h-0.2c0,0-6.9,1.8-7.2,1.8
		c0-0.5-0.3-6.5-0.3-6.7c0.3-0.2,26-7.7,26.5-7.9c0,0.5,1.7,27.3,1.7,27.3c0,0.2,0,0.2,0.2,0.2s0.2,0,0.2,0s19.3-27.2,19.6-27.7
		c0.3,0.3,18.8,17.8,19,18.1c-0.3,0.3-26.8,28.4-26.8,28.4v0.2l0,0c0,0,0,0.2,0.2,0.2l25.3,10.1c2.9,5.4,7.2,9.9,12.6,13.3
		c5.2,3.2,11.1,5.2,17.6,5.7C708.2,389.4,708.2,406.1,708.2,406.8z M674.6,360c-0.7-0.2-7.9-3-8.4-3.2c0.3-0.3,7-6.9,7.7-7.5
		c-0.2,1-0.2,2-0.2,3.2C673.8,354.8,674.1,357.3,674.6,360z M745.2,368.4C745.1,368.4,745.1,368.6,745.2,368.4
		c-2.7,2.2-5.4,4-8.2,5.5c-4.2,2.2-8.9,3.9-14.4,5.2c-2,0.5-4,0.8-5.9,1c-14.4,1.3-27-5-31.7-16.3c-0.5-1.3-1-2.7-1.3-4
		c-2-8.9-0.7-17.1,4.2-24c1.3-1.8,2.9-3.5,4.5-5.2c4.4-3.9,9.9-6.7,16.1-8.2c13.4-3.2,26,0.5,33.9,10.1
		c-0.3,0.3-26.8,28.5-26.8,28.5v0.2l0,0l0.2,0.2c2.2,0.3,5.5-0.3,6.9-0.7c6-1.5,9.6-4.5,13.1-8.6c0.2,0.2,2,1.8,4.2,3.9
		c2,1.8,4.5,4,6.4,5.7c1.7,1.5,2.9,2.5,3,2.7C747.9,366,746.6,367.2,745.2,368.4z M802.4,406.8c0-0.3-5.9-38.6-5.9-38.6
		c0-0.2-0.2-0.2-0.2-0.2c-0.2,0-0.2,0-0.2,0.2c0,0-7.7,20.1-8.1,21c-0.3-0.8-12.2-26.3-12.2-26.3s-0.2-0.2-0.3-0.2s-0.2,0-0.2,0.2
		c0,0-4.9,30.4-4.9,30.7c-0.3,0-19.8-3.5-20.3-3.5c0-0.3,2.9-17.1,2.9-17.1l2.2-2.2l6.7-6.9v-0.2l0,0v-0.2c0,0-6.2-5.5-6.4-5.7
		c0-0.2,6.7-40.4,6.9-40.8c0.3,0,20.1,0,20.5,0c0,0.3,5.2,28.4,5.2,28.4c0,0.2,0.2,0.2,0.2,0.2c0.2,0,0.2,0,0.2-0.2
		c0,0,5.7-32.5,5.9-32.9c0.3,0,14.3,0,14.6,0c0,0.3,6.2,39.8,6.2,39.9c-6.4,7.4-9.9,16.3-9.9,25c0,2.5,0.3,4.9,0.8,7.2
		c2,8.6,7.4,15.6,14.9,19.6c0,0,2,0.8,2.2,1c0,0.2,0.7,4.4,0.7,4.9C823.4,410,802.8,406.8,802.4,406.8z M853.8,394.1
		C853.8,394.1,853.6,394.1,853.8,394.1c-2.5,1.8-5,3.2-7.5,4c-0.2,0-0.3,0.2-0.5,0.2c-5,1.8-10.1,2.2-14.8,1.3
		c-3.2-0.7-6.2-1.8-8.7-3.7c-4.2-3-7.2-7.5-8.4-12.9c-1.5-6.4-0.3-13.4,3.4-20c1.8-3.2,4-5.9,6.7-8.4c3.2-2.9,6.5-5,10.4-6.4
		c5.9-2.2,11.7-2.5,17.1-1c2.5,0.7,5,1.8,7,3.4l0,0c2.3,1.7,4.2,3.7,5.7,6c1.2,2,2,4,2.5,6.4c0.5,1.8,0.7,3.9,0.7,5.7
		c0,6-2.2,12.2-6,17.6C859.3,389.4,856.6,391.9,853.8,394.1z M900.1,430.6c-0.3-0.2-14.6-4.4-14.9-4.5c0-0.3-1.3-56.2-1.3-56.2
		c0-0.2-0.2-0.2-0.2-0.2c-0.2,0-0.2,0-0.2,0.2c0,0-7.5,42.8-7.7,43.3c-0.3,0-15.9-2.5-16.3-2.5c0-0.3,1.2-12.2,1.2-12.2
		c9.1-7.7,14.4-18.6,14.4-29.5c0-2.5-0.3-5-0.8-7.5c-1.3-5.7-4.4-10.9-8.6-14.8c0-0.2,1.3-14.6,1.3-14.6c0-0.2,0-0.2-0.2-0.2
		c0,0-5.9-1.5-6.2-1.7c0-0.3,0.3-7,0.3-7.5c0.5,0.2,28,5.7,28.4,5.7c0,0.2,1.3,6,2.9,13.8v0.2c2.9,13.4,6.7,31.7,6.7,31.7
		c0,0.2,0.2,0.2,0.2,0.2c0.2,0,0.2,0,0.2-0.2c0,0,9.7-40.4,9.9-40.9c0.3,0.2,21,4.7,21.5,4.7C930.6,338.4,900.3,430.3,900.1,430.6z"
		/>
	<path class="st0" d="M554.1,351.3c-0.7-3.9-3.4-7-7-8.9c-5.2-2.5-11.7-2-17.6,1.2c-0.2,0.2-0.2,0.3-0.2,0.5l2.9,9.9l6.5,21.3
		c0,0.2,0.2,0.2,0.2,0.3c0.2,0,0.2,0,0.3,0C547.9,369.9,556.3,363.4,554.1,351.3z M538,348.3c2.2-0.3,4.2-0.2,5.9,0.7
		c1,0.5,2.7,1.5,3,3.5c0.2,0.8,0.2,1.7,0.2,2.5c0,3.2-1.5,6-4.4,8.7c-0.3-1.2-3.7-11.9-3.7-11.9C539,351.8,538.2,348.9,538,348.3z"
		/>
	<path class="st0" d="M724.6,338.4l-1.2-1.2c-3.2-2.9-7.2-4.4-11.4-4.2s-8.1,2-10.9,5c-2.7,2.9-4.2,6.7-4.2,10.6c0,0.2,0,0.5,0,0.7
		c0.2,4.2,2,8.1,5,10.9l1.7,1.3c0.2,0.2,0.3,0.2,0.5,0l20.1-22.8C724.8,338.7,724.8,338.5,724.6,338.4z M715.7,339.9
		c-0.8,0.8-10.6,11.9-11.4,12.9c-0.5-1.3-1-2.7-1-4c0-2.3,0.8-4.7,2.5-6.4C708.3,339.7,712.2,338.9,715.7,339.9z"/>
	<path class="st0" d="M854.5,358c-0.2-0.2-0.3-0.2-0.5-0.2c-0.2,0-0.3,0.3-0.2,0.5l0.2,2c-0.2,2.9-2,5.2-4.7,6.2
		c-1.2,0.5-2.5,0.8-3.9,0.7c-2.3-0.2-4.5-1.2-6-2.7c-1.3-1.3-2-3.2-1.8-4.9c0.2-3.9,3.5-6.7,7.7-7c0.2,0,0.3-0.2,0.3-0.3
		c0-0.2-0.2-0.3-0.3-0.3l-2.7-0.3c-4.2-0.2-8.2,1.3-11.1,3.9c-2.5,2.3-4,5.5-4.2,8.9c-0.3,7.7,5.9,14.1,14.1,14.4
		c2.5,0.2,4.7-0.3,6.7-1.2c4.9-2,8.2-6.5,8.6-12.1C856.6,362.9,856,360.2,854.5,358z"/>
	<path class="st0" d="M610.9,364.5c-0.2-0.2-0.3-0.2-0.5-0.2c-0.2,0-0.3,0.3-0.2,0.5l0.3,2c0,2.3-1.2,4.4-3.2,5.7
		c-1.3,1-3.2,1.7-5.2,1.7c-4.5,0-8.2-3.4-8.2-7.4c0-3.9,3.2-6.9,7.4-7.4c0.2,0,0.3-0.2,0.3-0.3c0-0.2-0.2-0.3-0.3-0.3l-2.7-0.2
		c-8.1,0-14.8,6-14.8,13.4c0,7.7,6.4,13.9,14.6,13.9c3.7,0,7-1.2,9.7-3.4c3-2.5,5-6.2,5-10.6C613.4,369.2,612.5,366.7,610.9,364.5z"
		/>
	<polygon class="st0" points="925.6,437.7 923.9,433 921.4,433 921.4,441 923.1,441 923.1,434.7 923.1,434.7 925.1,441 926.1,441 
		928.1,434.7 928.1,434.7 928.1,441 929.6,441 929.6,433 927.1,433 	"/>
	<polygon class="st0" points="914.5,434.7 916.7,434.7 916.7,441 918.4,441 918.4,434.7 920.6,434.7 920.6,433 914.5,433 	"/>
</g>
</svg>
