<svg xmlns="http://www.w3.org/2000/svg" viewBox="0 0 500 500" preserveAspectRatio="xMidYMid">
<path fill="#ffffff" d="M93.4,237.7a10.416,10.416,0,0,0-5.9-.7l1,3.5s3.4,10.7,3.7,11.9c3-2.9,4.4-5.5,4.4-8.7a10.553,10.553,0,0,0-.2-2.5C96.1,239.2,94.3,238.2,93.4,237.7Z"/>
<path fill="#ffffff" d="M223.4,237.9c-.7.7-7.4,7.2-7.7,7.5.5.2,7.7,3,8.4,3.2a38.084,38.084,0,0,1-.7-7.5C223.3,240.1,223.4,239.1,223.4,237.9Z"/>
<path fill="#ffffff" d="M255.3,231.2a9.071,9.071,0,0,0-2.5,6.4,11.767,11.767,0,0,0,1,4c.8-1,10.6-12.1,11.4-12.9A9.787,9.787,0,0,0,255.3,231.2Z"/>
<path fill="#ffffff" d="M441.9,231v0Z"/>
<path fill="#ffffff" d="M192.9,281l.3.2v-.3Z"/>
<path fill="#ffffff" d="M335.8,192.8Z"/>
<path fill="#ffffff" d="M304.3,197.6l.2-.2Z"/>
<path fill="#ffffff" d="M137,306.3Z"/>
<path fill="#ffffff" d="M491,221.3h0l-37.6-9.2h-.2l-5.5,3.2c-.5-2.5-1-4.5-1-4.5,0-.2,0-.2-.2-.2l-44-9.7h-.2l-8.1,4.5.3,22.1a37.583,37.583,0,0,0-13.9,2.3,40.937,40.937,0,0,0-8.7,4.7c-.2-.7-6.5-41.6-6.5-41.6a.2.2,0,0,0-.2-.2H335.8l-.2.2-7.9,4.5v.2H304.2l-.2.2-7.9,4.5-1.7,9.9a39.6,39.6,0,0,0-26-10.6c1.2-.7,25.5-13.8,25.5-13.8a.2.2,0,0,0,.2-.2h0v-.2l-18.3-27.2-.2-.2h-.2l-7.9,4.4-33.2,37.9,5.9,6.9c-.2,0-.2.2-.3.2l-5.9,3c-4.7-4.2-27.2-24.2-27.2-24.2h-.2l-8.1,4.5-1.3,2.5c0-3.4.2-6.2.2-6.2v-.2h-.2l-43.7,14.4-8.1,4.5,1.2,23.7,7.5-2,.5,5.2a39.924,39.924,0,0,0-20,2.7,39.1,39.1,0,0,0-7.5,4.2,31.83,31.83,0,0,0,.8-8.1,31.154,31.154,0,0,0-2.5-12.6,38.444,38.444,0,0,0-16.3-18,36.2,36.2,0,0,0-17.3-6c-15.3-2.7-33.7,0-51.8,7.7a128.513,128.513,0,0,0-18.5,9.6l-7,4.5-6.5,7,21.5,36.6,8.1-3.5,34.7,78.7,33.1-10.6,8.2-5.2a.2.2,0,0,0,.2-.2h0s-3.5-13.6-6.7-25.8a36.557,36.557,0,0,0,6,8.1,28.351,28.351,0,0,0,12.6,7.2c9.2,2.7,19.6,1,28.5-4.7a55.355,55.355,0,0,0,6.5-4.9l1.2,12.2,31-4.5,8.4-4.2a.2.2,0,0,0,.2-.2V285.1l56.9,28.2,8.1-4.2h.2l.2-.2V282.1a47.878,47.878,0,0,0,17.8-6.9c.2,0,.2-.2.3-.2l-2.5,14.9,35.2,5.7,6.5-3.5,5.5,10.9,5.7-2.7.8,6.7,39.9,7,7.9-4.2h.2v-.2h0s-.8-5.9-1.5-9.7a39.479,39.479,0,0,0,7.9-1.5,36.288,36.288,0,0,0,3.9-1.5L393,311l26.5,3.9.2,10.7,27.5,8.7,8.2-4.2c.2,0,.2,0,.3-.2L491,221.3ZM274.6,172.8c.3.3,9.1,12.2,9.4,12.8-.5.2-26.8,13.3-27.2,13.4-.2-.3-1.5-2.3-1.7-2.7C255.1,196.1,274.3,173.3,274.6,172.8ZM91.9,273.3l-.2.2h0s10.9,41.6,10.9,41.9c-.3.2-17.1,5.5-17.4,5.5-.2-.3-36.4-81.4-36.4-81.4a.2.2,0,0,0-.2-.2h-.1l-5.9,2.9s-2.7,1.3-3,1.5c-.2-.3-12.8-21.6-13.1-22a149.276,149.276,0,0,1,16.9-8.9c16.4-7,33.1-9.6,46.6-7.2a31.8,31.8,0,0,1,13.8,4.7,28.873,28.873,0,0,1,12.9,14.1,23.945,23.945,0,0,1,1.8,9.2C118.9,247.5,108.7,263.1,91.9,273.3Zm75.5,10.2-.2.2a31.291,31.291,0,0,1-7.7,7.7,38.205,38.205,0,0,1-7,4.2c-7.9,3.4-15.9,3.4-22.6.2a23.3,23.3,0,0,1-12.1-14.6c-4-14.1,5-30.9,20.1-37.2a29.329,29.329,0,0,1,17.1-2,25.147,25.147,0,0,1,8.6,3.5.2.2,0,0,1,.2.2,20.833,20.833,0,0,1,8.7,12.4l.5,1.8a18.613,18.613,0,0,1,.5,6.2A30.384,30.384,0,0,1,167.4,283.5Zm90.3,12.1c-.7-.3-64.3-32.2-64.3-32.2h-.2l-.2.2v33.7c-.3,0-15.9,2.2-16.3,2.2,0-.3-1.2-13.8-1.2-13.8a38.737,38.737,0,0,0,5.5-19.8,31.188,31.188,0,0,0-1.2-9.1,30.049,30.049,0,0,0-8.1-13.6h0c0-.5-2.3-28.4-2.3-28.4a.2.2,0,0,0-.2-.2H169s-6.9,1.8-7.2,1.8c0-.5-.3-6.5-.3-6.7.3-.2,26-7.7,26.5-7.9,0,.5,1.7,27.3,1.7,27.3,0,.2,0,.2.2.2h.2s19.3-27.2,19.6-27.7c.3.3,18.8,17.8,19,18.1-.3.3-26.8,28.4-26.8,28.4v.2h0a.2.2,0,0,0,.2.2l25.3,10.1A35.664,35.664,0,0,0,240,271.9a38.969,38.969,0,0,0,17.6,5.7C257.7,278.2,257.7,294.9,257.7,295.6Zm-33.6-46.8c-.7-.2-7.9-3-8.4-3.2.3-.3,7-6.9,7.7-7.5a16.165,16.165,0,0,0-.2,3.2A54.388,54.388,0,0,0,224.1,248.8Zm70.6,8.4c-.1,0-.1.2,0,0a51.1,51.1,0,0,1-8.2,5.5,60.782,60.782,0,0,1-14.4,5.2,42.812,42.812,0,0,1-5.9,1c-14.4,1.3-27-5-31.7-16.3a31.031,31.031,0,0,1-1.3-4c-2-8.9-.7-17.1,4.2-24a53.981,53.981,0,0,1,4.5-5.2,37.356,37.356,0,0,1,16.1-8.2c13.4-3.2,26,.5,33.9,10.1-.3.3-26.8,28.5-26.8,28.5v.2h0l.2.2a20.651,20.651,0,0,0,6.9-.7c6-1.5,9.6-4.5,13.1-8.6.2.2,2,1.8,4.2,3.9,2,1.8,4.5,4,6.4,5.7,1.7,1.5,2.9,2.5,3,2.7A50.755,50.755,0,0,1,294.7,257.2Zm57.2,38.4c0-.3-5.9-38.6-5.9-38.6a.2.2,0,0,0-.2-.2c-.2,0-.2,0-.2.2,0,0-7.7,20.1-8.1,21-.3-.8-12.2-26.3-12.2-26.3s-.2-.2-.3-.2-.2,0-.2.2c0,0-4.9,30.4-4.9,30.7-.3,0-19.8-3.5-20.3-3.5,0-.3,2.9-17.1,2.9-17.1l2.2-2.2,6.7-6.9v-.2h0v-.2s-6.2-5.5-6.4-5.7c0-.2,6.7-40.4,6.9-40.8h20.5c0,.3,5.2,28.4,5.2,28.4a.2.2,0,0,0,.2.2c.2,0,.2,0,.2-.2,0,0,5.7-32.5,5.9-32.9h14.6c0,.3,6.2,39.8,6.2,39.9-6.4,7.4-9.9,16.3-9.9,25a33.794,33.794,0,0,0,.8,7.2A29.551,29.551,0,0,0,370.5,293a19.487,19.487,0,0,1,2.2,1c0,.2.7,4.4.7,4.9C372.9,298.8,352.3,295.6,351.9,295.6Zm51.4-12.7h0a27.413,27.413,0,0,1-7.5,4c-.2,0-.3.2-.5.2a28.1,28.1,0,0,1-14.8,1.3,21.871,21.871,0,0,1-8.7-3.7,21.369,21.369,0,0,1-8.4-12.9c-1.5-6.4-.3-13.4,3.4-20a33.968,33.968,0,0,1,6.7-8.4,30.533,30.533,0,0,1,10.4-6.4,27.352,27.352,0,0,1,17.1-1,19.829,19.829,0,0,1,7,3.4h0a23.17,23.17,0,0,1,5.7,6,19.877,19.877,0,0,1,2.5,6.4,22.243,22.243,0,0,1,.7,5.7,31.1,31.1,0,0,1-6,17.6A35.212,35.212,0,0,1,403.3,282.9Zm46.3,36.5c-.3-.2-14.6-4.4-14.9-4.5,0-.3-1.3-56.2-1.3-56.2a.2.2,0,0,0-.2-.2c-.2,0-.2,0-.2.2,0,0-7.5,42.8-7.7,43.3-.3,0-15.9-2.5-16.3-2.5,0-.3,1.2-12.2,1.2-12.2,9.1-7.7,14.4-18.6,14.4-29.5a38.234,38.234,0,0,0-.8-7.5,29.266,29.266,0,0,0-8.6-14.8c0-.2,1.3-14.6,1.3-14.6,0-.2,0-.2-.2-.2,0,0-5.9-1.5-6.2-1.7,0-.3.3-7,.3-7.5.5.2,28,5.7,28.4,5.7,0,.2,1.3,6,2.9,13.8v.2c2.9,13.4,6.7,31.7,6.7,31.7a.2.2,0,0,0,.2.2c.2,0,.2,0,.2-.2,0,0,9.7-40.4,9.9-40.9.3.2,21,4.7,21.5,4.7C480.1,227.2,449.8,319.1,449.6,319.4Z"/>
<path fill="#ffffff" d="M103.6,240.1a12.812,12.812,0,0,0-7-8.9c-5.2-2.5-11.7-2-17.6,1.2a.551.551,0,0,0-.2.5l2.9,9.9,6.5,21.3c0,.2.2.2.2.3h.3C97.4,258.7,105.8,252.2,103.6,240.1Zm-16.1-3a9.626,9.626,0,0,1,5.9.7,4.929,4.929,0,0,1,3,3.5,10.553,10.553,0,0,1,.2,2.5c0,3.2-1.5,6-4.4,8.7-.3-1.2-3.7-11.9-3.7-11.9S87.7,237.7,87.5,237.1Z"/>
<path fill="#ffffff" d="M274.1,227.2l-1.2-1.2a15.727,15.727,0,0,0-11.4-4.2,15.908,15.908,0,0,0-10.9,5,15.594,15.594,0,0,0-4.2,10.6v.7a15.907,15.907,0,0,0,5,10.9l1.7,1.3c.2.2.3.2.5,0l20.1-22.8C274.3,227.5,274.3,227.3,274.1,227.2Zm-8.9,1.5c-.8.8-10.6,11.9-11.4,12.9a11.767,11.767,0,0,1-1-4,9.071,9.071,0,0,1,2.5-6.4A9.787,9.787,0,0,1,265.2,228.7Z"/>
<path fill="#ffffff" d="M404,246.8a.551.551,0,0,0-.5-.2c-.2,0-.3.3-.2.5l.2,2a7.014,7.014,0,0,1-4.7,6.2,8.477,8.477,0,0,1-3.9.7,9.812,9.812,0,0,1-6-2.7,6.163,6.163,0,0,1-1.8-4.9c.2-3.9,3.5-6.7,7.7-7a.3.3,0,1,0,0-.6l-2.7-.3a15.587,15.587,0,0,0-11.1,3.9,13.141,13.141,0,0,0-4.2,8.9c-.3,7.7,5.9,14.1,14.1,14.4a13.394,13.394,0,0,0,6.7-1.2,13.843,13.843,0,0,0,8.6-12.1A14.34,14.34,0,0,0,404,246.8Z"/>
<path fill="#ffffff" d="M160.4,253.3a.551.551,0,0,0-.5-.2c-.2,0-.3.3-.2.5l.3,2a6.8,6.8,0,0,1-3.2,5.7,8.741,8.741,0,0,1-5.2,1.7c-4.5,0-8.2-3.4-8.2-7.4,0-3.9,3.2-6.9,7.4-7.4a.3.3,0,1,0,0-.6l-2.7-.2c-8.1,0-14.8,6-14.8,13.4,0,7.7,6.4,13.9,14.6,13.9a15.079,15.079,0,0,0,9.7-3.4,13.645,13.645,0,0,0,5-10.6A10.485,10.485,0,0,0,160.4,253.3Z"/>
<polygon fill="#ffffff" points="467.1 166.5 465.4 161.8 462.9 161.8 462.9 169.8 464.6 169.8 464.6 163.5 464.6 163.5 466.6 169.8 467.6 169.8 469.6 163.5 469.6 163.5 469.6 169.8 471.1 169.8 471.1 161.8 468.6 161.8 467.1 166.5"/>
<polygon fill="#ffffff" points="456 163.5 458.2 163.5 458.2 169.8 459.9 169.8 459.9 163.5 462.1 163.5 462.1 161.8 456 161.8 456 163.5"/>
</svg>