<?xml version="1.0" encoding="utf-8"?>
<!-- Generator: Adobe Illustrator 21.1.0, SVG Export Plug-In . SVG Version: 6.00 Build 0)  -->
<svg version="1.1" id="Layer_1" xmlns="http://www.w3.org/2000/svg" xmlns:xlink="http://www.w3.org/1999/xlink" x="0px" y="0px"
	 viewBox="0 0 244.5 180" style="enable-background:new 0 0 244.5 180;" xml:space="preserve">
<g>
	<path d="M0,0v14.4v12.2V41h43V26.6V14.4V0H0z M1.3,39.7l0-38.4h40.4l0,38.4H1.3z"/>
	<path d="M23.5,13.6c-0.5-1-1.1-1.9-2-2.6c-0.3-0.2-0.6-0.5-1-0.7c-0.4-0.2-0.8-0.4-1.3-0.5c-0.5-0.2-1.2-0.2-1.9-0.3
		c-0.8-0.1-1.6-0.1-2.6-0.1H7.3v22.2h5.4v-7h2.5c0.9,0,1.6,0,2.3-0.1c0.6-0.1,1.2-0.2,1.7-0.4c0.5-0.2,1-0.4,1.4-0.6
		c0.4-0.2,0.8-0.5,1.2-0.8c0.4-0.3,0.7-0.7,1-1.1c0.3-0.4,0.5-0.9,0.8-1.4v11.4h5.4v-8.5h6.5v-5h-6.5v-3.8h6.7v-5H23.5V13.6z
		 M18.3,18.5c-0.3,0.4-0.6,0.7-1,0.8c-0.4,0.2-0.8,0.2-1.2,0.3c-0.4,0-0.8,0.1-1,0.1h-2.3v-5.3h2.1c0.3,0,0.7,0,1.1,0
		c0.4,0,0.8,0.2,1.2,0.3c0.4,0.2,0.7,0.4,1,0.8c0.3,0.4,0.4,0.9,0.4,1.5S18.5,18.2,18.3,18.5z"/>
</g>
</svg>
