<?xml version="1.0" encoding="utf-8"?>
<!-- Generator: Adobe Illustrator 21.1.0, SVG Export Plug-In . SVG Version: 6.00 Build 0)  -->
<svg version="1.1" id="Layer_1" xmlns="http://www.w3.org/2000/svg" xmlns:xlink="http://www.w3.org/1999/xlink" x="0px" y="0px"
	 viewBox="0 0 244.5 180" style="enable-background:new 0 0 244.5 180;" xml:space="preserve">
<g>
	<path d="M19.2,11.5c-0.2-0.3-0.5-0.5-0.8-0.6c-0.3-0.2-0.7-0.2-1.1-0.2c-0.4,0-0.7,0.1-1,0.2s-0.6,0.3-0.8,0.6
		c-0.2,0.3-0.4,0.5-0.5,0.8c-0.1,0.3-0.2,0.6-0.2,0.9c0,0.3,0.1,0.7,0.2,1c0.1,0.3,0.3,0.6,0.5,0.8c0.2,0.3,0.5,0.4,0.8,0.6
		c0.3,0.2,0.6,0.2,1,0.2c0.4,0,0.8-0.1,1.1-0.3c0.3-0.2,0.5-0.4,0.7-0.6c0.2-0.3,0.3-0.5,0.4-0.8c0.1-0.3,0.1-0.6,0.1-0.9
		c0-0.3,0-0.6-0.1-0.9C19.5,12.1,19.3,11.8,19.2,11.5z"/>
	<path d="M25.8,12c0-0.4-0.1-0.7-0.4-0.9c-0.3-0.2-0.6-0.3-1.1-0.3h-0.8v2.5h0.8c0.3,0,0.6,0,0.8-0.1c0.2-0.1,0.3-0.2,0.4-0.3
		c0.1-0.1,0.2-0.3,0.2-0.4C25.8,12.3,25.8,12.1,25.8,12z"/>
	<path d="M16.1,21.9c-0.2-0.3-0.5-0.5-0.8-0.6c-0.3-0.2-0.7-0.2-1.1-0.2c-0.4,0-0.7,0.1-1,0.2s-0.6,0.3-0.8,0.6
		c-0.2,0.3-0.4,0.5-0.5,0.8c-0.1,0.3-0.2,0.6-0.2,0.9c0,0.3,0.1,0.7,0.2,1c0.1,0.3,0.3,0.6,0.5,0.8c0.2,0.3,0.5,0.4,0.8,0.6
		c0.3,0.2,0.6,0.2,1,0.2c0.4,0,0.8-0.1,1.1-0.3c0.3-0.2,0.5-0.4,0.7-0.6c0.2-0.3,0.3-0.5,0.4-0.8c0.1-0.3,0.1-0.6,0.1-0.9
		c0-0.3,0-0.6-0.1-0.9C16.4,22.5,16.3,22.2,16.1,21.9z"/>
	<path d="M19.6,0.2C9.5,0.2,1.3,8.3,1.3,18.5s8.2,18.3,18.3,18.3s18.3-8.2,18.3-18.3S29.7,0.2,19.6,0.2z M28,8.8h5.8v2h-1.7v6.9
		h-2.3v-6.9H28V8.8z M23.4,28.1h-4.9v-2.6c-0.2,0.5-0.5,1-0.9,1.4c-0.4,0.4-0.9,0.8-1.5,1c-0.6,0.3-1.2,0.4-1.9,0.4
		c-0.7,0-1.3-0.1-1.9-0.4s-1.1-0.6-1.5-1s-0.7-0.9-0.9-1.4c-0.1-0.2-0.2-0.5-0.2-0.7H7.2v3.4H5.1v-8.9h4.8v2H7.2v1.5h2.4
		c0.1-0.3,0.1-0.6,0.2-0.9c0.1-0.3,0.3-0.6,0.5-0.9c0.2-0.3,0.5-0.6,0.9-0.9c0.3-0.3,0.8-0.5,1.3-0.7c0.5-0.2,1-0.3,1.7-0.3
		c0.7,0,1.3,0.1,1.9,0.4c0.6,0.3,1.1,0.6,1.5,1c0.4,0.4,0.7,0.9,0.9,1.4v-2.6h2.3v6.9h2.6V28.1z M23.5,14.8v2.9h-2.2v-2
		c-0.2,0.3-0.4,0.6-0.6,0.8c-0.4,0.4-0.9,0.8-1.5,1c-0.6,0.3-1.2,0.4-1.9,0.4c-0.7,0-1.3-0.1-1.9-0.4s-1.1-0.6-1.5-1
		S13.2,15.6,13,15c-0.1-0.3-0.2-0.7-0.3-1c0,0-0.1,0.1-0.1,0.1c-0.2,0.1-0.3,0.2-0.5,0.3c-0.2,0.1-0.3,0.2-0.5,0.2
		c-0.2,0.1-0.4,0.1-0.7,0.1c-0.3,0-0.6,0-0.9,0H9v2.8H6.8V8.8h2.9c0.4,0,0.8,0,1.1,0c0.3,0,0.5,0.1,0.8,0.1c0.2,0.1,0.4,0.1,0.5,0.2
		c0.1,0.1,0.3,0.2,0.4,0.3c0.3,0.3,0.6,0.6,0.8,1c0,0.1,0.1,0.2,0.1,0.3c0.1-0.1,0.1-0.2,0.2-0.3c0.2-0.3,0.5-0.6,0.9-0.9
		c0.3-0.3,0.8-0.5,1.3-0.7c0.5-0.2,1-0.3,1.7-0.3c0.7,0,1.3,0.1,1.9,0.4s1.1,0.6,1.5,1c0.2,0.2,0.4,0.5,0.6,0.8v-2h2.8
		c0.4,0,0.7,0,1,0c0.3,0,0.5,0.1,0.7,0.1c0.2,0.1,0.4,0.1,0.6,0.2c0.2,0.1,0.3,0.2,0.4,0.3c0.4,0.3,0.6,0.6,0.8,1.1
		c0.2,0.4,0.3,0.9,0.3,1.3c0,0.3,0,0.5-0.1,0.8c-0.1,0.3-0.2,0.6-0.4,0.8c-0.2,0.3-0.4,0.5-0.7,0.7c-0.3,0.2-0.6,0.3-1.1,0.4l2.4,3
		h-2.6L23.5,14.8L23.5,14.8z M33.9,26.9c-0.4,0.4-0.9,0.8-1.5,1c-0.6,0.3-1.2,0.4-1.9,0.4c-0.7,0-1.3-0.1-1.9-0.4s-1.1-0.6-1.5-1
		c-0.3-0.4-0.6-0.8-0.8-1.2v2.5h-2.3v-8.9h2.3v2.4c0.1-0.2,0.2-0.5,0.4-0.7c0.2-0.3,0.5-0.6,0.9-0.9c0.3-0.3,0.8-0.5,1.3-0.7
		c0.5-0.2,1-0.3,1.7-0.3c0.7,0,1.3,0.1,1.9,0.4c0.6,0.3,1.1,0.6,1.5,1s0.7,0.9,1,1.5c0.2,0.6,0.3,1.2,0.3,1.8s-0.1,1.2-0.3,1.8
		C34.7,26,34.4,26.5,33.9,26.9z"/>
	<path d="M10.8,11c-0.2-0.1-0.3-0.1-0.5-0.1c-0.2,0-0.3,0-0.4,0H9v2.1h0.9c0.1,0,0.2,0,0.4,0c0.2,0,0.3,0,0.5-0.1
		c0.1-0.1,0.3-0.2,0.4-0.3c0.1-0.1,0.2-0.3,0.2-0.6s-0.1-0.5-0.2-0.6C11.1,11.1,10.9,11,10.8,11z"/>
	<path d="M32.4,21.9c-0.2-0.3-0.5-0.5-0.8-0.6c-0.3-0.2-0.7-0.2-1.1-0.2c-0.4,0-0.7,0.1-1,0.2s-0.6,0.3-0.8,0.6
		c-0.2,0.3-0.4,0.5-0.5,0.8c-0.1,0.3-0.2,0.6-0.2,0.9c0,0.3,0.1,0.7,0.2,1c0.1,0.3,0.3,0.6,0.5,0.8c0.2,0.3,0.5,0.4,0.8,0.6
		c0.3,0.2,0.6,0.2,1,0.2c0.4,0,0.8-0.1,1.1-0.3c0.3-0.2,0.5-0.4,0.7-0.6c0.2-0.3,0.3-0.5,0.4-0.8c0.1-0.3,0.1-0.6,0.1-0.9
		c0-0.3,0-0.6-0.1-0.9C32.7,22.5,32.6,22.2,32.4,21.9z"/>
</g>
</svg>
