<?xml version="1.0" encoding="utf-8"?>
<!-- Generator: Adobe Illustrator 21.1.0, SVG Export Plug-In . SVG Version: 6.00 Build 0)  -->
<svg version="1.1" id="Layer_1" xmlns="http://www.w3.org/2000/svg" xmlns:xlink="http://www.w3.org/1999/xlink" x="0px" y="0px"
	 viewBox="0 0 244.5 180" style="enable-background:new 0 0 244.5 180;" xml:space="preserve">
<g>
	<path d="M11.6,11.6c-0.3-0.2-0.6-0.3-1.1-0.3H9.7v2.5h0.8c0.3,0,0.6,0,0.8-0.1c0.2-0.1,0.3-0.2,0.4-0.3c0.1-0.1,0.2-0.3,0.2-0.4
		c0-0.1,0-0.3,0-0.4C12,12.1,11.9,11.8,11.6,11.6z"/>
	<path d="M19,0.1C8.7,0.1,0.2,8.6,0.2,19S8.7,37.9,19,37.9c10.4,0,18.9-8.5,18.9-18.9S29.5,0.1,19,0.1z M26.7,13
		c0.1-0.2,0.2-0.4,0.4-0.6c0.2-0.2,0.4-0.3,0.6-0.4c0.2-0.1,0.5-0.1,0.7-0.1c0.3,0,0.5,0,0.7,0.1c0.2,0.1,0.4,0.2,0.6,0.4
		c0.2,0.2,0.3,0.4,0.4,0.6c0.1,0.2,0.1,0.5,0.1,0.7s0,0.5-0.1,0.7c-0.1,0.2-0.2,0.4-0.4,0.6s-0.4,0.3-0.6,0.4
		c-0.2,0.1-0.5,0.1-0.7,0.1s-0.5,0-0.7-0.2c-0.2-0.1-0.4-0.2-0.6-0.4c-0.2-0.2-0.3-0.4-0.4-0.6c-0.1-0.2-0.1-0.5-0.1-0.7
		S26.6,13.2,26.7,13z M14.3,25.1c0,0.4,0,0.7-0.1,1c0,0.3-0.1,0.5-0.2,0.7c-0.1,0.2-0.2,0.4-0.3,0.6c-0.1,0.2-0.2,0.3-0.4,0.5
		c-0.3,0.3-0.6,0.5-1,0.7c-0.4,0.2-0.9,0.3-1.4,0.3c-0.2,0-0.3,0-0.6,0c-0.2,0-0.5-0.1-0.7-0.1c-0.2-0.1-0.5-0.2-0.7-0.3
		c-0.2-0.1-0.4-0.3-0.6-0.5c-0.2-0.2-0.3-0.4-0.4-0.6c-0.1-0.2-0.2-0.4-0.3-0.6c-0.1-0.2-0.1-0.4-0.1-0.7s0-0.5,0-0.9v-5.4h2.3v5.4
		c0,0.2,0,0.3,0,0.5c0,0.2,0.1,0.4,0.1,0.6c0.1,0.2,0.2,0.3,0.3,0.4c0.2,0.1,0.4,0.2,0.6,0.2s0.5-0.1,0.6-0.2
		c0.2-0.1,0.3-0.2,0.3-0.4c0.1-0.2,0.1-0.3,0.1-0.6c0-0.2,0-0.4,0-0.6v-5.4h2.3V25.1z M11.8,18.2l-2.1-2.9h0v2.9H7.6V9.4h2.8
		c0.4,0,0.7,0,1,0c0.3,0,0.5,0.1,0.7,0.1c0.2,0.1,0.4,0.1,0.6,0.2c0.2,0.1,0.3,0.2,0.4,0.3c0.4,0.3,0.6,0.6,0.8,1.1
		c0.2,0.4,0.3,0.9,0.3,1.3c0,0.3,0,0.5-0.1,0.8c-0.1,0.3-0.2,0.6-0.4,0.8c-0.2,0.3-0.4,0.5-0.7,0.7c-0.3,0.2-0.6,0.3-1.1,0.4l2.4,3
		H11.8z M14.7,9.4h4.9v2h-2.8v1.4h2.7v2h-2.7v1.5h2.8v2h-4.9V9.4z M24.5,28.6h-2.1l0.1-6.6l0,0l-1.9,6.7h-1.5L17.2,22l0,0l0.1,6.6
		h-2.1v-8.9h2.9l1.8,5.8h0l1.7-5.8h2.9V28.6z M24.5,18.2c-0.4,0.2-0.9,0.3-1.5,0.3c-0.6,0-1.2-0.1-1.6-0.3c-0.4-0.2-0.7-0.4-1-0.7
		s-0.4-0.6-0.5-0.9c-0.1-0.3-0.1-0.6-0.1-0.9v-0.3H22c0,0.3,0,0.5,0.1,0.6c0.1,0.2,0.1,0.3,0.3,0.4c0.1,0.1,0.2,0.1,0.3,0.2
		c0.1,0,0.2,0,0.3,0c0.3,0,0.5-0.1,0.6-0.3c0.2-0.2,0.2-0.4,0.2-0.6c0-0.1,0-0.3-0.1-0.4c-0.1-0.1-0.1-0.2-0.3-0.3
		c-0.1-0.1-0.3-0.2-0.5-0.3l-0.9-0.4c-0.2-0.1-0.4-0.2-0.6-0.3c-0.3-0.1-0.5-0.3-0.7-0.5c-0.2-0.2-0.4-0.4-0.6-0.7s-0.3-0.6-0.3-1.1
		c0-0.4,0.1-0.8,0.3-1.1c0.2-0.3,0.4-0.6,0.7-0.8s0.6-0.4,1-0.5c0.4-0.1,0.7-0.2,1.1-0.2c0.4,0,0.9,0.1,1.3,0.2
		c0.4,0.2,0.8,0.4,1.1,0.8c0.1,0.2,0.2,0.3,0.3,0.5c0.1,0.2,0.1,0.3,0.2,0.5c0,0.2,0.1,0.3,0.1,0.4c0,0.1,0,0.3,0,0.4h-2.2
		c0-0.1,0-0.2,0-0.3c0-0.1-0.1-0.2-0.1-0.3c-0.1-0.1-0.1-0.2-0.2-0.2c-0.1-0.1-0.2-0.1-0.4-0.1c-0.2,0-0.4,0.1-0.5,0.2
		c-0.2,0.1-0.2,0.3-0.2,0.5c0,0.1,0,0.3,0.1,0.3c0,0.1,0.1,0.2,0.3,0.3c0.1,0.1,0.3,0.2,0.6,0.3c0.2,0.1,0.6,0.3,1,0.4
		c0.4,0.2,0.8,0.4,1,0.6c0.3,0.2,0.5,0.4,0.6,0.6c0.2,0.2,0.3,0.4,0.3,0.6c0.1,0.2,0.1,0.5,0.1,0.7c0,0.3,0,0.6-0.2,1
		s-0.3,0.6-0.5,0.9S24.9,18,24.5,18.2z M30.4,21.8h-2.8v1.4h2.7v2h-2.7v1.5h2.8v2h-4.9v-8.9h4.9V21.8z"/>
</g>
</svg>
