<?xml version="1.0" encoding="utf-8"?>
<!-- Generator: Adobe Illustrator 21.1.0, SVG Export Plug-In . SVG Version: 6.00 Build 0)  -->
<svg version="1.1" id="Layer_1" xmlns="http://www.w3.org/2000/svg" xmlns:xlink="http://www.w3.org/1999/xlink" x="0px" y="0px"
	 viewBox="0 0 244.5 180" style="enable-background:new 0 0 244.5 180;" xml:space="preserve">
<g>
	<path d="M0,0v14.4v12.2V41h43V26.6V14.4V0H0z M41.7,39.7H1.3V1.3h40.4V39.7z"/>
	<path d="M12.8,24.5L12.8,24.5l5.2,7.2h5.4h1.1h11.2v-5h-6.9v-3.8h6.7v-5h-6.7v-3.5h6.9v-5H23.3v4.5c0-0.1,0-0.1-0.1-0.2
		c-0.5-1.1-1.1-2-2.1-2.7c-0.4-0.3-0.7-0.5-1.1-0.7c-0.4-0.2-0.9-0.4-1.4-0.5c-0.5-0.1-1.1-0.2-1.8-0.3c-0.7-0.1-1.5-0.1-2.5-0.1h-7
		v22.2h5.4V24.5z M21,23c0.7-0.5,1.3-1.1,1.7-1.8c0.2-0.4,0.4-0.7,0.6-1.1v10.1l-4.9-6.2C19.5,23.9,20.3,23.5,21,23z M12.8,14.4h2.1
		c1.1,0,2,0.2,2.7,0.7c0.7,0.5,1,1.3,1,2.3c0,0.3,0,0.6-0.1,1c-0.1,0.4-0.2,0.7-0.5,1c-0.3,0.3-0.6,0.6-1.1,0.8
		c-0.5,0.2-1.2,0.4-2,0.4h-2V14.4z"/>
	<polygon points="32.9,4.9 30.8,2.3 25.8,6.6 27.7,8.7 	"/>
</g>
</svg>
