
<svg xmlns="http://www.w3.org/2000/svg">
    <symbol id="pokemon" viewBox="0 0 500 500">
        <title>Pokemon</title>
		<path fill="#ffffff" d="M93.4,237.7a10.416,10.416,0,0,0-5.9-.7l1,3.5s3.4,10.7,3.7,11.9c3-2.9,4.4-5.5,4.4-8.7a10.553,10.553,0,0,0-.2-2.5C96.1,239.2,94.3,238.2,93.4,237.7Z"/>
		<path fill="#ffffff" d="M223.4,237.9c-.7.7-7.4,7.2-7.7,7.5.5.2,7.7,3,8.4,3.2a38.084,38.084,0,0,1-.7-7.5C223.3,240.1,223.4,239.1,223.4,237.9Z"/>
		<path fill="#ffffff" d="M255.3,231.2a9.071,9.071,0,0,0-2.5,6.4,11.767,11.767,0,0,0,1,4c.8-1,10.6-12.1,11.4-12.9A9.787,9.787,0,0,0,255.3,231.2Z"/>
		<path fill="#ffffff" d="M441.9,231v0Z"/>
		<path fill="#ffffff" d="M192.9,281l.3.2v-.3Z"/>
		<path fill="#ffffff" d="M335.8,192.8Z"/>
		<path fill="#ffffff" d="M304.3,197.6l.2-.2Z"/>
		<path fill="#ffffff" d="M137,306.3Z"/>
		<path fill="#ffffff" d="M491,221.3h0l-37.6-9.2h-.2l-5.5,3.2c-.5-2.5-1-4.5-1-4.5,0-.2,0-.2-.2-.2l-44-9.7h-.2l-8.1,4.5.3,22.1a37.583,37.583,0,0,0-13.9,2.3,40.937,40.937,0,0,0-8.7,4.7c-.2-.7-6.5-41.6-6.5-41.6a.2.2,0,0,0-.2-.2H335.8l-.2.2-7.9,4.5v.2H304.2l-.2.2-7.9,4.5-1.7,9.9a39.6,39.6,0,0,0-26-10.6c1.2-.7,25.5-13.8,25.5-13.8a.2.2,0,0,0,.2-.2h0v-.2l-18.3-27.2-.2-.2h-.2l-7.9,4.4-33.2,37.9,5.9,6.9c-.2,0-.2.2-.3.2l-5.9,3c-4.7-4.2-27.2-24.2-27.2-24.2h-.2l-8.1,4.5-1.3,2.5c0-3.4.2-6.2.2-6.2v-.2h-.2l-43.7,14.4-8.1,4.5,1.2,23.7,7.5-2,.5,5.2a39.924,39.924,0,0,0-20,2.7,39.1,39.1,0,0,0-7.5,4.2,31.83,31.83,0,0,0,.8-8.1,31.154,31.154,0,0,0-2.5-12.6,38.444,38.444,0,0,0-16.3-18,36.2,36.2,0,0,0-17.3-6c-15.3-2.7-33.7,0-51.8,7.7a128.513,128.513,0,0,0-18.5,9.6l-7,4.5-6.5,7,21.5,36.6,8.1-3.5,34.7,78.7,33.1-10.6,8.2-5.2a.2.2,0,0,0,.2-.2h0s-3.5-13.6-6.7-25.8a36.557,36.557,0,0,0,6,8.1,28.351,28.351,0,0,0,12.6,7.2c9.2,2.7,19.6,1,28.5-4.7a55.355,55.355,0,0,0,6.5-4.9l1.2,12.2,31-4.5,8.4-4.2a.2.2,0,0,0,.2-.2V285.1l56.9,28.2,8.1-4.2h.2l.2-.2V282.1a47.878,47.878,0,0,0,17.8-6.9c.2,0,.2-.2.3-.2l-2.5,14.9,35.2,5.7,6.5-3.5,5.5,10.9,5.7-2.7.8,6.7,39.9,7,7.9-4.2h.2v-.2h0s-.8-5.9-1.5-9.7a39.479,39.479,0,0,0,7.9-1.5,36.288,36.288,0,0,0,3.9-1.5L393,311l26.5,3.9.2,10.7,27.5,8.7,8.2-4.2c.2,0,.2,0,.3-.2L491,221.3ZM274.6,172.8c.3.3,9.1,12.2,9.4,12.8-.5.2-26.8,13.3-27.2,13.4-.2-.3-1.5-2.3-1.7-2.7C255.1,196.1,274.3,173.3,274.6,172.8ZM91.9,273.3l-.2.2h0s10.9,41.6,10.9,41.9c-.3.2-17.1,5.5-17.4,5.5-.2-.3-36.4-81.4-36.4-81.4a.2.2,0,0,0-.2-.2h-.1l-5.9,2.9s-2.7,1.3-3,1.5c-.2-.3-12.8-21.6-13.1-22a149.276,149.276,0,0,1,16.9-8.9c16.4-7,33.1-9.6,46.6-7.2a31.8,31.8,0,0,1,13.8,4.7,28.873,28.873,0,0,1,12.9,14.1,23.945,23.945,0,0,1,1.8,9.2C118.9,247.5,108.7,263.1,91.9,273.3Zm75.5,10.2-.2.2a31.291,31.291,0,0,1-7.7,7.7,38.205,38.205,0,0,1-7,4.2c-7.9,3.4-15.9,3.4-22.6.2a23.3,23.3,0,0,1-12.1-14.6c-4-14.1,5-30.9,20.1-37.2a29.329,29.329,0,0,1,17.1-2,25.147,25.147,0,0,1,8.6,3.5.2.2,0,0,1,.2.2,20.833,20.833,0,0,1,8.7,12.4l.5,1.8a18.613,18.613,0,0,1,.5,6.2A30.384,30.384,0,0,1,167.4,283.5Zm90.3,12.1c-.7-.3-64.3-32.2-64.3-32.2h-.2l-.2.2v33.7c-.3,0-15.9,2.2-16.3,2.2,0-.3-1.2-13.8-1.2-13.8a38.737,38.737,0,0,0,5.5-19.8,31.188,31.188,0,0,0-1.2-9.1,30.049,30.049,0,0,0-8.1-13.6h0c0-.5-2.3-28.4-2.3-28.4a.2.2,0,0,0-.2-.2H169s-6.9,1.8-7.2,1.8c0-.5-.3-6.5-.3-6.7.3-.2,26-7.7,26.5-7.9,0,.5,1.7,27.3,1.7,27.3,0,.2,0,.2.2.2h.2s19.3-27.2,19.6-27.7c.3.3,18.8,17.8,19,18.1-.3.3-26.8,28.4-26.8,28.4v.2h0a.2.2,0,0,0,.2.2l25.3,10.1A35.664,35.664,0,0,0,240,271.9a38.969,38.969,0,0,0,17.6,5.7C257.7,278.2,257.7,294.9,257.7,295.6Zm-33.6-46.8c-.7-.2-7.9-3-8.4-3.2.3-.3,7-6.9,7.7-7.5a16.165,16.165,0,0,0-.2,3.2A54.388,54.388,0,0,0,224.1,248.8Zm70.6,8.4c-.1,0-.1.2,0,0a51.1,51.1,0,0,1-8.2,5.5,60.782,60.782,0,0,1-14.4,5.2,42.812,42.812,0,0,1-5.9,1c-14.4,1.3-27-5-31.7-16.3a31.031,31.031,0,0,1-1.3-4c-2-8.9-.7-17.1,4.2-24a53.981,53.981,0,0,1,4.5-5.2,37.356,37.356,0,0,1,16.1-8.2c13.4-3.2,26,.5,33.9,10.1-.3.3-26.8,28.5-26.8,28.5v.2h0l.2.2a20.651,20.651,0,0,0,6.9-.7c6-1.5,9.6-4.5,13.1-8.6.2.2,2,1.8,4.2,3.9,2,1.8,4.5,4,6.4,5.7,1.7,1.5,2.9,2.5,3,2.7A50.755,50.755,0,0,1,294.7,257.2Zm57.2,38.4c0-.3-5.9-38.6-5.9-38.6a.2.2,0,0,0-.2-.2c-.2,0-.2,0-.2.2,0,0-7.7,20.1-8.1,21-.3-.8-12.2-26.3-12.2-26.3s-.2-.2-.3-.2-.2,0-.2.2c0,0-4.9,30.4-4.9,30.7-.3,0-19.8-3.5-20.3-3.5,0-.3,2.9-17.1,2.9-17.1l2.2-2.2,6.7-6.9v-.2h0v-.2s-6.2-5.5-6.4-5.7c0-.2,6.7-40.4,6.9-40.8h20.5c0,.3,5.2,28.4,5.2,28.4a.2.2,0,0,0,.2.2c.2,0,.2,0,.2-.2,0,0,5.7-32.5,5.9-32.9h14.6c0,.3,6.2,39.8,6.2,39.9-6.4,7.4-9.9,16.3-9.9,25a33.794,33.794,0,0,0,.8,7.2A29.551,29.551,0,0,0,370.5,293a19.487,19.487,0,0,1,2.2,1c0,.2.7,4.4.7,4.9C372.9,298.8,352.3,295.6,351.9,295.6Zm51.4-12.7h0a27.413,27.413,0,0,1-7.5,4c-.2,0-.3.2-.5.2a28.1,28.1,0,0,1-14.8,1.3,21.871,21.871,0,0,1-8.7-3.7,21.369,21.369,0,0,1-8.4-12.9c-1.5-6.4-.3-13.4,3.4-20a33.968,33.968,0,0,1,6.7-8.4,30.533,30.533,0,0,1,10.4-6.4,27.352,27.352,0,0,1,17.1-1,19.829,19.829,0,0,1,7,3.4h0a23.17,23.17,0,0,1,5.7,6,19.877,19.877,0,0,1,2.5,6.4,22.243,22.243,0,0,1,.7,5.7,31.1,31.1,0,0,1-6,17.6A35.212,35.212,0,0,1,403.3,282.9Zm46.3,36.5c-.3-.2-14.6-4.4-14.9-4.5,0-.3-1.3-56.2-1.3-56.2a.2.2,0,0,0-.2-.2c-.2,0-.2,0-.2.2,0,0-7.5,42.8-7.7,43.3-.3,0-15.9-2.5-16.3-2.5,0-.3,1.2-12.2,1.2-12.2,9.1-7.7,14.4-18.6,14.4-29.5a38.234,38.234,0,0,0-.8-7.5,29.266,29.266,0,0,0-8.6-14.8c0-.2,1.3-14.6,1.3-14.6,0-.2,0-.2-.2-.2,0,0-5.9-1.5-6.2-1.7,0-.3.3-7,.3-7.5.5.2,28,5.7,28.4,5.7,0,.2,1.3,6,2.9,13.8v.2c2.9,13.4,6.7,31.7,6.7,31.7a.2.2,0,0,0,.2.2c.2,0,.2,0,.2-.2,0,0,9.7-40.4,9.9-40.9.3.2,21,4.7,21.5,4.7C480.1,227.2,449.8,319.1,449.6,319.4Z"/>
		<path fill="#ffffff" d="M103.6,240.1a12.812,12.812,0,0,0-7-8.9c-5.2-2.5-11.7-2-17.6,1.2a.551.551,0,0,0-.2.5l2.9,9.9,6.5,21.3c0,.2.2.2.2.3h.3C97.4,258.7,105.8,252.2,103.6,240.1Zm-16.1-3a9.626,9.626,0,0,1,5.9.7,4.929,4.929,0,0,1,3,3.5,10.553,10.553,0,0,1,.2,2.5c0,3.2-1.5,6-4.4,8.7-.3-1.2-3.7-11.9-3.7-11.9S87.7,237.7,87.5,237.1Z"/>
		<path fill="#ffffff" d="M274.1,227.2l-1.2-1.2a15.727,15.727,0,0,0-11.4-4.2,15.908,15.908,0,0,0-10.9,5,15.594,15.594,0,0,0-4.2,10.6v.7a15.907,15.907,0,0,0,5,10.9l1.7,1.3c.2.2.3.2.5,0l20.1-22.8C274.3,227.5,274.3,227.3,274.1,227.2Zm-8.9,1.5c-.8.8-10.6,11.9-11.4,12.9a11.767,11.767,0,0,1-1-4,9.071,9.071,0,0,1,2.5-6.4A9.787,9.787,0,0,1,265.2,228.7Z"/>
		<path fill="#ffffff" d="M404,246.8a.551.551,0,0,0-.5-.2c-.2,0-.3.3-.2.5l.2,2a7.014,7.014,0,0,1-4.7,6.2,8.477,8.477,0,0,1-3.9.7,9.812,9.812,0,0,1-6-2.7,6.163,6.163,0,0,1-1.8-4.9c.2-3.9,3.5-6.7,7.7-7a.3.3,0,1,0,0-.6l-2.7-.3a15.587,15.587,0,0,0-11.1,3.9,13.141,13.141,0,0,0-4.2,8.9c-.3,7.7,5.9,14.1,14.1,14.4a13.394,13.394,0,0,0,6.7-1.2,13.843,13.843,0,0,0,8.6-12.1A14.34,14.34,0,0,0,404,246.8Z"/>
		<path fill="#ffffff" d="M160.4,253.3a.551.551,0,0,0-.5-.2c-.2,0-.3.3-.2.5l.3,2a6.8,6.8,0,0,1-3.2,5.7,8.741,8.741,0,0,1-5.2,1.7c-4.5,0-8.2-3.4-8.2-7.4,0-3.9,3.2-6.9,7.4-7.4a.3.3,0,1,0,0-.6l-2.7-.2c-8.1,0-14.8,6-14.8,13.4,0,7.7,6.4,13.9,14.6,13.9a15.079,15.079,0,0,0,9.7-3.4,13.645,13.645,0,0,0,5-10.6A10.485,10.485,0,0,0,160.4,253.3Z"/>
		<polygon fill="#ffffff" transform="translate(0 166)" points="467.1 166.5 465.4 161.8 462.9 161.8 462.9 169.8 464.6 169.8 464.6 163.5 464.6 163.5 466.6 169.8 467.6 169.8 469.6 163.5 469.6 163.5 469.6 169.8 471.1 169.8 471.1 161.8 468.6 161.8 467.1 166.5"/>
		<polygon fill="#ffffff" transform="translate(0 166)" points="456 163.5 458.2 163.5 458.2 169.8 459.9 169.8 459.9 163.5 462.1 163.5 462.1 161.8 456 161.8 456 163.5"/>
    </symbol>

    <symbol id="microsoft" viewBox="0 0 500 500">
        <title>Microsoft</title>
		<path fill="#ffffff" d="M8.95,247.15h49v-49.2h-49Zm53.9,0h49v-49.2h-49Zm428.1-2.4v-8.7h-10.5v-13.4c-3.5,1-7,2.2-10.5,3.2-.2,3.3,0,6.7,0,10h-15.6a53.12,53.12,0,0,1,.2-8,6.357,6.357,0,0,1,3.5-5c2.5-1,5.4-.3,7.9.7v-9.2c-5-1.3-10.9-1.2-15.4,1.8a15.153,15.153,0,0,0-6,8.2c-1.2,3.7-.5,7.5-.7,11.4h-7.4v8.5h7.4v36h10.5v-36h15.6v22.9c0,3.5.7,7.4,3,10.2a11.069,11.069,0,0,0,8.4,3.8,21.3,21.3,0,0,0,9.7-1.5v-8.7c-2.3,1.5-5.5,2.2-8,.8a5.179,5.179,0,0,1-2.3-4.2,74.837,74.837,0,0,1-.2-8.2v-14.9C483.85,244.75,487.45,244.65,490.95,244.75Zm-267.1-27.6a6.055,6.055,0,0,0-5.4,6c-.2,2.8,2.2,5.4,4.9,5.9a6.463,6.463,0,0,0,7-3,6.046,6.046,0,0,0-.7-6.9A7.8,7.8,0,0,0,223.85,217.15Zm-29.3,1.5c-6.2,15.4-12.4,30.6-18.6,45.9-1.3-3-2.5-6.2-3.7-9.2q-7.35-18.3-14.4-36.6h-15.4v62.1h10v-47.9c.2.3.3.7.5,1,6.4,15.7,12.6,31.3,18.9,47h7.5c6-15.7,12.4-31.3,18.4-46.9.2-.3.3-.7.5-1v47.9h10.7v-62.1C204.45,218.55,199.55,218.55,194.55,218.65Zm64.9,25.3a17.069,17.069,0,0,1,12,3.7v-10.2a19.444,19.444,0,0,0-3-1.3,27.95,27.95,0,0,0-15.7,0,20.293,20.293,0,0,0-11.7,8.4,26.865,26.865,0,0,0-4.2,16.6,22.033,22.033,0,0,0,6.4,14.9,22.694,22.694,0,0,0,13.7,5.9c5,.2,10.2-.5,14.4-3v-9.7a19.327,19.327,0,0,1-9.5,3.8,12.8,12.8,0,0,1-9.9-3,14.06,14.06,0,0,1-4.4-8.9c-.5-4.2.2-8.9,2.8-12.4A13.894,13.894,0,0,1,259.45,243.95Zm118.9,12.6c-3.2-1.8-6.7-2.7-9.7-4.7a4.761,4.761,0,0,1-1.5-5.5c.8-1.8,3-2.7,5-2.8a17.423,17.423,0,0,1,11,3.3v-9.9a28.3,28.3,0,0,0-14.7-1.5,14.981,14.981,0,0,0-10.5,6.5c-2,3-2.3,7-1.5,10.7a10.56,10.56,0,0,0,4,6c2.7,2.2,6,3.3,9.2,4.7a13.928,13.928,0,0,1,4.7,3c1.3,1.8.8,5-1.3,6-2.2,1.2-4.9,1-7.4.7a24.706,24.706,0,0,1-9.5-4.2v10.4a32.187,32.187,0,0,0,10.7,2.5c5.2.2,10.9-.8,14.7-4.5,4-3.7,5-10,2.7-15.1A12.366,12.366,0,0,0,378.35,256.55Zm-83.1-19.6a13.2,13.2,0,0,0-5.5,7v-7.7h-10.4v44.5h10.4v-21.3a18.631,18.631,0,0,1,1.5-9,9,9,0,0,1,6.7-5.4,10.908,10.908,0,0,1,7.2,1.7v-10.7A11.552,11.552,0,0,0,295.25,236.95Zm-75.9-.7v44.5h10.5v-44.5C226.35,236.05,222.85,236.25,219.35,236.25Zm120.5.8c-4.7-2.2-10-2.5-15.2-1.8a20.965,20.965,0,0,0-13.9,7.5,25.238,25.238,0,0,0-4.9,13.6c-.5,5.7.5,11.9,3.8,16.6a19.512,19.512,0,0,0,12.2,8,32.334,32.334,0,0,0,12.4,0,21.485,21.485,0,0,0,12.2-7.5,24.448,24.448,0,0,0,4.7-12.9,29.71,29.71,0,0,0-2.2-14.1A20.2,20.2,0,0,0,339.85,237.05Zm-1,30a9.8,9.8,0,0,1-5.2,5.2,13.635,13.635,0,0,1-8.7.3,10.8,10.8,0,0,1-6.7-5.5c-1.7-3.3-2-7.4-1.7-11.2a15.319,15.319,0,0,1,4-9.4,10.453,10.453,0,0,1,7-2.8,11.7,11.7,0,0,1,8.9,3c2.5,2.3,3.3,5.9,3.7,9.2C340.45,259.85,340.35,263.75,338.85,267.05Zm86-29.6c-4.9-2.5-10.4-2.8-15.7-2.2a22.322,22.322,0,0,0-11.7,5,21.468,21.468,0,0,0-7,13.7c-.7,5.2-.5,10.5,1.7,15.4a20.336,20.336,0,0,0,10.7,10.5,30.1,30.1,0,0,0,14.9,1.3,20.745,20.745,0,0,0,13.1-7.7,24.679,24.679,0,0,0,4.9-15.2,27.935,27.935,0,0,0-1.7-10.7A21.438,21.438,0,0,0,424.85,237.45Zm-.5,25.6a12.946,12.946,0,0,1-2.7,6.5,9.739,9.739,0,0,1-6.2,3.3,14.679,14.679,0,0,1-7.5-.8,10.954,10.954,0,0,1-5.5-5.9,21.2,21.2,0,0,1-1.3-9.7,15.805,15.805,0,0,1,3.2-8.9,10.9,10.9,0,0,1,7.7-3.7,11.769,11.769,0,0,1,8.5,2.5,11.624,11.624,0,0,1,3.8,7A31.551,31.551,0,0,1,424.35,263.05ZM8.95,301.35h49v-49.2h-49Zm53.9,0h49v-49.2h-49Z"/>
	</symbol>
	<symbol id="xbox" viewBox="0 0 500 500">
        <title>Xbox</title>
		<path fill="#ffffff" d="M257,204.6h-11.64l-25.386,35.045L194.589,204.6h-11.64L214.155,247.7l-34.3,47.3h11.64l28.482-39.131L248.457,295H260.1l-34.3-47.3Zm122.719-2.229c-25.138,0-42.6,19.442-42.6,47.3s17.461,47.3,42.6,47.3c24.891,0,42.351-19.442,42.351-47.3S404.859,202.374,379.721,202.374Zm0,84.95c-18.947,0-32.444-15.479-32.444-37.645s13.374-37.645,32.444-37.645,32.2,15.479,32.2,37.645C412.165,271.845,398.791,287.324,379.721,287.324ZM459.1,247.7,490.3,204.6h-11.64l-25.386,35.045L427.892,204.6h-11.64L447.458,247.7l-34.3,47.3H424.8l28.482-39.131L481.76,295H493.4ZM325.11,251.041a20.051,20.051,0,0,0-5.82-3.715,20.732,20.732,0,0,0,10.65-18.2c0-5.82-1.981-24.643-28.977-24.643H264.8v39.008H252.791c-1.486,1.981-5.077,6.935-6.439,9.04H264.8v42.351h36.159c19.69,0,31.7-10.154,31.7-26.5A22.178,22.178,0,0,0,325.11,251.041Zm-50.276-37.15h26.129c7.182,0,18.947,1.858,18.947,14.365,0,9.535-6.935,15.108-18.947,15.108H274.834Zm26.253,71.576H274.957v-32.94h26.129c10.03,0,21.919,2.724,21.919,15.727C322.757,283.238,309.259,285.467,301.086,285.467ZM58.744,215.253l.124-.124c0-.124,0-.124-.124-.124-25.138-25.386-31.7-19.442-31.7-19.69h0a76.259,76.259,0,0,0-6.935,99.191.611.611,0,0,0,.371.124c.124,0,.124-.124.124-.371C15.03,276.3,43.884,233.209,58.744,215.253Zm72.443-20.185c.124,0-6.563-5.82-31.7,19.69l-.124.124a.121.121,0,0,0,.124.124c14.984,17.956,43.713,61.05,38.141,78.882,0,.124,0,.371.124.371s.371,0,.371-.124a76.092,76.092,0,0,0-6.935-99.067ZM40.664,185.038c12.755-3.22,32.94,7.43,38.265,10.65h.248c1.981-1.238,23.9-13.869,38.141-10.65.124,0,.371,0,.371-.124s0-.371-.124-.371c-11.393-6.811-23.528-11.021-38.636-11.021-14.984,0-27.243,4.21-38.636,11.021-.124,0-.124.124-.124.371C40.293,185.038,40.416,185.038,40.664,185.038ZM79.3,233.952l-.124-.124a.121.121,0,0,0-.124.124C56.886,251.041,18.993,293.516,30.51,305.28h0a73.278,73.278,0,0,0,48.79,18.7,72.3,72.3,0,0,0,48.79-18.7C139.483,293.268,101.466,251.041,79.3,233.952Z"/>
	</symbol>
	<symbol id="nintendo" viewBox="0 0 500 500">
        <title>Nintendo</title>
		<path fill="#ffffff" d="M96.82,260.028l-24.237-39.4h-17.5v56.38H72.453v-39.4l24.367,39.4h17.368v-56.38H96.82Zm137.9-20.608v-5.573h-9.073V226.33H208.673v7.517h-9.2v5.573h9.2v37.587h16.979V239.42ZM123.778,277.007h16.849V239.42H123.778Zm0-44.975h16.979V220.367H123.778ZM420.2,236.957c-13.609,0-24.755,9.462-24.755,21s11.146,21,24.755,21,24.755-9.462,24.755-21C444.822,246.289,433.805,236.957,420.2,236.957Zm6.74,28.9c0,6.092-3.5,8.425-6.869,8.425s-6.869-2.463-6.869-8.425V250.048c0-5.832,3.5-8.425,6.869-8.425s6.869,2.463,6.869,8.425V265.86Zm-53.659-24.626a22.716,22.716,0,0,0-9.591-3.37c-12.183-1.037-21.515,9.721-21.515,19.7a20.168,20.168,0,0,0,11.665,18.664,20.445,20.445,0,0,0,19.571-1.3v2.2h16.72v-56.38h-16.72C373.277,220.627,373.277,232.68,373.277,241.235Zm.13,16.72v6.74c0,5.7-4.018,7.258-6.61,7.258-2.722,0-6.61-1.555-6.61-7.258V251.215c0-5.7,3.888-7.258,6.61-7.258s6.61,1.555,6.61,7.258ZM180.288,237.735a19.589,19.589,0,0,0-13.479,5.7V239.55H149.96v37.587h16.849V252.511c0-3.24,3.37-6.869,8.036-6.869,4.536,0,7.777,3.759,7.777,6.869v24.626h16.849V256.788C199.471,241.623,186.769,237.606,180.288,237.735Zm137.386,0a19.589,19.589,0,0,0-13.479,5.7V239.55H287.346v37.587H304.2V252.511c0-3.24,3.37-6.869,8.036-6.869,4.536,0,7.777,3.759,7.777,6.869v24.626h16.849V256.788C336.857,241.623,324.026,237.606,317.675,237.735Zm-35.383,20.738c0-11.665-11.276-21.256-24.885-21.256-13.739,0-24.885,9.462-24.885,21s11.146,21,24.885,21c11.406,0,21-6.61,23.848-15.294H264.405v2.333c0,6.869-4.536,8.425-7.129,8.425s-7.129-1.555-7.129-8.425v-7.777Zm-30.718-13.35a6.713,6.713,0,0,1,5.832-3.37,7,7,0,0,1,5.832,3.37c1.037,1.815,1.167,4.018,1.167,7.388H250.278C250.537,249.141,250.537,247.067,251.574,245.123Zm195.711-24.237a8.817,8.817,0,1,0,8.554,8.813A8.688,8.688,0,0,0,447.285,220.886Zm0,15.812a7.129,7.129,0,1,1,7.129-7.129A7.277,7.277,0,0,1,447.285,236.7Zm4.277-9.2c0-1.815-1.3-2.722-4.018-2.722h-3.759v9.591h2.333v-3.888h1.167l1.815,3.888h2.463l-2.2-4.407A2.4,2.4,0,0,0,451.562,227.5Zm-4.407,1.555h-1.167V226.2h1.037c1.3,0,2.074.518,2.074,1.555C449.1,228.662,448.451,229.051,447.155,229.051ZM428.491,189H70.25C32.4,188.872,7,216.22,7,249.141s25.4,59.75,63.509,59.88H428.491c38.105,0,63.509-27.088,63.509-59.88C491.741,216.22,466.337,188.743,428.491,189Zm-.259,105.114H70.379c-30.069.13-48.6-20.219-48.6-45.234,0-24.885,18.534-45.1,48.6-45.234H428.1c30.069,0,48.6,20.219,48.6,45.234S458.431,294.115,428.232,294.115Z"/>
	</symbol>
	<symbol id="mls" viewBox="0 0 500 500">
        <title>MLS</title>
		<path fill="#ffffff" d="M113.021,332.234l-3.783-8.511,2.6-2.364,8.984,8.748-1.655,1.419-7.093-6.856h0l4.256,9.457-1.182,1.182-9.457-4.256h0l7.093,6.856-1.655,1.419-8.984-8.748,2.6-2.6Zm-11.585,1.891L98.6,336.962l7.329,7.329-1.655,1.655-7.329-7.329-2.837,2.837-1.418-1.182,7.329-7.093Z"/>
		<polygon fill="#ffffff" points="176.37 182.754 182.044 199.776 167.15 189.137 152.728 199.776 158.402 182.754 143.744 172.115 161.712 172.115 167.15 155.092 173.06 172.115 191.028 172.115 176.37 182.754"/>
		<polygon fill="#ffffff" points="91.968 182.754 106.626 172.115 88.658 172.115 82.984 155.092 77.546 172.115 59.105 172.115 73.763 182.754 68.326 199.776 82.984 189.137 97.642 199.776 91.968 182.754"/>
		<polygon fill="#ffffff" points="130.741 227.674 125.067 210.651 119.629 227.674 101.425 227.674 116.319 238.076 110.409 255.335 125.067 244.696 139.725 255.335 134.287 238.076 148.945 227.674 130.741 227.674"/>
		<path fill="#ffffff" d="M95.29,124.183,78.74,86.828h-.473v49.885c0,.946-.473,1.182-1.182,1.182H62.191c-.946,0-1.182-.473-1.182-1.182V50.419a1.1,1.1,0,0,1,1.182-1.182h15.84a2.483,2.483,0,0,1,2.128,1.182l22.7,50.594h.709l22.224-50.594c.473-.946.946-1.182,2.128-1.182h15.6c.946,0,1.182.473,1.182,1.182v86.057c0,.946-.473,1.182-1.182,1.182H128.625c-.946,0-1.182-.473-1.182-1.182V86.592h-.473l-16.549,37.355a2.384,2.384,0,0,1-2.6,1.655H98.6c-1.891.236-2.837-.236-3.31-1.418"/>
		<path fill="#ffffff" d="M157.469,137.9H216.1c.946,0,1.182-.473,1.182-1.182V122.291c0-.946-.473-1.182-1.182-1.182H176.619a.866.866,0,0,1-.946-.946V50.419c0-.946-.473-1.182-1.182-1.182H157.7c-.946,0-1.182.473-1.182,1.182v86.057c-.236.946.237,1.419.946,1.419"/>
		<path fill="#ffffff" d="M265.986,84.464l-4.728-.709c-10.166-1.419-13.949-4.728-13.949-9.693,0-5.438,4.019-9.457,11.821-9.457,7.329,0,13.949,2.364,20.805,6.856.709.473,1.182.236,1.891-.473l8.038-11.821c.709-.946.473-1.419-.236-1.891-7.329-5.674-18.441-9.457-30.5-9.457-19.387,0-31.681,10.875-31.681,27.188,0,15.84,10.166,24.115,28.371,26.479l4.728.709c10.639,1.419,13.712,4.728,13.712,9.93,0,6.147-5.2,10.639-14.658,10.639s-17.5-4.492-23.406-9.22a1.232,1.232,0,0,0-1.891.236l-9.93,11.348c-.709.946-.473,1.655.236,2.128,7.093,6.62,20.569,12.057,34.517,12.057,23.169,0,35.227-11.821,35.227-27.9-.236-16.077-9.929-24.351-28.37-26.952"/>
		<path fill="#ffffff" d="M442.356,285.895a290.228,290.228,0,0,1-44.211,82.038A296.976,296.976,0,0,1,331,431.767a287.532,287.532,0,0,1-81.8,39.482,300.676,300.676,0,0,1-81.8-39.482,296.586,296.586,0,0,1-53.9-47.757L458.669,43.09V190.854a291.886,291.886,0,0,1-16.313,95.041M100.018,368.17A289.248,289.248,0,0,1,39.967,191.09V28.669H444.011L100.018,368.17h0M479,18.266V8.1H19.4V191.09A309.931,309.931,0,0,0,83.705,380.463c.709.946,1.182,1.655,1.891,2.6L25.309,442.642l14.422,14.422,58.869-58.4A319.523,319.523,0,0,0,245.89,492.054l3.073.946,3.073-.946a312.084,312.084,0,0,0,90.786-43.5A315.626,315.626,0,0,0,461.979,292.515,308.96,308.96,0,0,0,479,190.854c0-.946,0-172.588,0-172.588"/>
	</symbol>
	<symbol id="ipad" viewBox="0 0 2003 1381">
        <title>iPad</title>
	    <path d="M1899.7,1384H100.3C45.1,1384,0,1338.9,0,1283.7V106.3C0,51.2,45.1,6,100.3,6H1899.7C1954.9,6,2000,51.1,2000,106.3V1283.7C2000,1338.9,1954.9,1384,1899.7,1384Z" opacity="0.08" stroke="#f2f2f2" stroke-miterlimit="10" stroke-width="3" style="isolation:isolate" transform="translate(1.5 -4.5)"/>
	    <circle cx="93.9" cy="690.5" fill="#f6f6f6" r="51.4"/>
	    <circle cx="1913.5" cy="690.5" fill="#6c6c6c" r="9"/>
	</symbol>
</svg>