<svg xmlns="http://www.w3.org/2000/svg">
	<symbol id="joeleby">
        <title>JoelEby</title>
		<path d="M109.4,120.1A74.646,74.646,0,0,0,132,135.7a71.66,71.66,0,0,0,29.3,5.9,72.64,72.64,0,0,0,29.1-5.7,70.05,70.05,0,0,0,22.8-15.4,68.453,68.453,0,0,0,15.1-22.6c.8-1.8,1.3-3.7,2.3-5.6v46.8h75v-31h-42v-23h41v-31h-41v-21h42V3.1h-75V49.3c-1-1.9-1.5-3.8-2.3-5.6a70.842,70.842,0,0,0-15-22.6A73.237,73.237,0,0,0,190.4,5.7,72.357,72.357,0,0,0,161.5,0,71.76,71.76,0,0,0,136,4.2a70.366,70.366,0,0,0-32.8,24.9A71.142,71.142,0,0,0,95,43.3c-.8,2-1.3,4.1-2.3,6.1V3.1h-35V93.6c0,1.6.1,3.4,0,5.3a20.548,20.548,0,0,1-1,5.6,8.86,8.86,0,0,1-9.2,6.3,8.383,8.383,0,0,1-5.5-1.6,8.521,8.521,0,0,1-3-4,20.9,20.9,0,0,1-1.4-5.2c-.2-1.8-.4-3.2-.6-5.2H0c0,8,1.1,14.2,3.2,19.5a42.1,42.1,0,0,0,8,13.1,37.58,37.58,0,0,0,10.5,8,50.227,50.227,0,0,0,10.8,4.1,49.629,49.629,0,0,0,8.7,1.5c2.5.1,4,.2,4.6.2a54.573,54.573,0,0,0,21-4.4,42.68,42.68,0,0,0,17.5-13.4,33.011,33.011,0,0,0,3.8-5.9,46.024,46.024,0,0,0,2.7-7.5,64.957,64.957,0,0,0,1.6-10.5c.2-2.3.3-4.8.4-7.6a57.15,57.15,0,0,0,2.1,5.8A65.539,65.539,0,0,0,109.4,120.1Zm17.5-63.9A41.177,41.177,0,0,1,134,43.4a34.456,34.456,0,0,1,11.7-9.2,35.847,35.847,0,0,1,16-3.5,33.733,33.733,0,0,1,27.9,13.6,44.218,44.218,0,0,1,6.8,13.1,45.225,45.225,0,0,1,2.3,13.7,44.113,44.113,0,0,1-2.3,13.6,42.015,42.015,0,0,1-6.8,12.9,35.9,35.9,0,0,1-11.4,9.7,33.308,33.308,0,0,1-16.1,3.8,34.521,34.521,0,0,1-15.7-3.4,38.96,38.96,0,0,1-11.8-9,39.414,39.414,0,0,1-7.5-12.9,45.364,45.364,0,0,1-2.6-15.2A44.4,44.4,0,0,1,126.9,56.2Z"/>
		<polygon points="384.6 108.1 344.6 108.1 344.6 3.1 309.6 3.1 309.6 139.1 384.6 139.1 384.6 108.1"/>
		<polygon points="104.6 286.1 180.6 286.1 180.6 255.1 137.6 255.1 137.6 232.1 178.6 232.1 178.6 201.1 137.6 201.1 137.6 180.1 180.6 180.1 180.6 149.1 104.6 149.1 104.6 286.1"/>
		<path d="M284.2,229.3a31.616,31.616,0,0,0-6.6-9.2c-3-3-7.3-5.5-12.8-7.5a30.177,30.177,0,0,0,12.1-12.2,33.309,33.309,0,0,0,3.8-15.3,40.253,40.253,0,0,0-1.8-11.8,26.4,26.4,0,0,0-6.4-10.7,42.967,42.967,0,0,0-7.7-6.7,33.468,33.468,0,0,0-9.2-4.1,70.953,70.953,0,0,0-11.6-2.1c-4.3-.4-9.3-.7-15.1-.7H186.6V286h43.6c5.8,0,10.7-.3,14.9-.6a61.107,61.107,0,0,0,11.3-1.7,34.6,34.6,0,0,0,9.3-3.6,68.062,68.062,0,0,0,9-6.3,31.342,31.342,0,0,0,9.4-13.3,44.982,44.982,0,0,0,3.1-16.4c0-1.5-.2-3.6-.5-6.3A24.326,24.326,0,0,0,284.2,229.3Zm-63.6-49.2h12c1.4,0,2.9,0,4.6.1a15.29,15.29,0,0,1,4.8,1.1,9.079,9.079,0,0,1,3.8,3,10.2,10.2,0,0,1,1.6,6,10.484,10.484,0,0,1-1.7,6.3,9.508,9.508,0,0,1-4,3.2,15.391,15.391,0,0,1-4.8,1.2c-1.7.1-3.1.1-4.3.1h-12Zm31.2,69.5a14.121,14.121,0,0,1-4.9,3.9,16.047,16.047,0,0,1-5.7,1.5c-2,.1-3.5.2-4.6.2h-16v-25h16c1.3,0,3,.1,5,.3a18.218,18.218,0,0,1,5.7,1.3,11.405,11.405,0,0,1,4.7,3.5c1.3,1.6,1.9,3.9,1.9,6.8Q253.9,247.05,251.8,249.6Z"/>
		<polygon points="348 149.1 327.6 203.8 307.3 149.1 269.6 149.1 310.6 236.2 310.6 286.1 344.6 286.1 344.6 236.2 385.4 149.1 348 149.1"/>
	</symbol>
	<symbol id="times" viewBox="0 0 62 62">
		<line stroke-width="1px" stroke="white" x1="11" y1="11" x2="51" y2="51"/>
		<line stroke-width="1px" stroke="white" x1="51" y1="11" x2="11" y2="51"/>
	</symbol>
	<symbol id="downarrow" viewBox="0 0 62 62">
		<polyline stroke-width="1px" stroke="white" fill="none" points="51,23 31,43 11,23"/>
	</symbol>
	<symbol id="downarrowgray" viewBox="0 0 62 62">
		<polyline stroke-width="1px" stroke="#bbbbbb" fill="none" points="51,23 31,43 11,23"/>
	</symbol>
	<symbol id="leftarrow" viewBox="0 0 62 62">
		<polyline stroke-width="1px" stroke="#B6B6B6" fill="none" points="27.5,46.5 12,31 27.5,15.5 "/>
		<line stroke-width="1px" stroke="#B6B6B6" fill="none" x1="12" y1="31" x2="49" y2="31"/>
	</symbol>

	<symbol id="ipad">
        <title>iPad</title>
	    <path d="M1899.7,1384H100.3C45.1,1384,0,1338.9,0,1283.7V106.3C0,51.2,45.1,6,100.3,6H1899.7C1954.9,6,2000,51.1,2000,106.3V1283.7C2000,1338.9,1954.9,1384,1899.7,1384Z" opacity="0.08" stroke="#f2f2f2" stroke-miterlimit="10" stroke-width="3" style="isolation:isolate" transform="translate(1.5 -4.5)"/>
	    <circle cx="93.9" cy="690.5" fill="#f6f6f6" r="51.4"/>
	    <circle cx="1913.5" cy="690.5" fill="#6c6c6c" r="9"/>
	</symbol>
	<symbol id="colliers" viewBox="35 35 230 230">
        <title>Colliers</title>
        <g fill="white">
			<path d="M187.8,128.3c0.4,0,1.1-0.4,1.2-0.7c0.8-2.3-1.6-5.1-4-4.8c-2.3,0.3-4.1,2.7-4.2,5.6c0.5,0,1,0,1.5,0C184.2,128.3,186,128.4,187.8,128.3z"/>
			<path d="M186,156c-2.7,0-4.8,1.5-4.8,4.7c0,3.1,2.1,4.7,4.8,4.7c2.7,0,4.8-1.5,4.8-4.7C190.8,157.5,188.6,156,186,156z"/>
			<path d="M123.5,156.3h-4.9v3.7h4.9c1.7,0,2.1-1,2.1-1.9C125.6,157,124.9,156.3,123.5,156.3z"/>
			<path d="M120.8,125.3c-2.4-3.5-6.3-3.3-8.1,0.5c-0.8,1.7-1.2,3.8-1.4,5.7c-0.3,2.9-0.1,5.8,1.5,8.4c1,1.8,2.5,2.7,4.6,2.7c2-0.1,3.3-1.2,4-2.9c0.8-2.2,1.3-4.6,1.9-7c-0.1,0-0.2-0.1-0.4-0.1C122.8,130.1,122.4,127.5,120.8,125.3z"/>
			<path d="M258,88.4c0-5.7-3.9-9.6-9.7-9.6c-65.1,0-130.3,0-195.4,0c-5.8,0-9.8,3.9-9.8,9.7c0,33.3,0,66.7,0,100c0,0.5,0,1,0,1.6c71.6,0,143.2,0,214.8,0c0-0.6,0-1.1,0-1.6C258,155.2,258,121.8,258,88.4z M199.7,142.4c2,0,2.2-0.2,2.2-2.2c0-3.4,0-6.9,0-10.3c0-2-0.6-3.5-2.5-4.4c-0.4-0.2-0.6-0.6-1-0.9c0.3-0.3,0.6-0.8,1.1-1c1.9-0.9,3.8-1.8,5.8-2.7c1.4-0.7,1.7-0.5,1.9,1.1c0.1,1,0.2,2,0.4,3.2c0.6-0.7,0.9-1.3,1.4-1.8c1.1-1.4,2.4-2.6,4.2-3.1c1.6-0.4,2.9,0,3.6,1c0.7,1,0.6,2.4-0.2,3.4c-0.9,1.2-2.3,1.5-3.7,1c-3.2-1.1-4.8-0.1-4.9,3.3c-0.2,3.8-0.1,7.6,0,11.5c0,1.6,0.4,1.8,2,1.8c0.2,0,0.4,0,0.7,0c1.8,0,1.9,0.1,1.5,2c-4.6,0-9.2,0-13.8,0C197.9,142.5,197.9,142.5,199.7,142.4z M165.6,110.1c1.9,0,3.3,1.5,3.3,3.4c0,1.9-1.4,3.4-3.4,3.4c-1.9,0-3.4-1.4-3.4-3.3C162.1,111.6,163.7,110,165.6,110.1z M69.9,166.5h-1.7v-11.8h1.7V166.5z M86,166.5h-2l-7.6-9.4h0v9.4h-1.7v-11.8h2l7.6,9.4h0v-9.4H86V166.5z M100,156.3h-4.4v10.2h-1.7v-10.2h-4.4v-1.5H100V156.3z M101.1,138.1c-8,9.9-22.7,8.8-29.8,1.6c-3.7-3.8-5.3-8.6-5.5-13.8c-0.4-8.7,4.1-16.5,11.1-19.7c6.5-2.9,12.9-2.4,19.3,0.4c0.5,0.2,1,0.5,1.7,0.8c0.2-0.6,0.3-1.2,0.6-1.6c0.2-0.3,0.7-0.5,1-0.5c0.2,0,0.6,0.4,0.7,0.7c0.5,3.8,0.9,7.6,1.3,11.4c0,0.3,0,0.5,0,0.7c-1.6,0.7-1.6,0.7-2.2-0.8c-1.7-4.3-4.4-7.8-8.8-9.6c-6.1-2.5-12.6-0.2-15.3,5.8c-3.5,7.8-2.7,15.4,2.2,22.3c4,5.7,10.5,7,17.2,4.1c2.3-1,4.4-2.5,6-4.5C102.4,136.6,102.3,136.6,101.1,138.1z M112.8,166.5h-9.6v-11.8h9.5v1.5H105v3.4h7.5v1.5H105v3.8h7.9V166.5z M125.8,166.5c-0.3-0.3-0.3-0.8-0.4-2.2c-0.1-2.1-0.8-2.8-2.3-2.8h-4.6v5h-1.7v-11.8h7.3c2.4,0,3.2,1.6,3.2,3.1c0,1.4-0.7,2.5-2,2.9v0c1,0.1,1.6,1.1,1.7,2.5c0.1,2.2,0.2,2.7,0.6,3.2H125.8z M116.6,145.1c-7-0.1-11.8-5.2-11.8-12.5c0-6.6,5.8-12.1,12.6-12c6.8,0.1,12.2,5.5,12.2,12.2C129.6,139.6,123.7,145.1,116.6,145.1z M142.7,166.5h-2l-7.6-9.4h0v9.4h-1.7v-11.8h2l7.6,9.4h0v-9.4h1.7V166.5z M156.6,166.5l-1.5-3.4h-5.8l-1.5,3.4H146l5.3-11.8h2l5.3,11.8H156.6z M170.2,156.3h-4.4v10.2h-1.7v-10.2h-4.4v-1.5h10.6V156.3z M172.9,143.5c0,0.8-0.3,1.1-1.1,1.1c-2-0.1-4.1,0-6.1-0.1c-4.6,0-9.3,0-13.9,0c0,0,0,0,0,0c-6.6,0-13.3,0-19.9,0c-0.8,0-1.4,0.1-1.4-1.1c0-1.1,0.7-1,1.4-1c0.5,0,1,0.1,1.4,0c0.5-0.2,1-0.7,1.4-1.1c0.2-0.3,0.2-0.8,0.1-1.1c0-8.6-0.1-17.3-0.2-25.9c0-2.9-0.6-3.6-3.3-4.5c-0.4-0.1-0.7-0.6-1-0.9c0.3-0.3,0.6-0.8,1-1c2.6-1.1,5.2-2.1,7.9-3.1c1.4-0.6,1.8-0.4,1.8,1.2c-0.1,10.5-0.1,20.9-0.2,31.4c0,1.3,0.1,2.6,0.2,3.9c0.1,0.9,0.5,1.3,1.4,1.3c1.7,0,3.5,0,5.2,0c1.2,0,1.6-0.7,1.7-1.7c0.1-0.6,0-1.2,0-1.8c-0.1-8.4-0.1-16.9-0.2-25.3c0-2.3-0.7-3.1-2.9-3.9c-0.6-0.2-1.5-0.2-1.3-1.1c0.1-0.5,0.8-0.9,1.3-1.1c2.4-1,4.8-1.9,7.2-2.9c1.7-0.7,1.9-0.5,1.9,1.3c-0.1,9.7-0.2,19.4-0.2,29.1c0,1.9,0.1,3.8,0.2,5.7c0,1.1,0.5,1.7,1.7,1.7c1.6,0,3.2,0,4.8,0c1.2,0.1,1.5-0.6,1.5-1.6c0-2.7,0.1-5.4,0.1-8.1c0-1.4,0-2.8,0-4.2c0-1.9-0.6-2.6-2.3-3.3c-0.4-0.2-0.8-0.6-1.1-1c0.4-0.3,0.7-0.8,1.1-1c2.3-0.9,4.5-1.7,6.8-2.5c1.3-0.5,1.4-0.3,1.4,1.1c0,6.1-0.1,12.2,0,18.4c0,2.1,0.2,2.1,2.3,2.2C172.2,142.4,173,142.3,172.9,143.5z M175.4,166.5h-1.7v-11.8h1.7V166.5z M186,166.8c-4.7,0-6.5-3.2-6.5-6.2s1.8-6.2,6.5-6.2c4.7,0,6.5,3.2,6.5,6.2S190.7,166.8,186,166.8z M195.5,139.7c-3.1,5-10.3,7-15.5,4.2c-2.9-1.6-4.5-4.2-5.1-7.4c-1-5.1-0.3-9.7,3.8-13.3c3.1-2.8,6.8-3.2,10.6-2.2c3.5,0.9,5.1,3.8,5.9,7.2c0.5,1.9,0.1,2.2-1.8,2.2c-3.9,0-7.7,0-11.6,0c-0.4,0-0.8,0-1.2,0c-0.6,4.3,1.2,8.3,4.5,10c3,1.5,6.3,0.5,9.5-2.9C196.3,138.1,196.4,138.3,195.5,139.7z M207.8,166.5h-2l-7.6-9.4h0v9.4h-1.7v-11.8h2l7.6,9.4h0v-9.4h1.7V166.5z M221.7,166.5l-1.5-3.4h-5.8l-1.5,3.4H211l5.3-11.8h2l5.3,11.8H221.7z M220.9,144c-0.5-0.2-1.1-1-1.2-1.6c-0.4-1.4-0.6-2.9-0.7-4.4c0-0.4,0.2-1,0.5-1.2c0.6-0.4,1.1-0.2,1.5,0.5c0.6,1.1,1.3,2.3,2,3.3c1.3,1.9,3.4,2.7,5.6,2c1.3-0.4,2.3-1.3,2.5-2.7c0.2-1.4-0.3-2.6-1.6-3.3c-1.2-0.6-2.5-1-3.7-1.5c-1.1-0.4-2.2-0.8-3.2-1.3c-4.9-2.4-4.1-9.3-0.3-11.6c3.5-2.1,7-2,10.6-0.5c0.9,0.4,1.4,1,1.5,2.1c0.1,0.9,0.4,1.7,0.4,2.6c0,0.4-0.2,1-0.6,1.2c-0.3,0.2-1,0-1.2-0.3c-1-1-1.9-2.1-2.8-3c-1.4-1.4-3.4-1.7-5-0.8c-1.1,0.6-1.7,1.4-1.7,2.7c0,1.2,0.6,2.1,1.7,2.6c1,0.4,1.9,0.7,2.9,1.1c1,0.3,2.1,0.6,3.1,1c2.5,1.1,4.3,2.9,4.5,5.8c0.1,2.9-0.9,5.3-3.3,6.9c-1.8,1.2-3.9,1.7-6.1,1.9C224.3,144.9,222.5,144.5,220.9,144z M235.8,166.5h-8.9v-11.8h1.7V165h7.1V166.5z"/>
			<path d="M43.2,200.5c71.6,0,143.2,0,214.7,0c0-2.8,0-5.5,0-8.2c-71.6,0-143.2,0-214.7,0C43.2,195,43.2,197.7,43.2,200.5z"/>
			<path d="M257.9,202.7c-71.6,0-143.1,0-214.7,0c0,2.7,0,5.3,0,8.1c71.7,0,143.2,0,214.7,0C257.9,208,257.9,205.3,257.9,202.7z"/>
			<path d="M43.3,213.3c0.6,4.5,4.6,7.8,9.5,7.8c65.2,0,130.4,0,195.5,0c0.3,0,0.5,0,0.8,0c4.6-0.1,8.6-3.8,8.8-8.2c-71.5,0-143.1,0-214.6,0C43.3,213.1,43.3,213.2,43.3,213.3z"/>
			<polygon points="150,161.6 154.5,161.6 152.2,156.4"/>
			<polygon points="215.1,161.6 219.5,161.6 217.3,156.4"/>
        </g>
	</symbol>
	<symbol id="ea" viewBox="35 35 230 230">
        <title>EA</title>
        <g fill="white">
			<path d="M147.9,64.4C101,64.5,62.7,103,62.7,150c0.1,47.5,38.4,85.6,86,85.6c46.8,0,85.2-38.6,85.1-85.6C233.7,102.6,195.3,64.4,147.9,64.4z M148.3,224.5c-41.2,0-74.5-33.4-74.5-74.7c0-40.9,33.6-74.3,74.6-74.3c40.9,0,74.3,33.5,74.3,74.4C222.7,191.1,189.4,224.5,148.3,224.5z"/>
			<path d="M169.5,121.3c-0.3,0.4-0.5,0.7-0.7,1.1c-8.1,12.9-16.3,25.9-24.4,38.8c-0.5,0.7-0.9,1-1.8,1c-8.7,0-17.3,0-26,0c-0.4,0-0.8,0-1.3-0.1c0.3-0.4,0.4-0.7,0.6-1c1.7-2.7,3.5-5.4,5.2-8.2c0.5-0.8,1-1,1.9-1c4.9,0,9.7,0,14.6,0c0.9,0,1.4-0.3,1.9-1.1c1.7-2.8,3.5-5.5,5.2-8.3c0.2-0.2,0.3-0.5,0.4-0.8c-0.2-0.1-0.3-0.1-0.3-0.1c-12.8,0-25.5,0-38.3,0c-0.4,0-0.9,0.4-1.2,0.8c-1.9,2.9-3.7,5.8-5.5,8.7c-0.1,0.2-0.2,0.4-0.4,0.8c3.1,0,6.1,0,9.3,0c-4.4,6.9-8.6,13.6-12.9,20.4c0.4,0,0.6,0,0.7,0c17.5,0,35.1,0,52.6,0c0.8,0,1.1-0.3,1.5-0.9c6.2-9.8,12.4-19.6,18.6-29.3c0.3-0.4,0.5-0.8,0.9-1.3c2.5,3.7,4.8,7.3,7.3,11.1c-2,0-3.7,0-5.4,0c-0.9,0-1.4,0.2-1.8,1c-1.2,2.1-2.5,4.1-3.7,6.2c-0.6,1-1.2,2-1.9,3.1c0.6,0,1.1,0,1.5,0c5.5,0,11.1,0,16.6,0c0.9,0,1.5,0.2,2,1.1c1.8,2.8,3.7,5.5,5.4,8.3c0.4,0.7,0.9,0.9,1.7,0.9c3.2,0,6.5,0,9.7,0c0.5,0,0.9,0,1.6,0C191.9,155.4,180.7,138.4,169.5,121.3z"/>
			<path d="M149.9,131.5c1.5,0,3.3,0.4,4.5-0.2c1.2-0.7,1.7-2.4,2.5-3.7c1.3-2,2.6-4.1,3.9-6.3c-0.4,0-0.5-0.1-0.7-0.1c-13.5,0-27,0-40.5,0c-0.4,0-1,0.4-1.3,0.8c-1.8,2.8-3.6,5.7-5.4,8.6c-0.1,0.2-0.2,0.5-0.4,0.8c0.5,0,0.9,0,1.3,0C125.8,131.5,137.8,131.5,149.9,131.5z"/>
			<path d="M180.3,122.7c0-0.1,0-0.2,0-0.4c0-0.2,0-0.3,0-0.4v-0.1l1.1,3.1h0.5l1.1-3.1c0,0.2,0,0.4,0,0.6c0,0.2,0,0.3,0,0.4v2.2h0.5v-3.7h-0.7l-1.1,3.1l-1.1-3.1h-0.7v3.7h0.5V122.7z"/>
			<polygon points="177.6,124.9 178.1,124.9 178.1,121.6 179.3,121.6 179.3,121.2 176.3,121.2 176.3,121.6 177.6,121.6"/>
        </g>
	</symbol>

	<symbol id="espn" viewBox="35 35 230 230">
        <title>ESPN</title>
        <g fill="white">
			<path d="M92.6,155.4c0.4-4,0.9-7.9,1.3-11.6c-0.4-0.3-0.4-0.3-0.5-0.3c-14.6,0-29.2-0.1-43.7,0c-0.6,0-1.6,1-1.7,1.6c-0.8,5.4-1.3,10.8-2,16.2c-0.6,4.4-1.2,8.9-1.9,13.3l1.1,0.5c5.4,0,10.8,0,16.2,0c8.9,0,17.8,0,26.7,0c0.8,0,2.1-0.5,2.2-1c0.7-4.1,1.1-8.2,1.7-12.7c-9.7,0-19.2,0-28.8,0c0.3-2.1,0.6-4,0.9-5.9C73.6,155.4,83,155.4,92.6,155.4z"/>
			<path d="M46.1,175.5l-1-0.4c-0.4,0-0.7,0-1.1,0C44.7,175.2,45.4,175.5,46.1,175.5z"/>
			<path d="M202.9,131.5c-0.3-3.9-2.8-6.9-6.4-7.9c-1-0.3-2-0.4-3-0.7h-84.7c-1.6,0.6-3.3,1-4.8,1.9c-4.9,2.8-6,7.5-6.4,12.7c35.1,0,70.1,0,105.3,0C203,135.4,203.1,133.5,202.9,131.5z"/>
			<path d="M93.2,137.7c0.6,0,1.6-1,1.7-1.6c0.7-4.4,1.1-8.7,1.6-13.1H50.6c-0.5,4.8-1,9.6-1.5,14.5c0.5,0.1,0.8,0.2,1.1,0.2C64.6,137.7,78.9,137.7,93.2,137.7z"/>
			<path d="M152,143.9c-1.3,10.4-2.6,20.7-3.9,31.2c5.5,0,10.7,0.1,15.9-0.1c0.5,0,1.4-1.1,1.5-1.7c0.8-5.8,1.4-11.6,2.1-17.7c1.2,0,2.2,0,3.2,0c7.8-0.1,15.6-0.2,23.4-0.4c2.4-0.1,4.4-1.2,5.4-3.3c1.1-2.4,1.7-5.1,2.6-7.9C185,143.9,168.5,143.9,152,143.9z"/>
			<path d="M235.6,174.9c5.8,0,11.2,0,16.8,0c1.3-10.3,2.6-20.6,3.9-31c-5.8,0-11.2,0-16.9,0C238.1,154.2,236.9,164.5,235.6,174.9z"/>
			<path d="M205.9,143.8c-0.5,0-1.2,1.2-1.3,1.9c-0.8,6.2-1.6,12.3-2.3,18.5c-0.4,3.5-0.8,7-1.2,10.8c5.1,0,10-0.1,14.9,0c1.7,0,2.1-0.6,2.3-2.2c0.5-4.6,1.1-9.2,1.7-13.8c0.6-5,1.2-10.1,1.8-15.4C216.2,143.7,211.1,143.7,205.9,143.8z"/>
			<path d="M140.5,143.8c-14.1-0.1-28.2,0-42.3,0c-0.4,0-0.8,0.1-1.1,0.1c-1.6,6.4,2.6,11.6,9.4,11.6c7.1,0,14.2,0,21.3,0c0.8,0,1.7,0.1,2.6,0.1c-0.3,2.1-0.5,3.9-0.8,5.9c-2.6,0-4.9,0-7.1,0c-8.4,0-16.7,0-25.1,0c-1.2,0-2.1,0-2.3,1.6c-0.5,4-1.2,7.9-1.8,12.1c4.4,0,8.6,0,12.9,0c9.6,0,19.2,0.1,28.8-0.1c5.9-0.1,10-4,11.1-9.8c0.6-3,1-6.1,1.4-9.1c0.2-1.6,0.2-3.1,0.2-4.7C147.8,146.4,145.4,143.8,140.5,143.8z"/>
			<path d="M258,131c-1.1-4.8-4.3-7.3-9-8h-41.7c-0.6,5-1.1,9.9-1.7,14.9c17.2,0,34.4,0,51.6,0c0.3-1.1,0.5-2.1,0.8-3.1c0,0,0.2-1.1,0.2-1.9S258,131,258,131z"/>
        </g>
	</symbol>

	<symbol id="games" viewBox="35 35 230 230">
        <title>Games</title>
        <g fill="white">
			<path d="M72.8,145.2c-0.7-1.3-1.7-2.6-2.9-3.7c-2.3-2-5.3-3.4-9.1-3.4c-6.8,0-14.8,5.1-14.8,15.8c0,11.4,8.1,16.3,14.9,16.3c3.5,0,6.3-0.9,8.5-2.4c2.2-1.5,3.7-3.7,4.5-6.3H57.7v-11.1h32.2c0.3,3.9-0.1,10.3-2.5,15.6c-5.3,12-17.5,16.5-26.4,16.5c-16.5,0-28.9-12.9-28.9-28.5c0-16.2,13.1-28,29.1-28c13,0,24.2,8.7,27.2,19.2H72.8z"/>
			<path d="M97.7,181.3H82.7l21.5-54.4h12l20.9,54.4h-15.2l-2.6-7.9h-19L97.7,181.3z M109.5,143.5l-5.9,19h12L109.5,143.5z"/>
			<path d="M135.3,181.3V127h18.6l10.2,35l9.9-35h18.7v54.4h-12.8l0.4-40.7l-11.8,40.7h-9.2l-11.8-40.7l0.4,40.7H135.3z"/>
			<path d="M195.1,127h30.8v12.2H209v8.4h16.4v12.2H209v9.3h16.9v12.2h-30.8V127z"/>
			<path d="M240.2,163.3c0,6.3,3.9,7.4,5.7,7.4c3.3,0,5.3-2.7,5.3-5.2c0-2.9-2.3-3.7-10.7-7.3c-3.8-1.5-13.3-5.4-13.3-15.6c0-10.9,9.9-16.7,19-16.7c7.5,0,18.1,3.8,18.3,16.9h-13.7c-0.3-1.8-0.7-5.3-5-5.3c-2.4,0-4.8,1.7-4.8,4.3c0,2.5,1.5,3.2,11.2,7.6c10.1,4.6,12.7,9.3,12.7,15.6c0,8.7-4.6,17.4-19,17.4c-14.3,0-20-8.4-19.6-19H240.2z"/>
        </g>
	</symbol>

	<symbol id="hulu" viewBox="35 35 230 230">
        <title>Hulu</title>
		<path fill="white" d="M57.8,137.1c0-0.6-0.1-1.1-0.1-1.7c0-6.7,0-13.3,0-20c0-1.1-0.3-1.5-1.5-1.5c-4.6,0.1-9.3,0.1-13.9,0c-1.1,0-1.5,0.3-1.5,1.4c0,22.7,0,45.4,0,68.2c0,1.2,0.4,1.5,1.6,1.5c4.5-0.1,9.1-0.1,13.6,0c1.3,0,1.7-0.4,1.7-1.7c-0.1-8.8,0-17.6,0-26.5c0-3.4,2-5.4,5.4-5.4c2.8,0,5.6,0,8.4,0c4,0,5.9,1.9,5.9,5.8c0,8.7,0,17.5,0,26.2c0,1.1,0.3,1.5,1.4,1.5c4.7-0.1,9.4-0.1,14,0c1.1,0,1.4-0.4,1.4-1.4c0-10,0-20,0-30c0-3.3-0.6-6.6-2.4-9.5c-3.4-5.4-8.6-7.5-14.6-7.7C70.7,136.3,64.3,135.8,57.8,137.1z M256.7,152.3c0-4.9,0-9.7,0-14.6c0-0.8-0.1-1.4-1.1-1.4c-4.9,0-9.7,0-14.6,0c-0.8,0-1.1,0.3-1.1,1.1c0,1.5,0,3.1,0,4.6c0,7.4,0,14.8,0,22.3c0,3.4-2,5.3-5.3,5.3c-3.2,0-6.4,0-9.6,0c-0.8,0-1.7-0.2-2.4-0.6c-1.7-1-2.4-2.6-2.4-4.5c0-8.9,0-17.7,0-26.6c0-1.1-0.3-1.5-1.4-1.5c-4.7,0.1-9.4,0-14,0c-0.8,0-1.4,0.1-1.3,1.1c0.1,10.6,0.1,21.2,0.3,31.8c0.1,4.5,2.1,8.3,5.5,11.3c3.9,3.3,8.6,4.3,13.6,4.4c6.1,0.1,12.1,0,18.2-0.2c6.1-0.2,10.7-3.2,13.4-8.7c1.6-3.2,2.1-6.8,2.2-10.3C256.7,161.3,256.7,156.8,256.7,152.3z M159.7,153.3C159.8,153.3,159.8,153.3,159.7,153.3c0-5.2,0-10.4,0-15.5c0-1.1-0.3-1.4-1.4-1.4c-4.5,0-9.1,0-13.6,0c-1.8,0-1.8,0-1.8,1.7c0,8.9,0,17.8,0,26.7c0,2.8-1.9,4.8-4.7,4.8c-3.2,0-6.4,0-9.6,0c-3.2,0-5.1-1.8-5.1-5.1c0-8.9,0-17.8,0-26.7c0-1-0.2-1.5-1.3-1.5c-4.7,0.1-9.4,0-14.2,0c-1,0-1.3,0.3-1.3,1.3c0,10.2-0.2,20.4,0.1,30.6c0.2,7,3.6,12.3,10.3,15.1c2.8,1.2,5.8,1.6,8.8,1.6c5.2,0.1,10.4,0.1,15.5,0c2.8-0.1,5.7-0.3,8.3-1.4c6.6-2.9,9.4-8.4,9.8-15.2C160,163.4,159.7,158.3,159.7,153.3z M173.2,149.4c0,11.4,0,22.8,0,34.1c0,1.2,0.3,1.6,1.5,1.6c4.6-0.1,9.3-0.1,13.9,0c1.1,0,1.5-0.4,1.5-1.5c0-22.7,0-45.4,0-68.1c0-1.2-0.4-1.5-1.6-1.5c-4.5,0.1-9.1,0.1-13.6,0c-1.3,0-1.7,0.4-1.7,1.7C173.2,126.9,173.2,138.1,173.2,149.4z"/>
	</symbol>

	<symbol id="ironman" viewBox="35 35 230 230">
        <title>Ironman</title>
        <g fill="white">
			<path d="M44.1,144.4c0.2,0,0.3,0,0.5,0c3.9,0,7.7,0,11.6,0c0.2,0,0.3,0,0.5,0c0,10.9,0,21.7,0,32.6c-0.2,0-0.3,0-0.5,0c-3.9,0-7.8,0-11.6,0c-0.2,0-0.3,0-0.5,0C44.1,166.2,44.1,155.3,44.1,144.4z"/>
			<path d="M171,123.8c0.7,0.1,1.3,0.2,2,0.4c3.6,1.2,5.9,3.6,6.6,7.4c0.9,4.9-2.5,9.7-7.4,10.6c-4.4,0.8-8.5-1-10.5-4.8c-1.8-3.3-1.3-7.6,1.3-10.4c1.6-1.8,3.7-2.8,6.1-3.1c0.1,0,0.2-0.1,0.3-0.1C169.8,123.8,170.4,123.8,171,123.8z"/>
			<path d="M258,174.7c-0.2,0.6-0.4,1.2-0.9,1.6c-0.8,0.8-2.2,0.9-3.2,0.3c-1-0.6-1.5-1.9-1.1-3.1c0.4-1.2,1.5-1.9,2.7-1.8c1.2,0.1,2.2,0.9,2.4,2.1c0,0.1,0.1,0.2,0.1,0.2C258,174.3,258,174.5,258,174.7z M256.7,175.9c0.9-0.8,0.9-2.1,0-3c-0.9-0.8-2.2-0.8-3,0.2c-0.8,0.9-0.6,2.2,0.3,3c0.9,0.7,2.2,0.5,2.5-0.1c-0.5,0.1-0.6-0.2-0.8-0.5c-0.1-0.2-0.2-0.4-0.3-0.6c-0.2-0.2-0.4-0.3-0.7-0.2c0,0.4,0,0.8,0,1.3c-0.2,0-0.3,0-0.5,0c0-1,0-2.1,0-3.1c0.5,0,1.1,0,1.6,0c0.4,0,0.6,0.3,0.6,0.6c0.1,0.5-0.1,0.9-0.6,1.1C256.2,175,256.4,175.4,256.7,175.9z M255.3,173.3c-0.5,0-0.5,0-0.5,0.4c0,0.3,0.1,0.5,0.4,0.5c0.6,0,0.8-0.1,0.8-0.5C255.9,173.2,255.6,173.3,255.3,173.3z"/>
			<path d="M150.8,177c0-10.8,0-21.7,0-32.5c12.8,0,25.6,0,38.5,0c0,10.8,0,21.7,0,32.5c-3.7,0-7.5,0-11.4,0c0-3.9,0-7.9,0-11.8c0,0-0.1,0-0.1,0c0,0.1-0.1,0.2-0.1,0.3c-1.3,3.7-2.6,7.4-3.8,11.2c-0.1,0.3-0.2,0.4-0.6,0.4c-2.1,0-4.1,0-6.2,0c-0.3,0-0.5-0.1-0.6-0.4c-1.3-3.7-2.7-7.4-4-11.1c0-0.1-0.1-0.2-0.2-0.4c0,3.9,0,7.8,0,11.8C158.4,177,154.6,177,150.8,177z"/>
			<path d="M148.9,144.5c0,10.9,0,21.7,0,32.5c-0.2,0-0.3,0-0.4,0c-3.7,0-7.5,0-11.2,0c-0.3,0-0.5-0.1-0.6-0.4c-1.3-3.7-2.7-7.4-4-11.1c-0.1-0.3-0.2-0.5-0.6-0.3c0,3.9,0,7.8,0,11.8c-4,0-7.9,0-11.9,0c0-10.8,0-21.7,0-32.5c0.2,0,0.3,0,0.5,0c3.9,0,7.9,0,11.8,0c0.3,0,0.5,0.1,0.6,0.4c1,2.6,2.1,5.3,3.1,7.9c0.1,0.3,0.2,0.5,0.6,0.4c0-2.9,0-5.8,0-8.7C140.8,144.5,144.8,144.5,148.9,144.5z"/>
			<path d="M239.6,154c0-3.2,0-6.3,0-9.5c4,0,8,0,12.1,0c0,10.8,0,21.7,0,32.5c-0.2,0-0.3,0-0.4,0c-3.6,0-7.2,0-10.8,0c-0.3,0-0.5-0.1-0.6-0.4c-1.5-3.9-2.9-7.8-4.4-11.7c0-0.1-0.1-0.2-0.1-0.3c-0.1-0.1-0.2-0.1-0.3-0.1c-0.1,0-0.1,0.1-0.2,0.2c0,0.1,0,0.2,0,0.3c0,3.8,0,7.5,0,11.3c0,0.2,0,0.4,0,0.6c-3.9,0-7.9,0-11.8,0c0-10.8,0-21.7,0-32.5c0.2,0,0.3,0,0.5,0c3.9,0,7.7,0,11.6,0c0.3,0,0.5,0.1,0.6,0.4c1.2,2.9,2.4,5.8,3.6,8.7c0.1,0.2,0.1,0.3,0.2,0.4C239.5,154,239.6,154,239.6,154z"/>
			<path d="M84.7,160c-0.3-0.2-0.6-0.4-1-0.6c0.1-0.1,0.1-0.1,0.1-0.1c0.1-0.1,0.3-0.2,0.4-0.2c1.5-0.7,2.5-2,3-3.6c0.4-1.4,0.5-2.8,0.4-4.2c-0.1-2-0.6-3.8-2-5.4c-0.4-0.5-0.9-0.9-1.5-1c-0.7-0.1-1.4-0.3-2.1-0.3c-7.6,0-15.2,0-22.7,0c-0.1,0-0.3,0-0.5,0c0,10.9,0,21.7,0,32.5c4.3,0,8.5,0,12.8,0c0-4.5,0-9,0-13.5c0.4,0,0.7,0,1,0c1,0,1.6,0.5,1.8,1.4c0.1,0.5,0.2,1,0.2,1.4c0,3.4,0,6.7,0,10.1c0,0.2,0,0.4,0,0.5c4.3,0,8.5,0,12.7,0c0-0.2,0-0.4,0-0.5c0-3.5,0.1-7,0.1-10.5c0-0.8,0-1.6-0.2-2.4C87.1,161.9,86,160.8,84.7,160z M74.6,154.5c-0.3,1.3-0.5,1.5-1.9,1.6c-0.3,0-0.6,0-0.9,0c0-1.5,0-3,0-4.5C73.7,151.3,75,152.5,74.6,154.5z"/>
			<path d="M136.8,153.2c-0.4,0.1-0.5-0.1-0.6-0.4c-1-2.6-2.1-5.3-3.1-7.9c-0.1-0.3-0.2-0.4-0.6-0.4c-3.9,0-7.9,0-11.8,0c-0.1,0-0.3,0-0.5,0c0,10.9,0,21.7,0,32.5c4,0,7.9,0,11.9,0c0-4,0-7.9,0-11.8c0.4-0.2,0.5,0.1,0.6,0.3c1.3,3.7,2.7,7.4,4,11.1c0.1,0.3,0.2,0.4,0.6,0.4c3.7,0,7.5,0,11.2,0c0.1,0,0.3,0,0.4,0c0-10.9,0-21.7,0-32.5c-4,0-8,0-12.1,0C136.8,147.4,136.8,150.3,136.8,153.2z"/>
			<path d="M118.2,152.5c0-0.8-0.1-1.7-0.3-2.5c-0.5-2.4-1.9-4.1-4.2-4.9c-1.2-0.5-2.5-0.6-3.8-0.6c-4.1,0-8.2,0-12.3,0c-1,0-2,0.1-3,0.3c-2.3,0.5-4,1.8-4.9,4c-0.4,1.2-0.6,2.4-0.6,3.7c0,5.5,0,11,0,16.5c0,0.6,0,1.1,0.1,1.7c0.3,2.4,1.4,4.2,3.6,5.3c1.6,0.8,3.3,1.1,5.1,1.1c3.9,0,7.7,0,11.6,0c1.2,0,2.5-0.2,3.7-0.4c2-0.4,3.6-1.5,4.4-3.5c0.4-1,0.6-2.1,0.6-3.2c0-3,0-5.9,0-8.9c0,0,0,0,0,0C118.3,158.2,118.3,155.3,118.2,152.5z M105.4,167.9c0,1-0.8,1.9-1.8,2c-1.1,0.1-2.1-0.5-2.3-1.5c0-0.1,0-0.3,0-0.5c0-4.8,0-9.6,0-14.4c0-1.1,0.9-2,2-2c1.1,0,2.1,0.9,2.1,2c0,2.4,0,4.8,0,7.2C105.4,163.1,105.4,165.5,105.4,167.9z"/>
			<path d="M150.8,177c3.9,0,7.7,0,11.5,0c0-4,0-7.9,0-11.8c0.1,0.1,0.2,0.2,0.2,0.4c1.3,3.7,2.7,7.4,4,11.1c0.1,0.3,0.3,0.4,0.6,0.4c2.1,0,4.1,0,6.2,0c0.3,0,0.5-0.1,0.6-0.4c1.3-3.7,2.6-7.4,3.8-11.2c0-0.1,0.1-0.2,0.1-0.3c0,0,0.1,0,0.1,0c0,3.9,0,7.9,0,11.8c3.8,0,7.6,0,11.4,0c0-10.9,0-21.7,0-32.5c-12.9,0-25.7,0-38.5,0C150.8,155.3,150.8,166.2,150.8,177z"/>
			<path d="M239.6,144.5c0,3.2,0,6.4,0,9.5c0,0-0.1,0-0.1,0c-0.1-0.1-0.1-0.3-0.2-0.4c-1.2-2.9-2.4-5.8-3.6-8.7c-0.1-0.3-0.3-0.4-0.6-0.4c-3.9,0-7.7,0-11.6,0c-0.1,0-0.3,0-0.5,0c0,10.9,0,21.7,0,32.5c3.9,0,7.9,0,11.8,0c0-0.2,0-0.4,0-0.6c0-3.8,0-7.5,0-11.3c0-0.1,0-0.2,0-0.3c0-0.1,0.1-0.2,0.2-0.2c0.1,0,0.2,0,0.3,0.1c0.1,0.1,0.1,0.2,0.1,0.3c1.5,3.9,2.9,7.8,4.4,11.7c0.1,0.3,0.2,0.4,0.6,0.4c3.6,0,7.2,0,10.8,0c0.1,0,0.3,0,0.4,0c0-10.9,0-21.7,0-32.5C247.7,144.5,243.7,144.5,239.6,144.5z"/>
			<path d="M216.2,144.5c-6.9,0-13.7,0-20.6,0c-1.8,10.8-3.5,21.6-5.3,32.5c4.5,0,8.9,0,13.3,0c0,0,0-0.1,0-0.1c0.2-2.4,0.5-4.8,0.7-7.1c0-0.3,0.1-0.5,0.5-0.5c0.9,0,1.8,0,2.7,0c0.2,0,0.4,0,0.4,0.3c0.2,1.6,0.4,3.3,0.7,4.9c0.1,0.8,0.2,1.6,0.4,2.5c4.3,0,8.7,0,13.1,0C220,166.1,218.1,155.3,216.2,144.5z M207.1,162.1c-0.7,0-1.4,0-2.2,0c0-0.4,0-0.7,0.1-1.1c0.2-2.3,0.5-4.5,0.7-6.8c0-0.2,0-0.4,0.3-0.4c0.3,0,0.2,0.2,0.3,0.4c0.3,2.4,0.5,4.9,0.8,7.3C207.1,161.7,207.1,161.9,207.1,162.1z"/>
        </g>
	</symbol>

	<symbol id="keynotes" viewBox="35 35 230 230">
        <title>Keynotes</title>
        <g fill="white">
			<path d="M34.7,135.7h9.7v17.1l10.8-17.1h10.1l-12.5,18.9l13.8,19.1H54.8l-10.5-16.4v16.4h-9.7V135.7z"/>
			<path d="M66.8,135.7h21.5v8.5H76.5v5.9h11.4v8.5H76.5v6.5h11.8v8.5H66.8V135.7z"/>
			<path d="M99.1,159.9l-11.3-24.1h10.5l5.6,15.2l5.7-15.2h10.4l-11.2,24.1v13.8h-9.7V159.9z"/>
			<path d="M142.8,158.8l-0.2-23.1h9.3v37.9h-8.4l-14.5-22.9l0.2,22.9h-9.3v-37.9h8.4L142.8,158.8z"/>
			<path d="M154,155.1c0-12.4,9.5-20.1,20-20.1c11.7,0,20,9.1,20,19.7c0,10.6-8.3,19.7-20.1,19.7C162,174.4,154,164.9,154,155.1L154,155.1z M163.7,154.6c0,5.8,3.9,11.2,10.5,11.2c6.9,0,10.2-6.3,10.2-11.1c0-4.9-3.3-11.2-10.3-11.2C167.4,143.5,163.7,149.2,163.7,154.6L163.7,154.6z"/>
			<path d="M198.2,144.2h-7.5v-8.5h24.6v8.5h-7.4v29.4h-9.7V144.2z"/>
			<path d="M216.2,135.7h21.5v8.5h-11.8v5.9h11.4v8.5h-11.4v6.5h11.8v8.5h-21.5V135.7z"/>
			<path d="M247.6,161.1c0,4.4,2.7,5.2,3.9,5.2c2.3,0,3.7-1.9,3.7-3.6c0-2-1.6-2.6-7.4-5.1c-2.7-1.1-9.3-3.7-9.3-10.9c0-7.6,6.9-11.7,13.3-11.7c5.2,0,12.6,2.7,12.8,11.8H255c-0.2-1.3-0.5-3.7-3.5-3.7c-1.7,0-3.3,1.2-3.3,3c0,1.7,1,2.2,7.8,5.3c7.1,3.2,8.9,6.5,8.9,10.9c0,6-3.2,12.1-13.2,12.1c-9.9,0-13.9-5.8-13.7-13.3H247.6z"/>
        </g>
	</symbol>
	<symbol id="lukebulla" viewBox="35 35 230 230">
        <title>LukeBulla</title>
        <g fill="white">
			<path d="M192.7,194c-11.4,11.4-26.6,17.7-42.7,17.7s-31.3-6.3-42.7-17.7c-10.4-10.4-16.5-23.9-17.5-38.4H82c1,16.6,8,32.1,19.8,43.9c12.9,12.9,30,20,48.2,20s35.3-7.1,48.2-20c11.9-11.9,18.8-27.3,19.8-43.9h-7.8C209.2,170.1,203.1,183.6,192.7,194z"/>
			<path d="M107.3,108.6c11.4-11.4,26.6-17.7,42.7-17.7s31.3,6.3,42.7,17.7c10.4,10.4,16.5,23.9,17.5,38.4h7.8c-1-16.6-8-32.1-19.8-43.9c-12.9-12.9-30-20-48.2-20s-35.3,7.1-48.2,20C89.9,115,83,130.5,82,147.1h7.8C90.8,132.5,96.9,119,107.3,108.6z"/>
			<path d="M179.7,147.6l-0.3-0.4c-1.5-2-3.6-3-7.5-3h-50.2v0h-5.4V108l7.7,0v29h48.4c8.2,0,14.3,3.4,16.2,9.1l0.5,1.5H179.7z"/>
			<path d="M184,172.7c0,4.7-4,7.5-10.7,7.5h-49.4v-14.7h44.9c5.9-0.4,10.9-1.9,14.5-4.3c0,0,0,0,0,0c2.1-1.3,3.6-3.1,4.6-5.2l0.8-1.6h-8.9l-0.3,0.5c-1.5,2.3-3.8,3.6-8,3.6h-47.5h-7.7v29h56.9c11.5,0,18.6-5.5,18.6-14.4c0-3.8-1.4-6.9-4.2-9.3c-1.7,1.5-3.9,2.8-6.3,3.8C182.9,168.6,184,170.3,184,172.7z"/>
        </g>
	</symbol>
	<symbol id="mls" viewBox="-50 -50 600 600">
        <title>MLS</title>
        <g fill="white">
			<path d="M95.29,124.183,78.74,86.828h-.473v49.885c0,.946-.473,1.182-1.182,1.182H62.191c-.946,0-1.182-.473-1.182-1.182V50.419a1.1,1.1,0,0,1,1.182-1.182h15.84a2.483,2.483,0,0,1,2.128,1.182l22.7,50.594h.709l22.224-50.594c.473-.946.946-1.182,2.128-1.182h15.6c.946,0,1.182.473,1.182,1.182v86.057c0,.946-.473,1.182-1.182,1.182H128.625c-.946,0-1.182-.473-1.182-1.182V86.592h-.473l-16.549,37.355a2.384,2.384,0,0,1-2.6,1.655H98.6c-1.891.236-2.837-.236-3.31-1.418"/>
			<path d="M157.469,137.9H216.1c.946,0,1.182-.473,1.182-1.182V122.291c0-.946-.473-1.182-1.182-1.182H176.619a.866.866,0,0,1-.946-.946V50.419c0-.946-.473-1.182-1.182-1.182H157.7c-.946,0-1.182.473-1.182,1.182v86.057c-.236.946.237,1.419.946,1.419"/>
			<path d="M265.986,84.464l-4.728-.709c-10.166-1.419-13.949-4.728-13.949-9.693,0-5.438,4.019-9.457,11.821-9.457,7.329,0,13.949,2.364,20.805,6.856.709.473,1.182.236,1.891-.473l8.038-11.821c.709-.946.473-1.419-.236-1.891-7.329-5.674-18.441-9.457-30.5-9.457-19.387,0-31.681,10.875-31.681,27.188,0,15.84,10.166,24.115,28.371,26.479l4.728.709c10.639,1.419,13.712,4.728,13.712,9.93,0,6.147-5.2,10.639-14.658,10.639s-17.5-4.492-23.406-9.22a1.232,1.232,0,0,0-1.891.236l-9.93,11.348c-.709.946-.473,1.655.236,2.128,7.093,6.62,20.569,12.057,34.517,12.057,23.169,0,35.227-11.821,35.227-27.9-.236-16.077-9.929-24.351-28.37-26.952"/>
			<path d="M442.356,285.895a290.228,290.228,0,0,1-44.211,82.038A296.976,296.976,0,0,1,331,431.767a287.532,287.532,0,0,1-81.8,39.482,300.676,300.676,0,0,1-81.8-39.482,296.586,296.586,0,0,1-53.9-47.757L458.669,43.09V190.854a291.886,291.886,0,0,1-16.313,95.041M100.018,368.17A289.248,289.248,0,0,1,39.967,191.09V28.669H444.011L100.018,368.17h0M479,18.266V8.1H19.4V191.09A309.931,309.931,0,0,0,83.705,380.463c.709.946,1.182,1.655,1.891,2.6L25.309,442.642l14.422,14.422,58.869-58.4A319.523,319.523,0,0,0,245.89,492.054l3.073.946,3.073-.946a312.084,312.084,0,0,0,90.786-43.5A315.626,315.626,0,0,0,461.979,292.515,308.96,308.96,0,0,0,479,190.854c0-.946,0-172.588,0-172.588"/>
			<path d="M113.021,332.234l-3.783-8.511,2.6-2.364,8.984,8.748-1.655,1.419-7.093-6.856h0l4.256,9.457-1.182,1.182-9.457-4.256h0l7.093,6.856-1.655,1.419-8.984-8.748,2.6-2.6Zm-11.585,1.891L98.6,336.962l7.329,7.329-1.655,1.655-7.329-7.329-2.837,2.837-1.418-1.182,7.329-7.093Z"/>
			<polygon points="176.37 182.754 182.044 199.776 167.15 189.137 152.728 199.776 158.402 182.754 143.744 172.115 161.712 172.115 167.15 155.092 173.06 172.115 191.028 172.115 176.37 182.754"/>
			<polygon points="91.968 182.754 106.626 172.115 88.658 172.115 82.984 155.092 77.546 172.115 59.105 172.115 73.763 182.754 68.326 199.776 82.984 189.137 97.642 199.776 91.968 182.754"/>
			<polygon points="130.741 227.674 125.067 210.651 119.629 227.674 101.425 227.674 116.319 238.076 110.409 255.335 125.067 244.696 139.725 255.335 134.287 238.076 148.945 227.674 130.741 227.674"/>
        </g>
	</symbol>
	
    <symbol id="microsoft" viewBox="0 0 500 500">
        <title>Microsoft</title>
		<path fill="white" d="M8.95,247.15h49v-49.2h-49Zm53.9,0h49v-49.2h-49Zm428.1-2.4v-8.7h-10.5v-13.4c-3.5,1-7,2.2-10.5,3.2-.2,3.3,0,6.7,0,10h-15.6a53.12,53.12,0,0,1,.2-8,6.357,6.357,0,0,1,3.5-5c2.5-1,5.4-.3,7.9.7v-9.2c-5-1.3-10.9-1.2-15.4,1.8a15.153,15.153,0,0,0-6,8.2c-1.2,3.7-.5,7.5-.7,11.4h-7.4v8.5h7.4v36h10.5v-36h15.6v22.9c0,3.5.7,7.4,3,10.2a11.069,11.069,0,0,0,8.4,3.8,21.3,21.3,0,0,0,9.7-1.5v-8.7c-2.3,1.5-5.5,2.2-8,.8a5.179,5.179,0,0,1-2.3-4.2,74.837,74.837,0,0,1-.2-8.2v-14.9C483.85,244.75,487.45,244.65,490.95,244.75Zm-267.1-27.6a6.055,6.055,0,0,0-5.4,6c-.2,2.8,2.2,5.4,4.9,5.9a6.463,6.463,0,0,0,7-3,6.046,6.046,0,0,0-.7-6.9A7.8,7.8,0,0,0,223.85,217.15Zm-29.3,1.5c-6.2,15.4-12.4,30.6-18.6,45.9-1.3-3-2.5-6.2-3.7-9.2q-7.35-18.3-14.4-36.6h-15.4v62.1h10v-47.9c.2.3.3.7.5,1,6.4,15.7,12.6,31.3,18.9,47h7.5c6-15.7,12.4-31.3,18.4-46.9.2-.3.3-.7.5-1v47.9h10.7v-62.1C204.45,218.55,199.55,218.55,194.55,218.65Zm64.9,25.3a17.069,17.069,0,0,1,12,3.7v-10.2a19.444,19.444,0,0,0-3-1.3,27.95,27.95,0,0,0-15.7,0,20.293,20.293,0,0,0-11.7,8.4,26.865,26.865,0,0,0-4.2,16.6,22.033,22.033,0,0,0,6.4,14.9,22.694,22.694,0,0,0,13.7,5.9c5,.2,10.2-.5,14.4-3v-9.7a19.327,19.327,0,0,1-9.5,3.8,12.8,12.8,0,0,1-9.9-3,14.06,14.06,0,0,1-4.4-8.9c-.5-4.2.2-8.9,2.8-12.4A13.894,13.894,0,0,1,259.45,243.95Zm118.9,12.6c-3.2-1.8-6.7-2.7-9.7-4.7a4.761,4.761,0,0,1-1.5-5.5c.8-1.8,3-2.7,5-2.8a17.423,17.423,0,0,1,11,3.3v-9.9a28.3,28.3,0,0,0-14.7-1.5,14.981,14.981,0,0,0-10.5,6.5c-2,3-2.3,7-1.5,10.7a10.56,10.56,0,0,0,4,6c2.7,2.2,6,3.3,9.2,4.7a13.928,13.928,0,0,1,4.7,3c1.3,1.8.8,5-1.3,6-2.2,1.2-4.9,1-7.4.7a24.706,24.706,0,0,1-9.5-4.2v10.4a32.187,32.187,0,0,0,10.7,2.5c5.2.2,10.9-.8,14.7-4.5,4-3.7,5-10,2.7-15.1A12.366,12.366,0,0,0,378.35,256.55Zm-83.1-19.6a13.2,13.2,0,0,0-5.5,7v-7.7h-10.4v44.5h10.4v-21.3a18.631,18.631,0,0,1,1.5-9,9,9,0,0,1,6.7-5.4,10.908,10.908,0,0,1,7.2,1.7v-10.7A11.552,11.552,0,0,0,295.25,236.95Zm-75.9-.7v44.5h10.5v-44.5C226.35,236.05,222.85,236.25,219.35,236.25Zm120.5.8c-4.7-2.2-10-2.5-15.2-1.8a20.965,20.965,0,0,0-13.9,7.5,25.238,25.238,0,0,0-4.9,13.6c-.5,5.7.5,11.9,3.8,16.6a19.512,19.512,0,0,0,12.2,8,32.334,32.334,0,0,0,12.4,0,21.485,21.485,0,0,0,12.2-7.5,24.448,24.448,0,0,0,4.7-12.9,29.71,29.71,0,0,0-2.2-14.1A20.2,20.2,0,0,0,339.85,237.05Zm-1,30a9.8,9.8,0,0,1-5.2,5.2,13.635,13.635,0,0,1-8.7.3,10.8,10.8,0,0,1-6.7-5.5c-1.7-3.3-2-7.4-1.7-11.2a15.319,15.319,0,0,1,4-9.4,10.453,10.453,0,0,1,7-2.8,11.7,11.7,0,0,1,8.9,3c2.5,2.3,3.3,5.9,3.7,9.2C340.45,259.85,340.35,263.75,338.85,267.05Zm86-29.6c-4.9-2.5-10.4-2.8-15.7-2.2a22.322,22.322,0,0,0-11.7,5,21.468,21.468,0,0,0-7,13.7c-.7,5.2-.5,10.5,1.7,15.4a20.336,20.336,0,0,0,10.7,10.5,30.1,30.1,0,0,0,14.9,1.3,20.745,20.745,0,0,0,13.1-7.7,24.679,24.679,0,0,0,4.9-15.2,27.935,27.935,0,0,0-1.7-10.7A21.438,21.438,0,0,0,424.85,237.45Zm-.5,25.6a12.946,12.946,0,0,1-2.7,6.5,9.739,9.739,0,0,1-6.2,3.3,14.679,14.679,0,0,1-7.5-.8,10.954,10.954,0,0,1-5.5-5.9,21.2,21.2,0,0,1-1.3-9.7,15.805,15.805,0,0,1,3.2-8.9,10.9,10.9,0,0,1,7.7-3.7,11.769,11.769,0,0,1,8.5,2.5,11.624,11.624,0,0,1,3.8,7A31.551,31.551,0,0,1,424.35,263.05ZM8.95,301.35h49v-49.2h-49Zm53.9,0h49v-49.2h-49Z"/>
	</symbol>
	
    <symbol id="nike" viewBox="35 35 230 230">
        <title>Nike</title>
		<path fill="white" d="M70,114.3c-0.2,0.4-0.4,0.8-0.6,1.2c-3.4,6.1-6,12.4-7.1,19.3c-0.8,5.3-0.7,10.6,1.9,15.5c3.4,6.4,8.9,9.8,16,10.8c7.7,1,15.2-0.3,22.7-2.2c54.6-14.5,109.2-29,163.8-43.5c0.3-0.1,0.5-0.1,0.8,0c-0.3,0.2-0.7,0.4-1,0.5c-55.3,23.6-110.6,47.3-165.8,70.9c-8.1,3.5-16.4,6.4-25.1,8c-6.8,1.2-13.5,1.8-20.3,0c-11.6-3.1-18.4-12.3-17.9-24.3c0.3-7.4,2.7-14.3,5.9-20.9c4-8.3,9.5-15.6,15.4-22.6c3.4-4,6.9-7.9,10.4-11.8c0.3-0.3,0.6-0.6,0.9-0.9C69.8,114.2,69.9,114.2,70,114.3z"/>
	</symbol>

	<symbol id="nintendo" viewBox="35 35 230 230">
        <title>Nintendo</title>
		<path fill="white" d="M80.9,159.8l-11.1-18.1h-8v25.8h8v-18.1l11.2,18.1h8v-25.8h-8V159.8z M144.1,150.4v-2.6h-4.2v-3.4h-7.8v3.4h-4.2v2.6h4.2v17.2h7.8v-17.2H144.1z M93.2,167.6h7.7v-17.2h-7.7V167.6z M93.2,147h7.8v-5.3h-7.8V147z M229.1,149.2c-6.2,0-11.3,4.3-11.3,9.6s5.1,9.6,11.3,9.6c6.2,0,11.3-4.3,11.3-9.6C240.4,153.5,235.3,149.2,229.1,149.2z M232.2,162.5c0,2.8-1.6,3.9-3.1,3.9s-3.1-1.1-3.1-3.9c0-1.1,0-3.7,0-3.7s0-2.6,0-3.6c0-2.7,1.6-3.9,3.1-3.9s3.1,1.1,3.1,3.9c0,1.1,0,2.9,0,3.6C232.2,158.9,232.2,161.5,232.2,162.5z M207.6,151.2c-1.2-0.7-2.6-1.4-4.4-1.5c-5.6-0.5-9.9,4.5-9.9,9c0,6,4.6,8.2,5.3,8.6c2.6,1.2,5.9,1.2,9-0.6c0,0.2,0,1,0,1h7.7v-25.8h-7.7C207.6,141.8,207.6,147.3,207.6,151.2z M207.6,158.9c0,0,0,1.9,0,3.1c0,2.6-1.8,3.3-3,3.3c-1.2,0-3-0.7-3-3.3c0-1,0-3.1,0-3.1s0-2.1,0-3.1c0-2.6,1.8-3.3,3-3.3s3,0.7,3,3.3C207.6,156.7,207.6,158.9,207.6,158.9z M119.1,149.6c-2.6,0.1-4.7,1.1-6.2,2.6c0-0.5,0-1.8,0-1.8h-7.7v17.2h7.7c0,0,0-10.6,0-11.3c0-1.5,1.5-3.1,3.7-3.1c2.1,0,3.6,1.7,3.6,3.1c0,1.1,0,11.3,0,11.3h7.7c0,0,0-8.2,0-9.3C127.9,151.4,122.1,149.5,119.1,149.6z M182.1,149.6c-2.6,0.1-4.7,1.1-6.2,2.6c0-0.5,0-1.8,0-1.8h-7.7v17.2h7.7c0,0,0-10.6,0-11.3c0-1.5,1.5-3.1,3.7-3.1c2.1,0,3.6,1.7,3.6,3.1c0,1.1,0,11.3,0,11.3h7.7c0,0,0-8.2,0-9.3C190.9,151.4,185,149.5,182.1,149.6z M165.9,159.1c0-5.3-5.2-9.7-11.4-9.7c-6.3,0-11.4,4.3-11.4,9.6s5.1,9.6,11.4,9.6c5.2,0,9.6-3,10.9-7h-7.7c0,0,0,0.1,0,1.1c0,3.1-2.1,3.9-3.3,3.9s-3.3-0.7-3.3-3.9c0-1,0-3.6,0-3.6L165.9,159.1z M151.8,153c0.6-1.1,1.7-1.5,2.7-1.5c1,0,2.1,0.5,2.7,1.5c0.5,0.8,0.5,1.8,0.5,3.4h-6.5C151.3,154.8,151.3,153.9,151.8,153z M241.5,141.9c-2.1,0-3.9,1.8-3.9,4s1.8,4,3.9,4c2.1,0,3.9-1.8,3.9-4S243.6,141.9,241.5,141.9z M241.5,149.1c-1.8,0-3.3-1.5-3.3-3.3s1.5-3.3,3.3-3.3c1.8,0,3.3,1.5,3.3,3.3C244.7,147.7,243.3,149.1,241.5,149.1z M243.5,144.9c0-0.8-0.6-1.2-1.8-1.2h-1.7v4.4h1.1v-1.8h0.5l0.8,1.8h1.1l-1-2C243.1,145.9,243.5,145.5,243.5,144.9z M241.4,145.6h-0.5v-1.3h0.5c0.6,0,1,0.2,1,0.7C242.3,145.4,242,145.6,241.4,145.6z M232.9,127.3H68.7c-17.3-0.1-29,12.5-29,27.6s11.6,27.4,29.1,27.4h164.1c17.5,0,29.1-12.4,29.1-27.4C261.9,139.7,250.2,127.1,232.9,127.3z M232.8,175.4h-164c-13.8,0.1-22.3-9.3-22.3-20.7c0-11.4,8.5-20.7,22.3-20.7h164c13.8,0,22.3,9.3,22.3,20.7C255,166.2,246.6,175.4,232.8,175.4z"/>
	</symbol>

    <symbol id="pokemon" viewBox="35 35 230 230">
        <title>Pokemon</title>
        <g fill="white">
			<path d="M79.2,147.5c-0.8-0.4-1.7-0.4-2.7-0.3c0.1,0.3,0.4,1.6,0.4,1.6s1.5,4.8,1.7,5.4c1.3-1.3,2-2.5,2-3.9c0-0.4,0-0.8-0.1-1.1C80.4,148.2,79.6,147.7,79.2,147.5z"/>
			<path d="M137.7,147.6c-0.3,0.3-3.3,3.2-3.5,3.4c0.2,0.1,3.5,1.3,3.8,1.4c-0.2-1.1-0.3-2.2-0.3-3.4C137.6,148.6,137.7,148.1,137.7,147.6z"/>
			<path d="M152,144.6c-0.8,0.8-1.1,1.8-1.1,2.9c0,0.6,0.2,1.2,0.4,1.8c0.4-0.4,4.8-5.4,5.1-5.8C154.9,143,153.1,143.4,152,144.6z"/>
			<path d="M236,144.5L236,144.5L236,144.5L236,144.5z"/>
			<path d="M123.9,167l0.1,0.1c0-0.1,0-0.1,0-0.1L123.9,167z"/>
			<path d="M188.2,127.3L188.2,127.3C188.3,127.3,188.3,127.3,188.2,127.3z"/>
			<path d="M174.1,129.5L174.1,129.5C174.1,129.5,174.1,129.5,174.1,129.5z"/>
			<path d="M98.8,178.4L98.8,178.4L98.8,178.4z"/>
			<path d="M258.1,140.1C258.1,140,258.1,140,258.1,140.1l-16.9-4.1H241l-2.5,1.4c-0.2-1.1-0.4-2-0.4-2c0-0.1,0-0.1-0.1-0.1l-19.8-4.4h-0.1l-3.6,2l0.1,9.9c-2-0.1-4.2,0.3-6.3,1c-1.3,0.5-2.7,1.2-3.9,2.1c-0.1-0.3-2.9-18.7-2.9-18.7c0-0.1-0.1-0.1-0.1-0.1h-13.2l-0.1,0.1l-3.6,2v0.1c-4.1,0-10.6,0-10.6,0l-0.1,0.1l-3.6,2l-0.8,4.5c-3.1-2.9-7.2-4.6-11.7-4.8c0.5-0.3,11.5-6.2,11.5-6.2s0.1,0,0.1-0.1l0,0c0,0,0,0,0-0.1l-8.2-12.2l-0.1-0.1H161l-3.6,2l-14.9,17.1l2.7,3.1c-0.1,0-0.1,0.1-0.1,0.1l-2.7,1.3c-2.1-1.9-12.2-10.9-12.2-10.9h-0.1l-3.6,2l-0.6,1.1c0-1.5,0.1-2.8,0.1-2.8v-0.1h-0.1l-19.7,6.5l-3.6,2l0.5,10.7l3.4-0.9l0.2,2.3c-2.9-0.4-6,0-9,1.2c-1.2,0.5-2.3,1.1-3.4,1.9c0.3-1.2,0.4-2.4,0.4-3.6c0-2-0.4-3.9-1.1-5.7c-1.4-3.4-4.1-6.3-7.3-8.1c-2.2-1.5-4.9-2.4-7.8-2.7c-6.9-1.2-15.2,0-23.3,3.5c-3,1.3-5.8,2.7-8.3,4.3l-3.1,2l-2.9,3.1l9.7,16.5l3.6-1.6l15.6,35.4l14.9-4.8l3.7-2.3c0.1,0,0.1-0.1,0.1-0.1l0,0c0,0-1.6-6.1-3-11.6c1.1,2.1,2.7,3.6,2.7,3.6c1.6,1.5,3.5,2.7,5.7,3.2c4.1,1.2,8.8,0.4,12.8-2.1c0.9-0.5,2-1.4,2.9-2.2l0.5,5.5l13.9-2l3.8-1.9c0.1,0,0.1-0.1,0.1-0.1s0-5.1,0-8.8l25.6,12.7l3.6-1.9h0.1l0.1-0.1c0,0,0-8.2,0-12.1c2.9-0.4,5.5-1.6,8-3.1c0.1,0,0.1-0.1,0.1-0.1l-1.1,6.7l15.8,2.6l2.9-1.6l2.5,4.9l2.6-1.2l0.4,3l18,3.1l3.6-1.9h0.1v-0.1l0,0c0,0-0.4-2.7-0.7-4.4c1.2-0.1,2.5-0.3,3.6-0.7c0.4-0.1,1-0.4,1.8-0.7l-0.7,6.3l11.9,1.8l0.1,4.8l12.4,3.9l3.7-1.9c0.1,0,0.1,0,0.1-0.1L258.1,140.1C258.1,140.1,258.1,140.1,258.1,140.1z M160.7,118.3c0.1,0.1,4.1,5.5,4.2,5.8c-0.2,0.1-12.1,6-12.2,6c-0.1-0.1-0.7-1-0.8-1.2C151.9,128.8,160.6,118.5,160.7,118.3z M78.5,163.5L78.5,163.5L78.5,163.5c-0.1,0.1,4.8,18.8,4.8,18.9c-0.1,0.1-7.7,2.5-7.8,2.5c-0.1-0.1-16.4-36.6-16.4-36.6s0-0.1-0.1-0.1h0l-2.7,1.3c0,0-1.2,0.6-1.3,0.7c-0.1-0.1-5.8-9.7-5.9-9.9c2.3-1.4,4.9-2.8,7.6-4c7.4-3.1,14.9-4.3,21-3.2c2.4,0.3,4.5,1,6.2,2.1c2.7,1.5,4.7,3.6,5.8,6.3c0.5,1.3,0.8,2.7,0.8,4.1C90.6,151.9,86,158.9,78.5,163.5z M112.5,168.1L112.5,168.1c-1.1,1.4-2.2,2.7-3.6,3.6c-1,0.8-2,1.3-3.1,1.9c-3.6,1.5-7.2,1.5-10.2,0.1c-2.7-1.3-4.6-3.6-5.4-6.6c-1.8-6.3,2.2-13.9,9-16.7c2.6-1.1,5.3-1.3,7.7-0.9c1.4,0.3,2.7,0.8,3.9,1.6c0,0,0.1,0,0.1,0.1c2,1.3,3.3,3.2,3.9,5.6l0.2,0.8c0.2,0.9,0.3,1.9,0.2,2.8C115.2,162.9,114.2,165.8,112.5,168.1z M153.1,173.5c-0.3-0.1-28.9-14.5-28.9-14.5h-0.1l-0.1,0.1c0,0,0,3.9,0,7.8c0,0.1,0,0.1,0,0.1c0,3.6,0,7.2,0,7.2c-0.1,0-7.2,1-7.3,1c0-0.1-0.5-6.2-0.5-6.2c1.7-2.8,2.5-5.9,2.5-8.9c0-1.3-0.1-2.8-0.5-4.1c-0.7-2.3-1.9-4.5-3.6-6.1l0,0c0-0.2-1-12.8-1-12.8s0-0.1-0.1-0.1h-0.1c0,0-3.1,0.8-3.2,0.8c0-0.2-0.1-2.9-0.1-3c0.1-0.1,11.7-3.5,11.9-3.6c0,0.2,0.8,12.3,0.8,12.3c0,0.1,0,0.1,0.1,0.1c0.1,0,0.1,0,0.1,0s8.7-12.2,8.8-12.5c0.1,0.1,8.5,8,8.5,8.1c-0.1,0.1-12.1,12.8-12.1,12.8v0.1l0,0c0,0,0,0.1,0.1,0.1l11.4,4.5c1.3,2.4,3.2,4.5,5.7,6c2.3,1.4,5,2.3,7.9,2.6C153.1,165.7,153.1,173.2,153.1,173.5z M138,152.5c-0.3-0.1-3.6-1.3-3.8-1.4c0.1-0.1,3.1-3.1,3.5-3.4c-0.1,0.4-0.1,0.9-0.1,1.4C137.6,150.1,137.7,151.3,138,152.5z M169.7,156.3C169.7,156.3,169.7,156.4,169.7,156.3c-1.2,1-2.4,1.8-3.7,2.5c-1.9,1-4,1.8-6.5,2.3c-0.9,0.2-1.8,0.4-2.7,0.4c-6.5,0.6-12.1-2.2-14.3-7.3c-0.2-0.6-0.4-1.2-0.6-1.8c-0.9-4-0.3-7.7,1.9-10.8c0.6-0.8,1.3-1.6,2-2.3c2-1.8,4.5-3,7.2-3.7c6-1.4,11.7,0.2,15.3,4.5c-0.1,0.1-12.1,12.8-12.1,12.8v0.1l0,0l0.1,0.1c1,0.1,2.5-0.1,3.1-0.3c2.7-0.7,4.3-2,5.9-3.9c0.1,0.1,0.9,0.8,1.9,1.8c0.9,0.8,2,1.8,2.9,2.6c0.8,0.7,1.3,1.1,1.3,1.2C170.9,155.2,170.4,155.7,169.7,156.3z M195.5,173.5c0-0.1-2.7-17.4-2.7-17.4c0-0.1-0.1-0.1-0.1-0.1c-0.1,0-0.1,0-0.1,0.1c0,0-3.5,9-3.6,9.4c-0.1-0.4-5.5-11.8-5.5-11.8s-0.1-0.1-0.1-0.1s-0.1,0-0.1,0.1c0,0-2.2,13.7-2.2,13.8c-0.1,0-8.9-1.6-9.1-1.6c0-0.1,1.3-7.7,1.3-7.7l1-1l3-3.1v-0.1l0,0v-0.1c0,0-2.8-2.5-2.9-2.6c0-0.1,3-18.2,3.1-18.4c0.1,0,9,0,9.2,0c0,0.1,2.3,12.8,2.3,12.8c0,0.1,0.1,0.1,0.1,0.1c0.1,0,0.1,0,0.1-0.1c0,0,2.6-14.6,2.7-14.8c0.1,0,6.4,0,6.6,0c0,0.1,2.8,17.9,2.8,18c-2.9,3.3-4.5,7.3-4.5,11.2c0,1.1,0.1,2.2,0.4,3.2c0.9,3.9,3.3,7,6.7,8.8c0,0,0.9,0.4,1,0.4c0,0.1,0.3,2,0.3,2.2C204.9,175,195.7,173.5,195.5,173.5z M218.6,167.8C218.6,167.8,218.5,167.8,218.6,167.8c-1.1,0.8-2.2,1.4-3.4,1.8c-0.1,0-0.1,0.1-0.2,0.1c-2.2,0.8-4.5,1-6.7,0.6c-1.4-0.3-2.8-0.8-3.9-1.7c-1.9-1.3-3.2-3.4-3.8-5.8c-0.7-2.9-0.1-6,1.5-9c0.8-1.4,1.8-2.7,3-3.8c1.4-1.3,2.9-2.2,4.7-2.9c2.7-1,5.3-1.1,7.7-0.4c1.1,0.3,2.2,0.8,3.1,1.5l0,0c1,0.8,1.9,1.7,2.6,2.7c0.5,0.9,0.9,1.8,1.1,2.9c0.2,0.8,0.3,1.8,0.3,2.6c0,2.7-1,5.5-2.7,7.9C221.1,165.7,219.9,166.8,218.6,167.8z M239.4,184.3c-0.1-0.1-6.6-2-6.7-2c0-0.1-0.6-25.3-0.6-25.3c0-0.1-0.1-0.1-0.1-0.1c-0.1,0-0.1,0-0.1,0.1c0,0-3.4,19.3-3.5,19.5c-0.1,0-7.2-1.1-7.3-1.1c0-0.1,0.5-5.5,0.5-5.5c4.1-3.5,6.5-8.4,6.5-13.3c0-1.1-0.1-2.2-0.4-3.4c-0.6-2.6-2-4.9-3.9-6.7c0-0.1,0.6-6.6,0.6-6.6c0-0.1,0-0.1-0.1-0.1c0,0-2.7-0.7-2.8-0.8c0-0.1,0.1-3.1,0.1-3.4c0.2,0.1,12.6,2.6,12.8,2.6c0,0.1,0.6,2.7,1.3,6.2v0.1c1.3,6,3,14.3,3,14.3c0,0.1,0.1,0.1,0.1,0.1c0.1,0,0.1,0,0.1-0.1c0,0,4.4-18.2,4.5-18.4c0.1,0.1,9.4,2.1,9.7,2.1C253.2,142.8,239.5,184.1,239.4,184.3z"/>
			<path d="M83.8,148.6c-0.3-1.8-1.5-3.1-3.1-4c-2.3-1.1-5.3-0.9-7.9,0.5c-0.1,0.1-0.1,0.1-0.1,0.2l1.3,4.5l2.9,9.6c0,0.1,0.1,0.1,0.1,0.1c0.1,0,0.1,0,0.1,0C81,156.9,84.7,154,83.8,148.6z M76.5,147.2c1-0.1,1.9-0.1,2.7,0.3c0.4,0.2,1.2,0.7,1.3,1.6c0.1,0.4,0.1,0.8,0.1,1.1c0,1.4-0.7,2.7-2,3.9c-0.1-0.5-1.7-5.4-1.7-5.4C77,148.8,76.6,147.5,76.5,147.2z"/>
			<path d="M160.5,142.8l-0.5-0.5c-1.4-1.3-3.2-2-5.1-1.9c-1.9,0.1-3.6,0.9-4.9,2.2c-1.2,1.3-1.9,3-1.9,4.8c0,0.1,0,0.2,0,0.3c0.1,1.9,0.9,3.6,2.2,4.9l0.8,0.6c0.1,0.1,0.1,0.1,0.2,0l9-10.3C160.6,142.9,160.6,142.8,160.5,142.8z M156.5,143.4c-0.4,0.4-4.8,5.4-5.1,5.8c-0.2-0.6-0.4-1.2-0.4-1.8c0-1,0.4-2.1,1.1-2.9C153.1,143.4,154.9,143,156.5,143.4z"/>
			<path d="M218.9,151.6c-0.1-0.1-0.1-0.1-0.2-0.1s-0.1,0.1-0.1,0.2l0.1,0.9c-0.1,1.3-0.9,2.3-2.1,2.8c-0.5,0.2-1.1,0.4-1.8,0.3c-1-0.1-2-0.5-2.7-1.2c-0.6-0.6-0.9-1.4-0.8-2.2c0.1-1.8,1.6-3,3.5-3.1c0.1,0,0.1-0.1,0.1-0.1c0-0.1-0.1-0.1-0.1-0.1l-1.2-0.1c-1.9-0.1-3.7,0.6-5,1.8c-1.1,1-1.8,2.5-1.9,4c-0.1,3.5,2.7,6.3,6.3,6.5c1.1,0.1,2.1-0.1,3-0.5c2.2-0.9,3.7-2.9,3.9-5.4C219.9,153.8,219.6,152.6,218.9,151.6z"/>
			<path d="M109.3,154.5c-0.1-0.1-0.1-0.1-0.2-0.1c-0.1,0-0.1,0.1-0.1,0.2l0.1,0.9c0,1-0.5,2-1.4,2.6c-0.6,0.4-1.4,0.8-2.3,0.8c-2,0-3.7-1.5-3.7-3.3c0-1.8,1.4-3.1,3.3-3.3c0.1,0,0.1-0.1,0.1-0.1c0-0.1-0.1-0.1-0.1-0.1l-1.2-0.1c-3.6,0-6.7,2.7-6.7,6c0,3.5,2.9,6.3,6.6,6.3c1.7,0,3.1-0.5,4.4-1.5c1.3-1.1,2.2-2.8,2.2-4.8C110.4,156.6,110,155.5,109.3,154.5z"/>
			<polygon points="250.9,187.4 250.1,185.3 249,185.3 249,188.9 249.8,188.9 249.8,186.1 249.8,186.1 250.7,188.9 251.1,188.9 252,186.1 252,186.1 252,188.9 252.7,188.9 252.7,185.3 251.6,185.3"/>
			<polygon points="245.9,186.1 246.9,186.1 246.9,188.9 247.7,188.9 247.7,186.1 248.7,186.1 248.7,185.3 245.9,185.3"/>
		</g>
    </symbol>
    <symbol id="pokemon2" viewBox="35 35 230 230">
        <title>Pokemon</title>
        <g fill="white">
			<path d="M79.2,147.5c-0.8-0.4-1.7-0.4-2.7-0.3c0.1,0.3,0.4,1.6,0.4,1.6s1.5,4.8,1.7,5.4c1.3-1.3,2-2.5,2-3.9c0-0.4,0-0.8-0.1-1.1C80.4,148.2,79.6,147.7,79.2,147.5z"/>
			<path d="M137.7,147.6c-0.3,0.3-3.3,3.2-3.5,3.4c0.2,0.1,3.5,1.3,3.8,1.4c-0.2-1.1-0.3-2.2-0.3-3.4C137.6,148.6,137.7,148.1,137.7,147.6z"/>
			<path d="M152,144.6c-0.8,0.8-1.1,1.8-1.1,2.9c0,0.6,0.2,1.2,0.4,1.8c0.4-0.4,4.8-5.4,5.1-5.8C154.9,143,153.1,143.4,152,144.6z"/>
			<path d="M236,144.5L236,144.5L236,144.5L236,144.5z"/>
			<path d="M123.9,167l0.1,0.1c0-0.1,0-0.1,0-0.1L123.9,167z"/>
			<path d="M188.2,127.3L188.2,127.3C188.3,127.3,188.3,127.3,188.2,127.3z"/>
			<path d="M174.1,129.5L174.1,129.5C174.1,129.5,174.1,129.5,174.1,129.5z"/>
			<path d="M98.8,178.4L98.8,178.4L98.8,178.4z"/>
			<path d="M258.1,140.1C258.1,140,258.1,140,258.1,140.1l-16.9-4.1H241l-2.5,1.4c-0.2-1.1-0.4-2-0.4-2c0-0.1,0-0.1-0.1-0.1l-19.8-4.4h-0.1l-3.6,2l0.1,9.9c-2-0.1-4.2,0.3-6.3,1c-1.3,0.5-2.7,1.2-3.9,2.1c-0.1-0.3-2.9-18.7-2.9-18.7c0-0.1-0.1-0.1-0.1-0.1h-13.2l-0.1,0.1l-3.6,2v0.1c-4.1,0-10.6,0-10.6,0l-0.1,0.1l-3.6,2l-0.8,4.5c-3.1-2.9-7.2-4.6-11.7-4.8c0.5-0.3,11.5-6.2,11.5-6.2s0.1,0,0.1-0.1l0,0c0,0,0,0,0-0.1l-8.2-12.2l-0.1-0.1H161l-3.6,2l-14.9,17.1l2.7,3.1c-0.1,0-0.1,0.1-0.1,0.1l-2.7,1.3c-2.1-1.9-12.2-10.9-12.2-10.9h-0.1l-3.6,2l-0.6,1.1c0-1.5,0.1-2.8,0.1-2.8v-0.1h-0.1l-19.7,6.5l-3.6,2l0.5,10.7l3.4-0.9l0.2,2.3c-2.9-0.4-6,0-9,1.2c-1.2,0.5-2.3,1.1-3.4,1.9c0.3-1.2,0.4-2.4,0.4-3.6c0-2-0.4-3.9-1.1-5.7c-1.4-3.4-4.1-6.3-7.3-8.1c-2.2-1.5-4.9-2.4-7.8-2.7c-6.9-1.2-15.2,0-23.3,3.5c-3,1.3-5.8,2.7-8.3,4.3l-3.1,2l-2.9,3.1l9.7,16.5l3.6-1.6l15.6,35.4l14.9-4.8l3.7-2.3c0.1,0,0.1-0.1,0.1-0.1l0,0c0,0-1.6-6.1-3-11.6c1.1,2.1,2.7,3.6,2.7,3.6c1.6,1.5,3.5,2.7,5.7,3.2c4.1,1.2,8.8,0.4,12.8-2.1c0.9-0.5,2-1.4,2.9-2.2l0.5,5.5l13.9-2l3.8-1.9c0.1,0,0.1-0.1,0.1-0.1s0-5.1,0-8.8l25.6,12.7l3.6-1.9h0.1l0.1-0.1c0,0,0-8.2,0-12.1c2.9-0.4,5.5-1.6,8-3.1c0.1,0,0.1-0.1,0.1-0.1l-1.1,6.7l15.8,2.6l2.9-1.6l2.5,4.9l2.6-1.2l0.4,3l18,3.1l3.6-1.9h0.1v-0.1l0,0c0,0-0.4-2.7-0.7-4.4c1.2-0.1,2.5-0.3,3.6-0.7c0.4-0.1,1-0.4,1.8-0.7l-0.7,6.3l11.9,1.8l0.1,4.8l12.4,3.9l3.7-1.9c0.1,0,0.1,0,0.1-0.1L258.1,140.1C258.1,140.1,258.1,140.1,258.1,140.1z M160.7,118.3c0.1,0.1,4.1,5.5,4.2,5.8c-0.2,0.1-12.1,6-12.2,6c-0.1-0.1-0.7-1-0.8-1.2C151.9,128.8,160.6,118.5,160.7,118.3z M78.5,163.5L78.5,163.5L78.5,163.5c-0.1,0.1,4.8,18.8,4.8,18.9c-0.1,0.1-7.7,2.5-7.8,2.5c-0.1-0.1-16.4-36.6-16.4-36.6s0-0.1-0.1-0.1h0l-2.7,1.3c0,0-1.2,0.6-1.3,0.7c-0.1-0.1-5.8-9.7-5.9-9.9c2.3-1.4,4.9-2.8,7.6-4c7.4-3.1,14.9-4.3,21-3.2c2.4,0.3,4.5,1,6.2,2.1c2.7,1.5,4.7,3.6,5.8,6.3c0.5,1.3,0.8,2.7,0.8,4.1C90.6,151.9,86,158.9,78.5,163.5z M112.5,168.1L112.5,168.1c-1.1,1.4-2.2,2.7-3.6,3.6c-1,0.8-2,1.3-3.1,1.9c-3.6,1.5-7.2,1.5-10.2,0.1c-2.7-1.3-4.6-3.6-5.4-6.6c-1.8-6.3,2.2-13.9,9-16.7c2.6-1.1,5.3-1.3,7.7-0.9c1.4,0.3,2.7,0.8,3.9,1.6c0,0,0.1,0,0.1,0.1c2,1.3,3.3,3.2,3.9,5.6l0.2,0.8c0.2,0.9,0.3,1.9,0.2,2.8C115.2,162.9,114.2,165.8,112.5,168.1z M153.1,173.5c-0.3-0.1-28.9-14.5-28.9-14.5h-0.1l-0.1,0.1c0,0,0,3.9,0,7.8c0,0.1,0,0.1,0,0.1c0,3.6,0,7.2,0,7.2c-0.1,0-7.2,1-7.3,1c0-0.1-0.5-6.2-0.5-6.2c1.7-2.8,2.5-5.9,2.5-8.9c0-1.3-0.1-2.8-0.5-4.1c-0.7-2.3-1.9-4.5-3.6-6.1l0,0c0-0.2-1-12.8-1-12.8s0-0.1-0.1-0.1h-0.1c0,0-3.1,0.8-3.2,0.8c0-0.2-0.1-2.9-0.1-3c0.1-0.1,11.7-3.5,11.9-3.6c0,0.2,0.8,12.3,0.8,12.3c0,0.1,0,0.1,0.1,0.1c0.1,0,0.1,0,0.1,0s8.7-12.2,8.8-12.5c0.1,0.1,8.5,8,8.5,8.1c-0.1,0.1-12.1,12.8-12.1,12.8v0.1l0,0c0,0,0,0.1,0.1,0.1l11.4,4.5c1.3,2.4,3.2,4.5,5.7,6c2.3,1.4,5,2.3,7.9,2.6C153.1,165.7,153.1,173.2,153.1,173.5z M138,152.5c-0.3-0.1-3.6-1.3-3.8-1.4c0.1-0.1,3.1-3.1,3.5-3.4c-0.1,0.4-0.1,0.9-0.1,1.4C137.6,150.1,137.7,151.3,138,152.5z M169.7,156.3C169.7,156.3,169.7,156.4,169.7,156.3c-1.2,1-2.4,1.8-3.7,2.5c-1.9,1-4,1.8-6.5,2.3c-0.9,0.2-1.8,0.4-2.7,0.4c-6.5,0.6-12.1-2.2-14.3-7.3c-0.2-0.6-0.4-1.2-0.6-1.8c-0.9-4-0.3-7.7,1.9-10.8c0.6-0.8,1.3-1.6,2-2.3c2-1.8,4.5-3,7.2-3.7c6-1.4,11.7,0.2,15.3,4.5c-0.1,0.1-12.1,12.8-12.1,12.8v0.1l0,0l0.1,0.1c1,0.1,2.5-0.1,3.1-0.3c2.7-0.7,4.3-2,5.9-3.9c0.1,0.1,0.9,0.8,1.9,1.8c0.9,0.8,2,1.8,2.9,2.6c0.8,0.7,1.3,1.1,1.3,1.2C170.9,155.2,170.4,155.7,169.7,156.3z M195.5,173.5c0-0.1-2.7-17.4-2.7-17.4c0-0.1-0.1-0.1-0.1-0.1c-0.1,0-0.1,0-0.1,0.1c0,0-3.5,9-3.6,9.4c-0.1-0.4-5.5-11.8-5.5-11.8s-0.1-0.1-0.1-0.1s-0.1,0-0.1,0.1c0,0-2.2,13.7-2.2,13.8c-0.1,0-8.9-1.6-9.1-1.6c0-0.1,1.3-7.7,1.3-7.7l1-1l3-3.1v-0.1l0,0v-0.1c0,0-2.8-2.5-2.9-2.6c0-0.1,3-18.2,3.1-18.4c0.1,0,9,0,9.2,0c0,0.1,2.3,12.8,2.3,12.8c0,0.1,0.1,0.1,0.1,0.1c0.1,0,0.1,0,0.1-0.1c0,0,2.6-14.6,2.7-14.8c0.1,0,6.4,0,6.6,0c0,0.1,2.8,17.9,2.8,18c-2.9,3.3-4.5,7.3-4.5,11.2c0,1.1,0.1,2.2,0.4,3.2c0.9,3.9,3.3,7,6.7,8.8c0,0,0.9,0.4,1,0.4c0,0.1,0.3,2,0.3,2.2C204.9,175,195.7,173.5,195.5,173.5z M218.6,167.8C218.6,167.8,218.5,167.8,218.6,167.8c-1.1,0.8-2.2,1.4-3.4,1.8c-0.1,0-0.1,0.1-0.2,0.1c-2.2,0.8-4.5,1-6.7,0.6c-1.4-0.3-2.8-0.8-3.9-1.7c-1.9-1.3-3.2-3.4-3.8-5.8c-0.7-2.9-0.1-6,1.5-9c0.8-1.4,1.8-2.7,3-3.8c1.4-1.3,2.9-2.2,4.7-2.9c2.7-1,5.3-1.1,7.7-0.4c1.1,0.3,2.2,0.8,3.1,1.5l0,0c1,0.8,1.9,1.7,2.6,2.7c0.5,0.9,0.9,1.8,1.1,2.9c0.2,0.8,0.3,1.8,0.3,2.6c0,2.7-1,5.5-2.7,7.9C221.1,165.7,219.9,166.8,218.6,167.8z M239.4,184.3c-0.1-0.1-6.6-2-6.7-2c0-0.1-0.6-25.3-0.6-25.3c0-0.1-0.1-0.1-0.1-0.1c-0.1,0-0.1,0-0.1,0.1c0,0-3.4,19.3-3.5,19.5c-0.1,0-7.2-1.1-7.3-1.1c0-0.1,0.5-5.5,0.5-5.5c4.1-3.5,6.5-8.4,6.5-13.3c0-1.1-0.1-2.2-0.4-3.4c-0.6-2.6-2-4.9-3.9-6.7c0-0.1,0.6-6.6,0.6-6.6c0-0.1,0-0.1-0.1-0.1c0,0-2.7-0.7-2.8-0.8c0-0.1,0.1-3.1,0.1-3.4c0.2,0.1,12.6,2.6,12.8,2.6c0,0.1,0.6,2.7,1.3,6.2v0.1c1.3,6,3,14.3,3,14.3c0,0.1,0.1,0.1,0.1,0.1c0.1,0,0.1,0,0.1-0.1c0,0,4.4-18.2,4.5-18.4c0.1,0.1,9.4,2.1,9.7,2.1C253.2,142.8,239.5,184.1,239.4,184.3z"/>
			<path d="M83.8,148.6c-0.3-1.8-1.5-3.1-3.1-4c-2.3-1.1-5.3-0.9-7.9,0.5c-0.1,0.1-0.1,0.1-0.1,0.2l1.3,4.5l2.9,9.6c0,0.1,0.1,0.1,0.1,0.1c0.1,0,0.1,0,0.1,0C81,156.9,84.7,154,83.8,148.6z M76.5,147.2c1-0.1,1.9-0.1,2.7,0.3c0.4,0.2,1.2,0.7,1.3,1.6c0.1,0.4,0.1,0.8,0.1,1.1c0,1.4-0.7,2.7-2,3.9c-0.1-0.5-1.7-5.4-1.7-5.4C77,148.8,76.6,147.5,76.5,147.2z"/>
			<path d="M160.5,142.8l-0.5-0.5c-1.4-1.3-3.2-2-5.1-1.9c-1.9,0.1-3.6,0.9-4.9,2.2c-1.2,1.3-1.9,3-1.9,4.8c0,0.1,0,0.2,0,0.3c0.1,1.9,0.9,3.6,2.2,4.9l0.8,0.6c0.1,0.1,0.1,0.1,0.2,0l9-10.3C160.6,142.9,160.6,142.8,160.5,142.8z M156.5,143.4c-0.4,0.4-4.8,5.4-5.1,5.8c-0.2-0.6-0.4-1.2-0.4-1.8c0-1,0.4-2.1,1.1-2.9C153.1,143.4,154.9,143,156.5,143.4z"/>
			<path d="M218.9,151.6c-0.1-0.1-0.1-0.1-0.2-0.1s-0.1,0.1-0.1,0.2l0.1,0.9c-0.1,1.3-0.9,2.3-2.1,2.8c-0.5,0.2-1.1,0.4-1.8,0.3c-1-0.1-2-0.5-2.7-1.2c-0.6-0.6-0.9-1.4-0.8-2.2c0.1-1.8,1.6-3,3.5-3.1c0.1,0,0.1-0.1,0.1-0.1c0-0.1-0.1-0.1-0.1-0.1l-1.2-0.1c-1.9-0.1-3.7,0.6-5,1.8c-1.1,1-1.8,2.5-1.9,4c-0.1,3.5,2.7,6.3,6.3,6.5c1.1,0.1,2.1-0.1,3-0.5c2.2-0.9,3.7-2.9,3.9-5.4C219.9,153.8,219.6,152.6,218.9,151.6z"/>
			<path d="M109.3,154.5c-0.1-0.1-0.1-0.1-0.2-0.1c-0.1,0-0.1,0.1-0.1,0.2l0.1,0.9c0,1-0.5,2-1.4,2.6c-0.6,0.4-1.4,0.8-2.3,0.8c-2,0-3.7-1.5-3.7-3.3c0-1.8,1.4-3.1,3.3-3.3c0.1,0,0.1-0.1,0.1-0.1c0-0.1-0.1-0.1-0.1-0.1l-1.2-0.1c-3.6,0-6.7,2.7-6.7,6c0,3.5,2.9,6.3,6.6,6.3c1.7,0,3.1-0.5,4.4-1.5c1.3-1.1,2.2-2.8,2.2-4.8C110.4,156.6,110,155.5,109.3,154.5z"/>
			<polygon points="250.9,187.4 250.1,185.3 249,185.3 249,188.9 249.8,188.9 249.8,186.1 249.8,186.1 250.7,188.9 251.1,188.9 252,186.1 252,186.1 252,188.9 252.7,188.9 252.7,185.3 251.6,185.3"/>
			<polygon points="245.9,186.1 246.9,186.1 246.9,188.9 247.7,188.9 247.7,186.1 248.7,186.1 248.7,185.3 245.9,185.3"/>
		</g>
    </symbol>
    <symbol id="soundersfc" viewBox="35 35 230 230">
        <title>SoundersFC</title>
        <g fill="white">
			<path d="M185.1,149.9c-0.1,1.2-0.1,2.3-0.1,3.3c0,1.1,0,2.2,0,3.3c0,1.1,0,2.2,0,3.3c-0.9-0.1-1.7-0.1-2.4-0.2c-0.8-0.1-1.7-0.2-2.5-0.3c-0.9-0.1-1-0.1-1-1c0-2.5,0-5,0-7.5c0-4.8,0-9.6,0-14.4c0-0.6-0.1-1.1-0.6-1.5c-0.7-0.7-1.3-1.5-2.1-2.3c0.3,0,0.4-0.1,0.5-0.1c2.1,0.2,4.1,0.4,6.2,0.7c2.3,0.3,4.6,0.5,6.9,0.8c3.6,0.4,6.6,3,7.6,6.6c0.4,1.5,0.5,3,0.3,4.5c-0.3,2.2-1.5,3.7-3.4,4.7c-0.8,0.4-0.8,0.4-0.4,1.2c0.8,1.8,1.7,3.7,2.6,5.5c0.8,1.6,1.5,3.3,2.3,4.9c0.1,0.1,0,0.3,0.1,0.5c-0.4,0-0.7,0-1.1-0.1c-1.5-0.2-3-0.5-4.5-0.7c-0.7-0.1-1.2-0.4-1.5-1.2c-1.3-2.9-2.6-5.9-3.9-8.8c-0.2-0.6-0.5-1-1.3-1C186.4,150.2,185.8,150,185.1,149.9z M185.1,139c0,0.1-0.1,0.2-0.1,0.3c0,1.6,0,3.2,0,4.8c0,0.5,0.3,0.7,0.7,0.7c1.3,0.2,2.7,0.4,4,0.5c0.3,0,0.5,0,0.8,0c0.9-0.1,1.5-0.6,1.7-1.5c0.6-1.7-0.5-3.8-2.3-4.3c-1.5-0.4-3-0.5-4.5-0.7C185.3,138.9,185.3,139,185.1,139z"/>
			<path d="M112,146.6c0.5,0.7,0.9,1.4,1.4,2c0.3,0.5,0.5,0.9,0.5,1.5c0,3.1-0.1,6.1-0.1,9.2c0,0.7,0,0.7-0.8,0.8c-1.6,0.2-3.1,0.4-4.7,0.6c-0.2,0-0.5,0-0.7,0c-0.2-0.8-0.2-26.4,0-27.1c4.8,3.9,9.5,7.9,14.3,11.8c0.1,0,0.1-0.1,0.2-0.1c0-0.3,0.1-0.6,0.1-1c0-3.4,0-6.7,0-10.1c0-0.3,0-0.6,0-0.9c0-0.8,0.1-0.8,0.8-0.9c0.6-0.1,1.3-0.1,1.9-0.2c1.1-0.1,2.3-0.2,3.5-0.2c0,0.3,0.1,0.5,0.1,0.7c0,0.4,0,0.8,0,1.2c0,8,0,16.1,0.1,24.1c0,0.3,0,0.6,0,1c-1.1-0.7-1.9-1.4-2.8-2.1c-0.9-0.7-1.8-1.4-2.7-2.1c-0.9-0.7-1.8-1.5-2.8-2.2c-0.9-0.7-1.8-1.4-2.7-2.1c-0.9-0.7-1.8-1.4-2.7-2.1c-0.9-0.7-1.8-1.4-2.7-2.1C112.1,146.4,112.1,146.5,112,146.6z"/>
			<path d="M87.7,137.9c0,0.4,0.1,0.7,0.1,1.1c0,4.8,0,9.7,0,14.5c0,1.1,0.1,2.2,0.5,3.2c0.7,1.7,2,2.5,3.8,2.2c2.2-0.4,3.6-1.6,4.4-4.1c0.3-1,0.4-2.1,0.4-3.1c0-4.9,0-9.8,0-14.7c0-0.3,0-0.7,0.1-1c2.5-0.4,5-0.8,7.6-1.2c-0.2,0.3-0.3,0.4-0.4,0.6c-0.3,0.3-0.6,0.7-0.8,1c-0.6,0.6-0.8,1.3-0.8,2.2c0.1,4.3,0.1,8.7,0,13c0,2.5-0.5,5-1.6,7.2c-1.4,2.8-3.6,4.6-6.5,5.5c-1.8,0.6-3.6,0.9-5.4,0.7c-2.9-0.4-4.8-2-5.8-4.7c-0.5-1.4-0.7-2.9-0.7-4.4c0-5.3-0.1-10.6-0.1-15.9c0-0.2,0-0.4,0-0.6c0-0.4,0.2-0.6,0.5-0.7c1.5-0.3,3.1-0.6,4.6-0.9C87.5,137.8,87.5,137.8,87.7,137.9z"/>
			<path d="M154.6,141.5c0.6,0.1,1.2,0.1,1.8,0.2c0.8,0.1,0.9,0,0.9-0.8c0-2.4,0-4.9,0-7.3c0-0.5,0-1,0.1-1.5c0.1-0.6,0.1-0.7,0.7-0.7c1.4,0.1,2.7,0.1,4.1,0.2c2,0.1,4,0.2,6,0.3c1.7,0.1,3.3,0.2,5,0.3c0.4,0,0.6,0.2,0.6,0.6c0,1.4,0,2.9,0,4.3c0,0.6-0.1,0.6-0.8,0.6c-2.9-0.2-5.8-0.3-8.7-0.5c-0.3,0-0.5,0-0.8,0c-0.1,0.2-0.1,0.4-0.1,0.5c0,1.2-0.1,2.4-0.1,3.6c0,0.8,0.1,0.9,0.9,1c2.3,0.2,4.6,0.4,6.9,0.6c0.3,0,0.5,0.1,0.9,0.1c-0.1,0.3-0.2,0.5-0.3,0.7c-0.7,1.1-1.4,2.1-2.1,3.2c-0.3,0.4-0.5,0.6-1.1,0.5c-1.3-0.2-2.5-0.2-3.8-0.3c-0.4,0-0.9,0-1.4-0.1c0,0.3-0.1,0.5-0.1,0.7c0,1.4,0,2.8,0.1,4.1c0,0.7,0.1,0.8,0.8,0.8c2.9,0.2,5.9,0.5,8.8,0.7c0.7,0.1,0.8,0.2,0.8,0.9c0,1.3,0,2.6,0,3.9c0,0.6-0.1,0.7-0.7,0.7c-1.3-0.1-2.5-0.1-3.8-0.2c-2.4-0.1-4.9-0.3-7.3-0.5c-1.1-0.1-2.2-0.1-3.3-0.2c-0.3,0-0.5,0-0.8,0c-0.4,0-0.6-0.3-0.6-0.7c0-0.2,0-0.4,0-0.6c0-1.4,0-2.8,0-4.2c0-2.5-0.1-4.9-0.1-7.4c0-0.5-0.2-0.9-0.5-1.2c-0.6-0.5-1.2-1.1-1.8-1.6c-0.2-0.2-0.4-0.3-0.6-0.5C154.6,141.7,154.6,141.6,154.6,141.5z"/>
			<path d="M267,162.2c-0.3-0.2-0.6-0.4-0.8-0.6c-1.6-1.5-3.4-2.7-5.5-3.4c-0.9-0.3-1.9-0.6-2.9-0.5c-2.2,0.1-3.8,1.5-4.3,3.7c-1.1,4.7,1.1,10.3,6,12.8c2.3,1.2,4.7,1.5,7.3,1c0.1,0,0.2,0,0.4,0c0.8,1.9,1.2,4,1.9,6c-0.8,0.2-1.5,0.4-2.1,0.4c-2.4,0.2-4.7-0.2-6.9-1.2c-5.5-2.3-9.4-6.3-11.7-11.8c-1.4-3.3-1.9-6.8-1.1-10.4c0.6-2.9,2-5.2,4.9-6.4c1.4-0.6,2.8-0.7,4.3-0.6c4.7,0.3,8.4,2.5,11.8,5.6c0.5,0.5,0.6,0.9,0.3,1.5c-0.5,1.1-0.9,2.2-1.3,3.4C267.2,161.9,267.1,162,267,162.2z"/>
			<path d="M202.4,154.8c0.9,0.7,1.7,1.3,2.5,1.8c1.3,0.9,2.7,1.5,4.3,2c0.4,0.1,0.9,0.2,1.4,0.2c1.6,0.1,2.4-1.2,1.9-2.7c-0.3-0.9-0.9-1.5-1.6-2c-1.4-1-2.8-1.9-4.2-2.8c-1.6-1.1-3-2.5-4-4.2c-1.1-2-1.4-4.1-0.7-6.3c0.6-1.8,1.8-2.9,3.6-3.5c2-0.6,4-0.4,5.9,0.1c2,0.5,3.9,1.4,5.5,2.7c0.8,0.6,0.8,0.7,0.5,1.5c-0.3,1.1-0.6,2.2-0.9,3.2c-0.1,0.3-0.2,0.6-0.4,1c-0.3-0.2-0.5-0.3-0.6-0.4c-1.4-1.1-3-2.2-4.8-2.7c-0.6-0.2-1.3-0.2-1.9-0.1c-1.1,0.1-1.7,1.2-1.4,2.2c0.3,0.9,0.9,1.5,1.6,2.1c1,0.7,2,1.4,3.1,2c1.5,0.9,2.9,2,4,3.3c1.8,2,2.4,4.3,2.2,6.9c-0.1,1.3-0.6,2.5-1.4,3.5c-1.2,1.4-2.7,2-4.5,2.1c-2,0.1-3.9-0.3-5.8-1c-2-0.8-3.8-1.8-5.5-3.1c-0.6-0.5-0.6-0.6-0.4-1.3c0.3-1,0.6-2.1,0.9-3.1C202.1,155.7,202.3,155.3,202.4,154.8z"/>
			<path d="M236.8,171.2c-0.7-0.2-1.3-0.3-1.8-0.5c-1.1-0.3-2.2-0.6-3.3-0.9c-0.9-0.2-0.9-0.3-0.9-1.2c0-3.8,0-7.6,0-11.4c0-0.8-0.2-1.4-0.8-2c-0.6-0.6-1.2-1.3-1.8-1.9c-0.1-0.1-0.2-0.3-0.4-0.6c0.4,0.1,0.6,0.1,0.8,0.1c0.5,0.1,1,0.3,1.5,0.4c0.5,0.1,0.6,0,0.7-0.5c0-0.2,0-0.4,0-0.6c0-3.1,0-6.3,0-9.4c0-0.3,0-0.6,0-1.1c5.5,1.4,10.9,2.9,16.2,4.3c0.2,0.7,0.2,5.1,0,5.9c-3.3-0.8-6.6-1.8-10.1-2.6c0,0.3-0.1,0.6-0.1,0.8c0,1.4,0,2.8,0,4.1c0,0.7,0,0.7,0.7,0.9c2.6,0.7,5.1,1.4,7.7,2.1c0.1,0,0.2,0.1,0.4,0.2c-0.1,0.2-0.2,0.4-0.3,0.6c-0.7,1-1.5,2-2.2,3c-0.3,0.4-0.6,0.5-1,0.3c-1.5-0.4-3-0.8-4.5-1.2c-0.2-0.1-0.4-0.1-0.8-0.1c-0.1,1.9-0.1,3.7-0.1,5.5C236.8,167.4,236.8,169.2,236.8,171.2z"/>
			<path d="M87.4,129c0.7,1.2,0.7,1.2,2,0.9c0.9-0.2,1.7-0.3,2.6-0.5c0.5-0.1,1-0.2,1.4-0.3c0.5-0.1,0.7-0.5,0.8-0.9c0.1-0.5-0.2-0.9-0.7-0.9c-0.4,0-0.9,0-1.3,0.1c-1.5,0.3-3,0.6-4.6,0.8c-0.5,0.1-1,0.1-1.5,0.1c-1-0.1-1.5-0.6-1.6-1.6c-0.1-0.7,0-1.4,0-2.1c0-1.7,1.1-2.8,2.5-3.2c1.6-0.4,3.2-0.8,4.9-1.1c1-0.2,1.9-0.3,2.9-0.4c1.8-0.1,2.4,1,2.3,2.4c0,0.2,0,0.4,0,0.7c-1,0.5-2,0.5-2.9,0.6c-0.6-1-0.8-1-1.9-0.8c-1.1,0.2-2.2,0.4-3.3,0.7c-0.4,0.1-0.8,0.3-1.1,0.6c-0.5,0.6-0.2,1.2,0.5,1.2c0.6,0,1.1-0.1,1.7-0.2c1.3-0.2,2.5-0.5,3.8-0.7c0.6-0.1,1.1-0.1,1.7-0.1c1,0,1.6,0.4,1.8,1.4c0.2,1.2,0.2,2.3-0.1,3.5c-0.3,0.9-0.9,1.5-1.8,1.9c-0.7,0.3-1.5,0.5-2.3,0.7c-1.7,0.4-3.5,0.7-5.2,1c-0.6,0.1-1.2,0.1-1.8,0.1c-0.8,0-1.3-0.4-1.6-1.1c-0.2-0.6-0.1-1.2-0.1-1.9c0-0.1,0.2-0.4,0.4-0.4C85.7,129.3,86.6,129.2,87.4,129z"/>
			<path d="M118.3,116.4c0,1,0,1.8,0,2.6c-0.3,0.1-0.5,0.1-0.7,0.2c-2.2,0.3-4.4,0.5-6.6,0.8c-0.3,0-0.7,0.2-0.7,0.3c-0.1,0.4,0,0.9,0,1.3c0,0.1,0.3,0.2,0.5,0.2c0.5,0,0.9-0.1,1.4-0.1c1.4-0.2,2.8-0.4,4.3-0.6c0.4-0.1,0.8,0,1.4-0.1c-0.4,0.8-0.6,1.5-1,2.2c-0.1,0.2-0.4,0.3-0.6,0.3c-1.6,0.2-3.3,0.4-4.9,0.6c-0.2,0-0.5,0-0.7,0.1c-0.3,0-0.5,0.2-0.5,0.5c0,0.1,0,0.1,0,0.2c-0.1,1.4,0.1,1.2,1.1,1.1c1.6-0.2,3.2-0.4,4.9-0.6c0.5-0.1,1-0.1,1.5-0.2c0.7,0,0.8,0,0.8,0.7c0,0.5,0,0.9,0,1.4c0,0.5-0.2,0.7-0.7,0.7c-0.7,0.1-1.4,0.2-2.1,0.3c-2.7,0.3-5.3,0.6-8,1c-0.5,0.1-0.6,0-0.6-0.6c0-0.1,0-0.2,0-0.3c0-3.2,0-6.4,0-9.6c0-0.9,0-0.9,0.9-1c2.4-0.3,4.8-0.6,7.2-0.9c0.5-0.1,1.1-0.2,1.6-0.2C117.2,116.5,117.7,116.4,118.3,116.4z"/>
			<path d="M216,124.5c-1-0.2-1.9-0.4-2.8-0.5c-1.5-0.3-3-0.6-4.6-0.9c-0.7-0.1-0.8,0-0.9,0.4c-0.1,0.8,0.1,1.3,0.6,1.4c0.5,0.1,1,0.2,1.5,0.3c1.5,0.3,3,0.5,4.5,0.8c0.3,0.1,0.6,0.2,1,0.3c-0.2,0.8-0.8,1.4-1.2,2.1c-1-0.2-1.9-0.4-2.9-0.5c-1-0.2-1.9-0.4-2.9-0.5c-0.6-0.1-0.7,0-0.7,0.6c0,0.9,0.1,1,1,1.2c2.3,0.4,4.7,0.9,7,1.4c0.1,0,0.2,0.1,0.4,0.1c0,0.8,0,1.7,0,2.7c-2-0.3-3.8-0.7-5.7-1.1c-1.9-0.3-3.8-0.7-5.6-1.1c-0.2-0.7-0.2-10.5,0-11.5c0.2,0,0.4,0,0.6,0c3.3,0.7,6.7,1.3,10,2c0.7,0.1,0.7,0.1,0.7,0.8C216,123.1,216,123.7,216,124.5z"/>
			<path d="M156,117.8c0,0.4,0,0.7,0,1c0,2.1,0,4.2,0,6.4c0,0.2,0,0.4,0,0.6c0,0.4-0.2,0.6-0.6,0.6c-0.6,0-1.2,0-1.8-0.1c-0.8-0.1-0.8-0.1-0.8-0.9c0-1.9,0-3.7,0-5.6c0-0.5,0-1,0-1.5c0-0.5-0.1-0.7-0.7-0.7c-0.6,0-1.3,0-1.9,0c-0.2,0-0.4,0-0.6,0c-1.3-0.1-1.3-0.1-1.3-1.4c0-1.8-0.1-1.6,1.6-1.6c3.3,0,6.6,0.1,9.9,0.2c0.6,0,0.7,0.1,0.7,0.7c0,0.4,0,0.9,0,1.3c0,0.8-0.1,0.9-1,0.9c-0.8,0-1.7,0-2.5,0C156.8,117.8,156.5,117.8,156,117.8z"/>
			<path d="M178.7,118.9c-1.1-0.1-2.1-0.1-3.1-0.2c0,0-0.1,0-0.1,0c-1-0.1-1.1,0-1.1,1c0,2.2,0,4.4,0,6.5c0,0.3,0,0.6,0,0.9c-1,0.2-1.9,0-2.7-0.1c-0.2,0-0.4-0.3-0.4-0.5c-0.1-0.2,0-0.5,0-0.7c0-2.2,0-4.3,0-6.5c0-1,0-1-1-1.1c-0.9-0.1-1.9-0.1-2.8-0.2c-0.2,0-0.3,0-0.6-0.1c-0.1-0.9-0.1-1.8,0-2.8c1.4,0.1,2.6,0.1,3.9,0.2c1.5,0.1,3.1,0.2,4.6,0.3c1,0.1,1.9,0.2,2.9,0.2c0.3,0,0.5,0.1,0.5,0.4C178.7,117.2,178.8,118,178.7,118.9z"/>
			<path d="M190.3,125.9c0.4,0.1,0.6,0.1,0.9,0.2c1.5,0.2,3,0.4,4.5,0.6c0.3,0,0.7,0.1,1,0.2c0.6,0.1,0.7,0.2,0.7,0.8c0,0.5,0,1.1,0,1.6c0,0.5-0.1,0.6-0.6,0.5c-1.3-0.1-2.5-0.3-3.8-0.5c-1.4-0.2-2.9-0.4-4.3-0.6c-0.3,0-0.6-0.1-0.8-0.1c-0.7-0.1-0.7-0.2-0.7-0.9c0-3.3,0-6.7,0-10c0-0.2,0.1-0.4,0.1-0.7c1,0.1,2,0.1,3.1,0.5C190.3,120.3,190.3,123,190.3,125.9z"/>
			<path d="M78.4,146.8c-1.5-3-3.9-4.8-7.4-5c-2.5-0.2-4.8,0.4-7,1.5c-4.7,2.3-7.6,6.1-9.2,11c-0.8,2.5-1,5.1-0.8,7.7c0.1,1.5,0.5,3,1.1,4.4c1.8,3.8,5,5.6,8.9,5.3c3.8-0.3,7.1-1.9,9.9-4.5c3.8-3.7,5.6-8.4,5.8-14c-0.1-0.6-0.2-1.5-0.2-2.4C79.4,149.3,79,148,78.4,146.8z M70.7,162.9c-1.4,1.6-3.1,2.6-5.2,2.6c-2,0.1-3.3-1-4.3-2.6c-0.6-1.1-0.9-2.3-0.9-3.5c-0.2-2.6,0.3-5,1.6-7.3c1.2-2.1,2.9-3.5,5.2-4.2c2.2-0.6,4.3,0.3,5.4,2.3c0.8,1.5,1.1,3.1,1,5.4C73.4,158,72.7,160.7,70.7,162.9z"/>
			<path d="M50.2,162.5c-0.7-0.4-1.6-0.7-2.4-0.9c-1.1-0.2-2.2-0.3-3.3-0.4c-0.6-0.1-1.3-0.2-1.9-0.3c-1-0.3-1.4-0.9-1.3-1.8c0-1,0.5-1.7,1.2-2.3c1.1-1,2.4-1.5,3.9-1.5c1.1,0,2.2,0,3.2,0.3c0.7,0.2,0.8,0.1,0.9-0.6c0.4-1.7,0.8-3.3,1.2-5c0.2-0.7,0.1-0.9-0.6-1c-1.3-0.1-2.6-0.2-3.9,0c-4.2,0.7-7.6,2.7-10.1,6.1c-1.7,2.3-2.5,4.8-2.1,7.7c0.2,1.9,1.2,3.3,3,4.1c1.2,0.5,2.5,0.6,3.8,0.8c1,0.1,2.1,0.3,3.1,0.6c0.8,0.2,1.2,0.9,1.2,1.8c0,1.2-0.5,2.1-1.4,2.8c-1.1,0.8-2.4,1.2-3.7,1.4c-1.5,0.2-3,0.2-4.5-0.3c-0.3-0.1-0.5-0.1-0.8-0.2c-0.1,0.2-0.2,0.3-0.2,0.5c-0.2,0.9-0.5,1.7-0.7,2.6c-0.2,0.9-0.5,1.9-0.7,2.8c-0.1,0.6,0,0.8,0.5,0.9c1.1,0.2,2.2,0.4,3.2,0.4c2.8-0.1,5.4-0.7,7.8-2.1c4.4-2.7,7.1-6.5,6.9-11.9C52.4,165,51.9,163.4,50.2,162.5z"/>
			<path d="M152.1,139.7c0-1.3-0.2-2.6-0.6-3.9c-0.6-1.9-1.9-3.2-3.8-3.8c-1.2-0.4-2.4-0.6-3.7-0.6c-0.9,0-1.8,0.1-2.7,0.1c-2.4,0.1-4.8,0.2-7.2,0.3c-0.6,0-1.3,0.1-2.1,0.2c0.6,0.7,1.1,1.3,1.6,1.8c0.5,0.5,0.7,1.1,0.7,1.8c0,6,0,12,0,18.1c0,0.6,0,1.2,0,1.8c0,0.9,0,1.8,0,2.9c1-0.1,1.9-0.1,2.8-0.2c2.3-0.1,4.5-0.1,6.8-0.2c3.1-0.1,5.4-1.6,7-4.2c0.9-1.5,1.3-3.2,1.3-5C152.1,145.7,152.1,142.7,152.1,139.7z M146.8,148c0,0.7-0.1,1.3-0.2,2c-0.4,1.4-1.5,2.2-2.9,2.4c-1.1,0.1-2.2,0.1-3.3,0.1c-0.3,0-0.5-0.2-0.5-0.5c0-0.2,0-0.4,0-0.6c0-2.3,0-4.5,0-6.8c0-2.3,0-4.6,0-6.9c0-0.9,0-1,1-0.9c0.9,0,1.8,0,2.7,0.1c1.7,0.1,2.7,1,3,2.7c0.1,0.7,0.2,1.5,0.2,2.2C146.8,143.8,146.8,145.9,146.8,148z"/>
			<path d="M141.6,124.7c-1.5-3-3.1-6.1-4.6-9.1c-0.2-0.5-0.5-0.7-1.1-0.6c-0.9,0.1-1.9,0.1-2.8,0.2c-0.5,0-0.8,0.3-1,0.7c-1.6,3.4-3.2,6.8-4.8,10.2c-0.1,0.3-0.2,0.6-0.4,1c1.1-0.1,2.1-0.2,3.1-0.2c0.3,0,0.5-0.2,0.6-0.5c0.1-0.3,0.3-0.7,0.4-1c0.2-0.4,0.4-0.6,0.8-0.6c1.4-0.1,2.8-0.2,4.2-0.3c1.1-0.1,2,0,2.4,1.3c0.1,0.3,0.3,0.5,0.6,0.5c1,0,2-0.1,3.3-0.1C142.1,125.5,141.8,125.1,141.6,124.7z M135.7,122.1c-0.8,0.1-1.6,0.1-2.4,0.2c-0.5,0-0.7-0.2-0.5-0.6c0.5-1.1,1-2.2,1.6-3.4c0.2,0.1,0.3,0.1,0.4,0.2c0.5,1,1,2,1.5,3c0.1,0.1,0.1,0.3,0.1,0.6C136.1,122,135.9,122,135.7,122.1z"/>
		</g>
    </symbol>
    <symbol id="spotify" viewBox="35 35 230 230">
        <title>Spotify</title>
        <g fill="white">
			<path d="M231.1,149.5c0,0.3,0,0.6,0,0.9c0,5.6,0,11.1,0,16.7c0,0.2,0,0.4,0,0.6c0,0.4-0.1,0.5-0.6,0.5c-1.7,0-3.4,0-5,0c-0.3,0-0.5-0.2-0.5-0.5c0-0.2,0-0.4,0-0.6c0-5.5,0-11.1,0-16.6c0-0.3,0-0.5,0-0.9c-0.2,0-0.4-0.1-0.6-0.1c-0.6,0-1.2,0-1.8,0c-0.5,0-0.6-0.1-0.6-0.6c0-0.3,0-0.6,0-1c0-0.9,0-1.8,0-2.7c0-1.1,0-1.1,1.2-1.1c0.6,0,1.1,0,1.8,0c0-0.3,0-0.6,0-0.9c0-1.2,0.1-2.3,0.4-3.5c0.8-2.6,2.6-4.1,5.2-4.6c2-0.3,4-0.2,5.9,0.4c0.6,0.2,0.6,0.2,0.6,0.8c0,1.3,0,2.6,0,3.9c0,0.7-0.1,0.8-0.8,0.6c-1-0.3-2-0.5-3.1-0.4c-1.3,0.1-2.1,0.8-2.3,2.1c-0.1,0.6-0.1,1.1-0.1,1.8c0.3,0,0.6,0,0.8,0c2.6,0,5.2,0,7.8,0c0.8,0,0.8,0,1.1,0.8c1.9,5,3.8,10,5.7,14.9c0.1,0.2,0.2,0.4,0.3,0.7c0.3-0.8,0.5-1.5,0.8-2.2c1.6-4.5,3.1-9,4.7-13.5c0.3-0.8,0.3-0.8,1.1-0.8c1.5,0,3,0,4.6,0c0.2,0,0.3,0,0.5,0c0.3,0,0.4,0.2,0.4,0.5c0,0.2-0.1,0.3-0.2,0.5c-3,7.8-6,15.6-9,23.4c-0.5,1.4-1.2,2.8-2.1,4c-1,1.4-2.3,2.3-4,2.6c-2.6,0.5-5.1,0.1-7.5-1.2c-0.4-0.2-0.5-0.4-0.3-0.8c0.5-1.2,1.1-2.3,1.6-3.5c0.2-0.5,0.4-0.6,0.9-0.3c0.7,0.3,1.4,0.6,2.2,0.7c1.8,0.2,2.6-0.7,3.2-2.1c0.1-0.2,0-0.5-0.1-0.7c-1.1-2.7-2.3-5.4-3.4-8.2c-1.2-3-2.5-6-3.7-9c-0.3-0.7-0.2-0.6-1-0.7c-1.2,0-2.3,0-3.5,0C231.6,149.5,231.3,149.5,231.1,149.5z"/>
			<path d="M182.4,143.6c5.6,0.1,10.5,3.5,12.1,8.7c2.4,7.3-2.3,15-9.9,16.2c-4.3,0.7-8.2-0.3-11.3-3.3c-2.7-2.6-3.9-5.8-3.8-9.6c0.2-5.6,4.2-10.7,10.5-11.8C180.8,143.7,181.6,143.7,182.4,143.6z M175.6,156.1c0,0.9,0.1,1.8,0.4,2.7c1,2.7,3.3,4.4,6.1,4.5c2.9,0.1,5.3-1.5,6.3-4.1c0.7-1.9,0.8-3.8,0-5.7c-2-5.1-8.1-5.5-11-2.3C176.2,152.6,175.6,154.3,175.6,156.1z"/>
			<path d="M198.5,149.5c-0.4,0-0.7,0-1,0c-0.4,0-0.8,0-1.2,0c-0.6,0-0.6-0.1-0.7-0.6c0,0,0,0,0-0.1c0-1.3,0-2.6,0-3.9c0-0.6,0.1-0.7,0.7-0.7c0.7,0,1.4,0,2.2,0c0-0.3,0-0.6,0-0.8c0-1.6,0-3.2,0-4.8c0-0.8,0.1-0.8,0.8-0.8c1.5,0,3,0,4.5,0c0.8,0,0.8,0.1,0.8,0.8c0,1.6,0,3.2,0,4.8c0,0.2,0,0.5,0,0.8c0.3,0,0.6,0,0.8,0c1.5,0,3,0,4.6,0c0.9,0,0.9,0,0.9,0.9c0,1.2,0,2.4,0,3.6c0,0.8,0,0.9-0.8,0.9c-1.6,0-3.1,0-4.7,0c-0.2,0-0.4,0-0.7,0c0,0.2,0,0.4,0,0.6c0,3.4,0,6.8,0,10.2c0,0.3,0,0.6,0,0.9c0.1,1,0.7,1.6,1.8,1.7c1,0.1,2.1,0,3.1-0.4c0.1,0,0.3-0.1,0.4-0.2c0.8-0.3,0.9-0.2,0.9,0.6c0,1.2,0,2.3,0,3.5c0,0.6-0.2,0.9-0.7,1.1c-1.7,0.8-3.4,1.1-5.2,0.9c-0.6,0-1.1-0.1-1.7-0.2c-2.4-0.6-3.9-2.1-4.4-4.6c-0.2-0.9-0.2-1.7-0.2-2.6c0-3.6,0-7.2,0-10.8C198.5,150.1,198.5,149.8,198.5,149.5z"/>
			<path d="M219.5,156.2c0,3.6,0,7.3,0,10.9c0,0.2,0,0.4,0,0.6c0,0.4-0.1,0.5-0.5,0.5c-0.5,0-1,0-1.5,0c-1.1,0-2.2,0-3.2,0c-0.7,0-0.8-0.1-0.8-0.8c0-3.5,0-6.9,0-10.4c0-3.9,0-7.9,0-11.8c0-0.2,0-0.3,0-0.5c0-0.5,0.1-0.6,0.7-0.6c0.1,0,0.2,0,0.3,0c1.5,0,2.9,0,4.4,0c0.8,0,0.8,0,0.8,0.8C219.5,148.7,219.5,152.5,219.5,156.2z"/>
			<path d="M216.5,141.2c-2.1,0-3.8-1.7-3.8-3.8c0-2.2,1.7-3.8,3.9-3.8c2.1,0,3.8,1.7,3.8,3.8C220.3,139.5,218.6,141.2,216.5,141.2z"/>
			<path d="M259.5,147.8c0-2.1,1.7-3.8,3.8-3.8c2.1,0,3.7,1.7,3.7,3.8c0,2.1-1.7,3.8-3.8,3.8C261.1,151.6,259.5,149.9,259.5,147.8z M263.3,144.5c-1.9,0-3.4,1.5-3.4,3.4c0,1.9,1.4,3.3,3.3,3.4c1.9,0,3.4-1.5,3.4-3.4C266.6,146,265.2,144.5,263.3,144.5z"/>
			<path d="M71.3,117.6c-18.7-0.1-34.6,15-34.6,34.5c-0.1,19.1,15.4,34.6,34.5,34.6c19,0,34.5-15.4,34.5-34.5C105.8,133.2,90.4,117.7,71.3,117.6z M87.2,167.1c-0.4,1.1-1.7,1.7-2.8,1.2c-0.2-0.1-0.4-0.2-0.7-0.4c-3.7-2.2-7.7-3.5-12-4.2c-4.3-0.6-8.7-0.5-13,0.1c-1.7,0.3-3.3,0.6-5,0.9c-1.3,0.2-2.4-0.4-2.6-1.6c-0.3-1.2,0.5-2.3,1.7-2.6c4.3-1,8.6-1.6,13-1.6c5.8,0,11.3,1,16.6,3.4c1.3,0.6,2.6,1.3,3.9,2.1C87.3,165.1,87.6,166.1,87.2,167.1z M91.5,157.7c-0.6,1.4-2.2,2.1-3.6,1.4c-0.1-0.1-0.3-0.2-0.4-0.2c-4.1-2.5-8.5-3.9-13.2-4.8c-3.2-0.6-6.4-0.9-9.6-0.8c-3.8,0.1-7.5,0.5-11.2,1.6c-0.6,0.2-1.3,0.3-1.9,0.1c-1.1-0.4-1.8-1.3-1.9-2.5c0-1.1,0.7-2.2,1.8-2.6c0.9-0.3,1.9-0.6,2.9-0.8c3.7-0.9,7.4-1.2,11.6-1.3c6.8,0.1,13.8,1.4,20.4,4.4c1.4,0.6,2.7,1.4,4,2.1C91.6,155.1,92,156.4,91.5,157.7z M92.2,148.5c-0.2-0.1-0.3-0.1-0.5-0.2c-3.7-2.2-7.7-3.5-11.8-4.4c-5.6-1.2-11.2-1.6-16.9-1.4c-3.9,0.2-7.7,0.7-11.4,1.8c-1.7,0.5-3.3-0.3-3.9-1.9c-0.6-1.5,0-3.3,1.5-4c0.3-0.1,0.5-0.2,0.8-0.3c2.9-0.8,5.9-1.4,8.9-1.7c2.5-0.3,5-0.4,7.4-0.4c6.9,0,13.7,0.9,20.3,3c2.9,0.9,5.7,2.1,8.3,3.7c1.2,0.7,1.7,1.7,1.7,3C96.4,147.8,94.2,149.3,92.2,148.5z"/>
			<path d="M160.2,144.3c-4.1-1.4-7.7-0.7-10.7,2.5c-0.1,0.1-0.1,0.2-0.2,0.3c-0.1,0-0.1,0-0.2-0.1c0-0.7,0-1.4,0-2.1c0-0.7-0.1-0.8-0.8-0.8c-1.4,0-2.9,0-4.3,0c-1.1,0-1.1,0-1.1,1.1c0,9.6,0,19.3,0,28.9c0,0.2,0,0.3,0,0.5c0,0.5,0.1,0.6,0.6,0.6c1.6,0,3.3,0,4.9,0c0.5,0,0.6-0.1,0.6-0.6c0-0.2,0-0.3,0-0.5c0-2.6,0-5.3,0-7.9c0-0.2,0-0.5,0-0.7c0.1,0,0.1-0.1,0.2-0.1c0.2,0.2,0.3,0.4,0.5,0.6c1.5,1.5,3.4,2.4,5.5,2.6c4.8,0.5,9.4-2,11.3-6.5c1.5-3.4,1.6-7,0.5-10.5C166,148,163.8,145.5,160.2,144.3z M160.9,159.7c-1.9,4.3-7.5,4.6-10.2,1.4c-2.3-2.7-2.3-7.2,0-9.9c2.8-3.3,8-2.8,10,1.1c0.6,1.2,0.9,2.5,0.9,3.6C161.6,157.4,161.4,158.6,160.9,159.7z"/>
			<path d="M137.8,152.5c-0.7-0.5-1.5-1-2.3-1.4c-1.3-0.5-2.7-1-4-1.4c-1.5-0.5-3-0.8-4.4-1.3c-0.7-0.2-1.4-0.6-2.1-1c-0.6-0.3-1-0.9-1.2-1.6c-0.4-1.5,0.2-2.8,1.5-3.5c0.8-0.4,1.6-0.6,2.5-0.7c2.1-0.1,4,0.4,5.8,1.3c0.9,0.5,1.8,1.1,2.7,1.7c0.4,0.3,0.5,0.3,0.8-0.1c0.9-1.3,1.8-2.6,2.8-3.9c0.2-0.3,0.1-0.5-0.1-0.7c-0.1-0.1-0.2-0.2-0.3-0.3c-3.1-2.3-6.5-3.5-10.4-3.6c-2.1,0-4.1,0.2-6,1.1c-2.5,1.1-4.3,2.9-5.2,5.6c-0.5,1.5-0.5,3.1-0.2,4.7c0.3,1.9,1.3,3.5,2.9,4.6c0.7,0.5,1.5,1,2.3,1.3c1.3,0.5,2.7,1,4,1.4c1.5,0.5,3,0.8,4.5,1.3c0.7,0.2,1.4,0.6,2.1,1c0.6,0.3,1,0.8,1.1,1.4c0.4,1.5,0,2.8-1.4,3.7c-0.7,0.4-1.5,0.7-2.3,0.7c-2.5,0.3-4.9-0.2-7.1-1.3c-1.2-0.6-2.2-1.3-3.2-2.2c-0.8-0.6-0.8-0.6-1.4,0.1c-0.8,1-1.6,1.9-2.4,2.9c-0.7,0.9-0.7,0.9,0.2,1.6c3.3,2.7,7,4.2,11.2,4.5c2.2,0.2,4.4,0,6.5-0.8c2.9-1.1,5-2.9,5.9-5.9c0.4-1.4,0.5-2.9,0.3-4.4C140.5,155.4,139.5,153.7,137.8,152.5z"/>
			<path d="M265.1,149.6c-0.6,0.2-1,0-1.2-0.5c-0.1-0.1-0.2-0.2-0.2-0.3c-0.2-0.5-0.6-0.6-1.1-0.4c0,0.4,0,0.8-0.1,1.2c-0.2,0-0.4,0-0.7,0c0-1.3,0-2.6,0-3.9c0.7,0,1.4,0,2.1,0c0.5,0,0.9,0.4,1.1,0.9c0.1,0.6-0.1,1-0.6,1.4c-0.1,0-0.1,0.1-0.2,0.2C264.5,148.7,264.8,149.2,265.1,149.6z M262.5,147.7c0.4,0,0.8,0,1.1,0c0.4,0,0.6-0.3,0.6-0.6c0-0.3-0.2-0.5-0.5-0.6c-0.4,0-0.8,0-1.2,0C262.5,146.9,262.5,147.3,262.5,147.7z"/>
		</g>
    </symbol>
    <symbol id="ubisoft" viewBox="35 35 230 230">
        <title>Ubisoft</title>
        <g fill="white">
			<path d="M150.8,185.1c12.7-1,23.8-5.9,32.8-14.8c12.6-12.6,17.7-27.8,15.3-45.5c-2.9-21.6-20.5-40.1-42-43.9c-2.5-0.4-5-0.7-7.5-1.1c-1.9,0-3.7,0-5.6,0c-1.9,0.3-3.8,0.5-5.6,0.8c-30.7,4.8-50.6,35.6-42.5,65.5C102.3,170.7,125.3,187,150.8,185.1z M125.9,93.1c16.1-8.5,32.1-7,47,3.5c8.8,6.2,14.6,14.6,17.4,25c6.4,23.6-8,47.8-31.8,53.6c-8.2,2-16.4,1.9-24.5-0.7c-11.5-3.8-18.3-11.9-21.5-23.3c-4.2-14.9,5.4-32.5,23.1-35.4c10-1.6,21.5,2.9,26.9,10.6c-1.8-1.1-3.6-2.4-5.6-3.3c-14.9-6.8-31.6,4.4-31,20.8c0.4,10.9,9.1,19.9,19.9,21.1c12.3,1.3,23.1-6.9,25.2-19.9c2.8-17.5-7.9-33.2-25.2-36.9c-19.8-4.2-36.6,7.9-40.6,25.5c-0.9,4.2-1,8.4-0.5,12.7c-1.4-3.8-2.2-7.7-2.3-11.7C101.8,116,109.5,101.8,125.9,93.1z M139.5,149.7c3,2.2,7.3,1.9,10.1-0.6c2.9-2.6,3.1-6.6,0.6-11.1c3.8,3.1,5.1,7.8,3.3,12c-1.7,4-5.9,6.7-10,6.3c-4.7-0.4-8.6-3.8-9.5-8.2c-0.8-4.1,1-8.5,3.9-10C135.5,143.7,136,147.1,139.5,149.7z M158.2,143.8c-1-6.7-7.3-11.7-14.2-11.3c-7.2,0.4-13.4,6.5-12.7,15.2c-2.6-4.6-0.4-13.6,4.5-18.2c6-5.6,15.1-6.3,21.8-1.8c6.8,4.7,9.6,13.3,6.6,20.9c-3,7.6-10.8,12.2-18.6,11.1C155.8,158.4,159.2,150.2,158.2,143.8z"/>
			<path d="M111.3,208.4c-0.3-0.3-0.7-0.3-0.8-0.3c0.7-1,1.7-1.8,2-2.9c1.1-4.2-0.7-6.5-5-6.9c-0.4,0-0.8-0.1-1.2-0.1c-6,0-11.9,0-17.9,0c-0.2,0-0.3,0.1-0.6,0.2c0,6.6,0,13.3,0,19.9c7.2,0,14.4,0,21.5,0c0.4-0.2,0.9-0.2,1.3-0.5c0.8-0.6,1.8-1.1,2.2-1.9c0.9-1.7,0.9-3.7,0.2-5.5C112.7,209.5,111.9,209,111.3,208.4z M93.8,203.3c0-0.3,0.5-0.7,0.8-0.7c3.4,0,6.9,0,10.3,0c1,0,1.7,0.5,1.7,1.6c0,0.9-0.2,1.8-1.3,1.8c-3.8,0.1-7.7,0-11.6,0C93.8,205.1,93.7,204.2,93.8,203.3z M105.8,213.7c-4,0-7.9,0-12,0c0-1.2,0-2.3,0-3.6c0.7,0,1.4,0,2,0c3,0,6.1,0,9.1,0c1.6,0,2.3,0.6,2.3,1.9C107.3,213,106.8,213.7,105.8,213.7z"/>
			<path d="M149.9,206c-1.3-0.1-2.7-0.1-4-0.1c-3.1,0-6.1,0-9.2-0.1c-2-0.1-2.5-1.1-1.9-3.2c3.1,0,6.2,0,9.2,0c1.3,0,2.8-0.6,3.6,1.1c0,0.1,0.2,0.1,0.2,0.1c1.6,0,3.2,0,4.8,0c0.3-3.5-0.9-5.2-4.2-5.5c-0.7-0.1-1.3-0.1-2-0.1c-5.4,0-10.9,0-16.3,0c-0.5,0-0.9,0-1.5,0c0,2.4,0,4.6,0,6.8c0,3.7,1.9,5.6,5.7,5.6c3.9,0,7.8,0,11.7,0c0.5,0,0.9,0,1.4,0c0.4,2.7,0,3.2-2.5,3.2c-2.8,0-5.6,0-8.4,0c-1,0-2.3,0.5-2.7-1.2c0-0.1-0.2-0.1-0.3-0.1c-1.7,0-3.3,0-5,0c-0.3,3.4,0.3,4.5,3.3,5.8c5.8,0,11.7,0,17.5,0c0.2-0.1,0.5-0.2,0.7-0.3c2.3-0.7,3.3-1.9,3.3-4.3c0-1.3,0-2.6,0-3.9C153.4,207.5,152.2,206.2,149.9,206z"/>
			<path d="M168.9,198.1c-2.1,0-4.2,0-6.2,0.2c-3.3,0.3-5.3,2.1-5.6,5.4c-0.2,3.2-0.1,6.5,0.1,9.7c0.1,2.1,1.4,3.5,3.4,4.1c0.8,0.3,1.6,0.5,2.4,0.7c4.9,0,9.7,0,14.6,0c0.1-0.1,0.2-0.2,0.3-0.2c4.3-0.9,5.6-2.4,5.6-6.8c0-2.9,0-5.8,0-8.6c0-1.5,0-2.9,0-4.5c-0.6,0-1.1,0-1.6,0C177.6,198.1,173.2,198.1,168.9,198.1z M177.5,211c-0.1,1.4-1.1,2.2-2.4,2.2c-3.2,0.1-6.4,0.1-9.5,0c-1.5,0-2.3-0.9-2.5-2.5c-0.1-1.6-0.1-3.3,0-4.9c0.1-1.5,1-2.6,2.5-2.6c4-0.1,7.9,0,11.9,0C177.5,205.8,177.6,208.4,177.5,211z"/>
			<path d="M82.6,199.8c0-0.5,0-1,0-1.6c-2.1,0-3.9,0-6,0c0,0.6,0,1,0,1.5c0,3.3,0,6.6,0,9.8c0,2.8-0.9,3.7-3.7,3.8c-1.9,0-3.9,0-5.8,0c-2.7-0.1-3.6-0.9-3.6-3.6c-0.1-2.5,0-5,0-7.6c0-1.3,0-2.5,0-4c-2.1,0-4,0-6,0c0,5,0,9.9,0,14.9c0.6,1.6,1.1,3.3,2.8,4.1c1.1,0.5,2.2,0.8,3.3,1.2c6.4,0,12.8,0,19.1,0c0-0.5-0.1-1.1-0.1-1.6C82.6,211,82.6,205.4,82.6,199.8z"/>
			<path d="M188.5,218.3c1.9,0,3.9,0,5.8,0c0-1.8,0.1-3.6,0.1-5.4c0-0.9,0.3-1.2,1.2-1.2c1.9,0.1,3.8,0,5.7,0c2.4,0,4.8,0,7.2,0c0-1.7,0-3.2,0-4.9c-0.5,0-1,0-1.5,0c-3.2,0-6.5,0-9.7,0c-3.3,0-3.4-0.1-2.9-3.4c0,0,0-0.1,0.2-0.3c4.7,0,9.6,0,14.5,0c0-1.7,0-3.3,0-4.9c-6.9,0-13.8,0-20.7,0C188.5,205,188.5,211.6,188.5,218.3z"/>
			<path d="M212,203.1c2.9,0,5.6,0,8.6,0c0,1.7,0,3.3,0,4.9c0,3.4,0.1,6.9,0.1,10.3c1.9,0,3.9,0,5.8,0c0-5,0-10.1,0-15.3c3,0,5.8,0,8.6,0c0-1.7,0-3.2,0-4.8c-7.8,0-15.4,0-23.2,0C212,199.8,212,201.4,212,203.1z"/>
			<path d="M117.6,199.8c0,6.1,0,12.3-0.1,18.4c2,0,4.1,0,6.1,0c0-6.7,0-13.4,0-20.1c-2.2,0-4,0-6.1,0C117.6,198.8,117.6,199.3,117.6,199.8z"/>
			<path d="M245.9,199.2c-0.8-0.8-1.7-1.1-2.7-1.1c-1,0-1.9,0.3-2.7,1c-0.8,0.7-1.2,1.7-1.2,2.8c0,1.1,0.4,2,1.1,2.7c0.7,0.7,1.7,1.1,2.7,1.1c1.1,0,2-0.4,2.7-1.1c0.8-0.8,1.2-1.7,1.2-2.8C247,200.8,246.6,199.9,245.9,199.2z M245.4,204.2c-0.6,0.6-1.4,0.9-2.2,0.9c-0.9,0-1.6-0.3-2.3-0.9c-0.6-0.6-0.9-1.4-0.9-2.3c0-0.9,0.3-1.6,0.9-2.2c0.6-0.6,1.4-1,2.3-1c0.9,0,1.6,0.3,2.3,1c0.6,0.6,0.9,1.4,0.9,2.2C246.3,202.8,246,203.5,245.4,204.2z"/>
			<path d="M244.9,203.8c0,0,0-0.1,0-0.1v-0.4c0-0.4-0.1-0.8-0.4-1c-0.1-0.1-0.3-0.2-0.6-0.2c0.3,0,0.5-0.1,0.7-0.3c0.2-0.2,0.3-0.4,0.3-0.8c0-0.5-0.2-0.8-0.6-1c-0.2-0.1-0.5-0.2-0.8-0.2c-0.1,0-0.4,0-0.9,0s-0.9,0-1.2,0v4.3h1.1v-1.5h0.2l0.2,0c0.2,0,0.3,0,0.4,0.1c0.2,0.1,0.3,0.2,0.3,0.3c0,0.1,0.1,0.3,0.1,0.5c0,0.3,0,0.5,0.1,0.6h1.1l0-0.1C244.9,203.9,244.9,203.8,244.9,203.8z M243.6,201.6c-0.1,0.1-0.4,0.2-0.6,0.2h-0.4v-1.2h0.3c0.3,0,0.5,0,0.6,0.1c0.2,0.1,0.3,0.3,0.3,0.5C243.8,201.3,243.8,201.5,243.6,201.6z"/>
		</g>
    </symbol>

	<symbol id="xbox" viewBox="35 35 230 230">
        <title>Xbox</title>
		<path fill="white" d="M155,131.5h-4.9l-10.6,14.7l-10.6-14.7H124l13.1,18l-14.4,19.8h4.9l11.9-16.4l11.9,16.4h4.9l-14.4-19.8L155,131.5z M206.3,130.6c-10.5,0-17.8,8.1-17.8,19.8c0,11.7,7.3,19.8,17.8,19.8c10.4,0,17.7-8.1,17.7-19.8C224.1,138.7,216.9,130.6,206.3,130.6z M206.3,166.2c-7.9,0-13.6-6.5-13.6-15.8s5.6-15.8,13.6-15.8c8,0,13.5,6.5,13.5,15.8C219.9,159.7,214.3,166.2,206.3,166.2z M239.6,149.6l13.1-18h-4.9l-10.6,14.7l-10.6-14.7h-4.9l13.1,18l-14.4,19.8h4.9l11.9-16.4l11.9,16.4h4.9L239.6,149.6z M183.5,151c-0.8-0.7-1.6-1.2-2.4-1.6c2.7-1.5,4.5-4.4,4.5-7.6c0-2.4-0.8-10.3-12.1-10.3h-15.1v16.3h-5c-0.6,0.8-2.1,2.9-2.7,3.8h7.7v17.7h15.1c8.2,0,13.3-4.3,13.3-11.1C186.7,155.3,185.6,152.8,183.5,151z M162.4,135.4h10.9c3,0,7.9,0.8,7.9,6c0,4-2.9,6.3-7.9,6.3h-10.9V135.4z M173.4,165.4h-10.9v-13.8h10.9c4.2,0,9.2,1.1,9.2,6.6C182.5,164.4,176.8,165.4,173.4,165.4z M72,136L72,136c0.1-0.1,0.1-0.1,0-0.1c-10.5-10.6-13.3-8.1-13.3-8.2l0,0c-5.7,5.7-9.2,13.6-9.2,22.4c0,7.2,2.3,13.8,6.3,19.1c0.1,0.1,0.2,0.1,0.2,0.1c0.1,0,0.1-0.1,0.1-0.2C53.7,161.5,65.8,143.5,72,136z M102.3,127.5c0.1,0-2.7-2.4-13.3,8.2l-0.1,0.1c0,0,0,0.1,0.1,0.1c6.3,7.5,18.3,25.6,16,33c0,0.1,0,0.2,0.1,0.2c0.1,0,0.2,0,0.2-0.1c4-5.3,6.3-11.9,6.3-19.1C111.5,141.2,108,133.3,102.3,127.5L102.3,127.5z M64.4,123.3c5.3-1.3,13.8,3.1,16,4.5h0.1h0.1c0.8-0.5,10-5.8,16-4.5c0.1,0,0.2,0,0.2-0.1c0-0.1,0-0.2-0.1-0.2c-4.8-2.9-9.8-4.6-16.2-4.6c-6.3,0-11.4,1.8-16.2,4.6c-0.1,0-0.1,0.1-0.1,0.2C64.3,123.3,64.3,123.3,64.4,123.3z M80.6,143.8L80.6,143.8c-0.1-0.1-0.1-0.1-0.1,0c-9.3,7.2-25.1,24.9-20.3,29.9l0,0c5.4,4.8,12.5,7.8,20.4,7.8c7.8,0,15-2.9,20.4-7.8C105.8,168.6,89.9,151,80.6,143.8z"/>
	</symbol>

</svg>