<svg xmlns="http://www.w3.org/2000/svg">
<symbol id="_joeleby"><title>JoelEby</title>
<path d="M109.4 120.11a74.646 74.646 0 0 0 22.6 15.6 71.66 71.66 0 0 0 29.3 5.9 72.64 72.64 0 0 0 29.1-5.7 70.05 70.05 0 0 0 22.8-15.4 68.453 68.453 0 0 0 15.1-22.6c.8-1.8 1.3-3.7 2.3-5.6v46.8h75v-31h-42v-23h41v-31h-41v-21h42v-30h-75v46.2c-1-1.9-1.5-3.8-2.3-5.6a70.842 70.842 0 0 0-15-22.6 73.237 73.237 0 0 0-22.9-15.4 72.357 72.357 0 0 0-28.9-5.7 71.76 71.76 0 0 0-25.5 4.2 70.366 70.366 0 0 0-32.8 24.9 71.142 71.142 0 0 0-8.2 14.2c-.8 2-1.3 4.1-2.3 6.1V3.11h-35v90.5c0 1.6.1 3.4 0 5.3a20.548 20.548 0 0 1-1 5.6 8.86 8.86 0 0 1-9.2 6.3 8.383 8.383 0 0 1-5.5-1.6 8.52 8.52 0 0 1-3-4 20.9 20.9 0 0 1-1.4-5.2c-.2-1.8-.4-3.2-.6-5.2H0c0 8 1.1 14.2 3.2 19.5a42.1 42.1 0 0 0 8 13.1 37.58 37.58 0 0 0 10.5 8 50.227 50.227 0 0 0 10.8 4.1 49.628 49.628 0 0 0 8.7 1.5c2.5.1 4 .2 4.6.2a54.573 54.573 0 0 0 21-4.4 42.68 42.68 0 0 0 17.5-13.4 33.01 33.01 0 0 0 3.8-5.9 46.024 46.024 0 0 0 2.7-7.5 64.958 64.958 0 0 0 1.6-10.5c.2-2.3.3-4.8.4-7.6a57.15 57.15 0 0 0 2.1 5.8 65.54 65.54 0 0 0 14.5 22.4zm17.5-63.9a41.177 41.177 0 0 1 7.1-12.8 34.456 34.456 0 0 1 11.7-9.2 35.847 35.847 0 0 1 16-3.5 33.733 33.733 0 0 1 27.9 13.6 44.218 44.218 0 0 1 6.8 13.1 45.225 45.225 0 0 1 2.3 13.7 44.113 44.113 0 0 1-2.3 13.6 42.015 42.015 0 0 1-6.8 12.9 35.9 35.9 0 0 1-11.4 9.7 33.308 33.308 0 0 1-16.1 3.8 34.52 34.52 0 0 1-15.7-3.4 38.96 38.96 0 0 1-11.8-9 39.414 39.414 0 0 1-7.5-12.9 45.364 45.364 0 0 1-2.6-15.2 44.4 44.4 0 0 1 2.4-14.4zm257.7 51.9h-40v-105h-35v136h75v-31m-280 178h76v-31h-43v-23h41v-31h-41v-21h43v-31h-76v137m179.6-56.8a31.616 31.616 0 0 0-6.6-9.2c-3-3-7.3-5.5-12.8-7.5a30.177 30.177 0 0 0 12.1-12.2 33.31 33.31 0 0 0 3.8-15.3 40.252 40.252 0 0 0-1.8-11.8 26.4 26.4 0 0 0-6.4-10.7 42.967 42.967 0 0 0-7.7-6.7 33.468 33.468 0 0 0-9.2-4.1 70.952 70.952 0 0 0-11.6-2.1c-4.3-.4-9.3-.7-15.1-.7h-42.3v137h43.6c5.8 0 10.7-.3 14.9-.6a61.106 61.106 0 0 0 11.3-1.7 34.6 34.6 0 0 0 9.3-3.6 68.063 68.063 0 0 0 9-6.3 31.342 31.342 0 0 0 9.4-13.3 44.982 44.982 0 0 0 3.1-16.4c0-1.5-.2-3.6-.5-6.3a24.326 24.326 0 0 0-2.5-8.5zm-63.6-49.2h12c1.4 0 2.9 0 4.6.1a15.29 15.29 0 0 1 4.8 1.1 9.08 9.08 0 0 1 3.8 3 10.2 10.2 0 0 1 1.6 6 10.484 10.484 0 0 1-1.7 6.3 9.508 9.508 0 0 1-4 3.2 15.39 15.39 0 0 1-4.8 1.2c-1.7.1-3.1.1-4.3.1h-12zm31.2 69.5a14.12 14.12 0 0 1-4.9 3.9 16.047 16.047 0 0 1-5.7 1.5c-2 .1-3.5.2-4.6.2h-16v-25h16c1.3 0 3 .1 5 .3a18.218 18.218 0 0 1 5.7 1.3 11.405 11.405 0 0 1 4.7 3.5c1.3 1.6 1.9 3.9 1.9 6.8q0 4.95-2.1 7.5z"/>
<path d="M348 149.11l-20.4 54.7-20.3-54.7h-37.7l41 87.1v49.9h34v-49.9l40.8-87.1H348"/>
</symbol>
<symbol id="joeleby" viewBox="0 0 823.4 610.9"><title>JoelEby</title>
<path d="M233.9 256.6c13.4 13.8 29.5 24.9 48.4 33.3s39.8 12.6 62.6 12.6c22.6 0 43.3-4.1 62.2-12.2 18.9-8.1 35.2-19.1 48.8-32.9 13.6-13.8 24.3-29.9 31.9-48.2v-.1c.9-2.3 4.3-1.6 4.3.8v84.9c0 1.2 1 2.3 2.3 2.3h157.3c1.2 0 2.3-1 2.3-2.3v-60.9c0-1.2-1-2.3-2.3-2.3h-86.1c-1.2 0-2.3-1-2.3-2.3v-45.5c0-1.2 1-2.3 2.3-2.3h83.3c1.2 0 2.3-1 2.3-2.3v-60.9c0-1.2-1-2.3-2.3-2.3h-83.3c-1.2 0-2.3-1-2.3-2.3V73.2c0-1.2 1-2.3 2.3-2.3h86.1c1.2 0 2.3-1 2.3-2.3V7.7c0-1.2-1-2.3-2.3-2.3H494.4c-1.2 0-2.3 1-2.3 2.3v84.9c0 2.4-3.4 3.1-4.3.8v-.1c-7.6-18.4-18.3-34.5-31.9-48.2-13.7-13.8-29.9-24.7-48.8-32.9C388.2 4.1 367.6 0 345.3 0c-20.5 0-38.7 3-54.5 9.1-15.9 6-29.7 13.7-41.3 23-11.7 9.3-21.3 19.4-28.9 30.1-7.6 10.8-13.4 20.9-17.3 30.3-.1.3-.3.6-.4.9-.9 2.3-4.3 1.6-4.3-.8V7.7c0-1.2-1-2.3-2.3-2.3h-69.9c-1.2 0-2.3 1-2.3 2.3V200c0 3.4-.1 7.2-.4 11.4-.3 4.2-1.1 8.2-2.4 12-1.3 3.8-3.5 7-6.7 9.7-3.2 2.6-7.5 3.9-13 3.9-5 0-8.9-1.1-11.8-3.3-2.9-2.2-5.1-5-6.5-8.5-1.4-3.4-2.4-7.1-3-11-.4-3.2-.8-6.1-1-9-.1-1.2-1.1-2.1-2.2-2.1H2.3c-1.2 0-2.3 1-2.3 2.3.2 15.5 2.5 28.7 6.9 39.5 4.6 11.3 10.3 20.6 17.1 28 6.8 7.4 14.3 13.1 22.4 17.1 8.1 4.1 15.8 7 23 8.9 7.2 1.8 13.5 2.9 18.7 3.2s8.5.4 9.8.4c15 0 29.9-3.2 44.9-9.4 15-6.3 27.4-15.9 37.4-28.7 3.2-3.9 5.8-8.1 8.1-12.6 2.2-4.5 4.1-9.8 5.7-16.1 1.6-6.3 2.7-13.8 3.3-22.4l.3-4.7c.1-2.4 3.4-3 4.3-.7.2.6.4 1.1.7 1.7 7.5 17.5 17.9 33.2 31.3 47zM271.3 120c3.4-10.1 8.5-19.2 15.2-27.4 6.7-8.1 15-14.7 25-19.7s21.4-7.5 34.3-7.5c13.4 0 25.1 2.7 35 8.1 10 5.4 18.2 12.3 24.6 20.9 6.4 8.5 11.3 17.9 14.6 28s4.9 19.9 4.9 29.3c0 9.5-1.6 19.2-4.9 29.1-3.3 10-8.1 19.2-14.6 27.6-6.4 8.4-14.6 15.3-24.4 20.7s-21.3 8.1-34.5 8.1c-12.6 0-23.8-2.4-33.7-7.3-9.8-4.9-18.2-11.3-25.2-19.3s-12.3-17.2-16-27.6-5.5-21.2-5.5-32.5c.1-10.2 1.8-20.4 5.2-30.5zm549.8 111.6h-81.7c-1.2 0-2.3-1-2.3-2.3V7.8c0-1.2-1-2.3-2.3-2.3h-69.9c-1.2 0-2.3 1-2.3 2.3v286.9c0 1.2 1 2.3 2.3 2.3h156.2c1.2 0 2.3-1 2.3-2.3v-60.9c0-1.2-1-2.2-2.3-2.2zM225.6 610.8h157.3c1.2 0 2.3-1 2.3-2.3v-60.9c0-1.2-1-2.3-2.3-2.3h-86.1c-1.2 0-2.3-1-2.3-2.3v-45.5c0-1.2 1-2.3 2.3-2.3h83.3c1.2 0 2.3-1 2.3-2.3V432c0-1.2-1-2.3-2.3-2.3h-83.3c-1.2 0-2.3-1-2.3-2.3v-40.8c0-1.2 1-2.3 2.3-2.3h86.1c1.2 0 2.3-1 2.3-2.3v-60.9c0-1.2-1-2.3-2.3-2.3H225.6c-1.2 0-2.3 1-2.3 2.3V608c0 1.8 1 2.8 2.3 2.8zm382.3-120.7c-3-6.7-7.7-13.3-14.2-19.7-5.6-5.6-13.3-10.4-23.1-14.3-1.7-.7-2-3-.4-4 9.9-6.4 17.2-14.3 22-23.6 5.4-10.5 8.1-21.4 8.1-32.7 0-8.4-1.3-16.8-3.7-25.2-2.5-8.4-7-16-13.6-22.8-5.3-5.8-10.8-10.6-16.5-14.4-5.8-3.8-12.3-6.7-19.7-8.7-7.4-2-15.6-3.3-24.8-4.1-9.2-.8-20-1.2-32.3-1.2h-87.5c-1.2 0-2.3 1-2.3 2.3v286.9c0 1.2 1 2.3 2.3 2.3h90.3c12.3 0 23-.3 31.9-.8s17-1.6 24.2-3.3 13.8-4.3 19.9-7.7c6-3.4 12.5-7.9 19.3-13.4 8.9-7.3 15.6-16.8 20.1-28.4 4.5-11.5 6.7-23.2 6.7-35 0-3.2-.3-7.6-1-13.4-.9-5.8-2.7-12.1-5.7-18.8zM471 387c0-1.2 1-2.3 2.3-2.3h24.1c2.9 0 6.2.1 9.8.4 3.7.3 7.1 1.1 10.2 2.4 3.2 1.3 5.8 3.5 8.1 6.5 2.2 3 3.4 7.3 3.4 12.8 0 5.8-1.2 10.2-3.5 13.4-2.4 3.2-5.2 5.5-8.5 6.9s-6.7 2.3-10.2 2.6-6.6.4-9.3.4h-24.1c-1.2 0-2.3-1-2.3-2.3V387zm67.6 146.6c-3 3.7-6.5 6.4-10.4 8.3-3.9 1.8-8 2.9-12.2 3.2s-7.5.4-9.8.4h-32.8c-1.2 0-2.3-1-2.3-2.3v-48.7c0-1.2 1-2.3 2.3-2.3h32.8c2.9 0 6.4.1 10.6.4 4.2.3 8.3 1.2 12.2 2.8 3.9 1.6 7.3 4.1 10 7.5 2.8 3.4 4.1 8.3 4.1 14.6 0 7.1-1.5 12.5-4.5 16.1z"/>
<path d="M743.7 320.8l-41 98.2c-.8 1.8-3.4 1.8-4.2 0l-40.7-98.2c-.3-.8-1.2-1.4-2.1-1.4H580c-1.6 0-2.7 1.7-2 3.2l85.3 181.8c.1.3.2.6.2 1v103.2c0 1.2 1 2.3 2.3 2.3h69.9c1.2 0 2.3-1 2.3-2.3V505.4c0-.3.1-.7.2-.9l84.5-181.8c.7-1.5-.4-3.2-2-3.2h-74.9c-.9-.1-1.7.5-2.1 1.3z"/>
</symbol>

<symbol id="times" viewBox="0 0 62 62">
<line stroke-width="1px" stroke="white" x1="11" y1="11" x2="51" y2="51"/>
<line stroke-width="1px" stroke="white" x1="51" y1="11" x2="11" y2="51"/>
</symbol>

<symbol id="downarrow" viewBox="0 0 62 62">
<polyline stroke-width="1px" stroke="white" fill="none" points="51,23 31,43 11,23"/>
</symbol>

<symbol id="downarrowgray" viewBox="0 0 62 62">
<polyline stroke-width="1px" stroke="#bbbbbb" fill="none" points="51,23 31,43 11,23"/>
</symbol>

<symbol id="leftarrow" viewBox="0 0 62 62">
<polyline stroke-width="1px" stroke="#B6B6B6" fill="none" points="27.5,46.5 12,31 27.5,15.5 "/>
<line stroke-width="1px" stroke="#B6B6B6" fill="none" x1="12" y1="31" x2="49" y2="31"/>
</symbol>

<symbol id="twitter" viewBox="0 0 47 38">
  <path fill="currentColor" d="M23 11.8c0-.9-.1-1.7-.1-2.5 0-2.6 1-4.8 2.9-6.6C28 .6 30.6-.2 33.6 0c2.2.2 4.2 1.1 5.8 2.7.2.3.4.3.7.3 1.9-.4 3.8-1.1 5.5-2.1l.3-.1c-.8 2.3-2.1 4-4.1 5.2v.1l1.8-.3c.6-.1 1.2-.3 1.8-.5.4-.3 1-.5 1.6-.7l-1 1.3c-1 1.3-2.2 2.4-3.5 3.4-.1.1-.2.2-.2.4.1 6.4-1.7 12.2-5.5 17.4-3.5 4.8-8 8-13.7 9.7-3 .9-6.2 1.3-9.3 1.2-4.9-.2-9.5-1.5-13.6-4.1l-.1-.1c5.2.4 9.9-.8 14.1-4-4.4-.4-7.4-2.6-9-6.7 1.4.2 2.8.2 4.2-.1-4.8-1.4-7.4-4.5-7.6-9.5 1.4.6 2.7 1.1 4.3 1.1-2.1-1.5-3.5-3.4-4-5.8-.5-2.5-.2-4.8 1.1-7C8.4 7.9 15 11.3 23 11.8z"/>
</symbol>

<symbol id="linkedin" viewBox="0 0 40 39">
  <path fill="currentColor" d="M40 39h-8.6V25c0-.7-.1-1.4-.2-2.2-.1-1-.5-1.9-1.1-2.6-1.1-1.2-2.5-1.4-4-1.1-2.1.4-3.6 2.4-3.7 4.6V39h-8.6V12.7h8.6v3.6c.2-.3.4-.6.6-.8 1.6-2.1 3.6-3.2 6.2-3.4 2.1-.2 4.1.2 5.9 1.2 2.2 1.3 3.5 3.2 4.2 5.7.4 1.5.6 3 .6 4.6v15.3c.1 0 .1 0 .1.1zM6.1 9c-1.5.3-3 .2-4.3-.8C.3 7.1-.2 5.5.1 3.7.4 1.9 1.6.7 3.3.2 3.8.1 4.4 0 4.6 0c1.8 0 3.2.5 4.2 1.9 1.8 2.5.8 6.3-2.7 7.1zM.5 13.1v-.4h8.6v26.2H.5V13.1z"/>
</symbol>

<symbol id="resume" viewBox="0 0 43 41">
<g fill="currentColor">
  <path d="M0 0v41h43V0H0zm41.7 39.7H1.3V1.3h40.4v38.4z"/>
  <path d="M12.8 24.5l5.2 7.2h17.7v-5h-6.9v-3.8h6.7v-5h-6.7v-3.5h6.9v-5H23.3v4.5c0-.1 0-.1-.1-.2-.5-1.1-1.1-2-2.1-2.7-.4-.3-.7-.5-1.1-.7s-.9-.4-1.4-.5-1.1-.2-1.8-.3c-.7-.1-1.5-.1-2.5-.1h-7v22.2h5.4v-7.1h.1zM21 23c.7-.5 1.3-1.1 1.7-1.8.2-.4.4-.7.6-1.1v10.1L18.4 24c1.1-.1 1.9-.5 2.6-1zm-8.2-8.6h2.1c1.1 0 2 .2 2.7.7s1 1.3 1 2.3c0 .3 0 .6-.1 1s-.2.7-.5 1-.6.6-1.1.8c-.5.2-1.2.4-2 .4h-2l-.1-6.2z"/>
  <polygon points="32.9 4.9 30.8 2.3 25.8 6.6 27.7 8.7"/>
</g>
</symbol>

<symbol id="portfolio" viewBox="0 0 43 41">
<g fill="currentColor">
  <path d="M0 0v41h43V0H0zm1.3 39.7V1.3h40.4v38.4H1.3z"/>
  <path d="M23.5 13.6c-.5-1-1.1-1.9-2-2.6-.3-.2-.6-.5-1-.7s-.8-.4-1.3-.5c-.5-.2-1.2-.2-1.9-.3-.8-.1-1.6-.1-2.6-.1H7.3v22.2h5.4v-7h2.5c.9 0 1.6 0 2.3-.1.6-.1 1.2-.2 1.7-.4s1-.4 1.4-.6.8-.5 1.2-.8c.4-.3.7-.7 1-1.1s.5-.9.8-1.4v11.4H29v-8.5h6.5v-5H29v-3.8h6.7v-5H23.5v4.3zm-5.2 4.9c-.3.4-.6.7-1 .8-.4.2-.8.2-1.2.3-.4 0-.8.1-1 .1h-2.3v-5.3H16c.4 0 .8.2 1.2.3.4.2.7.4 1 .8.3.4.4.9.4 1.5s-.1 1.2-.3 1.5z"/>
</g>
</symbol>

<symbol id="email" viewBox="0 0 43 41">
<path fill="currentColor" d="M13 26l8.7 7.3L13 26zm8.7 5.6L13.9 25l7.8 6.6zM43 14.4V41H0V14.4l4.6-3.1V4h11l6.1-4 6 4h10.8v7.3l4.5 3.1zm-4.6 2.9l2.9-2.5-2.9-1.9v4.4zM17.9 4h7.3l-3.6-2.4L17.9 4zm-12 14.3l8 6.7 7.8 6.6 15.4-13.3V5.4H5.9v12.9zm-4.2-3.5l2.9 2.4v-4.3l-2.9 1.9zm40 1.4l-20 17.2L13 26 1.3 16.1v23.5h40.4V16.2zm-20.3 8.4c-3.4 0-6.2-2.5-6.2-6.5 0-4.3 2.9-8 7.5-8 3.6 0 6 2.5 6 6 0 3.1-1.7 5-3.7 5-.8 0-1.6-.6-1.5-1.8h-.1c-.7 1.2-1.7 1.8-2.9 1.8s-2.2-1-2.2-2.6c0-2.6 2-4.9 4.9-4.9.9 0 1.7.2 2.2.4l-.7 3.8c-.3 1.6-.1 2.3.6 2.3 1.1 0 2.2-1.4 2.2-3.8 0-3-1.8-5.2-5-5.2-3.4 0-6.2 2.7-6.2 6.9 0 3.5 2.2 5.6 5.3 5.6 1.2 0 2.3-.2 3.1-.7l.3.9c-1.1.6-2.2.8-3.6.8zm2.5-9.9c-.2-.1-.6-.1-1-.1-1.8 0-3.3 1.7-3.3 3.8 0 .9.5 1.6 1.4 1.6 1.2 0 2.3-1.5 2.5-2.8l.4-2.5z"/>
</symbol>

<symbol id="crnntOld">
<path fill="#100d2b" d="M19.826,24.131 L13.606,14.359 L19.756,19.917 L19.998,17.922 L26.192,26.641 L20.067,21.927 L19.826,24.131 ZM30.705,30.838 C27.838,33.722 24.203,35.144 20.406,35.144 C10.631,35.144 5.744,28.564 5.703,20.642 C5.663,12.884 10.591,5.856 20.406,5.856 C24.162,5.856 27.959,7.197 30.423,10.121 L27.483,12.984 C25.452,10.977 22.952,9.974 20.279,9.974 C13.330,9.974 9.802,15.033 9.802,20.587 C9.802,26.465 13.330,30.986 20.279,30.986 C22.952,30.986 25.666,29.911 27.661,27.904 L30.705,30.838 ZM20.446,4.418 C9.828,4.418 4.438,12.147 4.438,20.634 C4.438,29.613 9.828,36.521 20.446,36.521 C24.529,36.521 28.674,34.879 31.723,31.814 L35.000,34.972 C30.985,39.010 25.897,41.000 20.582,41.000 C6.898,41.000 0.057,31.788 0.000,20.699 C-0.057,9.838 6.842,0.000 20.582,0.000 C25.835,0.000 31.144,1.873 34.593,5.958 L31.453,9.017 C28.350,5.951 24.529,4.418 20.446,4.418 Z"/>
</symbol>

<symbol id="crrnt">
<title>crrnt logo</title>
<path fill="#100d2b" d="M141.30362,215.309A74.00539,74.00539,0,1,1,193.63329,88.974l47.58708-47.58708a141.30364,141.30364,0,1,0,0,199.8334l-47.58708-47.58708A73.77343,73.77343,0,0,1,141.30362,215.309Zm61.25848,19.80236A112.02433,112.02433,0,0,1,62.10127,62.10117,112.08267,112.08267,0,0,1,202.5621,47.4959L196.262,53.796a103.29979,103.29979,0,1,0,0,175.01535Z"/>
<polygon fill="#100d2b" points="111.392 88.074 127.426 156.484 137.093 146.816 169.332 198.436 153.298 130.026 143.631 139.694 111.392 88.074" />
</symbol>

<symbol id="ipad">
<title>iPad</title>
<path fill="white" fill-opacity="0.1" stroke="white" stroke-opacity="0.3" stroke-width="2" stroke-miterlimit="10" d="M1899.7,1384H100.3C45.1,1384,0,1338.9,0,1283.7V106.3C0,51.2,45.1,6,100.3,6H1899.7C1954.9,6,2000,51.1,2000,106.3V1283.7C2000,1338.9,1954.9,1384,1899.7,1384Z"/>
<circle cx="93.9" cy="690.5" fill="#f6f6f6" r="51.4" opacity="0.8"/>
<circle cx="1913.5" cy="690.5" fill="#6c6c6c" r="9" opacity="0.8"/>
</symbol>

<symbol id="ipadlite">
<title>iPad</title>
<path fill="white" fill-opacity="0.1" stroke="white" stroke-opacity="0.3" stroke-width="2" stroke-miterlimit="10" d="M1899.7 1384H100.3C45.1 1384 0 1338.9 0 1283.7V106.3C0 51.2 45.1 6 100.3 6h1799.4c55.2 0 100.3 45.1 100.3 100.3v1177.4c0 55.2-45.1 100.3-100.3 100.3z"/>
<circle fill="#F6F6F6" opacity="0.3" class="st2" cx="92.4" cy="695" r="51.4"/>
<circle fill="#F6F6F6" opacity="0.3" class="st2" cx="1912" cy="695" r="9"/>
</symbol>

<symbol id="ipaddark">
<title>iPad</title>
<path fill="black" fill-opacity="0.1" stroke="black" stroke-opacity="0.24" stroke-width="2" stroke-miterlimit="10" d="M1899.7 1384H100.3C45.1 1384 0 1338.9 0 1283.7V106.3C0 51.2 45.1 6 100.3 6h1799.4c55.2 0 100.3 45.1 100.3 100.3v1177.4c0 55.2-45.1 100.3-100.3 100.3z"/>
<circle fill="black" opacity="0.2" class="st2" cx="92.4" cy="695" r="51.4"/>
<circle fill="black" opacity="0.2" class="st2" cx="1912" cy="695" r="9"/>
</symbol>

<symbol id="mbplite">
<title>MacBook Pro</title>
<path fill="white" opacity="0.16" d="M3.9 1271.5h2052v37.5H3.9z"/>
<path fill="white" opacity="0.32" d="M2055.9 1309c0 13.5-155.4 24.6-217.7 24.6H221.6c-62.3 0-217.7-11.1-217.7-24.6h2052z"/>
<path fill="black" opacity="0.5" d="M1193.9 1271.5c0 11.5-9.4 21-21 21h-286c-11.5 0-21-9.4-21-21h328z"/>
<path fill="white" opacity="0.1" d="M2011.2 1271.5V23.9c0-12.4-10.1-22.5-22.5-22.5H71.1c-12.4 0-22.5 10.1-22.5 22.5v1247.5l1962.6.1z"/>
<path fill="none" opacity="0.2" stroke="white" stroke-width="2" d="M2011.2 1271.5V23.9c0-12.4-10.1-22.5-22.5-22.5H71.1c-12.4 0-22.5 10.1-22.5 22.5v1247.5H3.9v37.5c0 13.5 155.4 24.6 217.7 24.6h1616.5c62.3 0 217.7-11.1 217.7-24.6v-37.5l-44.6.1zm0-.1H48.6"/>
</symbol>

<symbol id="mbpdark">
<title>MacBook Pro</title>
<path fill="black" opacity="0.16" d="M3.9 1271.5h2052v37.5H3.9z"/>
<path fill="black" opacity="0.32" d="M2055.9 1309c0 13.5-155.4 24.6-217.7 24.6H221.6c-62.3 0-217.7-11.1-217.7-24.6h2052z"/>
<path fill="white" opacity="0.5" d="M1193.9 1271.5c0 11.5-9.4 21-21 21h-286c-11.5 0-21-9.4-21-21h328z"/>
<path fill="black" opacity="0.1" d="M2011.2 1271.5V23.9c0-12.4-10.1-22.5-22.5-22.5H71.1c-12.4 0-22.5 10.1-22.5 22.5v1247.5l1962.6.1z"/>
<path fill="none" opacity="0.2" stroke="black" stroke-width="2" d="M2011.2 1271.5V23.9c0-12.4-10.1-22.5-22.5-22.5H71.1c-12.4 0-22.5 10.1-22.5 22.5v1247.5H3.9v37.5c0 13.5 155.4 24.6 217.7 24.6h1616.5c62.3 0 217.7-11.1 217.7-24.6v-37.5l-44.6.1zm0-.1H48.6"/>
</symbol>

<symbol id="surfacelite">
<title>Surface Pro</title>
<path fill="#F6F6F6" fill-opacity="0.3" d="M998.6 1153.8v-15.5l23.3.1v18.8zm0-34.3l23.3-3.3v18.7l-23.3.1zm-19.2 31.6v-12.9l15.6.1v15zm0-28.9l15.6-2.2v15.1h-15.6z"/>
<path fill="white" fill-opacity="0.12" stroke="white" stroke-opacity="0.3" stroke-width="2" stroke-miterlimit="10" d="M1941.3 1174.4H60c-22.4 0-40.7-18.3-40.7-40.7V63.1c0-22.4 18.3-40.7 40.7-40.7h1881.2c22.4 0 40.7 18.3 40.7 40.7v1070.7c0 22.3-18.3 40.6-40.6 40.6z"/>
</symbol>

<symbol id="surfacedark">
<title>Surface Pro</title>
<path fill="black" fill-opacity="0.3" d="M998.6 1153.8v-15.5l23.3.1v18.8zm0-34.3l23.3-3.3v18.7l-23.3.1zm-19.2 31.6v-12.9l15.6.1v15zm0-28.9l15.6-2.2v15.1h-15.6z"/>
<path fill="black" fill-opacity="0.12" stroke="black" stroke-opacity="0.3" stroke-width="2" stroke-miterlimit="10" d="M1941.3 1174.4H60c-22.4 0-40.7-18.3-40.7-40.7V63.1c0-22.4 18.3-40.7 40.7-40.7h1881.2c22.4 0 40.7 18.3 40.7 40.7v1070.7c0 22.3-18.3 40.6-40.6 40.6z"/>
</symbol>

<symbol id="browserlite">
<title>Browser</title>
<path fill="white" fill-opacity="0.1" stroke="white" stroke-opacity="0.4" stroke-width="2" d="M1993.5 90H6.7V37.8C6.7 23.1 18.8 11 33.5 11h1933.2c14.7 0 26.8 12.1 26.8 26.8V90z"/>
<circle fill="white" opacity="0.24" cx="51.8" cy="53.1" r="15.4"/>
<circle fill="white" opacity="0.24" cx="100.3" cy="53.1" r="15.4"/>
<circle fill="white" opacity="0.24" cx="148.7" cy="53.1" r="15.4"/>
</symbol>

<symbol id="browserdark">
<title>Browser</title>
<path fill="black" fill-opacity="0.1" stroke="black" stroke-opacity="0.4" stroke-width="2" d="M1993.5 90H6.7V37.8C6.7 23.1 18.8 11 33.5 11h1933.2c14.7 0 26.8 12.1 26.8 26.8V90z"/>
<circle fill="black" opacity="0.24" cx="51.8" cy="53.1" r="15.4"/>
<circle fill="black" opacity="0.24" cx="100.3" cy="53.1" r="15.4"/>
<circle fill="black" opacity="0.24" cx="148.7" cy="53.1" r="15.4"/>
</symbol>

<symbol id="iphonelite">
<title>iPhone</title>
<circle fill="#F6F6F6" opacity="0.4" cx="398" cy="1522.6" r="51.4"/>
<circle fill="#C4C4C4" opacity="0.4" cx="398" cy="64" r="9"/>
<path fill="#f2f2f2" fill-opacity="0.1" stroke="white" stroke-opacity="0.24" stroke-width="2" d="M777 115.3v1399.4c0 55.2-45.1 100.3-100.3 100.3H120.3C65.2 1615 20 1569.9 20 1514.7V115.3C20 60.1 65.1 15 120.3 15h556.4C731.9 15 777 60.1 777 115.3z"/>
</symbol>

<symbol id="iphonedark">
<title>iPhone</title>
<circle fill="#111111" opacity="0.3" cx="398" cy="1522.6" r="51.4"/>
<circle fill="#333333" opacity="0.3" cx="398" cy="64" r="9"/>
<path fill="#111111" fill-opacity="0.1" stroke="white" stroke-opacity="0.24" stroke-width="2" d="M777 115.3v1399.4c0 55.2-45.1 100.3-100.3 100.3H120.3C65.2 1615 20 1569.9 20 1514.7V115.3C20 60.1 65.1 15 120.3 15h556.4C731.9 15 777 60.1 777 115.3z"/>
</symbol>

<symbol id="colliers" viewBox="0 0 244.5 180">
<title>Colliers</title>
<g fill="white">
<path d="M160.1 68.3c.4 0 1.1-.4 1.2-.7.8-2.3-1.6-5.1-4-4.8-2.3.3-4.1 2.7-4.2 5.6h1.5c1.9-.1 3.7 0 5.5-.1zM158.3 96c-2.7 0-4.8 1.5-4.8 4.7 0 3.1 2.1 4.7 4.8 4.7s4.8-1.5 4.8-4.7-2.2-4.7-4.8-4.7zm-62.5.3h-4.9v3.7h4.9c1.7 0 2.1-1 2.1-1.9 0-1.1-.7-1.8-2.1-1.8zm26.5 5.3h4.5l-2.3-5.2zM93.1 65.3c-2.4-3.5-6.3-3.3-8.1.5-.8 1.7-1.2 3.8-1.4 5.7-.3 2.9-.1 5.8 1.5 8.4 1 1.8 2.5 2.7 4.6 2.7 2-.1 3.3-1.2 4-2.9.8-2.2 1.3-4.6 1.9-7-.1 0-.2-.1-.4-.1-.1-2.5-.5-5.1-2.1-7.3zm94.3 36.3h4.4l-2.2-5.2z"/>
<path d="M230.3 28.4c0-5.7-3.9-9.6-9.7-9.6H25.2c-5.8 0-9.8 3.9-9.8 9.7v101.6h214.8v-1.6c.1-33.3.1-66.7.1-100.1zm-58.3 54c2 0 2.2-.2 2.2-2.2V69.9c0-2-.6-3.5-2.5-4.4-.4-.2-.6-.6-1-.9.3-.3.6-.8 1.1-1 1.9-.9 3.8-1.8 5.8-2.7 1.4-.7 1.7-.5 1.9 1.1.1 1 .2 2 .4 3.2.6-.7.9-1.3 1.4-1.8 1.1-1.4 2.4-2.6 4.2-3.1 1.6-.4 2.9 0 3.6 1 .7 1 .6 2.4-.2 3.4-.9 1.2-2.3 1.5-3.7 1-3.2-1.1-4.8-.1-4.9 3.3-.2 3.8-.1 7.6 0 11.5 0 1.6.4 1.8 2 1.8h.7c1.8 0 1.9.1 1.5 2h-13.8c-.5-1.8-.5-1.8 1.3-1.9zm-34.1-32.3c1.9 0 3.3 1.5 3.3 3.4s-1.4 3.4-3.4 3.4c-1.9 0-3.4-1.4-3.4-3.3 0-2 1.6-3.6 3.5-3.5zm-95.7 56.4h-1.7V94.7h1.7v11.8zm16.1 0h-2l-7.6-9.4v9.4H47V94.7h2l7.6 9.4v-9.4h1.7v11.8zm14-10.2h-4.4v10.2h-1.7V96.3h-4.4v-1.5h10.5v1.5zm1.1-18.2c-8 9.9-22.7 8.8-29.8 1.6-3.7-3.8-5.3-8.6-5.5-13.8-.4-8.7 4.1-16.5 11.1-19.7 6.5-2.9 12.9-2.4 19.3.4.5.2 1 .5 1.7.8.2-.6.3-1.2.6-1.6.2-.3.7-.5 1-.5.2 0 .6.4.7.7.5 3.8.9 7.6 1.3 11.4v.7c-1.6.7-1.6.7-2.2-.8-1.7-4.3-4.4-7.8-8.8-9.6-6.1-2.5-12.6-.2-15.3 5.8-3.5 7.8-2.7 15.4 2.2 22.3 4 5.7 10.5 7 17.2 4.1 2.3-1 4.4-2.5 6-4.5 1.8 1.2 1.7 1.2.5 2.7zm11.7 28.4h-9.6V94.7H85v1.5h-7.7v3.4h7.5v1.5h-7.5v3.8h7.9l-.1 1.6zm13 0c-.3-.3-.3-.8-.4-2.2-.1-2.1-.8-2.8-2.3-2.8h-4.6v5h-1.7V94.7h7.3c2.4 0 3.2 1.6 3.2 3.1 0 1.4-.7 2.5-2 2.9 1 .1 1.6 1.1 1.7 2.5.1 2.2.2 2.7.6 3.2h-1.8v.1zm-9.2-21.4c-7-.1-11.8-5.2-11.8-12.5 0-6.6 5.8-12.1 12.6-12 6.8.1 12.2 5.5 12.2 12.2 0 6.8-5.9 12.3-13 12.3zm26.1 21.4h-2l-7.6-9.4v9.4h-1.7V94.7h2l7.6 9.4v-9.4h1.7v11.8zm13.9 0l-1.5-3.4h-5.8l-1.5 3.4h-1.8l5.3-11.8h2l5.3 11.8h-2zm13.6-10.2h-4.4v10.2h-1.7V96.3H132v-1.5h10.6v1.5h-.1zm2.7-12.8c0 .8-.3 1.1-1.1 1.1-2-.1-4.1 0-6.1-.1h-33.8c-.8 0-1.4.1-1.4-1.1 0-1.1.7-1 1.4-1 .5 0 1 .1 1.4 0 .5-.2 1-.7 1.4-1.1.2-.3.2-.8.1-1.1 0-8.6-.1-17.3-.2-25.9 0-2.9-.6-3.6-3.3-4.5-.4-.1-.7-.6-1-.9.3-.3.6-.8 1-1 2.6-1.1 5.2-2.1 7.9-3.1 1.4-.6 1.8-.4 1.8 1.2-.1 10.5-.1 20.9-.2 31.4 0 1.3.1 2.6.2 3.9.1.9.5 1.3 1.4 1.3h5.2c1.2 0 1.6-.7 1.7-1.7.1-.6 0-1.2 0-1.8-.1-8.4-.1-16.9-.2-25.3 0-2.3-.7-3.1-2.9-3.9-.6-.2-1.5-.2-1.3-1.1.1-.5.8-.9 1.3-1.1 2.4-1 4.8-1.9 7.2-2.9 1.7-.7 1.9-.5 1.9 1.3-.1 9.7-.2 19.4-.2 29.1 0 1.9.1 3.8.2 5.7 0 1.1.5 1.7 1.7 1.7h4.8c1.2.1 1.5-.6 1.5-1.6 0-2.7.1-5.4.1-8.1v-4.2c0-1.9-.6-2.6-2.3-3.3-.4-.2-.8-.6-1.1-1 .4-.3.7-.8 1.1-1 2.3-.9 4.5-1.7 6.8-2.5 1.3-.5 1.4-.3 1.4 1.1 0 6.1-.1 12.2 0 18.4 0 2.1.2 2.1 2.3 2.2.6-.2 1.4-.3 1.3.9zm2.5 23H146V94.7h1.7v11.8zm10.6.3c-4.7 0-6.5-3.2-6.5-6.2s1.8-6.2 6.5-6.2 6.5 3.2 6.5 6.2-1.8 6.2-6.5 6.2zm9.5-27.1c-3.1 5-10.3 7-15.5 4.2-2.9-1.6-4.5-4.2-5.1-7.4-1-5.1-.3-9.7 3.8-13.3 3.1-2.8 6.8-3.2 10.6-2.2 3.5.9 5.1 3.8 5.9 7.2.5 1.9.1 2.2-1.8 2.2h-12.8c-.6 4.3 1.2 8.3 4.5 10 3 1.5 6.3.5 9.5-2.9 1.7.6 1.8.8.9 2.2zm12.3 26.8h-2l-7.6-9.4v9.4h-1.7V94.7h2l7.6 9.4v-9.4h1.7v11.8zm13.9 0l-1.5-3.4h-5.8l-1.5 3.4h-1.9l5.3-11.8h2l5.3 11.8H194zm-.8-22.5c-.5-.2-1.1-1-1.2-1.6-.4-1.4-.6-2.9-.7-4.4 0-.4.2-1 .5-1.2.6-.4 1.1-.2 1.5.5.6 1.1 1.3 2.3 2 3.3 1.3 1.9 3.4 2.7 5.6 2 1.3-.4 2.3-1.3 2.5-2.7s-.3-2.6-1.6-3.3c-1.2-.6-2.5-1-3.7-1.5-1.1-.4-2.2-.8-3.2-1.3-4.9-2.4-4.1-9.3-.3-11.6 3.5-2.1 7-2 10.6-.5.9.4 1.4 1 1.5 2.1.1.9.4 1.7.4 2.6 0 .4-.2 1-.6 1.2-.3.2-1 0-1.2-.3-1-1-1.9-2.1-2.8-3-1.4-1.4-3.4-1.7-5-.8-1.1.6-1.7 1.4-1.7 2.7 0 1.2.6 2.1 1.7 2.6 1 .4 1.9.7 2.9 1.1 1 .3 2.1.6 3.1 1 2.5 1.1 4.3 2.9 4.5 5.8.1 2.9-.9 5.3-3.3 6.9-1.8 1.2-3.9 1.7-6.1 1.9-2-.6-3.8-1-5.4-1.5zm14.9 22.5h-8.9V94.7h1.7V105h7.1l.1 1.5zm-192.6 34h214.7v-8.2H15.5v8.2zm214.7 2.2H15.5v8.1h214.7v-8.1zM15.6 153.3c.6 4.5 4.6 7.8 9.5 7.8h196.3c4.6-.1 8.6-3.8 8.8-8.2H15.6v.4z"/>
</g>
</symbol>

<symbol id="ea" viewBox="0 0 244.5 180">
<title>EA</title>
<g fill="white">
<path d="M120.2 4.4C73.3 4.5 35 43 35 90c.1 47.5 38.4 85.6 86 85.6 46.8 0 85.2-38.6 85.1-85.6-.1-47.4-38.5-85.6-85.9-85.6zm.4 160.1c-41.2 0-74.5-33.4-74.5-74.7 0-40.9 33.6-74.3 74.6-74.3 40.9 0 74.3 33.5 74.3 74.4 0 41.2-33.3 74.6-74.4 74.6z"/>
<path d="M141.8 61.3c-.3.4-.5.7-.7 1.1-8.1 12.9-16.3 25.9-24.4 38.8-.5.7-.9 1-1.8 1h-26c-.4 0-.8 0-1.3-.1.3-.4.4-.7.6-1 1.7-2.7 3.5-5.4 5.2-8.2.5-.8 1-1 1.9-1h14.6c.9 0 1.4-.3 1.9-1.1 1.7-2.8 3.5-5.5 5.2-8.3.2-.2.3-.5.4-.8-.2-.1-.3-.1-.3-.1H78.8c-.4 0-.9.4-1.2.8-1.9 2.9-3.7 5.8-5.5 8.7l-.4.8H81c-4.4 6.9-8.6 13.6-12.9 20.4h53.3c.8 0 1.1-.3 1.5-.9 6.2-9.8 12.4-19.6 18.6-29.3.3-.4.5-.8.9-1.3 2.5 3.7 4.8 7.3 7.3 11.1h-5.4c-.9 0-1.4.2-1.8 1-1.2 2.1-2.5 4.1-3.7 6.2-.6 1-1.2 2-1.9 3.1H155c.9 0 1.5.2 2 1.1 1.8 2.8 3.7 5.5 5.4 8.3.4.7.9.9 1.7.9h11.3c-11.2-17.1-22.4-34.1-33.6-51.2z"/>
<path d="M122.2 71.5c1.5 0 3.3.4 4.5-.2 1.2-.7 1.7-2.4 2.5-3.7 1.3-2 2.6-4.1 3.9-6.3-.4 0-.5-.1-.7-.1H91.9c-.4 0-1 .4-1.3.8-1.8 2.8-3.6 5.7-5.4 8.6-.1.2-.2.5-.4.8h1.3c12 .1 24 .1 36.1.1zm27.7-6.6h.5v-3.3h1.2v-.4h-3v.4h1.3zm2.7-2.2v-.9l1.1 3.1h.5l1.1-3.1V65h.5v-3.7h-.7l-1.1 3.1-1.1-3.1h-.7V65h.5v-2.3h-.1z"/>
</g>
</symbol>

<symbol id="espn" viewBox="0 0 244.5 180">
<title>ESPN</title>
<g fill="white">
<path d="M64.9 95.4c.4-4 .9-7.9 1.3-11.6-.4-.3-.4-.3-.5-.3-14.6 0-29.2-.1-43.7 0-.6 0-1.6 1-1.7 1.6-.8 5.4-1.3 10.8-2 16.2-.6 4.4-1.3 9.4-2 13.8h44.1c.8 0 2.1-.5 2.2-1 .7-4.1 1.1-8.2 1.7-12.7H35.5c.3-2.1.6-4 .9-5.9 9.5-.1 18.9-.1 28.5-.1zm110.3-23.9c-.3-3.9-2.8-6.9-6.4-7.9-1-.3-2-.4-3-.7H81.1c-1.6.6-3.3 1-4.8 1.9-4.9 2.8-6 7.5-6.4 12.7h105.3c.1-2.1.2-4 0-6zM65.5 77.7c.6 0 1.6-1 1.7-1.6.7-4.4 1.1-8.7 1.6-13.1H22.9c-.5 4.8-1 9.6-1.5 14.5.5.1.8.2 1.1.2h43zm58.8 6.2c-1.3 10.4-2.6 20.7-3.9 31.2 5.5 0 10.7.1 15.9-.1.5 0 1.4-1.1 1.5-1.7.8-5.8 1.4-11.6 2.1-17.7h3.2c7.8-.1 15.6-.2 23.4-.4 2.4-.1 4.4-1.2 5.4-3.3 1.1-2.4 1.7-5.1 2.6-7.9-17.2-.1-33.7-.1-50.2-.1zm83.6 31h16.8c1.3-10.3 2.6-20.6 3.9-31h-16.9c-1.3 10.3-2.5 20.6-3.8 31zm-29.7-31.1c-.5 0-1.2 1.2-1.3 1.9-.8 6.2-1.6 12.3-2.3 18.5-.4 3.5-.8 7-1.2 10.8 5.1 0 10-.1 14.9 0 1.7 0 2.1-.6 2.3-2.2.5-4.6 1.1-9.2 1.7-13.8.6-5 1.2-10.1 1.8-15.4-5.6.1-10.7.1-15.9.2zm-65.4 0c-14.1-.1-28.2 0-42.3 0-.4 0-.8.1-1.1.1-1.6 6.4 2.6 11.6 9.4 11.6h21.3c.8 0 1.7.1 2.6.1-.3 2.1-.5 3.9-.8 5.9H69.7c-1.2 0-2.1 0-2.3 1.6-.5 4-1.2 7.9-1.8 12.1h12.9c9.6 0 19.2.1 28.8-.1 5.9-.1 10-4 11.1-9.8.6-3 1-6.1 1.4-9.1.2-1.6.2-3.1.2-4.7.1-5.1-2.3-7.7-7.2-7.7zM230.3 71c-1.1-4.8-4.3-7.3-9-8h-41.7c-.6 5-1.1 9.9-1.7 14.9h51.6c.3-1.1.5-2.1.8-3.1 0 0 .2-1.1.2-1.9s-.2-1.9-.2-1.9z"/>
</g>
</symbol>

<symbol id="games" viewBox="0 0 244.5 180">
<title>Games</title>
<g fill="white">
<path d="M47.1 85.2c-.7-1.3-1.7-2.6-2.9-3.7-2.3-2-5.3-3.4-9.1-3.4-6.8 0-14.8 5.1-14.8 15.8 0 11.4 8.1 16.3 14.9 16.3 3.5 0 6.3-.9 8.5-2.4s3.7-3.7 4.5-6.3H32V90.4h32.2c.3 3.9-.1 10.3-2.5 15.6-5.3 12-17.5 16.5-26.4 16.5-16.5 0-28.9-12.9-28.9-28.5 0-16.2 13.1-28 29.1-28 13 0 24.2 8.7 27.2 19.2H47.1zM72 121.3H57l21.5-54.4h12l20.9 54.4H96.2l-2.6-7.9h-19l-2.6 7.9zm11.8-37.8l-5.9 19h12l-6.1-19z"/>
<path d="M109.6 121.3V67h18.6l10.2 35 9.9-35H167v54.4h-12.8l.4-40.7-11.8 40.7h-9.2l-11.8-40.7.4 40.7-12.6-.1zM169.4 67h30.8v12.2h-16.9v8.4h16.4v12.2h-16.4v9.3h16.9v12.2h-30.8V67zm45.1 36.3c0 6.3 3.9 7.4 5.7 7.4 3.3 0 5.3-2.7 5.3-5.2 0-2.9-2.3-3.7-10.7-7.3-3.8-1.5-13.3-5.4-13.3-15.6 0-10.9 9.9-16.7 19-16.7 7.5 0 18.1 3.8 18.3 16.9h-13.7c-.3-1.8-.7-5.3-5-5.3-2.4 0-4.8 1.7-4.8 4.3 0 2.5 1.5 3.2 11.2 7.6 10.1 4.6 12.7 9.3 12.7 15.6 0 8.7-4.6 17.4-19 17.4-14.3 0-20-8.4-19.6-19l13.9-.1z"/>
</g>
</symbol>

<symbol id="halo" viewBox="0 0 244.5 180">
<title>Halo</title>
<g fill="white">
<path d="M185.6 105.3v2.3c-.1.7.2 1.1.9 1.2 2.3.4 4.6.8 7 1.1 1.5.2 2.8.4 3.9 1.5.3.3.8.4 1.2.4 4-.1 7.9-.1 11.9-.4 4.7-.3 9.3-1.2 13.6-3 4.8-2 9-4.8 11.7-9.4 1-1.7 2.2-2.5 4.2-2.3 1.1.1 2.2 0 3.3 0v-2.9h-4.2s-2.1-.5-2.6-1.7c-1.1-2.6-2.9-4.7-5.2-6.5-3.1-2.4-6.7-3.9-10.4-5.1-4.6-1.5-9.3-2.3-14.1-2.5-6.3-.4-12.6 0-18.8 1.2-.3.1-.7.2-.9.5-.9 1.2-2.1 1.9-3.5 2.1-.4.1-.7.2-1 .3-3.8 1.3-7.4 3.1-10.2 6-.6.6-1.1 1.3-1.6 2 1 .8 2 1.6 2.9 2.3 2.2-2.8 3.6-3.9 6.8-5.3 1.7-.7 3.5-1.4 5.3-1.9 8-2.2 16.2-2.4 24.4-1.2 3.8.5 7.5 1.5 10.8 3.4 1.9 1.1 3.7 2.5 4.8 4.5.5.9.8 1.9.9 2.8.2 2.1-.9 3.7-2.4 5.1-2.6 2.3-5.7 3.7-8.9 4.7-7.6 2.4-15.3 2.8-23.1 1.7-2.2-.2-4.4-.5-6.7-.9zM41.2 93.7H16.9c-.8 0-1.8-.9-1.8-1.8V79.4H5.7v30.5h12.7V98.6c0-.7.2-.9.9-.9h21.9v12.1h10.6V90.7c0-1.6-.5-2.9-1.4-4.1-1.2-1.6-2.8-2.6-4.8-3.1-1.4-.4-2.9-.6-4.4-.4v10.6zm21 16.3h10.4c.5 0 .9-.2 1.3-.6 3-3.4 6.1-6.7 9.1-10.1 1-1.1 2.1-1.6 3.6-1.5h9.5c.6 0 1 .2 1.3.6 3.4 3.7 6.7 7.4 10.1 11.1.3.3.8.5 1.2.5H119c.2 0 .4 0 .8-.1-1-1.1-1.8-2-2.7-3-8.2-9-16.3-18.1-24.5-27.1-.5-.6-1.1-.4-1.8-.5-.9-.1-1.5.2-2.1.9-1.2 1.4-2.4 2.6-3.6 4-1.4 1.6-2.8 3.1-4.4 4.9h3.7c.4 0 .8-.2 1.1-.4.6-.5 1.1-1 1.7-1.6 2.1 2.3 4.1 4.5 6.3 6.9H77.4c-.7 0-1.2.2-1.6.8-3.1 3.5-6.2 7-9.4 10.5-1.2 1.4-2.7 3-4.2 4.7zm109.2 0c.3-1.1.1-1.8-.8-2.3-.9-.6-1.7-1.2-2.5-1.9-.5-.4-.9-.5-1.5-.5h-19.9c-.9 0-1.8-.1-2.6-.3-2-.5-3-1.9-3-3.9V87.5c0-.4-.2-.9-.4-1.2-1.9-2.2-3.8-4.3-5.7-6.4-.2-.2-.4-.4-.6-.4h-4.2v26c0 .3.1.7.3.9.9 1.1 1.9 2.1 2.8 3.2.4.5.8.6 1.5.6h35.8c.2-.2.5-.2.8-.2zm29.2-17.8c-1.7.2-3.3.4-4.7 1.4-1.7 1.2-1.7 2.8 0 4 2.3 1.7 7.1 1.7 9.4 0 1.9-1.3 1.7-2.7-.1-4-.4-.3-.9-.6-1.4-.7-1-.3-2.1-.5-3.2-.7z" id="sQSI9U.tif"/>
<path d="M243.4 90.1c0 1-.8 1.8-1.8 1.8s-1.9-.8-1.9-1.8.8-1.8 1.9-1.8c1 0 1.8.8 1.8 1.8zm-3.2 0c0 .8.6 1.4 1.4 1.4s1.4-.6 1.4-1.4-.6-1.5-1.4-1.5c-.8.1-1.4.7-1.4 1.5zm1.1 1h-.4v-1.8c.2 0 .4-.1.7-.1s.5.1.6.1c.1.1.2.2.2.4s-.2.4-.4.4c.2.1.3.2.3.4.1.3.1.4.1.5h-.5c-.1-.1-.1-.2-.1-.4s-.1-.3-.4-.3h-.1v.8zm0-1.1h.2c.2 0 .4-.1.4-.3s-.1-.3-.4-.3h-.2v.6z"/>
</g>
</symbol>

<symbol id="hulu" viewBox="0 0 244.5 180">
<title>Hulu</title>
<g fill="white">
<path d="M68.3 81.8c-4.5 0-9.2-.4-14 .6 0-.5-.1-.8-.1-1.2V66.5c0-.8-.2-1.1-1.1-1.1-3.4.1-6.8.1-10.2 0-.8 0-1.1.2-1.1 1v50c0 .8.3 1.1 1.1 1.1 3.3-.1 6.7-.1 10 0 .9 0 1.2-.3 1.2-1.2-.1-6.5 0-12.9 0-19.5 0-2.5 1.5-4 4-4h6.1c2.9 0 4.3 1.4 4.3 4.2v19.2c0 .8.2 1.1 1 1.1 3.5-.1 6.9-.1 10.3 0 .8 0 1-.3 1-1v-22c0-2.4-.5-4.8-1.8-7-2.5-3.8-6.2-5.3-10.7-5.5zm81.9-16.4H140s-1.2.3-1.2 1.2l.1 49.8c0 .8 1.1 1.1 1.1 1.1h10.2s1.1-.3 1.1-1.1V66.5c.1-.9-1.1-1.1-1.1-1.1zm49.1 16.4h-10.7c-.6 0-.8.2-.8.8v19.8c0 2.5-1.5 3.9-3.9 3.9h-7.1c-.6 0-1.2-.2-1.8-.5-1.2-.8-1.8-1.9-1.8-3.3V83c0-.8-.2-1.1-1-1.1h-10.1c-.6 0-1 .1-.9.8.1 7.8-.1 15.5 0 23.3.1 3.3 1.5 6.1 4 8.3 2.8 2.4 6.3 3.2 10 3.2h13.4c4.5-.2 7.8-2.5 9.8-6.6 1.1-2.4 1.5-5 1.6-7.5 0 0 .2-17 .2-20.6 0-.5-.1-1-.9-1zm-71.1 0h-10.7c-.6 0-.8.2-.8.8v19.8c0 2.5-1.5 3.9-3.9 3.9h-7.1c-.6 0-1.2-.2-1.8-.5-1.2-.8-1.8-1.9-1.8-3.3V83c0-.8-.2-1.1-1-1.1H91c-.6 0-1 .1-.9.8.1 7.8-.1 15.5 0 23.3.1 3.3 1.5 6.1 4 8.3 2.8 2.4 6.3 3.2 10 3.2h13.4c4.5-.2 7.8-2.5 9.8-6.6 1.1-2.4 1.5-5 1.6-7.5 0 0 .2-17 .2-20.6 0-.5-.1-1-.9-1z"/>
</g>
</symbol>

<symbol id="ironman" viewBox="0 0 244.5 180">
<title>Ironman</title>
<g fill="white">
<path d="M16.9 84.4h-.5V117H29V84.4H16.9zm127.6-2.2c4.9-.9 8.3-5.7 7.4-10.6-.7-3.8-3-6.2-6.6-7.4-.7-.2-1.3-.3-2-.4h-1.6c-.1 0-.2.1-.3.1-2.4.3-4.5 1.3-6.1 3.1-2.6 2.8-3.1 7.1-1.3 10.4 2 3.8 6.1 5.6 10.5 4.8zm-21.4 2.3v32.4h11.5v-11.8c.1.2.2.3.2.4 1.3 3.7 2.7 7.4 4 11.1.1.1.1.2.2.3s.2.1.4.1h6.2c.4 0 .5-.1.6-.4 1.3-3.7 2.6-7.4 3.8-11.2 0-.1.1-.2.1-.3h.1v11.8h11.4V84.4c-12.9.1-25.7.1-38.5.1zm88.8 9.4s0 .1 0 0c0 .1-.1.1 0 0-.1-.1-.1-.2-.2-.4l-3.6-8.7c-.1-.3-.3-.4-.6-.4h-12.1v32.5h11.8v-12.2c.1-.1.1-.2.2-.2s.2 0 .3.1c0 .1.1.2.1.3 1.5 3.9 2.9 7.8 4.4 11.7.1.3.3.4.6.4H224V84.5h-12.1v9.4zM56.5 99.1c1.5-.7 2.5-2 3-3.6.4-1.4.5-2.8.4-4.2-.1-2-.6-3.8-2-5.4-.4-.5-.9-.9-1.5-1-.7-.1-1.4-.3-2.1-.3H31.1v32.5h12.8v-13.5h1c1 0 1.6.5 1.8 1.4.1.5.2 1 .2 1.4V117h12.7v-.5c0-3.5.1-7 .1-10.5 0-.8 0-1.6-.2-2.4-.1-1.7-1.2-2.8-2.5-3.6-.3-.2-.6-.4-1-.6l.1-.1c.1-.1.3-.2.4-.2zm-9.6-4.6c-.3 1.3-.5 1.5-1.9 1.6h-.9v-4.5c1.9-.3 3.2.9 2.8 2.9zm62.2-1.3c-.4.1-.5-.1-.6-.4-.5-1.3-1-2.6-1.5-4-.5-1.3-1-2.7-1.5-4-.1-.3-.2-.4-.6-.4H92.6v32.5h11.9v-11.8c.4-.2.5.1.6.3 1.3 3.7 2.7 7.4 4 11.1.1.3.2.4.6.4h11.6V84.4h-12.1c-.1 3-.1 5.9-.1 8.8zM90.2 90c-.5-2.4-1.9-4.1-4.2-4.9-1.2-.5-2.5-.6-3.8-.6H69.9c-1 0-2 .1-3 .3-2.3.5-4 1.8-4.9 4-.4 1.2-.6 2.4-.6 3.7V109c0 .6 0 1.1.1 1.7.3 2.4 1.4 4.2 3.6 5.3 1.6.8 3.3 1.1 5.1 1.1h11.6c1.2 0 2.5-.2 3.7-.4 2-.4 3.6-1.5 4.4-3.5.4-1 .6-2.1.6-3.2v-8.9c.1-2.9.1-5.8 0-8.6 0-.8-.1-1.7-.3-2.5zm-12.5 10.7v7.2c0 1-.8 1.9-1.8 2-1.1.1-2.1-.5-2.3-1.5V93.5c0-1.1.9-2 2-2s2.1.9 2.1 2v7.2zm90.2-16.2c-1.8 10.8-3.5 21.6-5.3 32.5h13.3v-.1c.2-2.4.5-4.8.7-7.1 0-.3.1-.5.5-.5h2.7c.2 0 .4 0 .4.3.2 1.6.4 3.3.7 4.9.1.8.2 1.6.4 2.5h13.1c-2.1-10.9-4-21.7-5.9-32.5h-20.6zm11.5 17.6h-2.2c0-.4 0-.7.1-1.1.2-2.3.5-4.5.7-6.8 0-.2 0-.4.3-.4s.2.2.3.4c.3 2.4.5 4.9.8 7.3v.6zm49.4 13.5v-.3c0-.3-.1-.5-.3-.7-.1-.1-.2-.1-.4-.2.2 0 .4-.1.5-.2s.2-.3.2-.5c0-.3-.1-.6-.4-.7-.2-.1-.3-.1-.6-.2h-1.4v2.9h.8v-1h.7c.1 0 .2.1.2.2v.8h.7v-.1c0 .1 0 .1 0 0zm-.9-1.5c-.1.1-.2.1-.4.1h-.3v-.9h.2c.2 0 .3 0 .4.1.2.1.2.2.2.3s0 .4-.1.4z"/>
<path d="M229.5 112.5c-.5-.5-1.1-.8-1.9-.8-.7 0-1.3.2-1.8.7-.6.5-.8 1.2-.8 1.9s.3 1.4.8 1.9 1.1.8 1.9.8c.7 0 1.3-.2 1.9-.7.5-.5.8-1.1.8-1.9-.1-.8-.4-1.4-.9-1.9zm-.3 3.4c-.4.4-.9.6-1.5.6s-1.1-.2-1.5-.6c-.4-.4-.6-.9-.6-1.6 0-.6.2-1.1.6-1.5.4-.4.9-.7 1.6-.7.6 0 1.1.2 1.5.7.4.4.6.9.6 1.5-.1.6-.3 1.2-.7 1.6z"/>
</g>
</symbol>

<symbol id="lukebulla" viewBox="0 0 244.5 180">
<title>LukeBulla</title>
<g fill="white">
<path d="M165 134c-11.4 11.4-26.6 17.7-42.7 17.7S91 145.4 79.6 134c-10.4-10.4-16.5-23.9-17.5-38.4h-7.8c1 16.6 8 32.1 19.8 43.9 12.9 12.9 30 20 48.2 20s35.3-7.1 48.2-20c11.9-11.9 18.8-27.3 19.8-43.9h-7.8c-1 14.5-7.1 28-17.5 38.4zM79.6 48.6c11.4-11.4 26.6-17.7 42.7-17.7s31.3 6.3 42.7 17.7C175.4 59 181.5 72.5 182.5 87h7.8c-1-16.6-8-32.1-19.8-43.9-12.9-12.9-30-20-48.2-20s-35.3 7.1-48.2 20C62.2 55 55.3 70.5 54.3 87.1h7.8c1-14.6 7.1-28.1 17.5-38.5z"/>
<path d="M152 87.6l-.3-.4c-1.5-2-3.6-3-7.5-3H88.6V48h7.7v29h48.4c8.2 0 14.3 3.4 16.2 9.1l.5 1.5H152zm4.3 25.1c0 4.7-4 7.5-10.7 7.5H96.2v-14.7h44.9c5.9-.4 10.9-1.9 14.5-4.3 2.1-1.3 3.6-3.1 4.6-5.2l.8-1.6h-8.9l-.3.5c-1.5 2.3-3.8 3.6-8 3.6H88.6v29h56.9c11.5 0 18.6-5.5 18.6-14.4 0-3.8-1.4-6.9-4.2-9.3-1.7 1.5-3.9 2.8-6.3 3.8 1.6 1 2.7 2.7 2.7 5.1z"/>
</g>
</symbol>

<symbol id="mls" viewBox="0 0 244.5 180">
<title>MLS</title>
<g fill="white">
<path d="M88.9 111.1l-.9-2 .6-.6 2.1 2.1-.4.3-1.7-1.6 1 2.2-.3.3-2.2-1 1.7 1.6-.4.3-2.1-2.1.6-.6 2 1.1zm-2.8.4l-.7.7 1.7 1.7-.4.4-1.7-1.7-.7.7-.3-.3 1.7-1.7.4.2zm22.4-34l1.4 4-3.5-2.5-3.5 2.5 1.4-4-3.5-2.6h4.3l1.3-4 1.4 4h4.2zm-20 0l3.5-2.6h-4.3l-1.4-4-1.3 4h-4.3l3.4 2.6-1.2 4 3.4-2.5 3.5 2.5zm9.2 10.6l-1.4-4-1.2 4h-4.4l3.6 2.5-1.4 4.1 3.4-2.5 3.5 2.5-1.3-4.1 3.5-2.5zm-13-26.5l-3.9-8.9h-.1v11.9c0 .2-.1.3-.3.3h-3.5c-.2 0-.3-.1-.3-.3V44.1c0-.2.2-.3.3-.3h3.8c.2 0 .4.1.5.3l5.4 12h.2l5.3-12c.1-.2.2-.3.5-.3h3.7c.2 0 .3.1.3.3v20.5c0 .2-.1.3-.3.3h-3.5c-.2 0-.3-.1-.3-.3V52.7h-.1l-3.9 8.9c-.1.3-.3.4-.6.4h-2.2c-.7 0-.9-.1-1-.4m14.7 3.3h13.9c.2 0 .3-.1.3-.3v-3.4c0-.2-.1-.3-.3-.3H104c-.1 0-.2-.1-.2-.2V44.1c0-.2-.1-.3-.3-.3h-4c-.2 0-.3.1-.3.3v20.5c0 .2.1.3.2.3m25.8-12.7l-1.1-.2c-2.4-.3-3.3-1.1-3.3-2.3 0-1.3 1-2.2 2.8-2.2 1.7 0 3.3.6 4.9 1.6.2.1.3.1.4-.1l1.9-2.8c.2-.2.1-.3-.1-.4-1.7-1.3-4.4-2.2-7.3-2.2-4.6 0-7.5 2.6-7.5 6.5 0 3.8 2.4 5.7 6.7 6.3l1.1.2c2.5.3 3.3 1.1 3.3 2.4 0 1.5-1.2 2.5-3.5 2.5-2.2 0-4.2-1.1-5.6-2.2-.2-.1-.3-.1-.4.1l-2.4 2.7c-.2.2-.1.4.1.5 1.7 1.6 4.9 2.9 8.2 2.9 5.5 0 8.4-2.8 8.4-6.6.1-4.2-2.2-6.1-6.6-6.7"/>
<path d="M167.2 100.1c-2.4 7-6 13.5-10.5 19.5-4.5 5.8-9.8 11-16 15.2-6 4.2-12.5 7.3-19.5 9.4-6.9-2.1-13.5-5.3-19.5-9.4-4.8-3.3-9-7.1-12.8-11.4L171 42.3v35.1c0 7.9-1.3 15.5-3.8 22.7m-81.4 19.5c-4.6-5.9-8.1-12.5-10.5-19.5-2.5-7.3-3.8-14.9-3.8-22.6V38.9h96.1l-81.8 80.7m90.1-83.2V34H66.6v43.5c0 8.3 1.3 16.4 4 24.2 2.6 7.5 6.4 14.5 11.2 20.9.2.2.3.4.4.6L68 137.3l3.4 3.4 14-13.9c4 4.4 8.5 8.4 13.4 11.9 6.6 4.6 13.9 8 21.6 10.3l.7.2.7-.2c7.7-2.2 15-5.7 21.6-10.3 6.5-4.5 12.3-10 17.1-16.2 4.8-6.3 8.7-13.4 11.2-20.9 2.7-7.8 4-15.9 4-24.2.2-.2.2-41 .2-41"/>
</g>
</symbol>

<symbol id="nike" viewBox="0 0 244.5 180">
<title>Nike</title>
<g fill="white">
<path d="M66.9 66.5c-.2.3-.3.5-.4.8-2.4 4.3-4.2 8.7-5 13.6-.5 3.7-.4 7.4 1.3 10.9 2.4 4.5 6.2 6.9 11.2 7.6 5.4.7 10.6-.2 15.9-1.5 38.3-10.2 76.5-20.4 114.8-30.5.2-.1.4-.1.5 0-.2.2-.4.3-.7.4-38.7 16.5-77.5 33.1-116.2 49.7-5.7 2.4-11.5 4.5-17.6 5.6-4.7.8-9.5 1.2-14.2 0-8.1-2.1-12.9-8.7-12.6-17.1.2-5.2 1.9-10 4.1-14.6 2.8-5.8 6.7-10.9 10.8-15.8 2.4-2.8 4.8-5.5 7.3-8.3l.8-.8c-.1-.1-.1-.1 0 0z"/>
</g>
</symbol>

<symbol id="nintendo" viewBox="0 0 244.5 180">
<title>Nintendo</title>
<g fill="white">
<path d="M117.4 88.9h-3.5V86h-6.6v2.9h-3.5v2.2h3.5v14.5h6.6V91.1h3.5zm-21.1 1.5c-2.2.1-4 .9-5.2 2.2v-1.5h-6.5v14.5h6.5v-9.5c0-1.3 1.3-2.6 3.1-2.6s3 1.4 3 2.6v9.5h6.5v-7.8c0-5.9-4.9-7.5-7.4-7.4zm-21.8.7H81v14.5h-6.5zm-.1-2.9H81v-4.5h-6.6zM64.1 99l-9.4-15.3H48v21.8h6.7V90.2l9.4 15.3h6.7V83.7h-6.7z"/>
<path d="M192.3 71.6H53.8c-14.6-.1-24.5 10.5-24.5 23.3S39.1 118 53.9 118h138.4c14.8 0 24.5-10.5 24.5-23.1 0-12.8-9.9-23.5-24.5-23.3zm-.1 40.6H53.9c-11.6.1-18.8-7.8-18.8-17.5s7.2-17.5 18.8-17.5h138.3c11.6 0 18.8 7.8 18.8 17.5s-7.1 17.5-18.8 17.5z"/>
<path d="M189.1 90.1c-5.2 0-9.5 3.6-9.5 8.1s4.3 8.1 9.5 8.1 9.5-3.6 9.5-8.1-4.3-8.1-9.5-8.1zm2.6 8.1v3.1c0 2.4-1.3 3.3-2.6 3.3s-2.6-.9-2.6-3.3v-6.1c0-2.3 1.3-3.3 2.6-3.3s2.6.9 2.6 3.3v3zm-55.9.2c0-4.5-4.4-8.2-9.6-8.2-5.3 0-9.6 3.6-9.6 8.1s4.3 8.1 9.6 8.1c4.4 0 8.1-2.5 9.2-5.9h-6.5v.9c0 2.6-1.8 3.3-2.8 3.3s-2.8-.6-2.8-3.3v-3h12.5zm-11.9-5.1c.5-.9 1.4-1.3 2.3-1.3s1.8.4 2.3 1.3c.4.7.4 1.5.4 2.9h-5.5c.1-1.4.1-2.2.5-2.9zm47.1-1.5c-1-.6-2.2-1.2-3.7-1.3-4.7-.4-8.4 3.8-8.4 7.6 0 5.1 3.9 6.9 4.5 7.3 2.2 1 5 1 7.6-.5v.8h6.5V83.9H171v7.9zm0 6.5v2.6c0 2.2-1.5 2.8-2.5 2.8s-2.5-.6-2.5-2.8v-5.2c0-2.2 1.5-2.8 2.5-2.8s2.5.6 2.5 2.8v2.6zm-21.5-7.9c-2.2.1-4 .9-5.2 2.2v-1.5h-6.5v14.5h6.5v-9.5c0-1.3 1.3-2.6 3.1-2.6s3 1.4 3 2.6v9.5h6.5v-7.8c0-5.9-5-7.5-7.4-7.4zm52.2-5.4c-.3-.3-.7-.5-1.1-.6-.4-.2-.8-.2-1.3-.2-.4 0-.9.1-1.3.2-.4.2-.8.4-1.1.6-.3.3-.5.6-.7 1-.2.4-.3.8-.3 1.3s.1.9.3 1.3c.2.4.4.7.7 1 .3.3.7.5 1.1.6.4.1.8.2 1.3.2.4 0 .9-.1 1.3-.2s.8-.4 1.1-.6.5-.6.7-1c.2-.4.3-.8.3-1.3s-.1-.9-.3-1.3c-.1-.4-.4-.7-.7-1zm-.1 3.3c-.1.3-.3.6-.5.8-.2.2-.5.4-.8.5-.3.1-.6.2-.9.2-.3 0-.7-.1-1-.2-.3-.1-.6-.3-.8-.5-.2-.2-.4-.5-.5-.8-.1-.3-.2-.6-.2-1s.1-.7.2-1c.1-.3.3-.6.5-.8.2-.2.5-.4.8-.5.3-.1.6-.2 1-.2.3 0 .6.1.9.2.3.1.6.3.8.5.2.2.4.5.5.8.1.3.2.6.2 1s0 .7-.2 1z"/>
<path d="M200.3 87.5c.1 0 .2-.1.3-.2.1-.1.2-.2.2-.3 0-.1.1-.3.1-.4 0-.4-.1-.7-.4-.8-.2-.2-.6-.2-1-.2h-1.4v3.6h.7v-1.5h.4l.9 1.5h.7l-1-1.6c.3-.1.4-.1.5-.1zm-1.5-.5v-.9h.9c.1 0 .2 0 .2.1.1 0 .1.1.2.1 0 .1.1.1.1.2 0 .2-.1.4-.2.4-.1.1-.3.1-.5.1h-.7z"/>
</g>
</symbol>

<symbol id="pokemon" viewBox="0 0 244.5 180">
<title>Pokemon</title>
<g fill="white">
<path d="M62 88.2c-.7-.3-1.4-.3-2.3-.3.1.3.3 1.4.3 1.4s1.3 4.1 1.4 4.6c1.1-1.1 1.7-2.1 1.7-3.3 0-.3 0-.7-.1-.9.1-.9-.6-1.3-1-1.5zm49.7.1c-.3.3-2.8 2.7-3 2.9.2.1 3 1.1 3.2 1.2-.2-.9-.3-1.9-.3-2.9 0-.4.1-.8.1-1.2zm12.2-2.5c-.7.7-.9 1.5-.9 2.5 0 .5.2 1 .3 1.5.3-.3 4.1-4.6 4.3-4.9-1.3-.5-2.8-.2-3.7.9zm71.3-.1zM100 104.8c.1 0 .1 0 0 0zm54.6-33.7c.1 0 .1 0 0 0zm-12 1.8zm-63.9 41.6z"/>
<path d="M214 81.9c0-.1 0-.1 0 0l-14.4-3.5h-.2l-2.1 1.2c-.2-.9-.3-1.7-.3-1.7 0-.1 0-.1-.1-.1l-16.8-3.7h-.1l-3.1 1.7.1 8.4c-1.7-.1-3.6.3-5.4.8-1.1.4-2.3 1-3.3 1.8-.1-.3-2.5-15.9-2.5-15.9 0-.1-.1-.1-.1-.1h-11.2l-.1.1-3.1 1.7v.1h-9l-.1.1-3.1 1.7-.7 3.8c-2.6-2.5-6.1-3.9-9.9-4.1.4-.3 9.8-5.3 9.8-5.3s.1 0 .1-.1v-.1l-7-10.4-.1-.1-3.1 1.7-12.7 14.5 2.3 2.6c-.1 0-.1.1-.1.1l-2.3 1.1c-1.8-1.6-10.4-9.3-10.4-9.3h-.1l-3.1 1.7-.5.9c0-1.3.1-2.4.1-2.4V69h-.1L85 74.9l-3.1 1.7.4 9.1 2.9-.8.2 2c-2.5-.3-5.1 0-7.6 1-1 .4-2 .9-2.9 1.6.3-1 .3-2 .3-3.1 0-1.7-.3-3.3-.9-4.8-1.2-2.9-3.5-5.4-6.2-6.9-1.9-1.3-4.2-2-6.6-2.3-5.9-1-12.9 0-19.8 3-2.5 1.1-4.9 2.3-7.1 3.7L32 80.7l-2.5 2.6 8.2 14 3.1-1.4L54 126.1l12.7-4.1 3.1-2c.1 0 .1-.1.1-.1s-1.4-5.2-2.5-9.9c.9 1.8 2.3 3.1 2.3 3.1 1.4 1.3 3 2.3 4.8 2.7 3.5 1 7.5.3 10.9-1.8.8-.4 1.7-1.2 2.5-1.9l.4 4.7 11.8-1.7 3.2-1.6c.1 0 .1-.1.1-.1v-7.5l21.7 10.8 3.1-1.6h.1l.1-.1v-10.3c2.5-.3 4.7-1.4 6.8-2.6.1 0 .1-.1.1-.1l-.9 5.7 13.4 2.2 2.5-1.4 2.1 4.2 2.2-1 .3 2.5 15.3 2.6 3.1-1.6h.1v-.1s-.3-2.3-.6-3.7c1-.1 2.1-.3 3.1-.6.3-.1.8-.3 1.5-.6l-.6 5.4 10.1 1.5.1 4.1 10.5 3.3 3.1-1.6c.1 0 .1 0 .1-.1L214 81.9zm-82.7-18.5c.1.1 3.5 4.7 3.6 4.9-.2.1-10.3 5.1-10.4 5.1-.1-.1-.6-.8-.7-1 0-.1 7.4-8.8 7.5-9zm-69.9 38.4c-.1.1 4.1 16 4.1 16.1-.1.1-6.5 2.1-6.6 2.1-.1-.1-13.9-31.1-13.9-31.1s0-.1-.1-.1l-2.3 1.1s-1 .5-1.1.6c-.1-.1-4.9-8.2-5-8.4 2-1.2 4.2-2.4 6.5-3.4 6.3-2.6 12.7-3.7 17.8-2.7 2 .3 3.8.8 5.3 1.8 2.3 1.3 4 3.1 4.9 5.4.4 1.1.7 2.3.7 3.5 0 5.3-3.9 11.2-10.3 15.1zm28.9 3.9c-.9 1.2-1.9 2.3-3.1 3.1-.8.7-1.7 1.1-2.6 1.6-3.1 1.3-6.1 1.3-8.7.1-2.3-1.1-3.9-3.1-4.6-5.6-1.5-5.4 1.9-11.8 7.6-14.2 2.2-.9 4.5-1.1 6.5-.8 1.2.3 2.3.7 3.3 1.4 0 0 .1 0 .1.1 1.7 1.1 2.8 2.7 3.3 4.8l.2.7c.2.8.3 1.6.2 2.4.1 2-.7 4.5-2.2 6.4zm34.5 4.6c-.3-.1-24.5-12.3-24.5-12.3h-.1l-.1.1v12.8c-.1 0-6.1.8-6.2.8 0-.1-.4-5.3-.4-5.3 1.4-2.4 2.1-5 2.1-7.6 0-1.1-.1-2.4-.4-3.5-.6-2-1.6-3.8-3.1-5.2 0-.2-.8-10.9-.8-10.9s0-.1-.1-.1h-.1s-2.6.7-2.7.7c0-.2-.1-2.5-.1-2.5.1-.1 9.9-3 10.1-3.1 0 .2.7 10.4.7 10.4 0 .1 0 .1.1.1h.1s7.4-10.4 7.5-10.6c.1.1 7.2 6.8 7.2 6.9-.1.1-10.3 10.9-10.3 10.9v.1s0 .1.1.1l9.7 3.8c1.1 2 2.7 3.8 4.8 5.1 2 1.2 4.2 2 6.7 2.2-.2.5-.2 6.8-.2 7.1zM112 92.5c-.3-.1-3.1-1.1-3.2-1.2.1-.1 2.6-2.6 3-2.9-.1.3-.1.8-.1 1.2-.1.8 0 1.8.3 2.9zm26.9 3.2s0 .1 0 0c-1 .8-2 1.5-3.1 2.1-1.6.8-3.4 1.5-5.5 2-.8.2-1.5.3-2.3.3-5.5.5-10.3-1.9-12.1-6.2-.2-.5-.3-1-.5-1.5-.8-3.4-.3-6.5 1.6-9.2.5-.7 1.1-1.4 1.7-2 1.7-1.5 3.8-2.5 6.1-3.1 5.1-1.2 9.9.2 13 3.8-.1.1-10.3 10.9-10.3 10.9v.1l.1.1c.8.1 2.1-.1 2.6-.3 2.3-.6 3.7-1.7 5-3.3.1.1.8.7 1.6 1.5.8.7 1.7 1.5 2.5 2.2.7.6 1.1.9 1.1 1-.5.7-.9 1.1-1.5 1.6zm21.9 14.6c0-.1-2.3-14.8-2.3-14.8 0-.1-.1-.1-.1-.1-.1 0-.1 0-.1.1 0 0-3 7.6-3.1 8-.1-.3-4.7-10-4.7-10l-.1-.1s-.1 0-.1.1c0 0-1.9 11.6-1.9 11.7-.1 0-7.6-1.4-7.7-1.4 0-.1 1.1-6.5 1.1-6.5l.8-.8 2.5-2.6v-.2s-2.4-2.1-2.5-2.2c0-.1 2.5-15.5 2.6-15.6h7.8c0 .1 2 10.9 2 10.9 0 .1.1.1.1.1.1 0 .1 0 .1-.1 0 0 2.2-12.4 2.3-12.6h5.6c0 .1 2.4 15.2 2.4 15.3-2.5 2.8-3.8 6.2-3.8 9.5 0 .9.1 1.9.3 2.7.8 3.3 2.8 5.9 5.7 7.5l.8.3c0 .1.3 1.7.3 1.9 0 .2-7.8-1.1-8-1.1zm19.6-4.8c-.9.7-1.9 1.2-2.9 1.5-.1 0-.1.1-.2.1-1.9.7-3.8.8-5.7.5-1.2-.3-2.4-.7-3.3-1.4-1.6-1.1-2.7-2.9-3.2-4.9-.6-2.5-.1-5.1 1.3-7.6.7-1.2 1.5-2.3 2.5-3.2 1.2-1.1 2.5-1.9 4-2.5 2.3-.8 4.5-.9 6.5-.3.9.3 1.9.7 2.6 1.3.8.7 1.6 1.4 2.2 2.3.4.8.8 1.5.9 2.5.2.7.3 1.5.3 2.2 0 2.3-.8 4.7-2.3 6.7-.5 1-1.5 1.9-2.7 2.8zm17.7 14c-.1-.1-5.6-1.7-5.7-1.7 0-.1-.5-21.5-.5-21.5 0-.1-.1-.1-.1-.1-.1 0-.1 0-.1.1 0 0-2.9 16.4-3 16.6-.1 0-6.1-.9-6.2-.9 0-.1.4-4.7.4-4.7 3.5-3 5.5-7.1 5.5-11.3 0-.9-.1-1.9-.3-2.9-.5-2.2-1.7-4.2-3.3-5.7 0-.1.5-5.6.5-5.6 0-.1 0-.1-.1-.1 0 0-2.3-.6-2.4-.7 0-.1.1-2.6.1-2.9.2.1 10.7 2.2 10.9 2.2 0 .1.5 2.3 1.1 5.3v.1c1.1 5.1 2.5 12.1 2.5 12.1 0 .1.1.1.1.1.1 0 .1 0 .1-.1 0 0 3.7-15.5 3.8-15.6.1.1 8 1.8 8.2 1.8.2.2-11.4 35.3-11.5 35.5z"/>
<path d="M65.9 89.1c-.3-1.5-1.3-2.6-2.6-3.4-2-.9-4.5-.8-6.7.4-.1.1-.1.1-.1.2l1.1 3.8 2.5 8.2c0 .1.1.1.1.1h.1c3.3-2.2 6.4-4.7 5.6-9.3zM59.7 88c.8-.1 1.6-.1 2.3.3.3.2 1 .6 1.1 1.4.1.3.1.7.1.9 0 1.2-.6 2.3-1.7 3.3-.1-.4-1.4-4.6-1.4-4.6.1 0-.3-1.1-.4-1.3zm71.4-3.8l-.4-.4c-1.2-1.1-2.7-1.7-4.3-1.6-1.6.1-3.1.8-4.2 1.9-1 1.1-1.6 2.5-1.6 4.1v.3c.1 1.6.8 3.1 1.9 4.2l.7.5c.1.1.1.1.2 0l7.6-8.7c.2-.2.2-.3.1-.3zm-3.4.5c-.3.3-4.1 4.6-4.3 4.9-.2-.5-.3-1-.3-1.5 0-.8.3-1.8.9-2.5.8-.9 2.3-1.2 3.7-.9zm53 7c-.1-.1-.1-.1-.2-.1s-.1.1-.1.2l.1.8c-.1 1.1-.8 2-1.8 2.4-.4.2-.9.3-1.5.3-.8-.1-1.7-.4-2.3-1-.5-.5-.8-1.2-.7-1.9.1-1.5 1.4-2.5 3-2.6.1 0 .1-.1.1-.1 0-.1-.1-.1-.1-.1l-1-.1c-1.6-.1-3.1.5-4.2 1.5-.9.8-1.5 2.1-1.6 3.4-.1 3 2.3 5.4 5.4 5.5.9.1 1.8-.1 2.5-.4 1.9-.8 3.1-2.5 3.3-4.6 0-1.3-.3-2.4-.9-3.2zm-93.1 2.5c-.1-.1-.1-.1-.2-.1s-.1.1-.1.2l.1.8c0 .8-.4 1.7-1.2 2.2-.5.3-1.2.7-2 .7-1.7 0-3.1-1.3-3.1-2.8s1.2-2.6 2.8-2.8c.1 0 .1-.1.1-.1 0-.1-.1-.1-.1-.1l-1-.1c-3.1 0-5.7 2.3-5.7 5.1 0 3 2.5 5.4 5.6 5.4 1.4 0 2.6-.4 3.7-1.3s1.9-2.4 1.9-4.1c.1-1.3-.2-2.2-.8-3zm120.3 27.9l-.7-1.8h-.9v3.1h.6V121l.8 2.4h.4l.7-2.4v2.4h.6v-3.1h-.9zm-4.3-1.1h.9v2.4h.7V121h.8v-.7h-2.4z"/>
</g>
</symbol>
<symbol id="soundersfc" viewBox="0 0 244.5 180">
<title>SoundersFC</title>
<g fill="white">
<path d="M152.1 89.6c-.1 1-.1 1.9-.1 2.8V98c-.8-.1-1.4-.1-2-.2l-2.1-.3c-.8-.1-.8-.1-.8-.8V78.3c0-.5-.1-.9-.5-1.3-.6-.6-1.1-1.3-1.8-1.9.3 0 .3-.1.4-.1 1.8.2 3.5.3 5.2.6 1.9.3 3.9.4 5.8.7 3 .3 5.6 2.5 6.4 5.6.3 1.3.4 2.5.3 3.8-.3 1.9-1.3 3.1-2.9 4-.7.3-.7.3-.3 1 .7 1.5 1.4 3.1 2.2 4.6.7 1.3 1.3 2.8 1.9 4.1.1.1 0 .3.1.4-.3 0-.6 0-.9-.1-1.3-.2-2.5-.4-3.8-.6-.6-.1-1-.3-1.3-1-1.1-2.4-2.2-5-3.3-7.4-.2-.5-.4-.8-1.1-.8-.4 0-.9-.2-1.4-.3zm0-9.2c0 .1-.1.2-.1.3v4c0 .4.3.6.6.6 1.1.2 2.3.3 3.4.4h.7c.8-.1 1.3-.5 1.4-1.3.5-1.4-.4-3.2-1.9-3.6-1.3-.3-2.5-.4-3.8-.6-.2.2-.2.2-.3.2zm-61.6 6.4c.4.6.8 1.2 1.2 1.7.3.4.4.8.4 1.3 0 2.6-.1 5.1-.1 7.7 0 .6 0 .6-.7.7-1.3.2-2.6.3-4 .5h-.6c-.2-.7-.2-22.2 0-22.8 4 3.3 8 6.7 12 9.9.1 0 .1-.1.2-.1 0-.3.1-.5.1-.8v-9.3c0-.7.1-.7.7-.8.5-.1 1.1-.1 1.6-.2.9-.1 1.9-.2 2.9-.2 0 .3.1.4.1.6v1c0 6.7 0 13.6.1 20.3v.8c-.9-.6-1.6-1.2-2.4-1.8-.8-.6-1.5-1.2-2.3-1.8-.8-.6-1.5-1.3-2.4-1.9-.8-.6-1.5-1.2-2.3-1.8-.8-.6-1.5-1.2-2.3-1.8-.8-.6-1.5-1.2-2.3-1.8.2.5.2.6.1.6zM70 79.5c0 .3.1.6.1.9v12.2c0 .9.1 1.9.4 2.7.6 1.4 1.7 2.1 3.2 1.9 1.9-.3 3-1.3 3.7-3.5.3-.8.3-1.8.3-2.6V78.7c0-.3 0-.6.1-.8 2.1-.3 4.2-.7 6.4-1-.2.3-.3.3-.3.5-.3.3-.5.6-.7.8-.5.5-.7 1.1-.7 1.9.1 3.6.1 7.3 0 10.9 0 2.1-.4 4.2-1.3 6.1-1.2 2.4-3 3.9-5.5 4.6-1.5.5-3 .8-4.5.6-2.4-.3-4-1.7-4.9-4-.4-1.2-.6-2.4-.6-3.7 0-4.5-.1-8.9-.1-13.4v-.5c0-.3.2-.5.4-.6 1.4-.2 2.7-.4 4-.6-.1-.1-.1-.1 0 0zm56.4 3c.5.1 1 .1 1.5.2.7.1.8 0 .8-.7v-6.1c0-.4 0-.8.1-1.3s.1-.6.6-.6c1.2.1 2.3.1 3.5.2l5.1.3 4.2.3c.3 0 .5.2.5.5v3.6c0 .5-.1.5-.7.5-2.4-.2-4.9-.3-7.3-.4h-.7c-.1.2-.1.3-.1.4 0 1-.1 2-.1 3 0 .7.1.8.8.8 1.9.2 3.9.3 5.8.5.3 0 .4.1.8.1-.1.3-.2.4-.3.6l-1.8 2.7c-.3.3-.4.5-.9.4-1.1-.2-2.1-.2-3.2-.3-.3 0-.8 0-1.2-.1 0 .3-.1.4-.1.6 0 1.2 0 2.4.1 3.5 0 .6.1.7.7.7 2.4.2 5 .4 7.4.6.6.1.7.2.7.8v3.3c0 .5-.1.6-.6.6-1.1-.1-2.1-.1-3.2-.2-2-.1-4.1-.3-6.1-.4-.9-.1-1.9-.1-2.8-.2h-.7s-.5-.3-.5-.6v-4c0-2.1-.1-4.1-.1-6.2 0-.4-.2-.8-.4-1-.5-.4-1-.9-1.5-1.3-.2-.2-.3-.3-.5-.4.2-.2.2-.3.2-.4zM221 100c-.3-.2-.5-.3-.7-.5-1.3-1.3-2.9-2.3-4.6-2.9-.8-.3-1.6-.5-2.4-.4-1.9.1-3.2 1.3-3.6 3.1-.9 4 .9 8.7 5.1 10.8 1.9 1 4 1.3 6.1.8h.3c.7 1.6 1 3.4 1.6 5.1-.7.2-1.3.3-1.8.3-2 .2-4-.2-5.8-1-4.6-1.9-7.9-5.3-9.9-9.9-1.2-2.8-1.6-5.7-.9-8.8.5-2.4 1.7-4.4 4.1-5.4 1.2-.5 2.4-.6 3.6-.5 4 .3 7.1 2.1 9.9 4.7.4.4.5.8.3 1.3-.4.9-.8 1.9-1.1 2.9 0 .1-.1.2-.2.4zm-54.4-6.3c.8.6 1.4 1.1 2.1 1.5 1.1.8 2.3 1.3 3.6 1.7.3.1.8.2 1.2.2 1.3.1 2-1 1.6-2.3-.3-.8-.8-1.3-1.3-1.7-1.2-.8-2.4-1.6-3.5-2.4-1.3-.9-2.5-2.1-3.4-3.5-.9-1.7-1.2-3.5-.6-5.3.5-1.5 1.5-2.4 3-2.9 1.7-.5 3.4-.3 5 .1 1.7.4 3.3 1.2 4.6 2.3.7.5.7.6.4 1.3-.3.9-.5 1.9-.8 2.7-.1.3-.2.5-.3.8-.3-.2-.4-.3-.5-.3-1.2-.9-2.5-1.9-4-2.3-.5-.2-1.1-.2-1.6-.1-.9.1-1.4 1-1.2 1.9.3.8.8 1.3 1.3 1.8.8.6 1.7 1.2 2.6 1.7 1.3.8 2.4 1.7 3.4 2.8 1.5 1.7 2 3.6 1.9 5.8-.1 1.1-.5 2.1-1.2 2.9-1 1.2-2.3 1.7-3.8 1.8-1.7.1-3.3-.3-4.9-.8-1.7-.7-3.2-1.5-4.6-2.6-.5-.4-.5-.5-.3-1.1.3-.8.5-1.8.8-2.6.3-.6.4-.9.5-1.4zm29 13.9c-.6-.2-1.1-.3-1.5-.4-.9-.3-1.9-.5-2.8-.8-.8-.2-.8-.3-.8-1v-9.6c0-.7-.2-1.2-.7-1.7s-1-1.1-1.5-1.6c-.1-.1-.2-.3-.3-.5.3.1.5.1.7.1.4.1.8.3 1.3.3.4.1.5 0 .6-.4v-9.3c4.6 1.2 9.2 2.4 13.6 3.6.2.6.2 4.3 0 5-2.8-.7-5.6-1.5-8.5-2.2 0 .3-.1.5-.1.7v3.5c0 .6 0 .6.6.8 2.2.6 4.3 1.2 6.5 1.8.1 0 .2.1.3.2-.1.2-.2.3-.3.5-.6.8-1.3 1.7-1.9 2.5-.3.3-.5.4-.8.3-1.3-.3-2.5-.7-3.8-1-.2-.1-.3-.1-.7-.1-.1 1.6-.1 3.1-.1 4.6.2 1.5.2 3 .2 4.7zM69.8 72c.6 1 .6 1 1.7.8.8-.2 1.4-.3 2.2-.4l1.2-.3c.4-.1.6-.4.7-.8s-.2-.8-.6-.8c-.3 0-.8 0-1.1.1-1.3.3-2.5.5-3.9.7-.4.1-.8.1-1.3.1-.8-.1-1.3-.5-1.3-1.3-.1-.6 0-1.2 0-1.8 0-1.4.9-2.4 2.1-2.7 1.3-.3 2.7-.7 4.1-.9.8-.2 1.6-.3 2.4-.3 1.5-.1 2 .8 1.9 2v.6c-.8.4-1.7.4-2.4.5-.5-.8-.7-.8-1.6-.7s-1.9.3-2.8.6c-.3.1-.7.3-.9.5-.4.5-.2 1 .4 1 .5 0 .9-.1 1.4-.2 1.1-.2 2.1-.4 3.2-.6.5-.1.9-.1 1.4-.1.8 0 1.3.3 1.5 1.2.2 1 .2 1.9-.1 2.9-.3.8-.8 1.3-1.5 1.6-.6.3-1.3.4-1.9.6-1.4.3-2.9.6-4.4.8-.5.1-1 .1-1.5.1-.7 0-1.1-.3-1.3-.9-.2-.5-.1-1-.1-1.6 0-.1.2-.3.3-.3.8-.1 1.5-.2 2.2-.4zm26-10.6v2.2c-.3.1-.4.1-.6.2-1.9.3-3.7.4-5.6.7-.3 0-.6.2-.6.3-.1.3 0 .8 0 1.1 0 .1.3.2.4.2.4 0 .8-.1 1.2-.1 1.2-.2 2.4-.3 3.6-.5.3-.1.7 0 1.2-.1-.3.7-.5 1.3-.8 1.9-.1.2-.3.3-.5.3-1.3.2-2.8.3-4.1.5-.2 0-.4 0-.6.1-.3 0-.4.2-.4.4v.2c-.1 1.2.1 1 .9.9 1.3-.2 2.7-.3 4.1-.5.4-.1.8-.1 1.3-.2.6 0 .7 0 .7.6v1.2c0 .4-.2.6-.6.6l-1.8.3c-2.3.3-4.5.5-6.7.8-.4.1-.5 0-.5-.5v-8.4c0-.8 0-.8.8-.8 2-.3 4-.5 6.1-.8.4-.1.9-.2 1.3-.2.3-.3.7-.4 1.2-.4zm82.3 6.8c-.8-.2-1.6-.3-2.4-.4-1.3-.3-2.5-.5-3.9-.8-.6-.1-.7 0-.8.3-.1.7.1 1.1.5 1.2s.8.2 1.3.3c1.3.3 2.5.4 3.8.7.3.1.5.2.8.3-.2.7-.7 1.2-1 1.8-.8-.2-1.6-.3-2.4-.4-.8-.2-1.6-.3-2.4-.4-.5-.1-.6 0-.6.5 0 .8.1.8.8 1 1.9.3 4 .8 5.9 1.2.1 0 .2.1.3.1v2.3c-1.7-.3-3.2-.6-4.8-.9s-3.2-.6-4.7-.9c-.2-.6-.2-8.8 0-9.7h.5c2.8.6 5.6 1.1 8.4 1.7.6.1.6.1.6.7.1.3.1.8.1 1.4zm-50.5-5.6v6.7c0 .3-.2.5-.5.5-.5 0-1 0-1.5-.1-.7-.1-.7-.1-.7-.8v-6c0-.4-.1-.6-.6-.6h-2.1c-1.1-.1-1.1-.1-1.1-1.2 0-1.5-.1-1.3 1.3-1.3 2.8 0 5.6.1 8.3.2.5 0 .6.1.6.6v1.1c0 .7-.1.8-.8.8h-2.1c-.2.1-.4.1-.8.1zm19.1.9c-.9-.1-1.8-.1-2.6-.2h-.1c-.8-.1-.9 0-.9.8v6.3c-.8.2-1.6 0-2.3-.1-.2 0-.3-.3-.3-.4-.1-.2 0-.4 0-.6v-5.5c0-.8 0-.8-.8-.9-.8-.1-1.6-.1-2.4-.2-.2 0-.3 0-.5-.1-.1-.8-.1-1.5 0-2.4 1.2.1 2.2.1 3.3.2l3.9.3c.8.1 1.6.2 2.4.2.3 0 .4.1.4.3-.1.9-.1 1.6-.1 2.3zm9.7 5.9c.3.1.5.1.8.2 1.3.2 2.5.3 3.8.5.3 0 .6.1.8.2.5.1.6.2.6.7v1.3s-.1.5-.5.4c-1.1-.1-2.1-.3-3.2-.4-1.2-.2-2.4-.3-3.6-.5-.3 0-.5-.1-.7-.1-.6-.1-.6-.2-.6-.8v-8.4c0-.2.1-.3.1-.6.8.1 1.7.1 2.6.4-.1 2.4-.1 4.7-.1 7.1zM62.2 87c-1.3-2.5-3.3-4-6.2-4.2-2.1-.2-4 .3-5.9 1.3-4 1.9-6.4 5.1-7.7 9.3-.7 2.1-.8 4.3-.7 6.5.1 1.3.4 2.5.9 3.7 1.5 3.2 4.2 4.7 7.5 4.5 3.2-.3 6-1.6 8.3-3.8 3.2-3.1 4.7-7.1 4.9-11.8-.1-.5-.2-1.3-.2-2 0-1.4-.4-2.5-.9-3.5zm-6.5 13.6c-1.2 1.3-2.6 2.2-4.4 2.2-1.7.1-2.8-.8-3.6-2.2-.5-.9-.8-1.9-.8-2.9-.2-2.2.3-4.2 1.3-6.1 1-1.8 2.4-2.9 4.4-3.5 1.9-.5 3.6.3 4.5 1.9.7 1.3.9 2.6.8 4.5.1 1.9-.5 4.2-2.2 6.1zm-17.2-.4c-.6-.3-1.3-.6-2-.8-.9-.2-1.9-.3-2.8-.3-.5-.1-1.1-.2-1.6-.3-.8-.3-1.2-.8-1.1-1.5 0-.8.4-1.4 1-1.9.9-.8 2-1.3 3.3-1.3.9 0 1.9 0 2.7.3.6.2.7.1.8-.5.3-1.4.7-2.8 1-4.2.2-.6.1-.8-.5-.8-1.1-.1-2.2-.2-3.3 0-3.5.6-6.4 2.3-8.5 5.1-1.4 1.9-2.1 4-1.8 6.5.2 1.6 1 2.8 2.5 3.5 1 .4 2.1.5 3.2.7.8.1 1.8.3 2.6.5.7.2 1 .8 1 1.5 0 1-.4 1.8-1.2 2.4-.9.7-2 1-3.1 1.2-1.3.2-2.5.2-3.8-.3-.3-.1-.4-.1-.7-.2-.1.2-.2.3-.2.4-.2.8-.4 1.4-.6 2.2l-.6 2.4c-.1.5 0 .7.4.8.9.2 1.9.3 2.7.3 2.4-.1 4.5-.6 6.6-1.8 3.7-2.3 6-5.5 5.8-10 0-1.8-.4-3.1-1.8-3.9zM124.3 81c0-1.1-.2-2.2-.5-3.3-.5-1.6-1.6-2.7-3.2-3.2-1-.3-2-.5-3.1-.5-.8 0-1.5.1-2.3.1-2 .1-4 .2-6.1.3-.5 0-1.1.1-1.8.2.5.6.9 1.1 1.3 1.5s.6.9.6 1.5v19.1c.8-.1 1.6-.1 2.4-.2 1.9-.1 3.8-.1 5.7-.2 2.6-.1 4.5-1.3 5.9-3.5.8-1.3 1.1-2.7 1.1-4.2V81zm-4.5 7c0 .6-.1 1.1-.2 1.7-.3 1.2-1.3 1.9-2.4 2-.9.1-1.9.1-2.8.1-.3 0-.4-.2-.4-.4v-12c0-.8 0-.8.8-.8s1.5 0 2.3.1c1.4.1 2.3.8 2.5 2.3.1.6.2 1.3.2 1.9V88zm-4.4-19.6c-1.3-2.5-2.6-5.1-3.9-7.7-.2-.4-.4-.6-.9-.5-.8.1-1.6.1-2.4.2-.4 0-.7.3-.8.6-1.3 2.9-2.7 5.7-4 8.6-.1.3-.2.5-.3.8.9-.1 1.8-.2 2.6-.2.3 0 .4-.2.5-.4s.3-.6.3-.8c.2-.3.3-.5.7-.5 1.2-.1 2.4-.2 3.5-.3.9-.1 1.7 0 2 1.1.1.3.3.4.5.4.8 0 1.7-.1 2.8-.1-.2-.5-.4-.9-.6-1.2zm-4.9-2.2c-.7.1-1.3.1-2 .2-.4 0-.6-.2-.4-.5.4-.9.8-1.9 1.3-2.9.2.1.3.1.3.2.4.8.8 1.7 1.3 2.5.1.1.1.3.1.5-.3-.1-.5-.1-.6 0z" id="btjz3Z_1_"/>
</g>
</symbol>
<symbol id="spotify" viewBox="0 0 244.5 180">
<title>Spotify</title>
<g fill="white">
<path d="M191 89.9v15.4c0 .3-.1.4-.5.4h-4.2c-.3 0-.4-.2-.4-.4V90c-.2 0-.3-.1-.5-.1h-1.5c-.4 0-.5-.1-.5-.5v-3.1c0-.9 0-.9 1-.9h1.5v-.8c0-1 .1-1.9.3-3 .7-2.2 2.2-3.5 4.4-3.9 1.7-.3 3.4-.2 5 .3.5.2.5.2.5.7V82c0 .6-.1.7-.7.5-.8-.3-1.7-.4-2.6-.3-1.1.1-1.8.7-1.9 1.8-.1.5-.1.9-.1 1.5h7.3c.7 0 .7 0 .9.7l4.8 12.6c.1.2.2.3.3.6.3-.7.4-1.3.7-1.9 1.3-3.8 2.6-7.6 4-11.4.3-.7.3-.7.9-.7h4.3c.3 0 .3.2.3.4s-.1.3-.2.4c-2.5 6.6-5.1 13.2-7.6 19.7-.4 1.2-1 2.4-1.8 3.4-.8 1.2-1.9 1.9-3.4 2.2-2.2.4-4.3.1-6.3-1-.3-.2-.4-.3-.3-.7.4-1 .9-1.9 1.3-3 .2-.4.3-.5.8-.3.6.3 1.2.5 1.9.6 1.5.2 2.2-.6 2.7-1.8.1-.2 0-.4-.1-.6-.9-2.3-1.9-4.6-2.9-6.9-1-2.5-2.1-5.1-3.1-7.6-.3-.6-.2-.5-.8-.6h-3c-.1.3-.4.3-.5.3zm-41.1-5c4.7.1 8.9 3 10.2 7.3 2 6.2-1.9 12.7-8.4 13.7-3.6.6-6.9-.3-9.5-2.8-2.3-2.2-3.3-4.9-3.2-8.1.2-4.7 3.5-9 8.9-10 .6 0 1.3 0 2-.1zm-5.8 10.6c0 .8.1 1.5.3 2.3.8 2.3 2.8 3.7 5.1 3.8 2.4.1 4.5-1.3 5.3-3.5.6-1.6.7-3.2 0-4.8-1.7-4.3-6.8-4.6-9.3-1.9-.9 1.1-1.4 2.6-1.4 4.1zm19.4-5.6h-1.8c-.5 0-.5-.1-.6-.5V86c0-.5.1-.6.6-.6h1.9v-4.7c0-.7.1-.7.7-.7h3.8c.7 0 .7.1.7.7v4.7h4.6c.8 0 .8 0 .8.8v3c0 .7 0 .8-.7.8h-4.6v9.9c.1.8.6 1.3 1.5 1.4.8.1 1.8 0 2.6-.3.1 0 .3-.1.3-.2.7-.3.8-.2.8.5v3c0 .5-.2.8-.6.9-1.4.7-2.9.9-4.4.8-.5 0-.9-.1-1.4-.2-2-.5-3.3-1.8-3.7-3.9-.2-.8-.2-1.4-.2-2.2v-9.1c-.3-.2-.3-.4-.3-.7zm17.7 5.7v9.7c0 .3-.1.4-.4.4h-4c-.6 0-.7-.1-.7-.7V85.8c0-.4.1-.5.6-.5h4c.7 0 .7 0 .7.7-.2 3.2-.2 6.4-.2 9.6zm-2.6-12.7c-1.8 0-3.2-1.4-3.2-3.2 0-1.9 1.4-3.2 3.3-3.2 1.8 0 3.2 1.4 3.2 3.2 0 1.8-1.5 3.2-3.3 3.2zm36.3 5.6c0-1.8 1.4-3.2 3.2-3.2s3.1 1.4 3.1 3.2-1.4 3.2-3.2 3.2c-1.7 0-3.1-1.4-3.1-3.2zm3.2-2.8c-1.6 0-2.9 1.3-2.9 2.9s1.2 2.8 2.8 2.9c1.6 0 2.9-1.3 2.9-2.9 0-1.6-1.2-2.9-2.8-2.9zM56.1 63c-15.8-.1-29.2 12.7-29.2 29.1-.1 16.1 13 29.2 29.1 29.2 16 0 29.1-13 29.1-29.1.1-16-12.8-29.1-29-29.2zm13.5 41.8c-.3.9-1.4 1.4-2.4 1-.2-.1-.3-.2-.6-.3-3.1-1.9-6.5-3-10.1-3.5s-7.3-.4-11 .1c-1.4.3-2.8.5-4.2.8-1.1.2-2-.3-2.2-1.3-.3-1 .4-1.9 1.4-2.2 3.6-.8 7.3-1.3 11-1.3 4.9 0 9.5.8 14 2.9 1.1.5 2.2 1.1 3.3 1.8.8.3 1.1 1.1.8 2zm3.6-8c-.5 1.2-1.9 1.8-3 1.2-.1-.1-.3-.2-.3-.2-3.5-2.1-7.2-3.3-11.1-4-2.7-.5-5.4-.8-8.1-.7-3.2.1-6.3.4-9.4 1.3-.5.2-1.1.3-1.6.1-.9-.3-1.5-1.1-1.6-2.1 0-.9.6-1.9 1.5-2.2.8-.3 1.6-.5 2.4-.7 3.1-.8 6.2-1 9.8-1.1 5.7.1 11.6 1.2 17.2 3.7 1.2.5 2.3 1.2 3.4 1.8.9.7 1.2 1.8.8 2.9zm.6-7.7c-.2-.1-.3-.1-.4-.2-3.1-1.9-6.5-3-10-3.7-4.7-1-9.4-1.3-14.3-1.2-3.3.2-6.5.6-9.6 1.5-1.4.4-2.8-.3-3.3-1.6s0-2.8 1.3-3.4c.3-.1.4-.2.7-.3 2.4-.7 5-1.2 7.5-1.4 2.1-.3 4.2-.3 6.2-.3 5.8 0 11.6.8 17.1 2.5 2.4.8 4.8 1.8 7 3.1 1 .6 1.4 1.4 1.4 2.5-.1 1.9-1.9 3.1-3.6 2.5zm57.3-3.6c-3.5-1.2-6.5-.6-9 2.1-.1.1-.1.2-.2.3-.1 0-.1 0-.2-.1V86c0-.6-.1-.7-.7-.7h-3.6c-.9 0-.9 0-.9.9V111c0 .4.1.5.5.5h4.1c.4 0 .5-.1.5-.5v-7.7c.1 0 .1-.1.2-.1.2.2.3.3.4.5 1.3 1.3 2.9 2 4.6 2.2 4 .4 7.9-1.7 9.5-5.5 1.3-2.9 1.3-5.9.4-8.9-.7-2.9-2.5-5-5.6-6zm.6 13c-1.6 3.6-6.3 3.9-8.6 1.2-1.9-2.3-1.9-6.1 0-8.4 2.4-2.8 6.7-2.4 8.4.9.5 1 .8 2.1.8 3 0 1.4-.1 2.4-.6 3.3zm-19.5-6.1c-.6-.4-1.3-.8-1.9-1.2-1.1-.4-2.3-.8-3.4-1.2-1.3-.4-2.5-.7-3.7-1.1-.6-.2-1.2-.5-1.8-.8-.5-.3-.8-.8-1-1.3-.3-1.3.2-2.4 1.3-3 .7-.3 1.3-.5 2.1-.6 1.8-.1 3.4.3 4.9 1.1.8.4 1.5.9 2.3 1.4.3.3.4.3.7-.1.8-1.1 1.5-2.2 2.4-3.3.2-.3.1-.4-.1-.6l-.3-.3c-2.6-1.9-5.5-3-8.8-3-1.8 0-3.5.2-5.1.9-2.1.9-3.6 2.4-4.4 4.7-.4 1.3-.4 2.6-.2 4 .3 1.6 1.1 3 2.4 3.9.6.4 1.3.8 1.9 1.1 1.1.4 2.3.8 3.4 1.2 1.3.4 2.5.7 3.8 1.1.6.2 1.2.5 1.8.8.5.3.8.7.9 1.2.3 1.3 0 2.4-1.2 3.1-.6.3-1.3.6-1.9.6-2.1.3-4.1-.2-6-1.1-1-.5-1.9-1.1-2.7-1.9-.7-.5-.7-.5-1.2.1-.7.8-1.3 1.6-2 2.4-.6.8-.6.8.2 1.3 2.8 2.3 5.9 3.5 9.4 3.8 1.9.2 3.7 0 5.5-.7 2.4-.9 4.2-2.4 5-5 .3-1.2.4-2.4.3-3.7-.3-1.3-1.1-2.7-2.6-3.8z"/>
<path d="M219.6 90c-.5.2-.8 0-1-.4-.1-.1-.2-.2-.2-.3-.2-.4-.5-.5-.9-.3 0 .3 0 .7-.1 1h-.6v-3.3h1.8c.4 0 .8.3.9.8.1.5-.1.8-.5 1.2-.1 0-.1.1-.2.2.3.3.6.8.8 1.1zm-2.1-1.6h.9c.3 0 .5-.3.5-.5s-.2-.4-.4-.5h-1v1z"/>
</g>
</symbol>

<symbol id="ubisoft" viewBox="0 0 244.5 180">
<title>Ubisoft</title>
<g fill="white">
<path d="M169.4 68.4c-2.5-18.5-17.5-34.3-35.9-37.5-2.1-.3-4.3-.6-6.4-.9h-4.8c-1.6.3-3.2.4-4.8.7-26.2 4.1-43.2 30.4-36.3 56 5.6 20.9 25.3 34.8 47.1 33.2 10.9-.9 20.3-5 28-12.6 10.8-10.8 15.1-23.8 13.1-38.9zm-34.5 43c-7 1.7-14 1.6-20.9-.6-9.8-3.2-15.6-10.2-18.4-19.9-3.6-12.7 4.6-27.8 19.7-30.3 8.5-1.4 18.4 2.5 23 9.1-1.5-.9-3.1-2.1-4.8-2.8-12.7-5.8-27 3.8-26.5 17.8.3 9.3 7.8 17 17 18 10.5 1.1 19.7-5.9 21.5-17 2.4-15-6.8-28.4-21.5-31.5C107.1 50.6 92.7 61 89.3 76c-.8 3.6-.9 7.2-.4 10.9-1.2-3.2-1.9-6.6-2-10-.5-16.1 6.1-28.2 20.1-35.7 13.8-7.3 27.4-6 40.2 3 7.5 5.3 12.5 12.5 14.9 21.4 5.5 20.2-6.8 40.9-27.2 45.8zm-16.3-21.8c2.6 1.9 6.2 1.6 8.6-.5 2.5-2.2 2.6-5.6.5-9.5 3.2 2.6 4.4 6.7 2.8 10.3-1.5 3.4-5 5.7-8.5 5.4-4-.3-7.3-3.2-8.1-7-.7-3.5.9-7.3 3.3-8.5-2 4.7-1.6 7.6 1.4 9.8zm16-5c-.9-5.7-6.2-10-12.1-9.7-6.2.3-11.5 5.6-10.9 13-2.2-3.9-.3-11.6 3.8-15.6 5.1-4.8 12.9-5.4 18.6-1.5 5.8 4 8.2 11.4 5.6 17.9-2.6 6.5-9.2 10.4-15.9 9.5 8.8-1.2 11.7-8.2 10.9-13.6zm-40.1 55.2c-.3-.3-.6-.3-.7-.3.6-.9 1.5-1.5 1.7-2.5.9-3.6-.6-5.6-4.3-5.9-.3 0-.7-.1-1-.1H74.9c-.2 0-.3.1-.5.2v17h18.4c.3-.2.8-.2 1.1-.4.7-.5 1.5-.9 1.9-1.6.8-1.5.8-3.2.2-4.7-.3-.8-1-1.2-1.5-1.7zm-15-4.4c0-.3.4-.6.7-.6H89c.9 0 1.5.4 1.5 1.4 0 .8-.2 1.5-1.1 1.5-3.2.1-6.6 0-9.9 0v-2.3zm10.3 8.9H79.5v-3.1H89c1.4 0 2 .5 2 1.6.1.9-.3 1.5-1.2 1.5zm37.7-6.6c-1.1-.1-2.3-.1-3.4-.1-2.6 0-5.2 0-7.9-.1-1.7-.1-2.1-.9-1.6-2.7h7.9c1.1 0 2.4-.5 3.1.9 0 .1.2.1.2.1h4.1c.3-3-.8-4.4-3.6-4.7-.6-.1-1.1-.1-1.7-.1h-15.2v5.8c0 3.2 1.6 4.8 4.9 4.8h11.2c.3 2.3 0 2.7-2.1 2.7h-7.2c-.9 0-2 .4-2.3-1 0-.1-.2-.1-.3-.1h-4.3c-.3 2.9.3 3.8 2.8 5h15l.6-.3c2-.6 2.8-1.6 2.8-3.7v-3.3c0-1.9-1-3-3-3.2zm16.2-6.7c-1.8 0-3.6 0-5.3.2-2.8.3-4.5 1.8-4.8 4.6-.2 2.7-.1 5.6.1 8.3.1 1.8 1.2 3 2.9 3.5.7.3 1.4.4 2.1.6h12.5c.1-.1.2-.2.3-.2 3.7-.8 4.8-2.1 4.8-5.8v-11.1h-1.4c-3.7-.1-7.5-.1-11.2-.1zm7.4 11c-.1 1.2-.9 1.9-2.1 1.9-2.7.1-5.5.1-8.1 0-1.3 0-2-.8-2.1-2.1-.1-1.4-.1-2.8 0-4.2.1-1.3.9-2.2 2.1-2.2 3.4-.1 6.8 0 10.2 0 0 2.2.1 4.4 0 6.6zm-86.2-9.7v8.4c0 2.4-.8 3.2-3.2 3.2h-5c-2.3-.1-3.1-.8-3.1-3.1-.1-2.1 0-4.3 0-6.5v-3.4h-5.1v12.7c.5 1.4.9 2.8 2.4 3.5.9.4 1.9.7 2.8 1H70c0-.4-.1-.9-.1-1.4.1-4.7.1-9.5.1-14.3V131h-5.1v1.3zm95.6 15.9h5c0-1.5.1-3.1.1-4.6 0-.8.3-1 1-1 1.6.1 3.2 0 4.9 0h6.2v-4.2h-9.6c-2.8 0-2.9-.1-2.5-2.9 0 0 0-.1.2-.3h12.4V131h-17.7v17.2zm20.1-13h7.3v4.2c0 2.9.1 5.9.1 8.8h5v-13.1h7.3V131h-19.8c.1 1.4.1 2.8.1 4.2zm-80.7-2.8c0 5.2 0 10.5-.1 15.7h5.2v-17.2h-5.2c.1.7.1 1.1.1 1.5zm110.5.6c-.1-.4-.4-.7-.7-1-.3-.3-.7-.5-1.1-.6-.4-.2-.8-.2-1.3-.2-.4 0-.9.1-1.3.2-.4.2-.8.4-1.1.6-.3.3-.5.6-.7 1-.2.4-.3.8-.3 1.3s.1.9.3 1.3.4.7.7 1c.3.3.7.5 1.1.6.4.1.8.2 1.3.2.4 0 .9-.1 1.3-.2s.8-.4 1.1-.6.5-.6.7-1 .3-.8.3-1.3-.1-1-.3-1.3zm-.8 2.2c-.1.3-.3.6-.5.8s-.5.4-.8.5c-.3.1-.6.2-.9.2s-.7-.1-1-.2-.6-.3-.8-.5-.4-.5-.5-.8c-.1-.3-.2-.6-.2-1s.1-.7.2-1 .3-.6.5-.8c.2-.2.5-.4.8-.5.3-.1.6-.2 1-.2.3 0 .6.1.9.2.3.1.6.3.8.5.2.2.4.5.5.8.1.3.2.6.2 1s0 .8-.2 1z"/>
<path d="M208.5 132.8c-.2-.2-.6-.2-1-.2h-1.4v3.6h.7v-1.5h.4l.9 1.5h.7l-1-1.6c.3-.1.4-.1.5-.1.1 0 .2-.1.3-.2.1-.1.2-.2.2-.3 0-.1.1-.3.1-.4 0-.5-.1-.8-.4-.8zm-.5 1c-.1.1-.3.1-.5.1h-.7v-.9h.9c.1 0 .2 0 .2.1.1 0 .1.1.2.1 0 .1.1.1.1.2 0 .2-.1.4-.2.4z"/>
</g>
</symbol>

<symbol id="xbox" viewBox="0 0 244.5 180">
<title>Xbox</title>
<path fill="white" d="M127.3 71.5h-4.9l-10.6 14.7-10.6-14.7h-4.9l13.1 18L95 109.3h4.9l11.9-16.4 11.9 16.4h4.9l-14.4-19.8 13.1-18zm51.3-.9c-10.5 0-17.8 8.1-17.8 19.8s7.3 19.8 17.8 19.8c10.4 0 17.7-8.1 17.7-19.8.1-11.7-7.1-19.8-17.7-19.8zm0 35.6c-7.9 0-13.6-6.5-13.6-15.8s5.6-15.8 13.6-15.8 13.5 6.5 13.5 15.8c.1 9.3-5.5 15.8-13.5 15.8zm33.3-16.6l13.1-18h-4.9l-10.6 14.7-10.6-14.7H194l13.1 18-14.4 19.8h4.9L209.5 93l11.9 16.4h4.9l-14.4-19.8zM155.8 91c-.8-.7-1.6-1.2-2.4-1.6 2.7-1.5 4.5-4.4 4.5-7.6 0-2.4-.8-10.3-12.1-10.3h-15.1v16.3h-5c-.6.8-2.1 2.9-2.7 3.8h7.7v17.7h15.1c8.2 0 13.3-4.3 13.3-11.1-.1-2.9-1.2-5.4-3.3-7.2zm-21.1-15.6h10.9c3 0 7.9.8 7.9 6 0 4-2.9 6.3-7.9 6.3h-10.9V75.4zm11 30h-10.9V91.6h10.9c4.2 0 9.2 1.1 9.2 6.6-.1 6.2-5.8 7.2-9.2 7.2zM44.3 76c.1-.1.1-.1 0 0C33.8 65.3 31 67.8 31 67.7c-5.7 5.7-9.2 13.6-9.2 22.4 0 7.2 2.3 13.8 6.3 19.1.1.1.2.1.2.1.1 0 .1-.1.1-.2-2.4-7.6 9.7-25.6 15.9-33.1zm30.3-8.5c.1 0-2.7-2.4-13.3 8.2l-.1.1s0 .1.1.1c6.3 7.5 18.3 25.6 16 33 0 .1 0 .2.1.2s.2 0 .2-.1c4-5.3 6.3-11.9 6.3-19.1-.1-8.7-3.6-16.6-9.3-22.4zm-37.9-4.2c5.3-1.3 13.8 3.1 16 4.5h.2c.8-.5 10-5.8 16-4.5.1 0 .2 0 .2-.1s0-.2-.1-.2c-4.8-2.9-9.8-4.6-16.2-4.6-6.3 0-11.4 1.8-16.2 4.6-.1 0-.1.1-.1.2.1.1.1.1.2.1zm16.2 20.5c-.1-.1-.1-.1 0 0-9.4 7.2-25.2 24.9-20.4 29.9 5.4 4.8 12.5 7.8 20.4 7.8 7.8 0 15-2.9 20.4-7.8 4.8-5.1-11.1-22.7-20.4-29.9z"/>
</symbol>

<symbol id="branding" viewBox="0 0 244.5 180"><title>Branding</title>
  <g fill="white">
    <path d="M40.9 88.7c2.3-1.3 3.7-3.7 3.7-6.4.1-1.9-.6-3.8-1.9-5.2-2.4-2.6-4.8-3.1-10.2-3.1h-9.8v31.7h10.1c5.4 0 7.5-.3 10.4-2.7 1.9-1.8 2.9-4.3 2.9-6.9.2-3.3-2-6.4-5.2-7.4zm-10.4-7.5h2.9c1.2 0 3.4 0 3.4 2.4 0 2.5-2.3 2.5-3.4 2.5h-2.9v-4.9zm3.8 17.4h-3.8v-5.7h3.8c1.3 0 4 0 4 2.7 0 3-3 3-4 3z"/>
    <path d="M120.1 93.8L107.7 74h-7.1v31.3L88.2 74.1h-6.4l-11.9 29.8-7.1-8.9c6-1 7.9-6.4 7.9-10 .1-3.3-1.4-6.5-3.9-8.7-2.1-1.6-4.2-2.3-9.8-2.3H47v31.7h7.8V95.5h.1l7.3 10.3h15.6l1.7-4.6h11l1.5 4.6h8.8v-.1h7.6l-.2-19.2h.1l12.3 19.2h7V74h-7.8l.3 19.8zM57.7 90h-2.9v-8.8h3c3.1 0 5.2 1.4 5.2 4.3 0 1.5-.5 4.5-5.3 4.5zm24 4.7l3.2-10.8h.1l3.3 10.8h-6.6z"/>
    <path d="M139.8 74h-10.5v31.7h11.1c12 0 16.3-7.2 16.3-15.9.1-3.5-.9-7-2.9-9.9-4.1-5.9-10.4-5.9-14-5.9zm1.1 24.6h-3.4V81.1h3.5c3.6 0 5.3 1.5 6.2 2.9 1 1.8 1.5 3.8 1.5 5.9 0 4.5-1.8 8.7-7.8 8.7z"/>
    <path d="M158.1 74h8.1v31.7h-8.1V74z"/>
    <path d="M187.9 93.8l-.1.1L175.5 74h-7v31.7h7.8l-.2-19.2h.1l12.2 19.2h7V74h-7.8l.3 19.8z"/>
    <path d="M211.2 87.7v6.5h9.5c-.9 3.1-3.6 5.1-7.6 5.1s-8.7-2.9-8.7-9.5c-.2-4.8 3.5-8.9 8.3-9.2h.4c2.9 0 5.6 1.5 7 4.1h9.1c-1.8-6.1-8.3-11.2-15.9-11.2-9.4 0-17 6.8-17 16.3 0 9.1 7.3 16.6 16.5 16.6h.3c8.8 0 16.9-6.4 16.9-17v-1.7h-18.8z"/>
  </g>
</symbol>
<svg id="amazon" viewBox="0 0 244.5 180">
  <g fill="white">
	<path d="M41.5 103.9H45c.4 0 .7-.3.7-.7v-.7c0-3.7 0-7.4.1-11.1 0-.5.2-1.1.4-1.6.4-.9 1.2-1.4 2.2-1.3s1.7.6 1.9 1.6c.1.7.2 1.4.2 2V103c0 .7.2.9.9.9h2.5c1.4 0 1.4 0 1.4-1.4 0-3.6 0-7.2.1-10.7 0-.6.1-1.2.3-1.8.4-1.1 1.4-1.6 2.6-1.5 1 .1 1.5.7 1.7 1.9.1.6.1 1.1.1 1.7v10.8c0 .8.2 1 1 1h2.8c1 0 1.1-.1 1.1-1.1V90.1c0-.6 0-1.3-.1-1.9-.1-1.3-.6-2.4-1.7-3.2-2.6-2.1-6.6-1.3-8.1 1.7-.1.1-.2.3-.3.5-.9-2.1-2.3-3.4-4.7-3.4-2.3 0-3.8 1.2-4.8 3.3v-2s-.2-.9-.9-.9h-2.7s-1.1.1-1.1 1.1v17.9c.2.4.4.7.9.7z"/>
	<path d="M37.7 100.2c-.8-1-1.2-2.2-1.1-3.5v-7.6s-1.4-4.3-3.8-5.1c-2.4-.8-4.7-.7-7.1.1-2.1.8-3.6 2.3-4.1 4.5-.2.8 0 1 .8 1.1l2.8.3c.6.1.8-.1 1-.7.4-1.4 1.5-2.2 3-2.1 1.2 0 2.1.7 2.3 1.8.1.7.1 1.4.1 2.2-1 .1-1.9.2-2.7.3-1.2.2-2.5.4-3.7.8-3.2 1.1-4.8 4.1-4.1 7.4.4 2 1.5 3.5 3.6 3.9 2.4.6 4.6.2 6.6-1.4.4-.3.7-.6 1-.9.6.7 1.2 1.4 1.8 2s.9.5 1.4 0l2.1-1.8c.7-.4.8-.5.1-1.3zM31 98.7c-.3.5-.6.9-1 1.2-.7.6-1.6.7-2.4.4-.9-.4-1.2-1.2-1.3-2-.2-1.9.7-3.2 2.5-3.6.9-.2 1.8-.3 2.9-.5-.2 1.7 0 3.2-.7 4.5z"/>
	<path d="M75.2 91.8c-1.3.2-2.6.5-3.8 1.1-2.5 1.3-3.8 4.1-3.2 7 .5 2.3 1.9 3.8 4.1 4.1 2.4.4 4.6-.1 6.4-1.9l.5-.5c.6.7 1.2 1.4 1.9 2.1.5.5.8.4 1.3 0l2.2-1.9c.8-.7.9-.8.2-1.7-.8-1-1.1-2.1-1.1-3.4v-7.6c0-2.6-1.4-4.3-3.8-5.1-2.4-.8-4.7-.7-7.1.1-2.1.8-3.6 2.3-4.1 4.5-.2.8 0 1 .8 1.1l2.8.3c.6.1.8-.1 1-.7.4-1.4 1.5-2.2 3-2.1 1.2.1 2.1.7 2.2 1.8.1.7.1 1.4.1 2.1-.2 0-.4.1-.5.1-.9.4-1.9.5-2.9.6zm2.9 6.9c-.3.5-.6.9-1.1 1.3-.7.6-1.6.7-2.4.3-.9-.4-1.2-1.2-1.3-2-.2-1.9.7-3.1 2.5-3.6.9-.2 1.8-.3 2.8-.5.1 1.6.3 3.1-.5 4.5z"/>
	<path d="M136.9 87.8c-.3-2.1-1.8-3.5-3.7-3.9-2.4-.4-4.2.3-5.4 2.2-.3.4-.5.9-.7 1.3h-.1V85c0-.6-.2-.8-.8-.8h-3.1c-.6 0-.8.2-.8.8v18.1c0 .6.2.8.8.8h2.5c1.5 0 1.5 0 1.5-1.6 0-3.4 0-6.9.1-10.3 0-1 .2-1.9.8-2.7.5-.8 1.3-1.1 2.2-1 .9.2 1.4.8 1.6 1.6.1.6.2 1.3.2 1.9v11.1c0 .7.2.9.9.9h3.1c.8 0 1-.2 1-1V91.7c.2-1.2.1-2.6-.1-3.9z"/>
	<path d="M111.3 83.8c-3 .1-5.2 1.6-6.6 4.3-.8 1.5-1.1 3.1-1.2 4.7-.2 2.9.2 5.6 1.8 8.1 2.7 4.2 8.6 4.6 11.9.9 1.9-2.2 2.6-4.8 2.6-7 0-2.8-.4-4.9-1.5-6.9-1.5-2.8-3.9-4.2-7-4.1zm2.8 14.1c-.1.5-.4 1.1-.7 1.5-.9 1.4-2.9 1.3-3.7-.1-.6-1-.8-2-.9-3.1-.1-.8-.1-1.7-.1-2.5h-.1c.2-1.3.3-2.7.5-4 .1-.4.3-.8.5-1.1.5-.9 1.3-1.2 2.3-1.1.9.1 1.6.6 1.8 1.4.3 1 .5 2 .6 3 .2 2.1.3 4.1-.2 6z"/>
	<path d="M92.4 109.3c-.2 0-.5.1-.7.2-3.4 1.4-7 2.5-10.6 3.3-6.6 1.4-13.3 1.7-20 .9-8-1-15.6-3.5-22.7-7.5-.2-.1-.3-.2-.5-.2s-.5.1-.6.2 0 .4 0 .6c0 .1.2.2.3.3 8.8 7.7 19.1 11.4 31 11.5 1.2-.1 2.7-.1 4.1-.3 1.4-.2 2.9-.4 4.3-.7 5.2-1 10.1-2.8 14.5-5.7.5-.3 1-.7 1.5-1.1.3-.3.5-.6.2-1 .1-.4-.3-.6-.8-.5z"/>
	<path d="M202.3 75.3v-.6h-3v9.4c-1.3-.1-2.5-.2-3.7-.2-3 .1-5.5 1.3-7.3 3.7-2.1 2.7-2.6 5.8-2.1 9 .4 2.5 1.6 4.7 3.8 6 3.9 2.4 7.9 2.1 12 .4.3-.1.3-.4.3-.7v-27zm-3.3 26.1c-2.8.7-5.5.5-7.8-1.5-1.3-1.1-1.9-2.7-2-4.4-.2-2.2.1-4.4 1.5-6.2 1.7-2.2 4.1-3 6.8-2.7 1.8.2 1.8.2 1.8 2v12.2c0 .3 0 .5-.3.6z"/>
	<path d="M100.9 98.8c-.7-.3-1.4-.7-2.2-.8-1.4-.3-2.9-.5-4.3-.7.1-.1.2-.2.3-.4 1.8-2.5 3.5-5 5.3-7.6 1.7-2.4 1.3-1.5 1.3-4.3v-.1c0-.6-.2-.8-.8-.8H89c-.6 0-.8.2-.8.9v2.2c0 .8.2 1 1 1H95c-.2.3-.3.4-.4.6-2.1 3.1-4.3 6.1-6.4 9.2-.3.4-.5 1-.6 1.5-.1 1-.1 2.1-.1 3.2 0 .6.5.8 1 .6 4-1.9 8.1-1.9 12.1 0 .7.3 1.1.1 1.1-.7v-2.5c0-.6-.2-1-.8-1.3z"/>
	<path d="M156.6 84.4h-3.4c-.3 0-.7.1-.9.3-1.9 1.7-3.7 3.5-5.5 5.3l-1.2 1.2h-.1V74.8h-3V104h3V93.9c.2.2.3.4.4.5 2.5 3.1 5.1 6.2 7.6 9.3.3.3.5.4.9.4h3.3c-3.3-3.9-6.5-7.7-9.7-11.6 2.9-2.8 5.7-5.4 8.6-8.1z"/>
	<path d="M228.3 86.9c-.7-1-1.5-1.8-2.6-2.3-3.2-1.5-7.6-.9-9.9 3.3-1.4 2.5-1.6 5.3-1.2 8.1.3 2.2 1.1 4.2 2.7 5.8 2.5 2.5 5.6 2.9 9 2.1 1.2-.3 2.4-.8 3.4-1.5-.3-.7-.6-1.4-.9-2-.9.4-1.8.8-2.6 1-3.5 1-6.5-.3-7.8-3.4-.5-1.1-.7-2.2-.6-3.4h12.4c.1-2.5-.5-5.7-1.9-7.7zm-1.5 5.2h-9.1c-.5-3.2 2.5-6.2 5.5-5.5.9.2 1.6.6 2.1 1.3 1 1 1.6 2.8 1.5 4.2z"/>
	<path d="M182.5 88.7c-.6-3.4-3.2-5.2-6.7-4.7-2 .3-3.6 1.2-5.2 2.3-.2.1-.3.2-.5.4-.2-.8-.3-1.6-.4-2.3h-2.4v19.4h3V90.3c0-.5.1-.8.5-1.1 1.4-1.1 2.9-2.1 4.7-2.5 2.2-.4 3.6.5 4.1 2.6.1.6.2 1.1.2 1.7v12.7h3V90.5c-.1-.5-.1-1.2-.3-1.8z"/>
	<path d="M211.7 101.6h-.7c-.7 0-1-.3-1.2-1-.1-.5-.1-1-.1-1.5V74.7h-3v25.8c0 .4 0 .8.1 1.2.2 1.3.9 2.2 2.1 2.5 1.2.3 2.4.2 3.5-.4.1-.1.2-.3.2-.4l-.3-1.8c-.2-.1-.4 0-.6 0z"/>
	<path d="M159.8 103.9h2.9V84.4h-2.9v19.5z"/>
	<path d="M97.6 105c-1.6-.4-3.2-.4-4.8-.2-1.7.2-3.4.7-4.8 1.7-.2.2-.3.5-.5.7.3.1.6.2.8.2 1.4-.1 2.9-.3 4.4-.4.7.1 1.6.1 2.4.3.7.1.9.5.9 1.2v.7c-.3 1.9-1 3.8-1.7 5.6-.1.3-.5.8-.1 1.1.4.3.8-.2 1.1-.5 2.4-2.4 3.5-5.4 3.7-8.7.1-1.1-.2-1.4-1.4-1.7z"/>
	<path d="M161.3 76.1c-1.2 0-2.1 1-2.1 2.1s.9 2.1 2.1 2.1c1.2 0 2.1-1 2.1-2.1-.1-1.2-1-2.1-2.1-2.1z"/>
	</g>
</svg>
</svg>
