<?xml version="1.0" encoding="utf-8"?>
<!-- Generator: Adobe Illustrator 19.1.0, SVG Export Plug-In . SVG Version: 6.00 Build 0)  -->
<svg version="1.1" id="Layer_1" xmlns="http://www.w3.org/2000/svg" xmlns:xlink="http://www.w3.org/1999/xlink" x="0px" y="0px"
	 viewBox="0 0 1400 720" style="enable-background:new 0 0 1400 720;" xml:space="preserve">
<style type="text/css">
	.st0{fill:#FFFFFF;}
</style>
<g>
	<g>
		<path class="st0" d="M705.8,325.4h-9.4l-20.5,28.3l-20.5-28.3h-9.4l25.2,34.8l-27.7,38.2h9.4l23-31.6l23,31.6h9.4l-27.7-38.2
			L705.8,325.4z M804.9,323.6c-20.3,0-34.4,15.7-34.4,38.2s14.1,38.2,34.4,38.2c20.1,0,34.2-15.7,34.2-38.2S825.2,323.6,804.9,323.6
			z M804.9,392.2c-15.3,0-26.2-12.5-26.2-30.4c0-17.9,10.8-30.4,26.2-30.4s26,12.5,26,30.4C831.1,379.7,820.3,392.2,804.9,392.2z
			 M869,360.2l25.2-34.8h-9.4l-20.5,28.3l-20.5-28.3h-9.4l25.2,34.8l-27.7,38.2h9.4l23-31.6l23,31.6h9.4L869,360.2z M760.8,362.9
			c-1.5-1.4-3.1-2.3-4.7-3c5.2-2.9,8.6-8.4,8.6-14.7c0-4.7-1.6-19.9-23.4-19.9h-29.2v31.5h-9.7c-1.2,1.6-4.1,5.6-5.2,7.3h14.9v34.2
			h29.2c15.9,0,25.6-8.2,25.6-21.4C767,371.3,764.8,366.5,760.8,362.9z M720.2,332.9h21.1c5.8,0,15.3,1.5,15.3,11.6
			c0,7.7-5.6,12.2-15.3,12.2h-21.1V332.9z M741.4,390.7h-21.1v-26.6h21.1c8.1,0,17.7,2.2,17.7,12.7
			C758.9,388.9,748,390.7,741.4,390.7z M545.7,334l0.1-0.1c0-0.1,0-0.1-0.1-0.1c-20.3-20.5-25.6-15.7-25.6-15.9l0,0
			c-11,11-17.8,26.3-17.8,43.3c0,13.8,4.5,26.6,12.2,36.8c0.1,0.1,0.3,0.1,0.3,0.1c0.1,0,0.1-0.1,0.1-0.3
			C510.4,383.3,533.7,348.5,545.7,334z M604.2,317.7c0.1,0-5.3-4.7-25.6,15.9l-0.1,0.1c0,0,0,0.1,0.1,0.1
			c12.1,14.5,35.3,49.3,30.8,63.7c0,0.1,0,0.3,0.1,0.3c0.1,0,0.3,0,0.3-0.1c7.7-10.3,12.2-23,12.2-36.8
			C622,344,615.1,328.8,604.2,317.7L604.2,317.7z M531.1,309.6c10.3-2.6,26.6,6,30.9,8.6h0.1h0.1c1.6-1,19.3-11.2,30.8-8.6
			c0.1,0,0.3,0,0.3-0.1s0-0.3-0.1-0.3c-9.2-5.5-19-8.9-31.2-8.9c-12.1,0-22,3.4-31.2,8.9c-0.1,0-0.1,0.1-0.1,0.3
			C530.8,309.6,530.9,309.6,531.1,309.6z M562.3,349.1l-0.1-0.1c0,0-0.1,0-0.1,0.1c-17.9,13.8-48.5,48.1-39.2,57.6l0,0
			c10.5,9.3,24.2,15.1,39.4,15.1c15.1,0,28.9-5.6,39.4-15.1C610.9,397,580.2,362.9,562.3,349.1z"/>
	</g>
</g>
</svg>
