<?xml version="1.0" encoding="utf-8"?>
<svg version="1.1" xmlns="http://www.w3.org/2000/svg" viewBox="0 0 300 300">
	<path fill="white" d="M155,131.5h-4.9l-10.6,14.7l-10.6-14.7H124l13.1,18l-14.4,19.8h4.9l11.9-16.4l11.9,16.4h4.9l-14.4-19.8L155,131.5z M206.3,130.6c-10.5,0-17.8,8.1-17.8,19.8c0,11.7,7.3,19.8,17.8,19.8c10.4,0,17.7-8.1,17.7-19.8C224.1,138.7,216.9,130.6,206.3,130.6z M206.3,166.2c-7.9,0-13.6-6.5-13.6-15.8s5.6-15.8,13.6-15.8c8,0,13.5,6.5,13.5,15.8C219.9,159.7,214.3,166.2,206.3,166.2z M239.6,149.6l13.1-18h-4.9l-10.6,14.7l-10.6-14.7h-4.9l13.1,18l-14.4,19.8h4.9l11.9-16.4l11.9,16.4h4.9L239.6,149.6z M183.5,151c-0.8-0.7-1.6-1.2-2.4-1.6c2.7-1.5,4.5-4.4,4.5-7.6c0-2.4-0.8-10.3-12.1-10.3h-15.1v16.3h-5c-0.6,0.8-2.1,2.9-2.7,3.8h7.7v17.7h15.1c8.2,0,13.3-4.3,13.3-11.1C186.7,155.3,185.6,152.8,183.5,151z M162.4,135.4h10.9c3,0,7.9,0.8,7.9,6c0,4-2.9,6.3-7.9,6.3h-10.9V135.4z M173.4,165.4h-10.9v-13.8h10.9c4.2,0,9.2,1.1,9.2,6.6C182.5,164.4,176.8,165.4,173.4,165.4z M72,136L72,136c0.1-0.1,0.1-0.1,0-0.1c-10.5-10.6-13.3-8.1-13.3-8.2l0,0c-5.7,5.7-9.2,13.6-9.2,22.4c0,7.2,2.3,13.8,6.3,19.1c0.1,0.1,0.2,0.1,0.2,0.1c0.1,0,0.1-0.1,0.1-0.2C53.7,161.5,65.8,143.5,72,136z M102.3,127.5c0.1,0-2.7-2.4-13.3,8.2l-0.1,0.1c0,0,0,0.1,0.1,0.1c6.3,7.5,18.3,25.6,16,33c0,0.1,0,0.2,0.1,0.2c0.1,0,0.2,0,0.2-0.1c4-5.3,6.3-11.9,6.3-19.1C111.5,141.2,108,133.3,102.3,127.5L102.3,127.5z M64.4,123.3c5.3-1.3,13.8,3.1,16,4.5h0.1h0.1c0.8-0.5,10-5.8,16-4.5c0.1,0,0.2,0,0.2-0.1c0-0.1,0-0.2-0.1-0.2c-4.8-2.9-9.8-4.6-16.2-4.6c-6.3,0-11.4,1.8-16.2,4.6c-0.1,0-0.1,0.1-0.1,0.2C64.3,123.3,64.3,123.3,64.4,123.3z M80.6,143.8L80.6,143.8c-0.1-0.1-0.1-0.1-0.1,0c-9.3,7.2-25.1,24.9-20.3,29.9l0,0c5.4,4.8,12.5,7.8,20.4,7.8c7.8,0,15-2.9,20.4-7.8C105.8,168.6,89.9,151,80.6,143.8z"/>
</svg>