<svg xmlns="http://www.w3.org/2000/svg" viewBox="0 0 330.445 170.086"><title>logo</title><path d="M90.656,164.254q-6.909,1.728-18.238,3.669a156.668,156.668,0,0,1-26.225,1.941q-12.949,0-21.8-3.774A35.138,35.138,0,0,1,10.148,155.4a43.341,43.341,0,0,1-7.771-16.3A84.876,84.876,0,0,1,0,118.282V55.259H20.078v58.7q0,20.508,6.476,29.354t21.8,8.852q3.236,0,6.69-.219t6.476-.539q3.02-.324,5.5-.646a16.154,16.154,0,0,0,3.561-.755V55.259H90.658v109Z" fill="#fff"/><path d="M139.649,60.222a54.179,54.179,0,0,1,11.114-4.963,52.1,52.1,0,0,1,17.159-2.591A50.9,50.9,0,0,1,189.4,56.983a44.63,44.63,0,0,1,15.862,12.088,53.274,53.274,0,0,1,9.821,18.562,79.919,79.919,0,0,1,3.346,23.739,70.924,70.924,0,0,1-3.992,24.5A51.529,51.529,0,0,1,203.1,154.323a49.917,49.917,0,0,1-17.7,11.656,62.946,62.946,0,0,1-23.312,4.1,141.287,141.287,0,0,1-24.82-1.941q-10.794-1.942-17.7-3.885V3.453L139.646,0V60.217Zm0,89.788a64.586,64.586,0,0,0,8.525,1.617,103.024,103.024,0,0,0,13.705.757q16.188,0,25.9-10.685t9.713-30.326a72.593,72.593,0,0,0-1.728-16.188,36.5,36.5,0,0,0-5.61-13.057,27.175,27.175,0,0,0-10.037-8.636,32.314,32.314,0,0,0-14.785-3.129,39.776,39.776,0,0,0-15.107,2.807A41.358,41.358,0,0,0,139.649,79V150.01Z" fill="#fff"/><path d="M330.445,164.254q-6.91,1.728-18.238,3.669a156.656,156.656,0,0,1-26.224,1.941q-12.953,0-21.8-3.774A35.138,35.138,0,0,1,249.938,155.4a43.341,43.341,0,0,1-7.771-16.3,84.851,84.851,0,0,1-2.375-20.828V55.259h20.073v58.7q0,20.508,6.475,29.354t21.8,8.852q3.236,0,6.69-.219t6.475-.539q3.021-.324,5.5-.646a16.139,16.139,0,0,0,3.562-.755V55.259H330.44v109Z" fill="#fff"/></svg>