<svg viewbox="0 0 648.142 170.074" xmlns="http://www.w3.org/2000/svg">
    <path d="M90.651,402.025q-6.909,1.728-18.238,3.669a156.669,156.669,0,0,1-26.225,1.941q-12.949,0-21.8-3.774a35.138,35.138,0,0,1-14.245-10.686,43.341,43.341,0,0,1-7.771-16.3A84.876,84.876,0,0,1,0,356.053V293.03H20.073v58.7q0,20.508,6.476,29.354t21.8,8.852q3.236,0,6.69-.219t6.476-.539q3.02-.324,5.5-.646a16.153,16.153,0,0,0,3.561-.755V293.03H90.653l0,109Z" fill="#fff" transform="translate(0 -237.776)">
    </path>
    <path d="M139.644,297.993a54.179,54.179,0,0,1,11.114-4.963,52.1,52.1,0,0,1,17.159-2.591,50.9,50.9,0,0,1,21.477,4.315,44.63,44.63,0,0,1,15.862,12.088,53.274,53.274,0,0,1,9.821,18.562,79.919,79.919,0,0,1,3.346,23.739,70.924,70.924,0,0,1-3.992,24.5A51.529,51.529,0,0,1,203.1,392.094a49.917,49.917,0,0,1-17.7,11.656,62.946,62.946,0,0,1-23.312,4.1,141.287,141.287,0,0,1-24.82-1.941q-10.794-1.942-17.7-3.885v-160.8l20.073-3.453v60.217Zm0,89.788a64.583,64.583,0,0,0,8.525,1.617,103.024,103.024,0,0,0,13.705.757q16.188,0,25.9-10.685t9.713-30.326a72.593,72.593,0,0,0-1.728-16.188,36.5,36.5,0,0,0-5.61-13.057,27.175,27.175,0,0,0-10.037-8.636,32.314,32.314,0,0,0-14.785-3.129,39.776,39.776,0,0,0-15.107,2.807,41.358,41.358,0,0,0-10.576,5.826v71.014Z" fill="#fff" transform="translate(0 -237.776)">
    </path>
    <path d="M330.44,402.025q-6.91,1.728-18.238,3.669a156.657,156.657,0,0,1-26.224,1.941q-12.953,0-21.8-3.774a35.138,35.138,0,0,1-14.245-10.686,43.341,43.341,0,0,1-7.771-16.3,84.851,84.851,0,0,1-2.375-20.828V293.03H259.86v58.7q0,20.508,6.475,29.354t21.8,8.852q3.236,0,6.69-.219t6.475-.539q3.021-.324,5.5-.646a16.138,16.138,0,0,0,3.562-.755V293.03h20.073v109Z" fill="#fff" transform="translate(0 -237.776)">
    </path>

</svg>